<?xml version="1.0" encoding="UTF-8" standalone="no"?>
<!DOCTYPE svg PUBLIC "-//W3C//DTD SVG 1.1//EN"
 "http://www.w3.org/Graphics/SVG/1.1/DTD/svg11.dtd">
<!-- Generated by graphviz version 2.40.1 (20161225.0304)
 -->
<!-- Title: twoDegreesRelationshipsDiagram Pages: 1 -->
<svg width="344pt" height="853pt"
 viewBox="0.00 0.00 344.00 852.70" xmlns="http://www.w3.org/2000/svg" xmlns:xlink="http://www.w3.org/1999/xlink">
<g id="graph0" class="graph" transform="scale(1 1) rotate(0) translate(4 848.7)">
<title>twoDegreesRelationshipsDiagram</title>
<polygon fill="#ffffff" stroke="transparent" points="-4,4 -4,-848.7 340,-848.7 340,4 -4,4"/>
<text text-anchor="middle" x="72.4936" y="-7.3" font-family="Helvetica,sans-Serif" font-size="11.00" fill="#000000">Generated by SchemaSpy</text>
<!-- caract -->
<g id="node1" class="node">
<title>caract</title>
<g id="a_node1"><a xlink:href="../../tables/caract.html" xlink:title="caract" target="_top">
<polygon fill="#ffffff" stroke="transparent" points="142,-530.7 142,-840.7 328,-840.7 328,-530.7 142,-530.7"/>
<polygon fill="#f5f5f5" stroke="transparent" points="144,-815.7 144,-838.7 326,-838.7 326,-815.7 144,-815.7"/>
<polygon fill="none" stroke="#000000" points="144,-815.7 144,-838.7 326,-838.7 326,-815.7 144,-815.7"/>
<text text-anchor="start" x="149" y="-824.8" font-family="Helvetica,sans-Serif" font-weight="bold" font-size="11.00" fill="#000000">caract</text>
<text text-anchor="start" x="291.0437" y="-823.8" font-family="Helvetica,sans-Serif" font-size="11.00" fill="#000000">[table]</text>
<polygon fill="none" stroke="#000000" points="144,-793.7 144,-815.7 236,-815.7 236,-793.7 144,-793.7"/>
<image xlink:href="../../images/primaryKeys.png" width="11px" height="12px" preserveAspectRatio="xMinYMin meet" x="149" y="-810.7"/>
<text text-anchor="start" x="164" y="-800.8" font-family="Helvetica,sans-Serif" font-size="11.00" fill="#000000">id</text>
<polygon fill="none" stroke="#000000" points="236,-793.7 236,-815.7 326,-815.7 326,-793.7 236,-793.7"/>
<text text-anchor="start" x="239" y="-801.4" font-family="Helvetica,sans-Serif" font-size="11.00" fill="#000000">serial[10]</text>
<polygon fill="none" stroke="#000000" points="144,-771.7 144,-793.7 236,-793.7 236,-771.7 144,-771.7"/>
<text text-anchor="start" x="164" y="-778.8" font-family="Helvetica,sans-Serif" font-size="11.00" fill="#000000">designacao</text>
<polygon fill="none" stroke="#000000" points="236,-771.7 236,-793.7 326,-793.7 326,-771.7 236,-771.7"/>
<text text-anchor="start" x="238.5043" y="-779.4" font-family="Helvetica,sans-Serif" font-size="11.00" fill="#000000">text[2147483647]</text>
<polygon fill="none" stroke="#000000" points="144,-749.7 144,-771.7 236,-771.7 236,-749.7 144,-749.7"/>
<text text-anchor="start" x="164" y="-756.8" font-family="Helvetica,sans-Serif" font-size="11.00" fill="#000000">extensao</text>
<polygon fill="none" stroke="#000000" points="236,-749.7 236,-771.7 326,-771.7 326,-749.7 236,-749.7"/>
<text text-anchor="start" x="239" y="-757.4" font-family="Helvetica,sans-Serif" font-size="11.00" fill="#000000">float8[17,17]</text>
<polygon fill="none" stroke="#000000" points="144,-727.7 144,-749.7 236,-749.7 236,-727.7 144,-727.7"/>
<text text-anchor="start" x="164" y="-734.8" font-family="Helvetica,sans-Serif" font-size="11.00" fill="#000000">largura_m</text>
<polygon fill="none" stroke="#000000" points="236,-727.7 236,-749.7 326,-749.7 326,-727.7 236,-727.7"/>
<text text-anchor="start" x="239" y="-735.4" font-family="Helvetica,sans-Serif" font-size="11.00" fill="#000000">numeric[2,2]</text>
<polygon fill="none" stroke="#000000" points="144,-705.7 144,-727.7 236,-727.7 236,-705.7 144,-705.7"/>
<text text-anchor="start" x="164" y="-712.8" font-family="Helvetica,sans-Serif" font-size="11.00" fill="#000000">t_horizontal</text>
<polygon fill="none" stroke="#000000" points="236,-705.7 236,-727.7 326,-727.7 326,-705.7 236,-705.7"/>
<text text-anchor="start" x="239" y="-713.4" font-family="Helvetica,sans-Serif" font-size="11.00" fill="#000000">varchar[12]</text>
<polygon fill="none" stroke="#000000" points="144,-683.7 144,-705.7 236,-705.7 236,-683.7 144,-683.7"/>
<text text-anchor="start" x="164" y="-690.8" font-family="Helvetica,sans-Serif" font-size="11.00" fill="#000000">t_vertical</text>
<polygon fill="none" stroke="#000000" points="236,-683.7 236,-705.7 326,-705.7 326,-683.7 236,-683.7"/>
<text text-anchor="start" x="239" y="-691.4" font-family="Helvetica,sans-Serif" font-size="11.00" fill="#000000">varchar[12]</text>
<polygon fill="none" stroke="#000000" points="144,-661.7 144,-683.7 236,-683.7 236,-661.7 144,-661.7"/>
<text text-anchor="start" x="164" y="-668.8" font-family="Helvetica,sans-Serif" font-size="11.00" fill="#000000">sinal_vert</text>
<polygon fill="none" stroke="#000000" points="236,-661.7 236,-683.7 326,-683.7 326,-661.7 236,-661.7"/>
<text text-anchor="start" x="239" y="-669.4" font-family="Helvetica,sans-Serif" font-size="11.00" fill="#000000">bool[1]</text>
<polygon fill="none" stroke="#000000" points="144,-639.7 144,-661.7 236,-661.7 236,-639.7 144,-639.7"/>
<text text-anchor="start" x="164" y="-646.8" font-family="Helvetica,sans-Serif" font-size="11.00" fill="#000000">sinal_horiz</text>
<polygon fill="none" stroke="#000000" points="236,-639.7 236,-661.7 326,-661.7 326,-639.7 236,-639.7"/>
<text text-anchor="start" x="239" y="-647.4" font-family="Helvetica,sans-Serif" font-size="11.00" fill="#000000">bool[1]</text>
<polygon fill="none" stroke="#000000" points="144,-617.7 144,-639.7 236,-639.7 236,-617.7 144,-617.7"/>
<text text-anchor="start" x="164" y="-624.8" font-family="Helvetica,sans-Serif" font-size="11.00" fill="#000000">berma_larg</text>
<polygon fill="none" stroke="#000000" points="236,-617.7 236,-639.7 326,-639.7 326,-617.7 236,-617.7"/>
<text text-anchor="start" x="239" y="-625.4" font-family="Helvetica,sans-Serif" font-size="11.00" fill="#000000">numeric[2,2]</text>
<polygon fill="none" stroke="#000000" points="144,-595.7 144,-617.7 236,-617.7 236,-595.7 144,-595.7"/>
<text text-anchor="start" x="164" y="-602.8" font-family="Helvetica,sans-Serif" font-size="11.00" fill="#000000">ilumi_nos</text>
<polygon fill="none" stroke="#000000" points="236,-595.7 236,-617.7 326,-617.7 326,-595.7 236,-595.7"/>
<text text-anchor="start" x="239" y="-603.4" font-family="Helvetica,sans-Serif" font-size="11.00" fill="#000000">bool[1]</text>
<polygon fill="none" stroke="#000000" points="144,-573.7 144,-595.7 236,-595.7 236,-573.7 144,-573.7"/>
<text text-anchor="start" x="164" y="-580.8" font-family="Helvetica,sans-Serif" font-size="11.00" fill="#000000">obs</text>
<polygon fill="none" stroke="#000000" points="236,-573.7 236,-595.7 326,-595.7 326,-573.7 236,-573.7"/>
<text text-anchor="start" x="238.5043" y="-581.4" font-family="Helvetica,sans-Serif" font-size="11.00" fill="#000000">text[2147483647]</text>
<polygon fill="#ffffff" stroke="transparent" points="144,-551.7 144,-573.7 236,-573.7 236,-551.7 144,-551.7"/>
<polygon fill="none" stroke="#000000" points="144,-551.7 144,-573.7 236,-573.7 236,-551.7 144,-551.7"/>
<image xlink:href="../../images/foreignKeys.png" width="11px" height="12px" preserveAspectRatio="xMinYMin meet" x="149" y="-568.7"/>
<text text-anchor="start" x="164" y="-558.8" font-family="Helvetica,sans-Serif" font-size="11.00" fill="#000000">id_estradas</text>
<polygon fill="none" stroke="#000000" points="236,-551.7 236,-573.7 326,-573.7 326,-551.7 236,-551.7"/>
<text text-anchor="start" x="239" y="-559.4" font-family="Helvetica,sans-Serif" font-size="11.00" fill="#000000">int4[10]</text>
<polygon fill="#ffffff" stroke="transparent" points="144,-532.7 144,-551.7 181,-551.7 181,-532.7 144,-532.7"/>
<polygon fill="none" stroke="#000000" points="144,-532.7 144,-551.7 181,-551.7 181,-532.7 144,-532.7"/>
<text text-anchor="start" x="147" y="-538.8" font-family="Helvetica,sans-Serif" font-size="11.00" fill="#000000">&lt; 1</text>
<polygon fill="#ffffff" stroke="transparent" points="181,-532.7 181,-551.7 236,-551.7 236,-532.7 181,-532.7"/>
<polygon fill="none" stroke="#000000" points="181,-532.7 181,-551.7 236,-551.7 236,-532.7 181,-532.7"/>
<text text-anchor="start" x="200.6105" y="-538.8" font-family="Helvetica,sans-Serif" font-size="11.00" fill="#000000">0 rows</text>
<polygon fill="#ffffff" stroke="transparent" points="236,-532.7 236,-551.7 326,-551.7 326,-532.7 236,-532.7"/>
<polygon fill="none" stroke="#000000" points="236,-532.7 236,-551.7 326,-551.7 326,-532.7 236,-532.7"/>
<text text-anchor="start" x="307.4053" y="-538.8" font-family="Helvetica,sans-Serif" font-size="11.00" fill="#000000">0 &gt;</text>
<polygon fill="none" stroke="#000000" stroke-width="2" points="143,-531.7 143,-839.7 327,-839.7 327,-531.7 143,-531.7"/>
</a>
</g>
</g>
<!-- estradas -->
<g id="node2" class="node">
<title>estradas</title>
<g id="a_node2"><a xlink:href="../../tables/estradas.html" xlink:title="estradas" target="_top">
<polygon fill="#ffffff" stroke="transparent" points="8,-263.2 8,-346.2 93,-346.2 93,-263.2 8,-263.2"/>
<polygon fill="#f5f5f5" stroke="transparent" points="8.5,-322.7 8.5,-345.7 93.5,-345.7 93.5,-322.7 8.5,-322.7"/>
<polygon fill="none" stroke="#000000" points="8.5,-322.7 8.5,-345.7 93.5,-345.7 93.5,-322.7 8.5,-322.7"/>
<text text-anchor="start" x="13.4108" y="-331.8" font-family="Helvetica,sans-Serif" font-weight="bold" font-size="11.00" fill="#000000">estradas</text>
<text text-anchor="start" x="59.0219" y="-330.8" font-family="Helvetica,sans-Serif" font-size="11.00" fill="#000000">[table]</text>
<polygon fill="none" stroke="#000000" points="8.5,-300.7 8.5,-322.7 93.5,-322.7 93.5,-300.7 8.5,-300.7"/>
<image xlink:href="../../images/primaryKeys.png" width="11px" height="12px" preserveAspectRatio="xMinYMin meet" x="13.5" y="-317.7"/>
<text text-anchor="start" x="35.5" y="-307.8" font-family="Helvetica,sans-Serif" font-size="11.00" fill="#000000">id</text>
<polygon fill="none" stroke="#000000" points="8.5,-281.7 8.5,-300.7 93.5,-300.7 93.5,-281.7 8.5,-281.7"/>
<text text-anchor="start" x="11.5" y="-287.8" font-family="Helvetica,sans-Serif" font-size="11.00" fill="#000000">...</text>
<polygon fill="#ffffff" stroke="transparent" points="8.5,-262.7 8.5,-281.7 27.5,-281.7 27.5,-262.7 8.5,-262.7"/>
<polygon fill="none" stroke="#000000" points="8.5,-262.7 8.5,-281.7 27.5,-281.7 27.5,-262.7 8.5,-262.7"/>
<text text-anchor="start" x="11.5" y="-268.8" font-family="Helvetica,sans-Serif" font-size="11.00" fill="#000000"> &#160;</text>
<polygon fill="#ffffff" stroke="transparent" points="27.5,-262.7 27.5,-281.7 68.5,-281.7 68.5,-262.7 27.5,-262.7"/>
<polygon fill="none" stroke="#000000" points="27.5,-262.7 27.5,-281.7 68.5,-281.7 68.5,-262.7 27.5,-262.7"/>
<text text-anchor="start" x="33.1105" y="-268.8" font-family="Helvetica,sans-Serif" font-size="11.00" fill="#000000">0 rows</text>
<polygon fill="#ffffff" stroke="transparent" points="68.5,-262.7 68.5,-281.7 93.5,-281.7 93.5,-262.7 68.5,-262.7"/>
<polygon fill="none" stroke="#000000" points="68.5,-262.7 68.5,-281.7 93.5,-281.7 93.5,-262.7 68.5,-262.7"/>
<text text-anchor="start" x="74.9053" y="-268.8" font-family="Helvetica,sans-Serif" font-size="11.00" fill="#000000">7 &gt;</text>
</a>
</g>
</g>
<!-- caract&#45;&gt;estradas -->
<g id="edge1" class="edge">
<title>caract:w&#45;&gt;estradas:e</title>
<path fill="none" stroke="#000000" d="M133.6061,-561.8882C41.6477,-546.3087 203.5128,-311.7 93.5,-311.7"/>
<polygon fill="#000000" stroke="#000000" points="143.5139,-558.6498 142.8909,-566.6256 141.2958,-566.501 141.9188,-558.5253 143.5139,-558.6498"/>
<polyline fill="none" stroke="#000000" points="144,-562.7 140.0121,-562.3885 "/>
<ellipse fill="none" stroke="#000000" cx="136.8219" cy="-562.1393" rx="3.2" ry="3.2"/>
</g>
<!-- lrs_line -->
<g id="node3" class="node">
<title>lrs_line</title>
<g id="a_node3"><a xlink:href="../../tables/lrs_line.html" xlink:title="lrs_line" target="_top">
<polygon fill="#ffffff" stroke="transparent" points="196.5,-448.2 196.5,-509.2 273.5,-509.2 273.5,-448.2 196.5,-448.2"/>
<polygon fill="#f5f5f5" stroke="transparent" points="197,-485.7 197,-508.7 274,-508.7 274,-485.7 197,-485.7"/>
<polygon fill="none" stroke="#000000" points="197,-485.7 197,-508.7 274,-508.7 274,-485.7 197,-485.7"/>
<text text-anchor="start" x="201.5854" y="-494.8" font-family="Helvetica,sans-Serif" font-weight="bold" font-size="11.00" fill="#000000">lrs_line</text>
<text text-anchor="start" x="239.5219" y="-493.8" font-family="Helvetica,sans-Serif" font-size="11.00" fill="#000000">[table]</text>
<polygon fill="none" stroke="#000000" points="197,-466.7 197,-485.7 274,-485.7 274,-466.7 197,-466.7"/>
<text text-anchor="start" x="200" y="-472.8" font-family="Helvetica,sans-Serif" font-size="11.00" fill="#000000">...</text>
<polygon fill="#ffffff" stroke="transparent" points="197,-447.7 197,-466.7 221,-466.7 221,-447.7 197,-447.7"/>
<polygon fill="none" stroke="#000000" points="197,-447.7 197,-466.7 221,-466.7 221,-447.7 197,-447.7"/>
<text text-anchor="start" x="200" y="-453.8" font-family="Helvetica,sans-Serif" font-size="11.00" fill="#000000">&lt; 4</text>
<polygon fill="#ffffff" stroke="transparent" points="221,-447.7 221,-466.7 260,-466.7 260,-447.7 221,-447.7"/>
<polygon fill="none" stroke="#000000" points="221,-447.7 221,-466.7 260,-466.7 260,-447.7 221,-447.7"/>
<text text-anchor="start" x="224.6105" y="-453.8" font-family="Helvetica,sans-Serif" font-size="11.00" fill="#000000">0 rows</text>
<polygon fill="#ffffff" stroke="transparent" points="260,-447.7 260,-466.7 274,-466.7 274,-447.7 260,-447.7"/>
<polygon fill="none" stroke="#000000" points="260,-447.7 260,-466.7 274,-466.7 274,-447.7 260,-447.7"/>
<text text-anchor="start" x="264.8862" y="-453.8" font-family="Helvetica,sans-Serif" font-size="11.00" fill="#000000"> &#160;</text>
</a>
</g>
</g>
<!-- lrs_line&#45;&gt;estradas -->
<g id="edge2" class="edge">
<title>lrs_line:w&#45;&gt;estradas:e</title>
<path fill="none" stroke="#000000" d="M182.5926,-474.6979C160.7403,-471.2869 150.9641,-459.1334 134,-437.7 97.4945,-391.5768 152.3218,-311.7 93.5,-311.7"/>
<polygon fill="#000000" stroke="#000000" points="189.0193,-475.1448 196.7502,-479.2913 193.0096,-475.4224 197,-475.7 197,-475.7 197,-475.7 193.0096,-475.4224 197.2498,-472.1087 189.0193,-475.1448 189.0193,-475.1448"/>
<ellipse fill="none" stroke="#000000" cx="185.827" cy="-474.9228" rx="3.2" ry="3.2"/>
</g>
<!-- lrs_node -->
<g id="node4" class="node">
<title>lrs_node</title>
<g id="a_node4"><a xlink:href="../../tables/lrs_node.html" xlink:title="lrs_node" target="_top">
<polygon fill="#ffffff" stroke="transparent" points="192.5,-366.2 192.5,-427.2 277.5,-427.2 277.5,-366.2 192.5,-366.2"/>
<polygon fill="#f5f5f5" stroke="transparent" points="193,-403.7 193,-426.7 278,-426.7 278,-403.7 193,-403.7"/>
<polygon fill="none" stroke="#000000" points="193,-403.7 193,-426.7 278,-426.7 278,-403.7 193,-403.7"/>
<text text-anchor="start" x="197.9114" y="-412.8" font-family="Helvetica,sans-Serif" font-weight="bold" font-size="11.00" fill="#000000">lrs_node</text>
<text text-anchor="start" x="243.5219" y="-411.8" font-family="Helvetica,sans-Serif" font-size="11.00" fill="#000000">[table]</text>
<polygon fill="none" stroke="#000000" points="193,-384.7 193,-403.7 278,-403.7 278,-384.7 193,-384.7"/>
<text text-anchor="start" x="196" y="-390.8" font-family="Helvetica,sans-Serif" font-size="11.00" fill="#000000">...</text>
<polygon fill="#ffffff" stroke="transparent" points="193,-365.7 193,-384.7 221,-384.7 221,-365.7 193,-365.7"/>
<polygon fill="none" stroke="#000000" points="193,-365.7 193,-384.7 221,-384.7 221,-365.7 193,-365.7"/>
<text text-anchor="start" x="196" y="-371.8" font-family="Helvetica,sans-Serif" font-size="11.00" fill="#000000">&lt; 4</text>
<polygon fill="#ffffff" stroke="transparent" points="221,-365.7 221,-384.7 262,-384.7 262,-365.7 221,-365.7"/>
<polygon fill="none" stroke="#000000" points="221,-365.7 221,-384.7 262,-384.7 262,-365.7 221,-365.7"/>
<text text-anchor="start" x="226.6105" y="-371.8" font-family="Helvetica,sans-Serif" font-size="11.00" fill="#000000">0 rows</text>
<polygon fill="#ffffff" stroke="transparent" points="262,-365.7 262,-384.7 278,-384.7 278,-365.7 262,-365.7"/>
<polygon fill="none" stroke="#000000" points="262,-365.7 262,-384.7 278,-384.7 278,-365.7 262,-365.7"/>
<text text-anchor="start" x="268.8862" y="-371.8" font-family="Helvetica,sans-Serif" font-size="11.00" fill="#000000"> &#160;</text>
</a>
</g>
</g>
<!-- lrs_node&#45;&gt;estradas -->
<g id="edge3" class="edge">
<title>lrs_node:w&#45;&gt;estradas:e</title>
<path fill="none" stroke="#000000" d="M178.552,-392.0558C159.7491,-387.1906 153.5775,-372.173 134,-355.7 113.6629,-338.5879 120.0786,-311.7 93.5,-311.7"/>
<polygon fill="#000000" stroke="#000000" points="185.0513,-392.7954 192.5929,-397.2769 189.0257,-393.2477 193,-393.7 193,-393.7 193,-393.7 189.0257,-393.2477 193.4071,-390.1231 185.0513,-392.7954 185.0513,-392.7954"/>
<ellipse fill="none" stroke="#000000" cx="181.8718" cy="-392.4335" rx="3.2" ry="3.2"/>
</g>
<!-- patologias -->
<g id="node5" class="node">
<title>patologias</title>
<g id="a_node5"><a xlink:href="../../tables/patologias.html" xlink:title="patologias" target="_top">
<polygon fill="#ffffff" stroke="transparent" points="188.5,-284.2 188.5,-345.2 281.5,-345.2 281.5,-284.2 188.5,-284.2"/>
<polygon fill="#f5f5f5" stroke="transparent" points="189,-321.7 189,-344.7 282,-344.7 282,-321.7 189,-321.7"/>
<polygon fill="none" stroke="#000000" points="189,-321.7 189,-344.7 282,-344.7 282,-321.7 189,-321.7"/>
<text text-anchor="start" x="193.936" y="-330.8" font-family="Helvetica,sans-Serif" font-weight="bold" font-size="11.00" fill="#000000">patologias</text>
<text text-anchor="start" x="247.5219" y="-329.8" font-family="Helvetica,sans-Serif" font-size="11.00" fill="#000000">[table]</text>
<polygon fill="none" stroke="#000000" points="189,-302.7 189,-321.7 282,-321.7 282,-302.7 189,-302.7"/>
<text text-anchor="start" x="192" y="-308.8" font-family="Helvetica,sans-Serif" font-size="11.00" fill="#000000">...</text>
<polygon fill="#ffffff" stroke="transparent" points="189,-283.7 189,-302.7 221,-302.7 221,-283.7 189,-283.7"/>
<polygon fill="none" stroke="#000000" points="189,-283.7 189,-302.7 221,-302.7 221,-283.7 189,-283.7"/>
<text text-anchor="start" x="192" y="-289.8" font-family="Helvetica,sans-Serif" font-size="11.00" fill="#000000">&lt; 2</text>
<polygon fill="#ffffff" stroke="transparent" points="221,-283.7 221,-302.7 264,-302.7 264,-283.7 221,-283.7"/>
<polygon fill="none" stroke="#000000" points="221,-283.7 221,-302.7 264,-302.7 264,-283.7 221,-283.7"/>
<text text-anchor="start" x="228.6105" y="-289.8" font-family="Helvetica,sans-Serif" font-size="11.00" fill="#000000">0 rows</text>
<polygon fill="#ffffff" stroke="transparent" points="264,-283.7 264,-302.7 282,-302.7 282,-283.7 264,-283.7"/>
<polygon fill="none" stroke="#000000" points="264,-283.7 264,-302.7 282,-302.7 282,-283.7 264,-283.7"/>
<text text-anchor="start" x="272.8862" y="-289.8" font-family="Helvetica,sans-Serif" font-size="11.00" fill="#000000"> &#160;</text>
</a>
</g>
</g>
<!-- patologias&#45;&gt;estradas -->
<g id="edge4" class="edge">
<title>patologias:w&#45;&gt;estradas:e</title>
<path fill="none" stroke="#000000" d="M174.4512,-311.7C143.4054,-311.7 130.6389,-311.7 93.5,-311.7"/>
<polygon fill="#000000" stroke="#000000" points="181,-311.7001 189,-315.3 185,-311.7 189,-311.7 189,-311.7 189,-311.7 185,-311.7 189,-308.1 181,-311.7001 181,-311.7001"/>
<ellipse fill="none" stroke="#000000" cx="177.8" cy="-311.7001" rx="3.2" ry="3.2"/>
</g>
<!-- rails -->
<g id="node6" class="node">
<title>rails</title>
<g id="a_node6"><a xlink:href="../../tables/rails.html" xlink:title="rails" target="_top">
<polygon fill="#ffffff" stroke="transparent" points="199.5,-202.2 199.5,-263.2 270.5,-263.2 270.5,-202.2 199.5,-202.2"/>
<polygon fill="#f5f5f5" stroke="transparent" points="200,-239.7 200,-262.7 271,-262.7 271,-239.7 200,-239.7"/>
<polygon fill="none" stroke="#000000" points="200,-239.7 200,-262.7 271,-262.7 271,-239.7 200,-239.7"/>
<text text-anchor="start" x="205" y="-248.8" font-family="Helvetica,sans-Serif" font-weight="bold" font-size="11.00" fill="#000000">rails</text>
<text text-anchor="start" x="236.0437" y="-247.8" font-family="Helvetica,sans-Serif" font-size="11.00" fill="#000000">[table]</text>
<polygon fill="none" stroke="#000000" points="200,-220.7 200,-239.7 271,-239.7 271,-220.7 200,-220.7"/>
<text text-anchor="start" x="203" y="-226.8" font-family="Helvetica,sans-Serif" font-size="11.00" fill="#000000">...</text>
<polygon fill="#ffffff" stroke="transparent" points="200,-201.7 200,-220.7 221,-220.7 221,-201.7 200,-201.7"/>
<polygon fill="none" stroke="#000000" points="200,-201.7 200,-220.7 221,-220.7 221,-201.7 200,-201.7"/>
<text text-anchor="start" x="202.7027" y="-207.8" font-family="Helvetica,sans-Serif" font-size="11.00" fill="#000000">&lt; 3</text>
<polygon fill="#ffffff" stroke="transparent" points="221,-201.7 221,-220.7 259,-220.7 259,-201.7 221,-201.7"/>
<polygon fill="none" stroke="#000000" points="221,-201.7 221,-220.7 259,-220.7 259,-201.7 221,-201.7"/>
<text text-anchor="start" x="223.8053" y="-207.8" font-family="Helvetica,sans-Serif" font-size="11.00" fill="#000000">0 rows</text>
<polygon fill="#ffffff" stroke="transparent" points="259,-201.7 259,-220.7 271,-220.7 271,-201.7 259,-201.7"/>
<polygon fill="none" stroke="#000000" points="259,-201.7 259,-220.7 271,-220.7 271,-201.7 259,-201.7"/>
<text text-anchor="start" x="261.9431" y="-207.8" font-family="Helvetica,sans-Serif" font-size="11.00" fill="#000000"> &#160;</text>
</a>
</g>
</g>
<!-- rails&#45;&gt;estradas -->
<g id="edge5" class="edge">
<title>rails:w&#45;&gt;estradas:e</title>
<path fill="none" stroke="#000000" d="M185.6115,-231.2327C163.1699,-236.5977 157.3009,-255.21 134,-273.7 114.6652,-289.0427 118.1827,-311.7 93.5,-311.7"/>
<polygon fill="#000000" stroke="#000000" points="192.045,-230.5474 200.3813,-233.2797 196.0225,-230.1237 200,-229.7 200,-229.7 200,-229.7 196.0225,-230.1237 199.6187,-226.1203 192.045,-230.5474 192.045,-230.5474"/>
<ellipse fill="none" stroke="#000000" cx="188.863" cy="-230.8864" rx="3.2" ry="3.2"/>
</g>
<!-- trocos -->
<g id="node7" class="node">
<title>trocos</title>
<g id="a_node7"><a xlink:href="../../tables/trocos.html" xlink:title="trocos" target="_top">
<polygon fill="#ffffff" stroke="transparent" points="195,-120.2 195,-181.2 275,-181.2 275,-120.2 195,-120.2"/>
<polygon fill="#f5f5f5" stroke="transparent" points="195,-157.7 195,-180.7 275,-180.7 275,-157.7 195,-157.7"/>
<polygon fill="none" stroke="#000000" points="195,-157.7 195,-180.7 275,-180.7 275,-157.7 195,-157.7"/>
<text text-anchor="start" x="200" y="-166.8" font-family="Helvetica,sans-Serif" font-weight="bold" font-size="11.00" fill="#000000">trocos</text>
<text text-anchor="start" x="240.0437" y="-165.8" font-family="Helvetica,sans-Serif" font-size="11.00" fill="#000000">[table]</text>
<polygon fill="none" stroke="#000000" points="195,-138.7 195,-157.7 275,-157.7 275,-138.7 195,-138.7"/>
<text text-anchor="start" x="198" y="-144.8" font-family="Helvetica,sans-Serif" font-size="11.00" fill="#000000">...</text>
<polygon fill="#ffffff" stroke="transparent" points="195,-119.7 195,-138.7 216,-138.7 216,-119.7 195,-119.7"/>
<polygon fill="none" stroke="#000000" points="195,-119.7 195,-138.7 216,-138.7 216,-119.7 195,-119.7"/>
<text text-anchor="start" x="197.7027" y="-125.8" font-family="Helvetica,sans-Serif" font-size="11.00" fill="#000000">&lt; 2</text>
<polygon fill="#ffffff" stroke="transparent" points="216,-119.7 216,-138.7 254,-138.7 254,-119.7 216,-119.7"/>
<polygon fill="none" stroke="#000000" points="216,-119.7 216,-138.7 254,-138.7 254,-119.7 216,-119.7"/>
<text text-anchor="start" x="218.8053" y="-125.8" font-family="Helvetica,sans-Serif" font-size="11.00" fill="#000000">0 rows</text>
<polygon fill="#ffffff" stroke="transparent" points="254,-119.7 254,-138.7 275,-138.7 275,-119.7 254,-119.7"/>
<polygon fill="none" stroke="#000000" points="254,-119.7 254,-138.7 275,-138.7 275,-119.7 254,-119.7"/>
<text text-anchor="start" x="256.7027" y="-125.8" font-family="Helvetica,sans-Serif" font-size="11.00" fill="#000000">1 &gt;</text>
</a>
</g>
</g>
<!-- trocos&#45;&gt;estradas -->
<g id="edge6" class="edge">
<title>trocos:w&#45;&gt;estradas:e</title>
<path fill="none" stroke="#000000" d="M180.4557,-149.0487C158.7111,-153.5753 150.5914,-169.215 134,-191.7 100.5788,-236.9931 149.7889,-311.7 93.5,-311.7"/>
<polygon fill="#000000" stroke="#000000" points="187.0342,-148.4387 195.3324,-151.2846 191.0171,-148.0694 195,-147.7 195,-147.7 195,-147.7 191.0171,-148.0694 194.6676,-144.1154 187.0342,-148.4387 187.0342,-148.4387"/>
<ellipse fill="none" stroke="#000000" cx="183.8478" cy="-148.7342" rx="3.2" ry="3.2"/>
</g>
<!-- valetas -->
<g id="node8" class="node">
<title>valetas</title>
<g id="a_node8"><a xlink:href="../../tables/valetas.html" xlink:title="valetas" target="_top">
<polygon fill="#ffffff" stroke="transparent" points="196.5,-38.2 196.5,-99.2 273.5,-99.2 273.5,-38.2 196.5,-38.2"/>
<polygon fill="#f5f5f5" stroke="transparent" points="197,-75.7 197,-98.7 274,-98.7 274,-75.7 197,-75.7"/>
<polygon fill="none" stroke="#000000" points="197,-75.7 197,-98.7 274,-98.7 274,-75.7 197,-75.7"/>
<text text-anchor="start" x="201.5788" y="-84.8" font-family="Helvetica,sans-Serif" font-weight="bold" font-size="11.00" fill="#000000">valetas</text>
<text text-anchor="start" x="239.5219" y="-83.8" font-family="Helvetica,sans-Serif" font-size="11.00" fill="#000000">[table]</text>
<polygon fill="none" stroke="#000000" points="197,-56.7 197,-75.7 274,-75.7 274,-56.7 197,-56.7"/>
<text text-anchor="start" x="200" y="-62.8" font-family="Helvetica,sans-Serif" font-size="11.00" fill="#000000">...</text>
<polygon fill="#ffffff" stroke="transparent" points="197,-37.7 197,-56.7 221,-56.7 221,-37.7 197,-37.7"/>
<polygon fill="none" stroke="#000000" points="197,-37.7 197,-56.7 221,-56.7 221,-37.7 197,-37.7"/>
<text text-anchor="start" x="200" y="-43.8" font-family="Helvetica,sans-Serif" font-size="11.00" fill="#000000">&lt; 4</text>
<polygon fill="#ffffff" stroke="transparent" points="221,-37.7 221,-56.7 260,-56.7 260,-37.7 221,-37.7"/>
<polygon fill="none" stroke="#000000" points="221,-37.7 221,-56.7 260,-56.7 260,-37.7 221,-37.7"/>
<text text-anchor="start" x="224.6105" y="-43.8" font-family="Helvetica,sans-Serif" font-size="11.00" fill="#000000">0 rows</text>
<polygon fill="#ffffff" stroke="transparent" points="260,-37.7 260,-56.7 274,-56.7 274,-37.7 260,-37.7"/>
<polygon fill="none" stroke="#000000" points="260,-37.7 260,-56.7 274,-56.7 274,-37.7 260,-37.7"/>
<text text-anchor="start" x="264.8862" y="-43.8" font-family="Helvetica,sans-Serif" font-size="11.00" fill="#000000"> &#160;</text>
</a>
</g>
</g>
<!-- valetas&#45;&gt;estradas -->
<g id="edge7" class="edge">
<title>valetas:w&#45;&gt;estradas:e</title>
<path fill="none" stroke="#000000" d="M182.625,-66.821C159.468,-70.8409 149.7802,-85.5882 134,-109.7 83.8585,-186.3151 185.0645,-311.7 93.5,-311.7"/>
<polygon fill="#000000" stroke="#000000" points="189.0242,-66.322 197.2799,-69.2891 193.0121,-66.011 197,-65.7 197,-65.7 197,-65.7 193.0121,-66.011 196.7201,-62.1109 189.0242,-66.322 189.0242,-66.322"/>
<ellipse fill="none" stroke="#000000" cx="185.8339" cy="-66.5708" rx="3.2" ry="3.2"/>
</g>
</g>
</svg>
