<?xml version="1.0" encoding="UTF-8" standalone="no"?>
<!DOCTYPE svg PUBLIC "-//W3C//DTD SVG 1.1//EN"
 "http://www.w3.org/Graphics/SVG/1.1/DTD/svg11.dtd">
<!-- Generated by graphviz version 2.40.1 (20161225.0304)
 -->
<!-- Title: oneDegreeRelationshipsDiagram Pages: 1 -->
<svg width="344pt" height="377pt"
 viewBox="0.00 0.00 344.00 376.70" xmlns="http://www.w3.org/2000/svg" xmlns:xlink="http://www.w3.org/1999/xlink">
<g id="graph0" class="graph" transform="scale(1 1) rotate(0) translate(4 372.7)">
<title>oneDegreeRelationshipsDiagram</title>
<polygon fill="#ffffff" stroke="transparent" points="-4,4 -4,-372.7 340,-372.7 340,4 -4,4"/>
<text text-anchor="middle" x="72.4936" y="-7.3" font-family="Helvetica,sans-Serif" font-size="11.00" fill="#000000">Generated by SchemaSpy</text>
<!-- caract -->
<g id="node1" class="node">
<title>caract</title>
<g id="a_node1"><a xlink:href="../../tables/caract.html" xlink:title="caract" target="_top">
<polygon fill="#ffffff" stroke="transparent" points="142,-54.7 142,-364.7 328,-364.7 328,-54.7 142,-54.7"/>
<polygon fill="#f5f5f5" stroke="transparent" points="144,-339.7 144,-362.7 326,-362.7 326,-339.7 144,-339.7"/>
<polygon fill="none" stroke="#000000" points="144,-339.7 144,-362.7 326,-362.7 326,-339.7 144,-339.7"/>
<text text-anchor="start" x="149" y="-348.8" font-family="Helvetica,sans-Serif" font-weight="bold" font-size="11.00" fill="#000000">caract</text>
<text text-anchor="start" x="291.0437" y="-347.8" font-family="Helvetica,sans-Serif" font-size="11.00" fill="#000000">[table]</text>
<polygon fill="none" stroke="#000000" points="144,-317.7 144,-339.7 236,-339.7 236,-317.7 144,-317.7"/>
<image xlink:href="../../images/primaryKeys.png" width="11px" height="12px" preserveAspectRatio="xMinYMin meet" x="149" y="-334.7"/>
<text text-anchor="start" x="164" y="-324.8" font-family="Helvetica,sans-Serif" font-size="11.00" fill="#000000">id</text>
<polygon fill="none" stroke="#000000" points="236,-317.7 236,-339.7 326,-339.7 326,-317.7 236,-317.7"/>
<text text-anchor="start" x="239" y="-325.4" font-family="Helvetica,sans-Serif" font-size="11.00" fill="#000000">serial[10]</text>
<polygon fill="none" stroke="#000000" points="144,-295.7 144,-317.7 236,-317.7 236,-295.7 144,-295.7"/>
<text text-anchor="start" x="164" y="-302.8" font-family="Helvetica,sans-Serif" font-size="11.00" fill="#000000">designacao</text>
<polygon fill="none" stroke="#000000" points="236,-295.7 236,-317.7 326,-317.7 326,-295.7 236,-295.7"/>
<text text-anchor="start" x="238.5043" y="-303.4" font-family="Helvetica,sans-Serif" font-size="11.00" fill="#000000">text[2147483647]</text>
<polygon fill="none" stroke="#000000" points="144,-273.7 144,-295.7 236,-295.7 236,-273.7 144,-273.7"/>
<text text-anchor="start" x="164" y="-280.8" font-family="Helvetica,sans-Serif" font-size="11.00" fill="#000000">extensao</text>
<polygon fill="none" stroke="#000000" points="236,-273.7 236,-295.7 326,-295.7 326,-273.7 236,-273.7"/>
<text text-anchor="start" x="239" y="-281.4" font-family="Helvetica,sans-Serif" font-size="11.00" fill="#000000">float8[17,17]</text>
<polygon fill="none" stroke="#000000" points="144,-251.7 144,-273.7 236,-273.7 236,-251.7 144,-251.7"/>
<text text-anchor="start" x="164" y="-258.8" font-family="Helvetica,sans-Serif" font-size="11.00" fill="#000000">largura_m</text>
<polygon fill="none" stroke="#000000" points="236,-251.7 236,-273.7 326,-273.7 326,-251.7 236,-251.7"/>
<text text-anchor="start" x="239" y="-259.4" font-family="Helvetica,sans-Serif" font-size="11.00" fill="#000000">numeric[2,2]</text>
<polygon fill="none" stroke="#000000" points="144,-229.7 144,-251.7 236,-251.7 236,-229.7 144,-229.7"/>
<text text-anchor="start" x="164" y="-236.8" font-family="Helvetica,sans-Serif" font-size="11.00" fill="#000000">t_horizontal</text>
<polygon fill="none" stroke="#000000" points="236,-229.7 236,-251.7 326,-251.7 326,-229.7 236,-229.7"/>
<text text-anchor="start" x="239" y="-237.4" font-family="Helvetica,sans-Serif" font-size="11.00" fill="#000000">varchar[12]</text>
<polygon fill="none" stroke="#000000" points="144,-207.7 144,-229.7 236,-229.7 236,-207.7 144,-207.7"/>
<text text-anchor="start" x="164" y="-214.8" font-family="Helvetica,sans-Serif" font-size="11.00" fill="#000000">t_vertical</text>
<polygon fill="none" stroke="#000000" points="236,-207.7 236,-229.7 326,-229.7 326,-207.7 236,-207.7"/>
<text text-anchor="start" x="239" y="-215.4" font-family="Helvetica,sans-Serif" font-size="11.00" fill="#000000">varchar[12]</text>
<polygon fill="none" stroke="#000000" points="144,-185.7 144,-207.7 236,-207.7 236,-185.7 144,-185.7"/>
<text text-anchor="start" x="164" y="-192.8" font-family="Helvetica,sans-Serif" font-size="11.00" fill="#000000">sinal_vert</text>
<polygon fill="none" stroke="#000000" points="236,-185.7 236,-207.7 326,-207.7 326,-185.7 236,-185.7"/>
<text text-anchor="start" x="239" y="-193.4" font-family="Helvetica,sans-Serif" font-size="11.00" fill="#000000">bool[1]</text>
<polygon fill="none" stroke="#000000" points="144,-163.7 144,-185.7 236,-185.7 236,-163.7 144,-163.7"/>
<text text-anchor="start" x="164" y="-170.8" font-family="Helvetica,sans-Serif" font-size="11.00" fill="#000000">sinal_horiz</text>
<polygon fill="none" stroke="#000000" points="236,-163.7 236,-185.7 326,-185.7 326,-163.7 236,-163.7"/>
<text text-anchor="start" x="239" y="-171.4" font-family="Helvetica,sans-Serif" font-size="11.00" fill="#000000">bool[1]</text>
<polygon fill="none" stroke="#000000" points="144,-141.7 144,-163.7 236,-163.7 236,-141.7 144,-141.7"/>
<text text-anchor="start" x="164" y="-148.8" font-family="Helvetica,sans-Serif" font-size="11.00" fill="#000000">berma_larg</text>
<polygon fill="none" stroke="#000000" points="236,-141.7 236,-163.7 326,-163.7 326,-141.7 236,-141.7"/>
<text text-anchor="start" x="239" y="-149.4" font-family="Helvetica,sans-Serif" font-size="11.00" fill="#000000">numeric[2,2]</text>
<polygon fill="none" stroke="#000000" points="144,-119.7 144,-141.7 236,-141.7 236,-119.7 144,-119.7"/>
<text text-anchor="start" x="164" y="-126.8" font-family="Helvetica,sans-Serif" font-size="11.00" fill="#000000">ilumi_nos</text>
<polygon fill="none" stroke="#000000" points="236,-119.7 236,-141.7 326,-141.7 326,-119.7 236,-119.7"/>
<text text-anchor="start" x="239" y="-127.4" font-family="Helvetica,sans-Serif" font-size="11.00" fill="#000000">bool[1]</text>
<polygon fill="none" stroke="#000000" points="144,-97.7 144,-119.7 236,-119.7 236,-97.7 144,-97.7"/>
<text text-anchor="start" x="164" y="-104.8" font-family="Helvetica,sans-Serif" font-size="11.00" fill="#000000">obs</text>
<polygon fill="none" stroke="#000000" points="236,-97.7 236,-119.7 326,-119.7 326,-97.7 236,-97.7"/>
<text text-anchor="start" x="238.5043" y="-105.4" font-family="Helvetica,sans-Serif" font-size="11.00" fill="#000000">text[2147483647]</text>
<polygon fill="#ffffff" stroke="transparent" points="144,-75.7 144,-97.7 236,-97.7 236,-75.7 144,-75.7"/>
<polygon fill="none" stroke="#000000" points="144,-75.7 144,-97.7 236,-97.7 236,-75.7 144,-75.7"/>
<image xlink:href="../../images/foreignKeys.png" width="11px" height="12px" preserveAspectRatio="xMinYMin meet" x="149" y="-92.7"/>
<text text-anchor="start" x="164" y="-82.8" font-family="Helvetica,sans-Serif" font-size="11.00" fill="#000000">id_estradas</text>
<polygon fill="none" stroke="#000000" points="236,-75.7 236,-97.7 326,-97.7 326,-75.7 236,-75.7"/>
<text text-anchor="start" x="239" y="-83.4" font-family="Helvetica,sans-Serif" font-size="11.00" fill="#000000">int4[10]</text>
<polygon fill="#ffffff" stroke="transparent" points="144,-56.7 144,-75.7 181,-75.7 181,-56.7 144,-56.7"/>
<polygon fill="none" stroke="#000000" points="144,-56.7 144,-75.7 181,-75.7 181,-56.7 144,-56.7"/>
<text text-anchor="start" x="147" y="-62.8" font-family="Helvetica,sans-Serif" font-size="11.00" fill="#000000">&lt; 1</text>
<polygon fill="#ffffff" stroke="transparent" points="181,-56.7 181,-75.7 236,-75.7 236,-56.7 181,-56.7"/>
<polygon fill="none" stroke="#000000" points="181,-56.7 181,-75.7 236,-75.7 236,-56.7 181,-56.7"/>
<text text-anchor="start" x="200.6105" y="-62.8" font-family="Helvetica,sans-Serif" font-size="11.00" fill="#000000">0 rows</text>
<polygon fill="#ffffff" stroke="transparent" points="236,-56.7 236,-75.7 326,-75.7 326,-56.7 236,-56.7"/>
<polygon fill="none" stroke="#000000" points="236,-56.7 236,-75.7 326,-75.7 326,-56.7 236,-56.7"/>
<text text-anchor="start" x="307.4053" y="-62.8" font-family="Helvetica,sans-Serif" font-size="11.00" fill="#000000">0 &gt;</text>
<polygon fill="none" stroke="#000000" stroke-width="2" points="143,-55.7 143,-363.7 327,-363.7 327,-55.7 143,-55.7"/>
</a>
</g>
</g>
<!-- estradas -->
<g id="node2" class="node">
<title>estradas</title>
<g id="a_node2"><a xlink:href="../../tables/estradas.html" xlink:title="estradas" target="_top">
<polygon fill="#ffffff" stroke="transparent" points="8,-38.2 8,-121.2 93,-121.2 93,-38.2 8,-38.2"/>
<polygon fill="#f5f5f5" stroke="transparent" points="8.5,-97.7 8.5,-120.7 93.5,-120.7 93.5,-97.7 8.5,-97.7"/>
<polygon fill="none" stroke="#000000" points="8.5,-97.7 8.5,-120.7 93.5,-120.7 93.5,-97.7 8.5,-97.7"/>
<text text-anchor="start" x="13.4108" y="-106.8" font-family="Helvetica,sans-Serif" font-weight="bold" font-size="11.00" fill="#000000">estradas</text>
<text text-anchor="start" x="59.0219" y="-105.8" font-family="Helvetica,sans-Serif" font-size="11.00" fill="#000000">[table]</text>
<polygon fill="none" stroke="#000000" points="8.5,-75.7 8.5,-97.7 93.5,-97.7 93.5,-75.7 8.5,-75.7"/>
<image xlink:href="../../images/primaryKeys.png" width="11px" height="12px" preserveAspectRatio="xMinYMin meet" x="13.5" y="-92.7"/>
<text text-anchor="start" x="35.5" y="-82.8" font-family="Helvetica,sans-Serif" font-size="11.00" fill="#000000">id</text>
<polygon fill="none" stroke="#000000" points="8.5,-56.7 8.5,-75.7 93.5,-75.7 93.5,-56.7 8.5,-56.7"/>
<text text-anchor="start" x="11.5" y="-62.8" font-family="Helvetica,sans-Serif" font-size="11.00" fill="#000000">...</text>
<polygon fill="#ffffff" stroke="transparent" points="8.5,-37.7 8.5,-56.7 27.5,-56.7 27.5,-37.7 8.5,-37.7"/>
<polygon fill="none" stroke="#000000" points="8.5,-37.7 8.5,-56.7 27.5,-56.7 27.5,-37.7 8.5,-37.7"/>
<text text-anchor="start" x="11.5" y="-43.8" font-family="Helvetica,sans-Serif" font-size="11.00" fill="#000000"> &#160;</text>
<polygon fill="#ffffff" stroke="transparent" points="27.5,-37.7 27.5,-56.7 68.5,-56.7 68.5,-37.7 27.5,-37.7"/>
<polygon fill="none" stroke="#000000" points="27.5,-37.7 27.5,-56.7 68.5,-56.7 68.5,-37.7 27.5,-37.7"/>
<text text-anchor="start" x="33.1105" y="-43.8" font-family="Helvetica,sans-Serif" font-size="11.00" fill="#000000">0 rows</text>
<polygon fill="#ffffff" stroke="transparent" points="68.5,-37.7 68.5,-56.7 93.5,-56.7 93.5,-37.7 68.5,-37.7"/>
<polygon fill="none" stroke="#000000" points="68.5,-37.7 68.5,-56.7 93.5,-56.7 93.5,-37.7 68.5,-37.7"/>
<text text-anchor="start" x="74.9053" y="-43.8" font-family="Helvetica,sans-Serif" font-size="11.00" fill="#000000">7 &gt;</text>
</a>
</g>
</g>
<!-- caract&#45;&gt;estradas -->
<g id="edge1" class="edge">
<title>caract:w&#45;&gt;estradas:e</title>
<path fill="none" stroke="#000000" d="M133.3362,-86.7C118.9956,-86.7 111.9115,-86.7 93.5,-86.7"/>
<polygon fill="#000000" stroke="#000000" points="143.2,-82.7 143.2,-90.7 141.6,-90.7 141.6,-82.7 143.2,-82.7"/>
<polyline fill="none" stroke="#000000" points="144,-86.7 140,-86.7 "/>
<ellipse fill="none" stroke="#000000" cx="136.8" cy="-86.7001" rx="3.2" ry="3.2"/>
</g>
</g>
</svg>
