<?xml version="1.0" encoding="UTF-8" standalone="no"?>
<!DOCTYPE svg PUBLIC "-//W3C//DTD SVG 1.1//EN"
 "http://www.w3.org/Graphics/SVG/1.1/DTD/svg11.dtd">
<!-- Generated by graphviz version 2.40.1 (20161225.0304)
 -->
<!-- Title: oneDegreeRelationshipsDiagram Pages: 1 -->
<svg width="347pt" height="775pt"
 viewBox="0.00 0.00 347.00 775.20" xmlns="http://www.w3.org/2000/svg" xmlns:xlink="http://www.w3.org/1999/xlink">
<g id="graph0" class="graph" transform="scale(1 1) rotate(0) translate(4 771.2)">
<title>oneDegreeRelationshipsDiagram</title>
<polygon fill="#ffffff" stroke="transparent" points="-4,4 -4,-771.2 343,-771.2 343,4 -4,4"/>
<text text-anchor="middle" x="72.4936" y="-7.3" font-family="Helvetica,sans-Serif" font-size="11.00" fill="#000000">Generated by SchemaSpy</text>
<!-- lrs_line -->
<g id="node1" class="node">
<title>lrs_line</title>
<g id="a_node1"><a xlink:href="../../tables/lrs_line.html" xlink:title="lrs_line" target="_top">
<polygon fill="#ffffff" stroke="transparent" points="235.5,-592.2 235.5,-763.2 323.5,-763.2 323.5,-592.2 235.5,-592.2"/>
<polygon fill="#f5f5f5" stroke="transparent" points="235.5,-739.7 235.5,-762.7 323.5,-762.7 323.5,-739.7 235.5,-739.7"/>
<polygon fill="none" stroke="#000000" points="235.5,-739.7 235.5,-762.7 323.5,-762.7 323.5,-739.7 235.5,-739.7"/>
<text text-anchor="start" x="240.5" y="-748.8" font-family="Helvetica,sans-Serif" font-weight="bold" font-size="11.00" fill="#000000">lrs_line</text>
<text text-anchor="start" x="288.5437" y="-747.8" font-family="Helvetica,sans-Serif" font-size="11.00" fill="#000000">[table]</text>
<polygon fill="none" stroke="#000000" points="235.5,-717.7 235.5,-739.7 323.5,-739.7 323.5,-717.7 235.5,-717.7"/>
<image xlink:href="../../images/primaryKeys.png" width="11px" height="12px" preserveAspectRatio="xMinYMin meet" x="240.5" y="-734.7"/>
<text text-anchor="start" x="255.5" y="-724.8" font-family="Helvetica,sans-Serif" font-size="11.00" fill="#000000">id</text>
<polygon fill="none" stroke="#000000" points="235.5,-695.7 235.5,-717.7 323.5,-717.7 323.5,-695.7 235.5,-695.7"/>
<image xlink:href="../../images/foreignKeys.png" width="11px" height="12px" preserveAspectRatio="xMinYMin meet" x="240.5" y="-712.7"/>
<text text-anchor="start" x="255.5" y="-702.8" font-family="Helvetica,sans-Serif" font-size="11.00" fill="#000000">id_estradas</text>
<polygon fill="none" stroke="#000000" points="235.5,-673.7 235.5,-695.7 323.5,-695.7 323.5,-673.7 235.5,-673.7"/>
<image xlink:href="../../images/foreignKeys.png" width="11px" height="12px" preserveAspectRatio="xMinYMin meet" x="240.5" y="-690.7"/>
<text text-anchor="start" x="255.5" y="-680.8" font-family="Helvetica,sans-Serif" font-size="11.00" fill="#000000">id_tipo_line</text>
<polygon fill="none" stroke="#000000" points="235.5,-651.7 235.5,-673.7 323.5,-673.7 323.5,-651.7 235.5,-651.7"/>
<image xlink:href="../../images/foreignKeys.png" width="11px" height="12px" preserveAspectRatio="xMinYMin meet" x="240.5" y="-668.7"/>
<text text-anchor="start" x="255.5" y="-658.8" font-family="Helvetica,sans-Serif" font-size="11.00" fill="#000000">id_estado</text>
<polygon fill="none" stroke="#000000" points="235.5,-629.7 235.5,-651.7 323.5,-651.7 323.5,-629.7 235.5,-629.7"/>
<image xlink:href="../../images/foreignKeys.png" width="11px" height="12px" preserveAspectRatio="xMinYMin meet" x="240.5" y="-646.7"/>
<text text-anchor="start" x="255.5" y="-636.8" font-family="Helvetica,sans-Serif" font-size="11.00" fill="#000000">id_lado</text>
<polygon fill="none" stroke="#000000" points="235.5,-610.7 235.5,-629.7 323.5,-629.7 323.5,-610.7 235.5,-610.7"/>
<text text-anchor="start" x="238.5" y="-616.8" font-family="Helvetica,sans-Serif" font-size="11.00" fill="#000000">...</text>
<polygon fill="#ffffff" stroke="transparent" points="235.5,-591.7 235.5,-610.7 264.5,-610.7 264.5,-591.7 235.5,-591.7"/>
<polygon fill="none" stroke="#000000" points="235.5,-591.7 235.5,-610.7 264.5,-610.7 264.5,-591.7 235.5,-591.7"/>
<text text-anchor="start" x="238.5" y="-597.8" font-family="Helvetica,sans-Serif" font-size="11.00" fill="#000000">&lt; 4</text>
<polygon fill="#ffffff" stroke="transparent" points="264.5,-591.7 264.5,-610.7 306.5,-610.7 306.5,-591.7 264.5,-591.7"/>
<polygon fill="none" stroke="#000000" points="264.5,-591.7 264.5,-610.7 306.5,-610.7 306.5,-591.7 264.5,-591.7"/>
<text text-anchor="start" x="271.1105" y="-597.8" font-family="Helvetica,sans-Serif" font-size="11.00" fill="#000000">0 rows</text>
<polygon fill="#ffffff" stroke="transparent" points="306.5,-591.7 306.5,-610.7 323.5,-610.7 323.5,-591.7 306.5,-591.7"/>
<polygon fill="none" stroke="#000000" points="306.5,-591.7 306.5,-610.7 323.5,-610.7 323.5,-591.7 306.5,-591.7"/>
<text text-anchor="start" x="314.3862" y="-597.8" font-family="Helvetica,sans-Serif" font-size="11.00" fill="#000000"> &#160;</text>
</a>
</g>
</g>
<!-- estado -->
<g id="node2" class="node">
<title>estado</title>
<g id="a_node2"><a xlink:href="../../tables/estado.html" xlink:title="estado" target="_top">
<polygon fill="#ffffff" stroke="transparent" points="8,-331.7 8,-421.7 179,-421.7 179,-331.7 8,-331.7"/>
<polygon fill="#f5f5f5" stroke="transparent" points="10.5,-396.7 10.5,-419.7 177.5,-419.7 177.5,-396.7 10.5,-396.7"/>
<polygon fill="none" stroke="#000000" points="10.5,-396.7 10.5,-419.7 177.5,-419.7 177.5,-396.7 10.5,-396.7"/>
<text text-anchor="start" x="15.5" y="-405.8" font-family="Helvetica,sans-Serif" font-weight="bold" font-size="11.00" fill="#000000">estado</text>
<text text-anchor="start" x="142.5437" y="-404.8" font-family="Helvetica,sans-Serif" font-size="11.00" fill="#000000">[table]</text>
<polygon fill="none" stroke="#000000" points="10.5,-374.7 10.5,-396.7 87.5,-396.7 87.5,-374.7 10.5,-374.7"/>
<image xlink:href="../../images/primaryKeys.png" width="11px" height="12px" preserveAspectRatio="xMinYMin meet" x="15.5" y="-391.7"/>
<text text-anchor="start" x="30.5" y="-381.8" font-family="Helvetica,sans-Serif" font-size="11.00" fill="#000000">id</text>
<polygon fill="none" stroke="#000000" points="87.5,-374.7 87.5,-396.7 177.5,-396.7 177.5,-374.7 87.5,-374.7"/>
<text text-anchor="start" x="90.5" y="-382.4" font-family="Helvetica,sans-Serif" font-size="11.00" fill="#000000">serial[10]</text>
<polygon fill="none" stroke="#000000" points="10.5,-352.7 10.5,-374.7 87.5,-374.7 87.5,-352.7 10.5,-352.7"/>
<text text-anchor="start" x="30.5" y="-359.8" font-family="Helvetica,sans-Serif" font-size="11.00" fill="#000000">descricao</text>
<polygon fill="none" stroke="#000000" points="87.5,-352.7 87.5,-374.7 177.5,-374.7 177.5,-352.7 87.5,-352.7"/>
<text text-anchor="start" x="90.0042" y="-360.4" font-family="Helvetica,sans-Serif" font-size="11.00" fill="#000000">text[2147483647]</text>
<polygon fill="#ffffff" stroke="transparent" points="10.5,-333.7 10.5,-352.7 40.5,-352.7 40.5,-333.7 10.5,-333.7"/>
<polygon fill="none" stroke="#000000" points="10.5,-333.7 10.5,-352.7 40.5,-352.7 40.5,-333.7 10.5,-333.7"/>
<text text-anchor="start" x="13.5" y="-339.8" font-family="Helvetica,sans-Serif" font-size="11.00" fill="#000000">&lt; 0</text>
<polygon fill="#ffffff" stroke="transparent" points="40.5,-333.7 40.5,-352.7 87.5,-352.7 87.5,-333.7 40.5,-333.7"/>
<polygon fill="none" stroke="#000000" points="40.5,-333.7 40.5,-352.7 87.5,-352.7 87.5,-333.7 40.5,-333.7"/>
<text text-anchor="start" x="52.1105" y="-339.8" font-family="Helvetica,sans-Serif" font-size="11.00" fill="#000000">0 rows</text>
<polygon fill="#ffffff" stroke="transparent" points="87.5,-333.7 87.5,-352.7 177.5,-352.7 177.5,-333.7 87.5,-333.7"/>
<polygon fill="none" stroke="#000000" points="87.5,-333.7 87.5,-352.7 177.5,-352.7 177.5,-333.7 87.5,-333.7"/>
<text text-anchor="start" x="158.9053" y="-339.8" font-family="Helvetica,sans-Serif" font-size="11.00" fill="#000000">4 &gt;</text>
<polygon fill="none" stroke="#000000" stroke-width="2" points="9,-332.7 9,-420.7 178,-420.7 178,-332.7 9,-332.7"/>
</a>
</g>
</g>
<!-- lrs_line&#45;&gt;estado -->
<g id="edge1" class="edge">
<title>lrs_line:w&#45;&gt;estado:e</title>
<path fill="none" stroke="#000000" d="M222.0153,-656.9145C183.2943,-617.1363 234.9858,-385.7 177.5,-385.7"/>
<polygon fill="#000000" stroke="#000000" points="228.1481,-659.5457 234.0806,-666.0084 231.824,-661.1228 235.5,-662.7 235.5,-662.7 235.5,-662.7 231.824,-661.1228 236.9194,-659.3916 228.1481,-659.5457 228.1481,-659.5457"/>
<ellipse fill="none" stroke="#000000" cx="225.2073" cy="-658.2839" rx="3.2" ry="3.2"/>
</g>
<!-- lrs_node -->
<g id="node3" class="node">
<title>lrs_node</title>
<g id="a_node3"><a xlink:href="../../tables/lrs_node.html" xlink:title="lrs_node" target="_top">
<polygon fill="#ffffff" stroke="transparent" points="231.5,-400.2 231.5,-571.2 327.5,-571.2 327.5,-400.2 231.5,-400.2"/>
<polygon fill="#f5f5f5" stroke="transparent" points="231.5,-547.7 231.5,-570.7 327.5,-570.7 327.5,-547.7 231.5,-547.7"/>
<polygon fill="none" stroke="#000000" points="231.5,-547.7 231.5,-570.7 327.5,-570.7 327.5,-547.7 231.5,-547.7"/>
<text text-anchor="start" x="236.5" y="-556.8" font-family="Helvetica,sans-Serif" font-weight="bold" font-size="11.00" fill="#000000">lrs_node</text>
<text text-anchor="start" x="292.5437" y="-555.8" font-family="Helvetica,sans-Serif" font-size="11.00" fill="#000000">[table]</text>
<polygon fill="none" stroke="#000000" points="231.5,-525.7 231.5,-547.7 327.5,-547.7 327.5,-525.7 231.5,-525.7"/>
<image xlink:href="../../images/primaryKeys.png" width="11px" height="12px" preserveAspectRatio="xMinYMin meet" x="236.5" y="-542.7"/>
<text text-anchor="start" x="251.5" y="-532.8" font-family="Helvetica,sans-Serif" font-size="11.00" fill="#000000">id</text>
<polygon fill="none" stroke="#000000" points="231.5,-503.7 231.5,-525.7 327.5,-525.7 327.5,-503.7 231.5,-503.7"/>
<image xlink:href="../../images/foreignKeys.png" width="11px" height="12px" preserveAspectRatio="xMinYMin meet" x="236.5" y="-520.7"/>
<text text-anchor="start" x="251.5" y="-510.8" font-family="Helvetica,sans-Serif" font-size="11.00" fill="#000000">id_estradas</text>
<polygon fill="none" stroke="#000000" points="231.5,-481.7 231.5,-503.7 327.5,-503.7 327.5,-481.7 231.5,-481.7"/>
<image xlink:href="../../images/foreignKeys.png" width="11px" height="12px" preserveAspectRatio="xMinYMin meet" x="236.5" y="-498.7"/>
<text text-anchor="start" x="251.5" y="-488.8" font-family="Helvetica,sans-Serif" font-size="11.00" fill="#000000">id_tipo_node</text>
<polygon fill="none" stroke="#000000" points="231.5,-459.7 231.5,-481.7 327.5,-481.7 327.5,-459.7 231.5,-459.7"/>
<image xlink:href="../../images/foreignKeys.png" width="11px" height="12px" preserveAspectRatio="xMinYMin meet" x="236.5" y="-476.7"/>
<text text-anchor="start" x="251.5" y="-466.8" font-family="Helvetica,sans-Serif" font-size="11.00" fill="#000000">id_estado</text>
<polygon fill="none" stroke="#000000" points="231.5,-437.7 231.5,-459.7 327.5,-459.7 327.5,-437.7 231.5,-437.7"/>
<image xlink:href="../../images/foreignKeys.png" width="11px" height="12px" preserveAspectRatio="xMinYMin meet" x="236.5" y="-454.7"/>
<text text-anchor="start" x="251.5" y="-444.8" font-family="Helvetica,sans-Serif" font-size="11.00" fill="#000000">id_lado</text>
<polygon fill="none" stroke="#000000" points="231.5,-418.7 231.5,-437.7 327.5,-437.7 327.5,-418.7 231.5,-418.7"/>
<text text-anchor="start" x="234.5" y="-424.8" font-family="Helvetica,sans-Serif" font-size="11.00" fill="#000000">...</text>
<polygon fill="#ffffff" stroke="transparent" points="231.5,-399.7 231.5,-418.7 264.5,-418.7 264.5,-399.7 231.5,-399.7"/>
<polygon fill="none" stroke="#000000" points="231.5,-399.7 231.5,-418.7 264.5,-418.7 264.5,-399.7 231.5,-399.7"/>
<text text-anchor="start" x="234.5" y="-405.8" font-family="Helvetica,sans-Serif" font-size="11.00" fill="#000000">&lt; 4</text>
<polygon fill="#ffffff" stroke="transparent" points="264.5,-399.7 264.5,-418.7 308.5,-418.7 308.5,-399.7 264.5,-399.7"/>
<polygon fill="none" stroke="#000000" points="264.5,-399.7 264.5,-418.7 308.5,-418.7 308.5,-399.7 264.5,-399.7"/>
<text text-anchor="start" x="273.1105" y="-405.8" font-family="Helvetica,sans-Serif" font-size="11.00" fill="#000000">0 rows</text>
<polygon fill="#ffffff" stroke="transparent" points="308.5,-399.7 308.5,-418.7 327.5,-418.7 327.5,-399.7 308.5,-399.7"/>
<polygon fill="none" stroke="#000000" points="308.5,-399.7 308.5,-418.7 327.5,-418.7 327.5,-399.7 308.5,-399.7"/>
<text text-anchor="start" x="318.3862" y="-405.8" font-family="Helvetica,sans-Serif" font-size="11.00" fill="#000000"> &#160;</text>
</a>
</g>
</g>
<!-- lrs_node&#45;&gt;estado -->
<g id="edge2" class="edge">
<title>lrs_node:w&#45;&gt;estado:e</title>
<path fill="none" stroke="#000000" d="M217.5389,-466.6003C194.7607,-449.6212 216.3124,-385.7 177.5,-385.7"/>
<polygon fill="#000000" stroke="#000000" points="223.8241,-468.4459 230.4857,-474.1542 227.6621,-469.573 231.5,-470.7 231.5,-470.7 231.5,-470.7 227.6621,-469.573 232.5143,-467.2458 223.8241,-468.4459 223.8241,-468.4459"/>
<ellipse fill="none" stroke="#000000" cx="220.7538" cy="-467.5443" rx="3.2" ry="3.2"/>
</g>
<!-- rails -->
<g id="node4" class="node">
<title>rails</title>
<g id="a_node4"><a xlink:href="../../tables/rails.html" xlink:title="rails" target="_top">
<polygon fill="#ffffff" stroke="transparent" points="235.5,-230.2 235.5,-379.2 323.5,-379.2 323.5,-230.2 235.5,-230.2"/>
<polygon fill="#f5f5f5" stroke="transparent" points="235.5,-355.7 235.5,-378.7 323.5,-378.7 323.5,-355.7 235.5,-355.7"/>
<polygon fill="none" stroke="#000000" points="235.5,-355.7 235.5,-378.7 323.5,-378.7 323.5,-355.7 235.5,-355.7"/>
<text text-anchor="start" x="240.5" y="-364.8" font-family="Helvetica,sans-Serif" font-weight="bold" font-size="11.00" fill="#000000">rails</text>
<text text-anchor="start" x="288.5437" y="-363.8" font-family="Helvetica,sans-Serif" font-size="11.00" fill="#000000">[table]</text>
<polygon fill="none" stroke="#000000" points="235.5,-333.7 235.5,-355.7 323.5,-355.7 323.5,-333.7 235.5,-333.7"/>
<image xlink:href="../../images/primaryKeys.png" width="11px" height="12px" preserveAspectRatio="xMinYMin meet" x="240.5" y="-350.7"/>
<text text-anchor="start" x="255.5" y="-340.8" font-family="Helvetica,sans-Serif" font-size="11.00" fill="#000000">id</text>
<polygon fill="none" stroke="#000000" points="235.5,-311.7 235.5,-333.7 323.5,-333.7 323.5,-311.7 235.5,-311.7"/>
<image xlink:href="../../images/foreignKeys.png" width="11px" height="12px" preserveAspectRatio="xMinYMin meet" x="240.5" y="-328.7"/>
<text text-anchor="start" x="255.5" y="-318.8" font-family="Helvetica,sans-Serif" font-size="11.00" fill="#000000">id_estradas</text>
<polygon fill="none" stroke="#000000" points="235.5,-289.7 235.5,-311.7 323.5,-311.7 323.5,-289.7 235.5,-289.7"/>
<image xlink:href="../../images/foreignKeys.png" width="11px" height="12px" preserveAspectRatio="xMinYMin meet" x="240.5" y="-306.7"/>
<text text-anchor="start" x="255.5" y="-296.8" font-family="Helvetica,sans-Serif" font-size="11.00" fill="#000000">id_estado</text>
<polygon fill="none" stroke="#000000" points="235.5,-267.7 235.5,-289.7 323.5,-289.7 323.5,-267.7 235.5,-267.7"/>
<image xlink:href="../../images/foreignKeys.png" width="11px" height="12px" preserveAspectRatio="xMinYMin meet" x="240.5" y="-284.7"/>
<text text-anchor="start" x="255.5" y="-274.8" font-family="Helvetica,sans-Serif" font-size="11.00" fill="#000000">id_lado</text>
<polygon fill="none" stroke="#000000" points="235.5,-248.7 235.5,-267.7 323.5,-267.7 323.5,-248.7 235.5,-248.7"/>
<text text-anchor="start" x="238.5" y="-254.8" font-family="Helvetica,sans-Serif" font-size="11.00" fill="#000000">...</text>
<polygon fill="#ffffff" stroke="transparent" points="235.5,-229.7 235.5,-248.7 264.5,-248.7 264.5,-229.7 235.5,-229.7"/>
<polygon fill="none" stroke="#000000" points="235.5,-229.7 235.5,-248.7 264.5,-248.7 264.5,-229.7 235.5,-229.7"/>
<text text-anchor="start" x="238.5" y="-235.8" font-family="Helvetica,sans-Serif" font-size="11.00" fill="#000000">&lt; 3</text>
<polygon fill="#ffffff" stroke="transparent" points="264.5,-229.7 264.5,-248.7 306.5,-248.7 306.5,-229.7 264.5,-229.7"/>
<polygon fill="none" stroke="#000000" points="264.5,-229.7 264.5,-248.7 306.5,-248.7 306.5,-229.7 264.5,-229.7"/>
<text text-anchor="start" x="271.1105" y="-235.8" font-family="Helvetica,sans-Serif" font-size="11.00" fill="#000000">0 rows</text>
<polygon fill="#ffffff" stroke="transparent" points="306.5,-229.7 306.5,-248.7 323.5,-248.7 323.5,-229.7 306.5,-229.7"/>
<polygon fill="none" stroke="#000000" points="306.5,-229.7 306.5,-248.7 323.5,-248.7 323.5,-229.7 306.5,-229.7"/>
<text text-anchor="start" x="314.3862" y="-235.8" font-family="Helvetica,sans-Serif" font-size="11.00" fill="#000000"> &#160;</text>
</a>
</g>
</g>
<!-- rails&#45;&gt;estado -->
<g id="edge3" class="edge">
<title>rails:w&#45;&gt;estado:e</title>
<path fill="none" stroke="#000000" d="M221.4226,-304.5731C197.0781,-321.2016 217.3391,-385.7 177.5,-385.7"/>
<polygon fill="#000000" stroke="#000000" points="227.7866,-302.8222 236.455,-304.171 231.6433,-301.7611 235.5,-300.7 235.5,-300.7 235.5,-300.7 231.6433,-301.7611 234.545,-297.229 227.7866,-302.8222 227.7866,-302.8222"/>
<ellipse fill="none" stroke="#000000" cx="224.7013" cy="-303.6711" rx="3.2" ry="3.2"/>
</g>
<!-- valetas -->
<g id="node5" class="node">
<title>valetas</title>
<g id="a_node5"><a xlink:href="../../tables/valetas.html" xlink:title="valetas" target="_top">
<polygon fill="#ffffff" stroke="transparent" points="228,-38.2 228,-209.2 331,-209.2 331,-38.2 228,-38.2"/>
<polygon fill="#f5f5f5" stroke="transparent" points="228.5,-185.7 228.5,-208.7 331.5,-208.7 331.5,-185.7 228.5,-185.7"/>
<polygon fill="none" stroke="#000000" points="228.5,-185.7 228.5,-208.7 331.5,-208.7 331.5,-185.7 228.5,-185.7"/>
<text text-anchor="start" x="233.5" y="-194.8" font-family="Helvetica,sans-Serif" font-weight="bold" font-size="11.00" fill="#000000">valetas</text>
<text text-anchor="start" x="296.5437" y="-193.8" font-family="Helvetica,sans-Serif" font-size="11.00" fill="#000000">[table]</text>
<polygon fill="none" stroke="#000000" points="228.5,-163.7 228.5,-185.7 331.5,-185.7 331.5,-163.7 228.5,-163.7"/>
<image xlink:href="../../images/primaryKeys.png" width="11px" height="12px" preserveAspectRatio="xMinYMin meet" x="233.5" y="-180.7"/>
<text text-anchor="start" x="248.5" y="-170.8" font-family="Helvetica,sans-Serif" font-size="11.00" fill="#000000">id</text>
<polygon fill="none" stroke="#000000" points="228.5,-141.7 228.5,-163.7 331.5,-163.7 331.5,-141.7 228.5,-141.7"/>
<image xlink:href="../../images/foreignKeys.png" width="11px" height="12px" preserveAspectRatio="xMinYMin meet" x="233.5" y="-158.7"/>
<text text-anchor="start" x="248.5" y="-148.8" font-family="Helvetica,sans-Serif" font-size="11.00" fill="#000000">id_estradas</text>
<polygon fill="none" stroke="#000000" points="228.5,-119.7 228.5,-141.7 331.5,-141.7 331.5,-119.7 228.5,-119.7"/>
<image xlink:href="../../images/foreignKeys.png" width="11px" height="12px" preserveAspectRatio="xMinYMin meet" x="233.5" y="-136.7"/>
<text text-anchor="start" x="248.5" y="-126.8" font-family="Helvetica,sans-Serif" font-size="11.00" fill="#000000">id_tipo_valeta</text>
<polygon fill="none" stroke="#000000" points="228.5,-97.7 228.5,-119.7 331.5,-119.7 331.5,-97.7 228.5,-97.7"/>
<image xlink:href="../../images/foreignKeys.png" width="11px" height="12px" preserveAspectRatio="xMinYMin meet" x="233.5" y="-114.7"/>
<text text-anchor="start" x="248.5" y="-104.8" font-family="Helvetica,sans-Serif" font-size="11.00" fill="#000000">id_estado</text>
<polygon fill="none" stroke="#000000" points="228.5,-75.7 228.5,-97.7 331.5,-97.7 331.5,-75.7 228.5,-75.7"/>
<image xlink:href="../../images/foreignKeys.png" width="11px" height="12px" preserveAspectRatio="xMinYMin meet" x="233.5" y="-92.7"/>
<text text-anchor="start" x="248.5" y="-82.8" font-family="Helvetica,sans-Serif" font-size="11.00" fill="#000000">id_lado</text>
<polygon fill="none" stroke="#000000" points="228.5,-56.7 228.5,-75.7 331.5,-75.7 331.5,-56.7 228.5,-56.7"/>
<text text-anchor="start" x="231.5" y="-62.8" font-family="Helvetica,sans-Serif" font-size="11.00" fill="#000000">...</text>
<polygon fill="#ffffff" stroke="transparent" points="228.5,-37.7 228.5,-56.7 265.5,-56.7 265.5,-37.7 228.5,-37.7"/>
<polygon fill="none" stroke="#000000" points="228.5,-37.7 228.5,-56.7 265.5,-56.7 265.5,-37.7 228.5,-37.7"/>
<text text-anchor="start" x="231.5" y="-43.8" font-family="Helvetica,sans-Serif" font-size="11.00" fill="#000000">&lt; 4</text>
<polygon fill="#ffffff" stroke="transparent" points="265.5,-37.7 265.5,-56.7 311.5,-56.7 311.5,-37.7 265.5,-37.7"/>
<polygon fill="none" stroke="#000000" points="265.5,-37.7 265.5,-56.7 311.5,-56.7 311.5,-37.7 265.5,-37.7"/>
<text text-anchor="start" x="276.1105" y="-43.8" font-family="Helvetica,sans-Serif" font-size="11.00" fill="#000000">0 rows</text>
<polygon fill="#ffffff" stroke="transparent" points="311.5,-37.7 311.5,-56.7 331.5,-56.7 331.5,-37.7 311.5,-37.7"/>
<polygon fill="none" stroke="#000000" points="311.5,-37.7 311.5,-56.7 331.5,-56.7 331.5,-37.7 311.5,-37.7"/>
<text text-anchor="start" x="322.3862" y="-43.8" font-family="Helvetica,sans-Serif" font-size="11.00" fill="#000000"> &#160;</text>
</a>
</g>
</g>
<!-- valetas&#45;&gt;estado -->
<g id="edge4" class="edge">
<title>valetas:w&#45;&gt;estado:e</title>
<path fill="none" stroke="#000000" d="M215.2201,-114.4855C177.6495,-154.2637 234.7113,-385.7 177.5,-385.7"/>
<polygon fill="#000000" stroke="#000000" points="221.1658,-111.8953 229.9379,-112.0004 224.8329,-110.2976 228.5,-108.7 228.5,-108.7 228.5,-108.7 224.8329,-110.2976 227.0621,-105.3996 221.1658,-111.8953 221.1658,-111.8953"/>
<ellipse fill="none" stroke="#000000" cx="218.2321" cy="-113.1734" rx="3.2" ry="3.2"/>
</g>
</g>
</svg>
