<?xml version="1.0" encoding="UTF-8" standalone="no"?>
<!DOCTYPE svg PUBLIC "-//W3C//DTD SVG 1.1//EN"
 "http://www.w3.org/Graphics/SVG/1.1/DTD/svg11.dtd">
<!-- Generated by graphviz version 2.40.1 (20161225.0304)
 -->
<!-- Title: twoDegreesRelationshipsDiagram Pages: 1 -->
<svg width="347pt" height="775pt"
 viewBox="0.00 0.00 347.00 775.20" xmlns="http://www.w3.org/2000/svg" xmlns:xlink="http://www.w3.org/1999/xlink">
<g id="graph0" class="graph" transform="scale(1 1) rotate(0) translate(4 771.2)">
<title>twoDegreesRelationshipsDiagram</title>
<polygon fill="#ffffff" stroke="transparent" points="-4,4 -4,-771.2 343,-771.2 343,4 -4,4"/>
<text text-anchor="middle" x="72.4936" y="-7.3" font-family="Helvetica,sans-Serif" font-size="11.00" fill="#000000">Generated by SchemaSpy</text>
<!-- lrs_line -->
<g id="node1" class="node">
<title>lrs_line</title>
<g id="a_node1"><a xlink:href="../../tables/lrs_line.html" xlink:title="lrs_line" target="_top">
<polygon fill="#ffffff" stroke="transparent" points="235.5,-592.2 235.5,-763.2 323.5,-763.2 323.5,-592.2 235.5,-592.2"/>
<polygon fill="#f5f5f5" stroke="transparent" points="235.5,-739.7 235.5,-762.7 323.5,-762.7 323.5,-739.7 235.5,-739.7"/>
<polygon fill="none" stroke="#000000" points="235.5,-739.7 235.5,-762.7 323.5,-762.7 323.5,-739.7 235.5,-739.7"/>
<text text-anchor="start" x="240.5" y="-748.8" font-family="Helvetica,sans-Serif" font-weight="bold" font-size="11.00" fill="#000000">lrs_line</text>
<text text-anchor="start" x="288.5437" y="-747.8" font-family="Helvetica,sans-Serif" font-size="11.00" fill="#000000">[table]</text>
<polygon fill="none" stroke="#000000" points="235.5,-717.7 235.5,-739.7 323.5,-739.7 323.5,-717.7 235.5,-717.7"/>
<image xlink:href="../../images/primaryKeys.png" width="11px" height="12px" preserveAspectRatio="xMinYMin meet" x="240.5" y="-734.7"/>
<text text-anchor="start" x="255.5" y="-724.8" font-family="Helvetica,sans-Serif" font-size="11.00" fill="#000000">id</text>
<polygon fill="none" stroke="#000000" points="235.5,-695.7 235.5,-717.7 323.5,-717.7 323.5,-695.7 235.5,-695.7"/>
<image xlink:href="../../images/foreignKeys.png" width="11px" height="12px" preserveAspectRatio="xMinYMin meet" x="240.5" y="-712.7"/>
<text text-anchor="start" x="255.5" y="-702.8" font-family="Helvetica,sans-Serif" font-size="11.00" fill="#000000">id_estradas</text>
<polygon fill="none" stroke="#000000" points="235.5,-673.7 235.5,-695.7 323.5,-695.7 323.5,-673.7 235.5,-673.7"/>
<image xlink:href="../../images/foreignKeys.png" width="11px" height="12px" preserveAspectRatio="xMinYMin meet" x="240.5" y="-690.7"/>
<text text-anchor="start" x="255.5" y="-680.8" font-family="Helvetica,sans-Serif" font-size="11.00" fill="#000000">id_tipo_line</text>
<polygon fill="none" stroke="#000000" points="235.5,-651.7 235.5,-673.7 323.5,-673.7 323.5,-651.7 235.5,-651.7"/>
<image xlink:href="../../images/foreignKeys.png" width="11px" height="12px" preserveAspectRatio="xMinYMin meet" x="240.5" y="-668.7"/>
<text text-anchor="start" x="255.5" y="-658.8" font-family="Helvetica,sans-Serif" font-size="11.00" fill="#000000">id_estado</text>
<polygon fill="none" stroke="#000000" points="235.5,-629.7 235.5,-651.7 323.5,-651.7 323.5,-629.7 235.5,-629.7"/>
<image xlink:href="../../images/foreignKeys.png" width="11px" height="12px" preserveAspectRatio="xMinYMin meet" x="240.5" y="-646.7"/>
<text text-anchor="start" x="255.5" y="-636.8" font-family="Helvetica,sans-Serif" font-size="11.00" fill="#000000">id_lado</text>
<polygon fill="none" stroke="#000000" points="235.5,-610.7 235.5,-629.7 323.5,-629.7 323.5,-610.7 235.5,-610.7"/>
<text text-anchor="start" x="238.5" y="-616.8" font-family="Helvetica,sans-Serif" font-size="11.00" fill="#000000">...</text>
<polygon fill="#ffffff" stroke="transparent" points="235.5,-591.7 235.5,-610.7 264.5,-610.7 264.5,-591.7 235.5,-591.7"/>
<polygon fill="none" stroke="#000000" points="235.5,-591.7 235.5,-610.7 264.5,-610.7 264.5,-591.7 235.5,-591.7"/>
<text text-anchor="start" x="238.5" y="-597.8" font-family="Helvetica,sans-Serif" font-size="11.00" fill="#000000">&lt; 4</text>
<polygon fill="#ffffff" stroke="transparent" points="264.5,-591.7 264.5,-610.7 306.5,-610.7 306.5,-591.7 264.5,-591.7"/>
<polygon fill="none" stroke="#000000" points="264.5,-591.7 264.5,-610.7 306.5,-610.7 306.5,-591.7 264.5,-591.7"/>
<text text-anchor="start" x="271.1105" y="-597.8" font-family="Helvetica,sans-Serif" font-size="11.00" fill="#000000">0 rows</text>
<polygon fill="#ffffff" stroke="transparent" points="306.5,-591.7 306.5,-610.7 323.5,-610.7 323.5,-591.7 306.5,-591.7"/>
<polygon fill="none" stroke="#000000" points="306.5,-591.7 306.5,-610.7 323.5,-610.7 323.5,-591.7 306.5,-591.7"/>
<text text-anchor="start" x="314.3862" y="-597.8" font-family="Helvetica,sans-Serif" font-size="11.00" fill="#000000"> &#160;</text>
</a>
</g>
</g>
<!-- estado -->
<g id="node2" class="node">
<title>estado</title>
<g id="a_node2"><a xlink:href="../../tables/estado.html" xlink:title="estado" target="_top">
<polygon fill="#ffffff" stroke="transparent" points="8,-333.7 8,-423.7 179,-423.7 179,-333.7 8,-333.7"/>
<polygon fill="#f5f5f5" stroke="transparent" points="10.5,-398.7 10.5,-421.7 177.5,-421.7 177.5,-398.7 10.5,-398.7"/>
<polygon fill="none" stroke="#000000" points="10.5,-398.7 10.5,-421.7 177.5,-421.7 177.5,-398.7 10.5,-398.7"/>
<text text-anchor="start" x="15.5" y="-407.8" font-family="Helvetica,sans-Serif" font-weight="bold" font-size="11.00" fill="#000000">estado</text>
<text text-anchor="start" x="142.5437" y="-406.8" font-family="Helvetica,sans-Serif" font-size="11.00" fill="#000000">[table]</text>
<polygon fill="none" stroke="#000000" points="10.5,-376.7 10.5,-398.7 87.5,-398.7 87.5,-376.7 10.5,-376.7"/>
<image xlink:href="../../images/primaryKeys.png" width="11px" height="12px" preserveAspectRatio="xMinYMin meet" x="15.5" y="-393.7"/>
<text text-anchor="start" x="30.5" y="-383.8" font-family="Helvetica,sans-Serif" font-size="11.00" fill="#000000">id</text>
<polygon fill="none" stroke="#000000" points="87.5,-376.7 87.5,-398.7 177.5,-398.7 177.5,-376.7 87.5,-376.7"/>
<text text-anchor="start" x="90.5" y="-384.4" font-family="Helvetica,sans-Serif" font-size="11.00" fill="#000000">serial[10]</text>
<polygon fill="none" stroke="#000000" points="10.5,-354.7 10.5,-376.7 87.5,-376.7 87.5,-354.7 10.5,-354.7"/>
<text text-anchor="start" x="30.5" y="-361.8" font-family="Helvetica,sans-Serif" font-size="11.00" fill="#000000">descricao</text>
<polygon fill="none" stroke="#000000" points="87.5,-354.7 87.5,-376.7 177.5,-376.7 177.5,-354.7 87.5,-354.7"/>
<text text-anchor="start" x="90.0042" y="-362.4" font-family="Helvetica,sans-Serif" font-size="11.00" fill="#000000">text[2147483647]</text>
<polygon fill="#ffffff" stroke="transparent" points="10.5,-335.7 10.5,-354.7 40.5,-354.7 40.5,-335.7 10.5,-335.7"/>
<polygon fill="none" stroke="#000000" points="10.5,-335.7 10.5,-354.7 40.5,-354.7 40.5,-335.7 10.5,-335.7"/>
<text text-anchor="start" x="13.5" y="-341.8" font-family="Helvetica,sans-Serif" font-size="11.00" fill="#000000">&lt; 0</text>
<polygon fill="#ffffff" stroke="transparent" points="40.5,-335.7 40.5,-354.7 87.5,-354.7 87.5,-335.7 40.5,-335.7"/>
<polygon fill="none" stroke="#000000" points="40.5,-335.7 40.5,-354.7 87.5,-354.7 87.5,-335.7 40.5,-335.7"/>
<text text-anchor="start" x="52.1105" y="-341.8" font-family="Helvetica,sans-Serif" font-size="11.00" fill="#000000">0 rows</text>
<polygon fill="#ffffff" stroke="transparent" points="87.5,-335.7 87.5,-354.7 177.5,-354.7 177.5,-335.7 87.5,-335.7"/>
<polygon fill="none" stroke="#000000" points="87.5,-335.7 87.5,-354.7 177.5,-354.7 177.5,-335.7 87.5,-335.7"/>
<text text-anchor="start" x="158.9053" y="-341.8" font-family="Helvetica,sans-Serif" font-size="11.00" fill="#000000">4 &gt;</text>
<polygon fill="none" stroke="#000000" stroke-width="2" points="9,-334.7 9,-422.7 178,-422.7 178,-334.7 9,-334.7"/>
</a>
</g>
</g>
<!-- lrs_line&#45;&gt;estado -->
<g id="edge1" class="edge">
<title>lrs_line:w&#45;&gt;estado:e</title>
<path fill="none" stroke="#000000" d="M222.1002,-656.9562C183.5894,-617.4653 234.5882,-387.7 177.5,-387.7"/>
<polygon fill="#000000" stroke="#000000" points="228.147,-659.5482 234.0817,-666.0088 231.8235,-661.1241 235.5,-662.7 235.5,-662.7 235.5,-662.7 231.8235,-661.1241 236.9183,-659.3912 228.147,-659.5482 228.147,-659.5482"/>
<ellipse fill="none" stroke="#000000" cx="225.2058" cy="-658.2874" rx="3.2" ry="3.2"/>
</g>
<!-- estradas -->
<g id="node3" class="node">
<title>estradas</title>
<g id="a_node3"><a xlink:href="../../tables/estradas.html" xlink:title="estradas" target="_top">
<polygon fill="#ffffff" stroke="transparent" points="51,-445.2 51,-506.2 136,-506.2 136,-445.2 51,-445.2"/>
<polygon fill="#f5f5f5" stroke="transparent" points="51.5,-482.7 51.5,-505.7 136.5,-505.7 136.5,-482.7 51.5,-482.7"/>
<polygon fill="none" stroke="#000000" points="51.5,-482.7 51.5,-505.7 136.5,-505.7 136.5,-482.7 51.5,-482.7"/>
<text text-anchor="start" x="56.4108" y="-491.8" font-family="Helvetica,sans-Serif" font-weight="bold" font-size="11.00" fill="#000000">estradas</text>
<text text-anchor="start" x="102.0219" y="-490.8" font-family="Helvetica,sans-Serif" font-size="11.00" fill="#000000">[table]</text>
<polygon fill="none" stroke="#000000" points="51.5,-463.7 51.5,-482.7 136.5,-482.7 136.5,-463.7 51.5,-463.7"/>
<text text-anchor="start" x="54.5" y="-469.8" font-family="Helvetica,sans-Serif" font-size="11.00" fill="#000000">...</text>
<polygon fill="#ffffff" stroke="transparent" points="51.5,-444.7 51.5,-463.7 70.5,-463.7 70.5,-444.7 51.5,-444.7"/>
<polygon fill="none" stroke="#000000" points="51.5,-444.7 51.5,-463.7 70.5,-463.7 70.5,-444.7 51.5,-444.7"/>
<text text-anchor="start" x="54.5" y="-450.8" font-family="Helvetica,sans-Serif" font-size="11.00" fill="#000000"> &#160;</text>
<polygon fill="#ffffff" stroke="transparent" points="70.5,-444.7 70.5,-463.7 111.5,-463.7 111.5,-444.7 70.5,-444.7"/>
<polygon fill="none" stroke="#000000" points="70.5,-444.7 70.5,-463.7 111.5,-463.7 111.5,-444.7 70.5,-444.7"/>
<text text-anchor="start" x="76.1105" y="-450.8" font-family="Helvetica,sans-Serif" font-size="11.00" fill="#000000">0 rows</text>
<polygon fill="#ffffff" stroke="transparent" points="111.5,-444.7 111.5,-463.7 136.5,-463.7 136.5,-444.7 111.5,-444.7"/>
<polygon fill="none" stroke="#000000" points="111.5,-444.7 111.5,-463.7 136.5,-463.7 136.5,-444.7 111.5,-444.7"/>
<text text-anchor="start" x="117.9053" y="-450.8" font-family="Helvetica,sans-Serif" font-size="11.00" fill="#000000">7 &gt;</text>
</a>
</g>
</g>
<!-- lrs_line&#45;&gt;estradas -->
<g id="edge2" class="edge">
<title>lrs_line:w&#45;&gt;estradas:e</title>
<path fill="none" stroke="#000000" d="M221.0952,-705.3815C158.384,-692.3885 229.8455,-586.2701 187,-516.7 171.3896,-491.3527 166.2687,-472.7 136.5,-472.7"/>
<polygon fill="#000000" stroke="#000000" points="227.5333,-705.9707 235.1718,-710.285 231.5167,-706.3354 235.5,-706.7 235.5,-706.7 235.5,-706.7 231.5167,-706.3354 235.8282,-703.115 227.5333,-705.9707 227.5333,-705.9707"/>
<ellipse fill="none" stroke="#000000" cx="224.3466" cy="-705.679" rx="3.2" ry="3.2"/>
</g>
<!-- lado -->
<g id="node4" class="node">
<title>lado</title>
<g id="a_node4"><a xlink:href="../../tables/lado.html" xlink:title="lado" target="_top">
<polygon fill="#ffffff" stroke="transparent" points="58,-251.2 58,-312.2 129,-312.2 129,-251.2 58,-251.2"/>
<polygon fill="#f5f5f5" stroke="transparent" points="58.5,-288.7 58.5,-311.7 129.5,-311.7 129.5,-288.7 58.5,-288.7"/>
<polygon fill="none" stroke="#000000" points="58.5,-288.7 58.5,-311.7 129.5,-311.7 129.5,-288.7 58.5,-288.7"/>
<text text-anchor="start" x="63.5" y="-297.8" font-family="Helvetica,sans-Serif" font-weight="bold" font-size="11.00" fill="#000000">lado</text>
<text text-anchor="start" x="94.5437" y="-296.8" font-family="Helvetica,sans-Serif" font-size="11.00" fill="#000000">[table]</text>
<polygon fill="none" stroke="#000000" points="58.5,-269.7 58.5,-288.7 129.5,-288.7 129.5,-269.7 58.5,-269.7"/>
<text text-anchor="start" x="61.5" y="-275.8" font-family="Helvetica,sans-Serif" font-size="11.00" fill="#000000">...</text>
<polygon fill="#ffffff" stroke="transparent" points="58.5,-250.7 58.5,-269.7 70.5,-269.7 70.5,-250.7 58.5,-250.7"/>
<polygon fill="none" stroke="#000000" points="58.5,-250.7 58.5,-269.7 70.5,-269.7 70.5,-250.7 58.5,-250.7"/>
<text text-anchor="start" x="61.4431" y="-256.8" font-family="Helvetica,sans-Serif" font-size="11.00" fill="#000000"> &#160;</text>
<polygon fill="#ffffff" stroke="transparent" points="70.5,-250.7 70.5,-269.7 108.5,-269.7 108.5,-250.7 70.5,-250.7"/>
<polygon fill="none" stroke="#000000" points="70.5,-250.7 70.5,-269.7 108.5,-269.7 108.5,-250.7 70.5,-250.7"/>
<text text-anchor="start" x="73.3053" y="-256.8" font-family="Helvetica,sans-Serif" font-size="11.00" fill="#000000">0 rows</text>
<polygon fill="#ffffff" stroke="transparent" points="108.5,-250.7 108.5,-269.7 129.5,-269.7 129.5,-250.7 108.5,-250.7"/>
<polygon fill="none" stroke="#000000" points="108.5,-250.7 108.5,-269.7 129.5,-269.7 129.5,-250.7 108.5,-250.7"/>
<text text-anchor="start" x="111.2027" y="-256.8" font-family="Helvetica,sans-Serif" font-size="11.00" fill="#000000">4 &gt;</text>
</a>
</g>
</g>
<!-- lrs_line&#45;&gt;lado -->
<g id="edge3" class="edge">
<title>lrs_line:w&#45;&gt;lado:e</title>
<path fill="none" stroke="#000000" d="M221.3665,-636.4586C172.529,-602.9653 219.54,-380.932 187,-323.7 170.9606,-295.4896 161.9513,-278.7 129.5,-278.7"/>
<polygon fill="#000000" stroke="#000000" points="227.8376,-638.4005 234.4652,-644.1481 231.6688,-639.5502 235.5,-640.7 235.5,-640.7 235.5,-640.7 231.6688,-639.5502 236.5348,-637.2519 227.8376,-638.4005 227.8376,-638.4005"/>
<ellipse fill="none" stroke="#000000" cx="224.7726" cy="-637.4807" rx="3.2" ry="3.2"/>
</g>
<!-- tipo_line -->
<g id="node5" class="node">
<title>tipo_line</title>
<g id="a_node5"><a xlink:href="../../tables/tipo_line.html" xlink:title="tipo_line" target="_top">
<polygon fill="#ffffff" stroke="transparent" points="52,-657.2 52,-718.2 135,-718.2 135,-657.2 52,-657.2"/>
<polygon fill="#f5f5f5" stroke="transparent" points="52.5,-694.7 52.5,-717.7 135.5,-717.7 135.5,-694.7 52.5,-694.7"/>
<polygon fill="none" stroke="#000000" points="52.5,-694.7 52.5,-717.7 135.5,-717.7 135.5,-694.7 52.5,-694.7"/>
<text text-anchor="start" x="57.023" y="-703.8" font-family="Helvetica,sans-Serif" font-weight="bold" font-size="11.00" fill="#000000">tipo_line</text>
<text text-anchor="start" x="101.0219" y="-702.8" font-family="Helvetica,sans-Serif" font-size="11.00" fill="#000000">[table]</text>
<polygon fill="none" stroke="#000000" points="52.5,-675.7 52.5,-694.7 135.5,-694.7 135.5,-675.7 52.5,-675.7"/>
<text text-anchor="start" x="55.5" y="-681.8" font-family="Helvetica,sans-Serif" font-size="11.00" fill="#000000">...</text>
<polygon fill="#ffffff" stroke="transparent" points="52.5,-656.7 52.5,-675.7 70.5,-675.7 70.5,-656.7 52.5,-656.7"/>
<polygon fill="none" stroke="#000000" points="52.5,-656.7 52.5,-675.7 70.5,-675.7 70.5,-656.7 52.5,-656.7"/>
<text text-anchor="start" x="55.5" y="-662.8" font-family="Helvetica,sans-Serif" font-size="11.00" fill="#000000"> &#160;</text>
<polygon fill="#ffffff" stroke="transparent" points="70.5,-656.7 70.5,-675.7 111.5,-675.7 111.5,-656.7 70.5,-656.7"/>
<polygon fill="none" stroke="#000000" points="70.5,-656.7 70.5,-675.7 111.5,-675.7 111.5,-656.7 70.5,-656.7"/>
<text text-anchor="start" x="76.1105" y="-662.8" font-family="Helvetica,sans-Serif" font-size="11.00" fill="#000000">0 rows</text>
<polygon fill="#ffffff" stroke="transparent" points="111.5,-656.7 111.5,-675.7 135.5,-675.7 135.5,-656.7 111.5,-656.7"/>
<polygon fill="none" stroke="#000000" points="111.5,-656.7 111.5,-675.7 135.5,-675.7 135.5,-656.7 111.5,-656.7"/>
<text text-anchor="start" x="116.9053" y="-662.8" font-family="Helvetica,sans-Serif" font-size="11.00" fill="#000000">1 &gt;</text>
</a>
</g>
</g>
<!-- lrs_line&#45;&gt;tipo_line -->
<g id="edge4" class="edge">
<title>lrs_line:w&#45;&gt;tipo_line:e</title>
<path fill="none" stroke="#000000" d="M220.7022,-684.7C187.8758,-684.7 174.5625,-684.7 135.5,-684.7"/>
<polygon fill="#000000" stroke="#000000" points="227.5,-684.7001 235.5,-688.3 231.5,-684.7 235.5,-684.7 235.5,-684.7 235.5,-684.7 231.5,-684.7 235.5,-681.1 227.5,-684.7001 227.5,-684.7001"/>
<ellipse fill="none" stroke="#000000" cx="224.3" cy="-684.7001" rx="3.2" ry="3.2"/>
</g>
<!-- lrs_node -->
<g id="node6" class="node">
<title>lrs_node</title>
<g id="a_node6"><a xlink:href="../../tables/lrs_node.html" xlink:title="lrs_node" target="_top">
<polygon fill="#ffffff" stroke="transparent" points="231.5,-38.2 231.5,-209.2 327.5,-209.2 327.5,-38.2 231.5,-38.2"/>
<polygon fill="#f5f5f5" stroke="transparent" points="231.5,-185.7 231.5,-208.7 327.5,-208.7 327.5,-185.7 231.5,-185.7"/>
<polygon fill="none" stroke="#000000" points="231.5,-185.7 231.5,-208.7 327.5,-208.7 327.5,-185.7 231.5,-185.7"/>
<text text-anchor="start" x="236.5" y="-194.8" font-family="Helvetica,sans-Serif" font-weight="bold" font-size="11.00" fill="#000000">lrs_node</text>
<text text-anchor="start" x="292.5437" y="-193.8" font-family="Helvetica,sans-Serif" font-size="11.00" fill="#000000">[table]</text>
<polygon fill="none" stroke="#000000" points="231.5,-163.7 231.5,-185.7 327.5,-185.7 327.5,-163.7 231.5,-163.7"/>
<image xlink:href="../../images/primaryKeys.png" width="11px" height="12px" preserveAspectRatio="xMinYMin meet" x="236.5" y="-180.7"/>
<text text-anchor="start" x="251.5" y="-170.8" font-family="Helvetica,sans-Serif" font-size="11.00" fill="#000000">id</text>
<polygon fill="none" stroke="#000000" points="231.5,-141.7 231.5,-163.7 327.5,-163.7 327.5,-141.7 231.5,-141.7"/>
<image xlink:href="../../images/foreignKeys.png" width="11px" height="12px" preserveAspectRatio="xMinYMin meet" x="236.5" y="-158.7"/>
<text text-anchor="start" x="251.5" y="-148.8" font-family="Helvetica,sans-Serif" font-size="11.00" fill="#000000">id_estradas</text>
<polygon fill="none" stroke="#000000" points="231.5,-119.7 231.5,-141.7 327.5,-141.7 327.5,-119.7 231.5,-119.7"/>
<image xlink:href="../../images/foreignKeys.png" width="11px" height="12px" preserveAspectRatio="xMinYMin meet" x="236.5" y="-136.7"/>
<text text-anchor="start" x="251.5" y="-126.8" font-family="Helvetica,sans-Serif" font-size="11.00" fill="#000000">id_tipo_node</text>
<polygon fill="none" stroke="#000000" points="231.5,-97.7 231.5,-119.7 327.5,-119.7 327.5,-97.7 231.5,-97.7"/>
<image xlink:href="../../images/foreignKeys.png" width="11px" height="12px" preserveAspectRatio="xMinYMin meet" x="236.5" y="-114.7"/>
<text text-anchor="start" x="251.5" y="-104.8" font-family="Helvetica,sans-Serif" font-size="11.00" fill="#000000">id_estado</text>
<polygon fill="none" stroke="#000000" points="231.5,-75.7 231.5,-97.7 327.5,-97.7 327.5,-75.7 231.5,-75.7"/>
<image xlink:href="../../images/foreignKeys.png" width="11px" height="12px" preserveAspectRatio="xMinYMin meet" x="236.5" y="-92.7"/>
<text text-anchor="start" x="251.5" y="-82.8" font-family="Helvetica,sans-Serif" font-size="11.00" fill="#000000">id_lado</text>
<polygon fill="none" stroke="#000000" points="231.5,-56.7 231.5,-75.7 327.5,-75.7 327.5,-56.7 231.5,-56.7"/>
<text text-anchor="start" x="234.5" y="-62.8" font-family="Helvetica,sans-Serif" font-size="11.00" fill="#000000">...</text>
<polygon fill="#ffffff" stroke="transparent" points="231.5,-37.7 231.5,-56.7 264.5,-56.7 264.5,-37.7 231.5,-37.7"/>
<polygon fill="none" stroke="#000000" points="231.5,-37.7 231.5,-56.7 264.5,-56.7 264.5,-37.7 231.5,-37.7"/>
<text text-anchor="start" x="234.5" y="-43.8" font-family="Helvetica,sans-Serif" font-size="11.00" fill="#000000">&lt; 4</text>
<polygon fill="#ffffff" stroke="transparent" points="264.5,-37.7 264.5,-56.7 308.5,-56.7 308.5,-37.7 264.5,-37.7"/>
<polygon fill="none" stroke="#000000" points="264.5,-37.7 264.5,-56.7 308.5,-56.7 308.5,-37.7 264.5,-37.7"/>
<text text-anchor="start" x="273.1105" y="-43.8" font-family="Helvetica,sans-Serif" font-size="11.00" fill="#000000">0 rows</text>
<polygon fill="#ffffff" stroke="transparent" points="308.5,-37.7 308.5,-56.7 327.5,-56.7 327.5,-37.7 308.5,-37.7"/>
<polygon fill="none" stroke="#000000" points="308.5,-37.7 308.5,-56.7 327.5,-56.7 327.5,-37.7 308.5,-37.7"/>
<text text-anchor="start" x="318.3862" y="-43.8" font-family="Helvetica,sans-Serif" font-size="11.00" fill="#000000"> &#160;</text>
</a>
</g>
</g>
<!-- lrs_node&#45;&gt;estado -->
<g id="edge5" class="edge">
<title>lrs_node:w&#45;&gt;estado:e</title>
<path fill="none" stroke="#000000" d="M218.0481,-114.5273C179.7758,-154.5926 235.2236,-387.7 177.5,-387.7"/>
<polygon fill="#000000" stroke="#000000" points="224.1592,-111.88 232.931,-112.0034 227.8296,-110.29 231.5,-108.7 231.5,-108.7 231.5,-108.7 227.8296,-110.29 230.069,-105.3966 224.1592,-111.88 224.1592,-111.88"/>
<ellipse fill="none" stroke="#000000" cx="221.2229" cy="-113.1521" rx="3.2" ry="3.2"/>
</g>
<!-- lrs_node&#45;&gt;estradas -->
<g id="edge6" class="edge">
<title>lrs_node:w&#45;&gt;estradas:e</title>
<path fill="none" stroke="#000000" d="M218.0599,-158.2534C210.7704,-169.7232 223.7114,-196.8677 220,-219.7 201.0015,-336.5762 254.9103,-472.7 136.5,-472.7"/>
<polygon fill="#000000" stroke="#000000" points="224.1063,-155.7551 232.8748,-156.0272 227.8032,-154.2275 231.5,-152.7 231.5,-152.7 231.5,-152.7 227.8032,-154.2275 230.1252,-149.3728 224.1063,-155.7551 224.1063,-155.7551"/>
<ellipse fill="none" stroke="#000000" cx="221.1488" cy="-156.9771" rx="3.2" ry="3.2"/>
</g>
<!-- lrs_node&#45;&gt;lado -->
<g id="edge7" class="edge">
<title>lrs_node:w&#45;&gt;lado:e</title>
<path fill="none" stroke="#000000" d="M217.1622,-89.1667C192.2269,-99.5992 204.7734,-141.1053 187,-174.7 162.3009,-221.3855 182.3165,-278.7 129.5,-278.7"/>
<polygon fill="#000000" stroke="#000000" points="223.6158,-88.0564 232.1104,-90.2479 227.5579,-87.3782 231.5,-86.7 231.5,-86.7 231.5,-86.7 227.5579,-87.3782 230.8896,-83.1521 223.6158,-88.0564 223.6158,-88.0564"/>
<ellipse fill="none" stroke="#000000" cx="220.4622" cy="-88.599" rx="3.2" ry="3.2"/>
</g>
<!-- tipo_node -->
<g id="node7" class="node">
<title>tipo_node</title>
<g id="a_node7"><a xlink:href="../../tables/tipo_node.html" xlink:title="tipo_node" target="_top">
<polygon fill="#ffffff" stroke="transparent" points="48,-103.2 48,-164.2 139,-164.2 139,-103.2 48,-103.2"/>
<polygon fill="#f5f5f5" stroke="transparent" points="48.5,-140.7 48.5,-163.7 139.5,-163.7 139.5,-140.7 48.5,-140.7"/>
<polygon fill="none" stroke="#000000" points="48.5,-140.7 48.5,-163.7 139.5,-163.7 139.5,-140.7 48.5,-140.7"/>
<text text-anchor="start" x="53.349" y="-149.8" font-family="Helvetica,sans-Serif" font-weight="bold" font-size="11.00" fill="#000000">tipo_node</text>
<text text-anchor="start" x="105.0219" y="-148.8" font-family="Helvetica,sans-Serif" font-size="11.00" fill="#000000">[table]</text>
<polygon fill="none" stroke="#000000" points="48.5,-121.7 48.5,-140.7 139.5,-140.7 139.5,-121.7 48.5,-121.7"/>
<text text-anchor="start" x="51.5" y="-127.8" font-family="Helvetica,sans-Serif" font-size="11.00" fill="#000000">...</text>
<polygon fill="#ffffff" stroke="transparent" points="48.5,-102.7 48.5,-121.7 70.5,-121.7 70.5,-102.7 48.5,-102.7"/>
<polygon fill="none" stroke="#000000" points="48.5,-102.7 48.5,-121.7 70.5,-121.7 70.5,-102.7 48.5,-102.7"/>
<text text-anchor="start" x="51.5" y="-108.8" font-family="Helvetica,sans-Serif" font-size="11.00" fill="#000000"> &#160;</text>
<polygon fill="#ffffff" stroke="transparent" points="70.5,-102.7 70.5,-121.7 113.5,-121.7 113.5,-102.7 70.5,-102.7"/>
<polygon fill="none" stroke="#000000" points="70.5,-102.7 70.5,-121.7 113.5,-121.7 113.5,-102.7 70.5,-102.7"/>
<text text-anchor="start" x="78.1105" y="-108.8" font-family="Helvetica,sans-Serif" font-size="11.00" fill="#000000">0 rows</text>
<polygon fill="#ffffff" stroke="transparent" points="113.5,-102.7 113.5,-121.7 139.5,-121.7 139.5,-102.7 113.5,-102.7"/>
<polygon fill="none" stroke="#000000" points="113.5,-102.7 113.5,-121.7 139.5,-121.7 139.5,-102.7 113.5,-102.7"/>
<text text-anchor="start" x="120.9053" y="-108.8" font-family="Helvetica,sans-Serif" font-size="11.00" fill="#000000">1 &gt;</text>
</a>
</g>
</g>
<!-- lrs_node&#45;&gt;tipo_node -->
<g id="edge8" class="edge">
<title>lrs_node:w&#45;&gt;tipo_node:e</title>
<path fill="none" stroke="#000000" d="M217.0849,-130.7C187.4661,-130.7 175.1181,-130.7 139.5,-130.7"/>
<polygon fill="#000000" stroke="#000000" points="223.5,-130.7001 231.5,-134.3 227.5,-130.7 231.5,-130.7 231.5,-130.7 231.5,-130.7 227.5,-130.7 231.5,-127.1 223.5,-130.7001 223.5,-130.7001"/>
<ellipse fill="none" stroke="#000000" cx="220.3" cy="-130.7001" rx="3.2" ry="3.2"/>
</g>
<!-- rails -->
<g id="node8" class="node">
<title>rails</title>
<g id="a_node8"><a xlink:href="../../tables/rails.html" xlink:title="rails" target="_top">
<polygon fill="#ffffff" stroke="transparent" points="235.5,-230.2 235.5,-379.2 323.5,-379.2 323.5,-230.2 235.5,-230.2"/>
<polygon fill="#f5f5f5" stroke="transparent" points="235.5,-355.7 235.5,-378.7 323.5,-378.7 323.5,-355.7 235.5,-355.7"/>
<polygon fill="none" stroke="#000000" points="235.5,-355.7 235.5,-378.7 323.5,-378.7 323.5,-355.7 235.5,-355.7"/>
<text text-anchor="start" x="240.5" y="-364.8" font-family="Helvetica,sans-Serif" font-weight="bold" font-size="11.00" fill="#000000">rails</text>
<text text-anchor="start" x="288.5437" y="-363.8" font-family="Helvetica,sans-Serif" font-size="11.00" fill="#000000">[table]</text>
<polygon fill="none" stroke="#000000" points="235.5,-333.7 235.5,-355.7 323.5,-355.7 323.5,-333.7 235.5,-333.7"/>
<image xlink:href="../../images/primaryKeys.png" width="11px" height="12px" preserveAspectRatio="xMinYMin meet" x="240.5" y="-350.7"/>
<text text-anchor="start" x="255.5" y="-340.8" font-family="Helvetica,sans-Serif" font-size="11.00" fill="#000000">id</text>
<polygon fill="none" stroke="#000000" points="235.5,-311.7 235.5,-333.7 323.5,-333.7 323.5,-311.7 235.5,-311.7"/>
<image xlink:href="../../images/foreignKeys.png" width="11px" height="12px" preserveAspectRatio="xMinYMin meet" x="240.5" y="-328.7"/>
<text text-anchor="start" x="255.5" y="-318.8" font-family="Helvetica,sans-Serif" font-size="11.00" fill="#000000">id_estradas</text>
<polygon fill="none" stroke="#000000" points="235.5,-289.7 235.5,-311.7 323.5,-311.7 323.5,-289.7 235.5,-289.7"/>
<image xlink:href="../../images/foreignKeys.png" width="11px" height="12px" preserveAspectRatio="xMinYMin meet" x="240.5" y="-306.7"/>
<text text-anchor="start" x="255.5" y="-296.8" font-family="Helvetica,sans-Serif" font-size="11.00" fill="#000000">id_estado</text>
<polygon fill="none" stroke="#000000" points="235.5,-267.7 235.5,-289.7 323.5,-289.7 323.5,-267.7 235.5,-267.7"/>
<image xlink:href="../../images/foreignKeys.png" width="11px" height="12px" preserveAspectRatio="xMinYMin meet" x="240.5" y="-284.7"/>
<text text-anchor="start" x="255.5" y="-274.8" font-family="Helvetica,sans-Serif" font-size="11.00" fill="#000000">id_lado</text>
<polygon fill="none" stroke="#000000" points="235.5,-248.7 235.5,-267.7 323.5,-267.7 323.5,-248.7 235.5,-248.7"/>
<text text-anchor="start" x="238.5" y="-254.8" font-family="Helvetica,sans-Serif" font-size="11.00" fill="#000000">...</text>
<polygon fill="#ffffff" stroke="transparent" points="235.5,-229.7 235.5,-248.7 264.5,-248.7 264.5,-229.7 235.5,-229.7"/>
<polygon fill="none" stroke="#000000" points="235.5,-229.7 235.5,-248.7 264.5,-248.7 264.5,-229.7 235.5,-229.7"/>
<text text-anchor="start" x="238.5" y="-235.8" font-family="Helvetica,sans-Serif" font-size="11.00" fill="#000000">&lt; 3</text>
<polygon fill="#ffffff" stroke="transparent" points="264.5,-229.7 264.5,-248.7 306.5,-248.7 306.5,-229.7 264.5,-229.7"/>
<polygon fill="none" stroke="#000000" points="264.5,-229.7 264.5,-248.7 306.5,-248.7 306.5,-229.7 264.5,-229.7"/>
<text text-anchor="start" x="271.1105" y="-235.8" font-family="Helvetica,sans-Serif" font-size="11.00" fill="#000000">0 rows</text>
<polygon fill="#ffffff" stroke="transparent" points="306.5,-229.7 306.5,-248.7 323.5,-248.7 323.5,-229.7 306.5,-229.7"/>
<polygon fill="none" stroke="#000000" points="306.5,-229.7 306.5,-248.7 323.5,-248.7 323.5,-229.7 306.5,-229.7"/>
<text text-anchor="start" x="314.3862" y="-235.8" font-family="Helvetica,sans-Serif" font-size="11.00" fill="#000000"> &#160;</text>
</a>
</g>
</g>
<!-- rails&#45;&gt;estado -->
<g id="edge9" class="edge">
<title>rails:w&#45;&gt;estado:e</title>
<path fill="none" stroke="#000000" d="M221.5715,-304.4383C196.4921,-321.0906 218.1626,-387.7 177.5,-387.7"/>
<polygon fill="#000000" stroke="#000000" points="227.7734,-302.7738 236.4332,-304.177 231.6367,-301.7369 235.5,-300.7 235.5,-300.7 235.5,-300.7 231.6367,-301.7369 234.5668,-297.223 227.7734,-302.7738 227.7734,-302.7738"/>
<ellipse fill="none" stroke="#000000" cx="224.6828" cy="-303.6033" rx="3.2" ry="3.2"/>
</g>
<!-- rails&#45;&gt;estradas -->
<g id="edge10" class="edge">
<title>rails:w&#45;&gt;estradas:e</title>
<path fill="none" stroke="#000000" d="M221.2634,-324.9027C188.7367,-337.0386 217.0252,-396.5816 187,-434.7 169.6192,-456.7657 164.5889,-472.7 136.5,-472.7"/>
<polygon fill="#000000" stroke="#000000" points="227.5941,-323.9233 236.0505,-326.2577 231.547,-323.3116 235.5,-322.7 235.5,-322.7 235.5,-322.7 231.547,-323.3116 234.9495,-319.1423 227.5941,-323.9233 227.5941,-323.9233"/>
<ellipse fill="none" stroke="#000000" cx="224.4317" cy="-324.4126" rx="3.2" ry="3.2"/>
</g>
<!-- rails&#45;&gt;lado -->
<g id="edge11" class="edge">
<title>rails:w&#45;&gt;lado:e</title>
<path fill="none" stroke="#000000" d="M220.7471,-278.7C185.2671,-278.7 171.2743,-278.7 129.5,-278.7"/>
<polygon fill="#000000" stroke="#000000" points="227.5,-278.7001 235.5,-282.3 231.5,-278.7 235.5,-278.7 235.5,-278.7 235.5,-278.7 231.5,-278.7 235.5,-275.1 227.5,-278.7001 227.5,-278.7001"/>
<ellipse fill="none" stroke="#000000" cx="224.3" cy="-278.7001" rx="3.2" ry="3.2"/>
</g>
<!-- valetas -->
<g id="node9" class="node">
<title>valetas</title>
<g id="a_node9"><a xlink:href="../../tables/valetas.html" xlink:title="valetas" target="_top">
<polygon fill="#ffffff" stroke="transparent" points="228,-400.2 228,-571.2 331,-571.2 331,-400.2 228,-400.2"/>
<polygon fill="#f5f5f5" stroke="transparent" points="228.5,-547.7 228.5,-570.7 331.5,-570.7 331.5,-547.7 228.5,-547.7"/>
<polygon fill="none" stroke="#000000" points="228.5,-547.7 228.5,-570.7 331.5,-570.7 331.5,-547.7 228.5,-547.7"/>
<text text-anchor="start" x="233.5" y="-556.8" font-family="Helvetica,sans-Serif" font-weight="bold" font-size="11.00" fill="#000000">valetas</text>
<text text-anchor="start" x="296.5437" y="-555.8" font-family="Helvetica,sans-Serif" font-size="11.00" fill="#000000">[table]</text>
<polygon fill="none" stroke="#000000" points="228.5,-525.7 228.5,-547.7 331.5,-547.7 331.5,-525.7 228.5,-525.7"/>
<image xlink:href="../../images/primaryKeys.png" width="11px" height="12px" preserveAspectRatio="xMinYMin meet" x="233.5" y="-542.7"/>
<text text-anchor="start" x="248.5" y="-532.8" font-family="Helvetica,sans-Serif" font-size="11.00" fill="#000000">id</text>
<polygon fill="none" stroke="#000000" points="228.5,-503.7 228.5,-525.7 331.5,-525.7 331.5,-503.7 228.5,-503.7"/>
<image xlink:href="../../images/foreignKeys.png" width="11px" height="12px" preserveAspectRatio="xMinYMin meet" x="233.5" y="-520.7"/>
<text text-anchor="start" x="248.5" y="-510.8" font-family="Helvetica,sans-Serif" font-size="11.00" fill="#000000">id_estradas</text>
<polygon fill="none" stroke="#000000" points="228.5,-481.7 228.5,-503.7 331.5,-503.7 331.5,-481.7 228.5,-481.7"/>
<image xlink:href="../../images/foreignKeys.png" width="11px" height="12px" preserveAspectRatio="xMinYMin meet" x="233.5" y="-498.7"/>
<text text-anchor="start" x="248.5" y="-488.8" font-family="Helvetica,sans-Serif" font-size="11.00" fill="#000000">id_tipo_valeta</text>
<polygon fill="none" stroke="#000000" points="228.5,-459.7 228.5,-481.7 331.5,-481.7 331.5,-459.7 228.5,-459.7"/>
<image xlink:href="../../images/foreignKeys.png" width="11px" height="12px" preserveAspectRatio="xMinYMin meet" x="233.5" y="-476.7"/>
<text text-anchor="start" x="248.5" y="-466.8" font-family="Helvetica,sans-Serif" font-size="11.00" fill="#000000">id_estado</text>
<polygon fill="none" stroke="#000000" points="228.5,-437.7 228.5,-459.7 331.5,-459.7 331.5,-437.7 228.5,-437.7"/>
<image xlink:href="../../images/foreignKeys.png" width="11px" height="12px" preserveAspectRatio="xMinYMin meet" x="233.5" y="-454.7"/>
<text text-anchor="start" x="248.5" y="-444.8" font-family="Helvetica,sans-Serif" font-size="11.00" fill="#000000">id_lado</text>
<polygon fill="none" stroke="#000000" points="228.5,-418.7 228.5,-437.7 331.5,-437.7 331.5,-418.7 228.5,-418.7"/>
<text text-anchor="start" x="231.5" y="-424.8" font-family="Helvetica,sans-Serif" font-size="11.00" fill="#000000">...</text>
<polygon fill="#ffffff" stroke="transparent" points="228.5,-399.7 228.5,-418.7 265.5,-418.7 265.5,-399.7 228.5,-399.7"/>
<polygon fill="none" stroke="#000000" points="228.5,-399.7 228.5,-418.7 265.5,-418.7 265.5,-399.7 228.5,-399.7"/>
<text text-anchor="start" x="231.5" y="-405.8" font-family="Helvetica,sans-Serif" font-size="11.00" fill="#000000">&lt; 4</text>
<polygon fill="#ffffff" stroke="transparent" points="265.5,-399.7 265.5,-418.7 311.5,-418.7 311.5,-399.7 265.5,-399.7"/>
<polygon fill="none" stroke="#000000" points="265.5,-399.7 265.5,-418.7 311.5,-418.7 311.5,-399.7 265.5,-399.7"/>
<text text-anchor="start" x="276.1105" y="-405.8" font-family="Helvetica,sans-Serif" font-size="11.00" fill="#000000">0 rows</text>
<polygon fill="#ffffff" stroke="transparent" points="311.5,-399.7 311.5,-418.7 331.5,-418.7 331.5,-399.7 311.5,-399.7"/>
<polygon fill="none" stroke="#000000" points="311.5,-399.7 311.5,-418.7 331.5,-418.7 331.5,-399.7 311.5,-399.7"/>
<text text-anchor="start" x="322.3862" y="-405.8" font-family="Helvetica,sans-Serif" font-size="11.00" fill="#000000"> &#160;</text>
</a>
</g>
</g>
<!-- valetas&#45;&gt;estado -->
<g id="edge12" class="edge">
<title>valetas:w&#45;&gt;estado:e</title>
<path fill="none" stroke="#000000" d="M214.4758,-466.2376C193.6541,-448.9976 214.7077,-387.7 177.5,-387.7"/>
<polygon fill="#000000" stroke="#000000" points="220.8766,-468.2742 227.4084,-474.1305 224.6883,-469.4871 228.5,-470.7 228.5,-470.7 228.5,-470.7 224.6883,-469.4871 229.5916,-467.2695 220.8766,-468.2742 220.8766,-468.2742"/>
<ellipse fill="none" stroke="#000000" cx="217.8273" cy="-467.3039" rx="3.2" ry="3.2"/>
</g>
<!-- valetas&#45;&gt;estradas -->
<g id="edge13" class="edge">
<title>valetas:w&#45;&gt;estradas:e</title>
<path fill="none" stroke="#000000" d="M213.9038,-513.0015C182.414,-505.144 176.0053,-472.7 136.5,-472.7"/>
<polygon fill="#000000" stroke="#000000" points="220.5536,-513.7753 228.0839,-518.2759 224.5268,-514.2376 228.5,-514.7 228.5,-514.7 228.5,-514.7 224.5268,-514.2376 228.9161,-511.1241 220.5536,-513.7753 220.5536,-513.7753"/>
<ellipse fill="none" stroke="#000000" cx="217.3751" cy="-513.4054" rx="3.2" ry="3.2"/>
</g>
<!-- valetas&#45;&gt;lado -->
<g id="edge14" class="edge">
<title>valetas:w&#45;&gt;lado:e</title>
<path fill="none" stroke="#000000" d="M213.8432,-446.4243C179.3994,-433.3325 217.2855,-366.6968 187,-323.7 168.3127,-297.1694 161.9513,-278.7 129.5,-278.7"/>
<polygon fill="#000000" stroke="#000000" points="220.5947,-447.4725 227.9476,-452.2574 224.5474,-448.0863 228.5,-448.7 228.5,-448.7 228.5,-448.7 224.5474,-448.0863 229.0524,-445.1426 220.5947,-447.4725 220.5947,-447.4725"/>
<ellipse fill="none" stroke="#000000" cx="217.4326" cy="-446.9816" rx="3.2" ry="3.2"/>
</g>
<!-- tipo_valeta -->
<g id="node10" class="node">
<title>tipo_valeta</title>
<g id="a_node10"><a xlink:href="../../tables/tipo_valeta.html" xlink:title="tipo_valeta" target="_top">
<polygon fill="#ffffff" stroke="transparent" points="45.5,-527.2 45.5,-588.2 141.5,-588.2 141.5,-527.2 45.5,-527.2"/>
<polygon fill="#f5f5f5" stroke="transparent" points="45.5,-564.7 45.5,-587.7 141.5,-587.7 141.5,-564.7 45.5,-564.7"/>
<polygon fill="none" stroke="#000000" points="45.5,-564.7 45.5,-587.7 141.5,-587.7 141.5,-564.7 45.5,-564.7"/>
<text text-anchor="start" x="50.4075" y="-573.8" font-family="Helvetica,sans-Serif" font-weight="bold" font-size="11.00" fill="#000000">tipo_valeta</text>
<text text-anchor="start" x="107.0219" y="-572.8" font-family="Helvetica,sans-Serif" font-size="11.00" fill="#000000">[table]</text>
<polygon fill="none" stroke="#000000" points="45.5,-545.7 45.5,-564.7 141.5,-564.7 141.5,-545.7 45.5,-545.7"/>
<text text-anchor="start" x="48.5" y="-551.8" font-family="Helvetica,sans-Serif" font-size="11.00" fill="#000000">...</text>
<polygon fill="#ffffff" stroke="transparent" points="45.5,-526.7 45.5,-545.7 69.5,-545.7 69.5,-526.7 45.5,-526.7"/>
<polygon fill="none" stroke="#000000" points="45.5,-526.7 45.5,-545.7 69.5,-545.7 69.5,-526.7 45.5,-526.7"/>
<text text-anchor="start" x="48.5" y="-532.8" font-family="Helvetica,sans-Serif" font-size="11.00" fill="#000000"> &#160;</text>
<polygon fill="#ffffff" stroke="transparent" points="69.5,-526.7 69.5,-545.7 113.5,-545.7 113.5,-526.7 69.5,-526.7"/>
<polygon fill="none" stroke="#000000" points="69.5,-526.7 69.5,-545.7 113.5,-545.7 113.5,-526.7 69.5,-526.7"/>
<text text-anchor="start" x="78.1105" y="-532.8" font-family="Helvetica,sans-Serif" font-size="11.00" fill="#000000">0 rows</text>
<polygon fill="#ffffff" stroke="transparent" points="113.5,-526.7 113.5,-545.7 141.5,-545.7 141.5,-526.7 113.5,-526.7"/>
<polygon fill="none" stroke="#000000" points="113.5,-526.7 113.5,-545.7 141.5,-545.7 141.5,-526.7 113.5,-526.7"/>
<text text-anchor="start" x="122.9053" y="-532.8" font-family="Helvetica,sans-Serif" font-size="11.00" fill="#000000">1 &gt;</text>
</a>
</g>
</g>
<!-- valetas&#45;&gt;tipo_valeta -->
<g id="edge15" class="edge">
<title>valetas:w&#45;&gt;tipo_valeta:e</title>
<path fill="none" stroke="#000000" d="M213.9133,-495.0548C182.1239,-506.3798 183.4166,-554.7 141.5,-554.7"/>
<polygon fill="#000000" stroke="#000000" points="220.6022,-493.975 229.0737,-496.254 224.5511,-493.3375 228.5,-492.7 228.5,-492.7 228.5,-492.7 224.5511,-493.3375 227.9263,-489.146 220.6022,-493.975 220.6022,-493.975"/>
<ellipse fill="none" stroke="#000000" cx="217.4431" cy="-494.485" rx="3.2" ry="3.2"/>
</g>
</g>
</svg>
