<?xml version="1.0" encoding="UTF-8" standalone="no"?>
<!DOCTYPE svg PUBLIC "-//W3C//DTD SVG 1.1//EN"
 "http://www.w3.org/Graphics/SVG/1.1/DTD/svg11.dtd">
<!-- Generated by graphviz version 2.40.1 (20161225.0304)
 -->
<!-- Title: oneDegreeRelationshipsDiagram Pages: 1 -->
<svg width="405pt" height="1197pt"
 viewBox="0.00 0.00 405.00 1197.20" xmlns="http://www.w3.org/2000/svg" xmlns:xlink="http://www.w3.org/1999/xlink">
<g id="graph0" class="graph" transform="scale(1 1) rotate(0) translate(4 1193.2)">
<title>oneDegreeRelationshipsDiagram</title>
<polygon fill="#ffffff" stroke="transparent" points="-4,4 -4,-1193.2 401,-1193.2 401,4 -4,4"/>
<text text-anchor="middle" x="72.4936" y="-7.3" font-family="Helvetica,sans-Serif" font-size="11.00" fill="#000000">Generated by SchemaSpy</text>
<!-- caract -->
<g id="node1" class="node">
<title>caract</title>
<g id="a_node1"><a xlink:href="../../tables/caract.html" xlink:title="caract" target="_top">
<polygon fill="#ffffff" stroke="transparent" points="274.5,-1080.2 274.5,-1185.2 366.5,-1185.2 366.5,-1080.2 274.5,-1080.2"/>
<polygon fill="#f5f5f5" stroke="transparent" points="274.5,-1161.7 274.5,-1184.7 366.5,-1184.7 366.5,-1161.7 274.5,-1161.7"/>
<polygon fill="none" stroke="#000000" points="274.5,-1161.7 274.5,-1184.7 366.5,-1184.7 366.5,-1161.7 274.5,-1161.7"/>
<text text-anchor="start" x="279.5" y="-1170.8" font-family="Helvetica,sans-Serif" font-weight="bold" font-size="11.00" fill="#000000">caract</text>
<text text-anchor="start" x="331.5437" y="-1169.8" font-family="Helvetica,sans-Serif" font-size="11.00" fill="#000000">[table]</text>
<polygon fill="none" stroke="#000000" points="274.5,-1139.7 274.5,-1161.7 366.5,-1161.7 366.5,-1139.7 274.5,-1139.7"/>
<image xlink:href="../../images/primaryKeys.png" width="11px" height="12px" preserveAspectRatio="xMinYMin meet" x="279.5" y="-1156.7"/>
<text text-anchor="start" x="294.5" y="-1146.8" font-family="Helvetica,sans-Serif" font-size="11.00" fill="#000000">id</text>
<polygon fill="#ffffff" stroke="transparent" points="274.5,-1117.7 274.5,-1139.7 366.5,-1139.7 366.5,-1117.7 274.5,-1117.7"/>
<polygon fill="none" stroke="#000000" points="274.5,-1117.7 274.5,-1139.7 366.5,-1139.7 366.5,-1117.7 274.5,-1117.7"/>
<image xlink:href="../../images/foreignKeys.png" width="11px" height="12px" preserveAspectRatio="xMinYMin meet" x="279.5" y="-1134.7"/>
<text text-anchor="start" x="294.5" y="-1124.8" font-family="Helvetica,sans-Serif" font-size="11.00" fill="#000000">id_estradas</text>
<polygon fill="none" stroke="#000000" points="274.5,-1098.7 274.5,-1117.7 366.5,-1117.7 366.5,-1098.7 274.5,-1098.7"/>
<text text-anchor="start" x="277.5" y="-1104.8" font-family="Helvetica,sans-Serif" font-size="11.00" fill="#000000">...</text>
<polygon fill="#ffffff" stroke="transparent" points="274.5,-1079.7 274.5,-1098.7 305.5,-1098.7 305.5,-1079.7 274.5,-1079.7"/>
<polygon fill="none" stroke="#000000" points="274.5,-1079.7 274.5,-1098.7 305.5,-1098.7 305.5,-1079.7 274.5,-1079.7"/>
<text text-anchor="start" x="277.5" y="-1085.8" font-family="Helvetica,sans-Serif" font-size="11.00" fill="#000000">&lt; 1</text>
<polygon fill="#ffffff" stroke="transparent" points="305.5,-1079.7 305.5,-1098.7 348.5,-1098.7 348.5,-1079.7 305.5,-1079.7"/>
<polygon fill="none" stroke="#000000" points="305.5,-1079.7 305.5,-1098.7 348.5,-1098.7 348.5,-1079.7 305.5,-1079.7"/>
<text text-anchor="start" x="313.1105" y="-1085.8" font-family="Helvetica,sans-Serif" font-size="11.00" fill="#000000">0 rows</text>
<polygon fill="#ffffff" stroke="transparent" points="348.5,-1079.7 348.5,-1098.7 366.5,-1098.7 366.5,-1079.7 348.5,-1079.7"/>
<polygon fill="none" stroke="#000000" points="348.5,-1079.7 348.5,-1098.7 366.5,-1098.7 366.5,-1079.7 348.5,-1079.7"/>
<text text-anchor="start" x="357.3862" y="-1085.8" font-family="Helvetica,sans-Serif" font-size="11.00" fill="#000000"> &#160;</text>
</a>
</g>
</g>
<!-- estradas -->
<g id="node2" class="node">
<title>estradas</title>
<g id="a_node2"><a xlink:href="../../tables/estradas.html" xlink:title="estradas" target="_top">
<polygon fill="#ffffff" stroke="transparent" points="8,-476.7 8,-654.7 203,-654.7 203,-476.7 8,-476.7"/>
<polygon fill="#f5f5f5" stroke="transparent" points="10.5,-629.7 10.5,-652.7 201.5,-652.7 201.5,-629.7 10.5,-629.7"/>
<polygon fill="none" stroke="#000000" points="10.5,-629.7 10.5,-652.7 201.5,-652.7 201.5,-629.7 10.5,-629.7"/>
<text text-anchor="start" x="15.5" y="-638.8" font-family="Helvetica,sans-Serif" font-weight="bold" font-size="11.00" fill="#000000">estradas</text>
<text text-anchor="start" x="166.5437" y="-637.8" font-family="Helvetica,sans-Serif" font-size="11.00" fill="#000000">[table]</text>
<polygon fill="none" stroke="#000000" points="10.5,-607.7 10.5,-629.7 82.5,-629.7 82.5,-607.7 10.5,-607.7"/>
<image xlink:href="../../images/primaryKeys.png" width="11px" height="12px" preserveAspectRatio="xMinYMin meet" x="15.5" y="-624.7"/>
<text text-anchor="start" x="30.5" y="-614.8" font-family="Helvetica,sans-Serif" font-size="11.00" fill="#000000">id</text>
<polygon fill="none" stroke="#000000" points="82.5,-607.7 82.5,-629.7 201.5,-629.7 201.5,-607.7 82.5,-607.7"/>
<text text-anchor="start" x="85.5" y="-615.4" font-family="Helvetica,sans-Serif" font-size="11.00" fill="#000000">serial[10]</text>
<polygon fill="none" stroke="#000000" points="10.5,-585.7 10.5,-607.7 82.5,-607.7 82.5,-585.7 10.5,-585.7"/>
<text text-anchor="start" x="30.5" y="-592.8" font-family="Helvetica,sans-Serif" font-size="11.00" fill="#000000">geom</text>
<polygon fill="none" stroke="#000000" points="82.5,-585.7 82.5,-607.7 201.5,-607.7 201.5,-585.7 82.5,-585.7"/>
<text text-anchor="start" x="85.4485" y="-593.4" font-family="Helvetica,sans-Serif" font-size="11.00" fill="#000000">geometry[2147483647]</text>
<polygon fill="none" stroke="#000000" points="10.5,-563.7 10.5,-585.7 82.5,-585.7 82.5,-563.7 10.5,-563.7"/>
<text text-anchor="start" x="30.5" y="-570.8" font-family="Helvetica,sans-Serif" font-size="11.00" fill="#000000">start_m</text>
<polygon fill="none" stroke="#000000" points="82.5,-563.7 82.5,-585.7 201.5,-585.7 201.5,-563.7 82.5,-563.7"/>
<text text-anchor="start" x="85.5" y="-571.4" font-family="Helvetica,sans-Serif" font-size="11.00" fill="#000000">float8[17,17]</text>
<polygon fill="none" stroke="#000000" points="10.5,-541.7 10.5,-563.7 82.5,-563.7 82.5,-541.7 10.5,-541.7"/>
<text text-anchor="start" x="30.5" y="-548.8" font-family="Helvetica,sans-Serif" font-size="11.00" fill="#000000">end_m</text>
<polygon fill="none" stroke="#000000" points="82.5,-541.7 82.5,-563.7 201.5,-563.7 201.5,-541.7 82.5,-541.7"/>
<text text-anchor="start" x="85.5" y="-549.4" font-family="Helvetica,sans-Serif" font-size="11.00" fill="#000000">float8[17,17]</text>
<polygon fill="none" stroke="#000000" points="10.5,-519.7 10.5,-541.7 82.5,-541.7 82.5,-519.7 10.5,-519.7"/>
<text text-anchor="start" x="30.5" y="-526.8" font-family="Helvetica,sans-Serif" font-size="11.00" fill="#000000">ref</text>
<polygon fill="none" stroke="#000000" points="82.5,-519.7 82.5,-541.7 201.5,-541.7 201.5,-519.7 82.5,-519.7"/>
<text text-anchor="start" x="85.5" y="-527.4" font-family="Helvetica,sans-Serif" font-size="11.00" fill="#000000">varchar[8]</text>
<polygon fill="none" stroke="#000000" points="10.5,-497.7 10.5,-519.7 82.5,-519.7 82.5,-497.7 10.5,-497.7"/>
<text text-anchor="start" x="30.5" y="-504.8" font-family="Helvetica,sans-Serif" font-size="11.00" fill="#000000">obs</text>
<polygon fill="none" stroke="#000000" points="82.5,-497.7 82.5,-519.7 201.5,-519.7 201.5,-497.7 82.5,-497.7"/>
<text text-anchor="start" x="85.5" y="-505.4" font-family="Helvetica,sans-Serif" font-size="11.00" fill="#000000">text[2147483647]</text>
<polygon fill="#ffffff" stroke="transparent" points="10.5,-478.7 10.5,-497.7 37.5,-497.7 37.5,-478.7 10.5,-478.7"/>
<polygon fill="none" stroke="#000000" points="10.5,-478.7 10.5,-497.7 37.5,-497.7 37.5,-478.7 10.5,-478.7"/>
<text text-anchor="start" x="13.5" y="-484.8" font-family="Helvetica,sans-Serif" font-size="11.00" fill="#000000">&lt; 0</text>
<polygon fill="#ffffff" stroke="transparent" points="37.5,-478.7 37.5,-497.7 82.5,-497.7 82.5,-478.7 37.5,-478.7"/>
<polygon fill="none" stroke="#000000" points="37.5,-478.7 37.5,-497.7 82.5,-497.7 82.5,-478.7 37.5,-478.7"/>
<text text-anchor="start" x="47.1105" y="-484.8" font-family="Helvetica,sans-Serif" font-size="11.00" fill="#000000">0 rows</text>
<polygon fill="#ffffff" stroke="transparent" points="82.5,-478.7 82.5,-497.7 201.5,-497.7 201.5,-478.7 82.5,-478.7"/>
<polygon fill="none" stroke="#000000" points="82.5,-478.7 82.5,-497.7 201.5,-497.7 201.5,-478.7 82.5,-478.7"/>
<text text-anchor="start" x="182.9053" y="-484.8" font-family="Helvetica,sans-Serif" font-size="11.00" fill="#000000">7 &gt;</text>
<polygon fill="none" stroke="#000000" stroke-width="2" points="9,-477.7 9,-653.7 202,-653.7 202,-477.7 9,-477.7"/>
</a>
</g>
</g>
<!-- caract&#45;&gt;estradas -->
<g id="edge1" class="edge">
<title>caract:w&#45;&gt;estradas:e</title>
<path fill="none" stroke="#000000" d="M264.0871,-1126.9719C246.7343,-1120.1188 251.1454,-1094.0406 244,-1069.7 229.8226,-1021.4048 251.8331,-618.7 201.5,-618.7"/>
<polygon fill="#000000" stroke="#000000" points="274.3657,-1124.623 273.0559,-1132.5151 271.4775,-1132.2531 272.7873,-1124.361 274.3657,-1124.623"/>
<polyline fill="none" stroke="#000000" points="274.5,-1128.7 270.554,-1128.0451 "/>
<ellipse fill="none" stroke="#000000" cx="267.3971" cy="-1127.5212" rx="3.2" ry="3.2"/>
</g>
<!-- lrs_line -->
<g id="node3" class="node">
<title>lrs_line</title>
<g id="a_node3"><a xlink:href="../../tables/lrs_line.html" xlink:title="lrs_line" target="_top">
<polygon fill="#ffffff" stroke="transparent" points="276.5,-888.2 276.5,-1059.2 364.5,-1059.2 364.5,-888.2 276.5,-888.2"/>
<polygon fill="#f5f5f5" stroke="transparent" points="276.5,-1035.7 276.5,-1058.7 364.5,-1058.7 364.5,-1035.7 276.5,-1035.7"/>
<polygon fill="none" stroke="#000000" points="276.5,-1035.7 276.5,-1058.7 364.5,-1058.7 364.5,-1035.7 276.5,-1035.7"/>
<text text-anchor="start" x="281.5" y="-1044.8" font-family="Helvetica,sans-Serif" font-weight="bold" font-size="11.00" fill="#000000">lrs_line</text>
<text text-anchor="start" x="329.5437" y="-1043.8" font-family="Helvetica,sans-Serif" font-size="11.00" fill="#000000">[table]</text>
<polygon fill="none" stroke="#000000" points="276.5,-1013.7 276.5,-1035.7 364.5,-1035.7 364.5,-1013.7 276.5,-1013.7"/>
<image xlink:href="../../images/primaryKeys.png" width="11px" height="12px" preserveAspectRatio="xMinYMin meet" x="281.5" y="-1030.7"/>
<text text-anchor="start" x="296.5" y="-1020.8" font-family="Helvetica,sans-Serif" font-size="11.00" fill="#000000">id</text>
<polygon fill="none" stroke="#000000" points="276.5,-991.7 276.5,-1013.7 364.5,-1013.7 364.5,-991.7 276.5,-991.7"/>
<image xlink:href="../../images/foreignKeys.png" width="11px" height="12px" preserveAspectRatio="xMinYMin meet" x="281.5" y="-1008.7"/>
<text text-anchor="start" x="296.5" y="-998.8" font-family="Helvetica,sans-Serif" font-size="11.00" fill="#000000">id_estradas</text>
<polygon fill="none" stroke="#000000" points="276.5,-969.7 276.5,-991.7 364.5,-991.7 364.5,-969.7 276.5,-969.7"/>
<image xlink:href="../../images/foreignKeys.png" width="11px" height="12px" preserveAspectRatio="xMinYMin meet" x="281.5" y="-986.7"/>
<text text-anchor="start" x="296.5" y="-976.8" font-family="Helvetica,sans-Serif" font-size="11.00" fill="#000000">id_tipo_line</text>
<polygon fill="none" stroke="#000000" points="276.5,-947.7 276.5,-969.7 364.5,-969.7 364.5,-947.7 276.5,-947.7"/>
<image xlink:href="../../images/foreignKeys.png" width="11px" height="12px" preserveAspectRatio="xMinYMin meet" x="281.5" y="-964.7"/>
<text text-anchor="start" x="296.5" y="-954.8" font-family="Helvetica,sans-Serif" font-size="11.00" fill="#000000">id_estado</text>
<polygon fill="none" stroke="#000000" points="276.5,-925.7 276.5,-947.7 364.5,-947.7 364.5,-925.7 276.5,-925.7"/>
<image xlink:href="../../images/foreignKeys.png" width="11px" height="12px" preserveAspectRatio="xMinYMin meet" x="281.5" y="-942.7"/>
<text text-anchor="start" x="296.5" y="-932.8" font-family="Helvetica,sans-Serif" font-size="11.00" fill="#000000">id_lado</text>
<polygon fill="none" stroke="#000000" points="276.5,-906.7 276.5,-925.7 364.5,-925.7 364.5,-906.7 276.5,-906.7"/>
<text text-anchor="start" x="279.5" y="-912.8" font-family="Helvetica,sans-Serif" font-size="11.00" fill="#000000">...</text>
<polygon fill="#ffffff" stroke="transparent" points="276.5,-887.7 276.5,-906.7 305.5,-906.7 305.5,-887.7 276.5,-887.7"/>
<polygon fill="none" stroke="#000000" points="276.5,-887.7 276.5,-906.7 305.5,-906.7 305.5,-887.7 276.5,-887.7"/>
<text text-anchor="start" x="279.5" y="-893.8" font-family="Helvetica,sans-Serif" font-size="11.00" fill="#000000">&lt; 4</text>
<polygon fill="#ffffff" stroke="transparent" points="305.5,-887.7 305.5,-906.7 347.5,-906.7 347.5,-887.7 305.5,-887.7"/>
<polygon fill="none" stroke="#000000" points="305.5,-887.7 305.5,-906.7 347.5,-906.7 347.5,-887.7 305.5,-887.7"/>
<text text-anchor="start" x="312.1105" y="-893.8" font-family="Helvetica,sans-Serif" font-size="11.00" fill="#000000">0 rows</text>
<polygon fill="#ffffff" stroke="transparent" points="347.5,-887.7 347.5,-906.7 364.5,-906.7 364.5,-887.7 347.5,-887.7"/>
<polygon fill="none" stroke="#000000" points="347.5,-887.7 347.5,-906.7 364.5,-906.7 364.5,-887.7 347.5,-887.7"/>
<text text-anchor="start" x="355.3862" y="-893.8" font-family="Helvetica,sans-Serif" font-size="11.00" fill="#000000"> &#160;</text>
</a>
</g>
</g>
<!-- lrs_line&#45;&gt;estradas -->
<g id="edge2" class="edge">
<title>lrs_line:w&#45;&gt;estradas:e</title>
<path fill="none" stroke="#000000" d="M262.6684,-998.6473C200.8482,-957.6077 283.1814,-618.7 201.5,-618.7"/>
<polygon fill="#000000" stroke="#000000" points="268.8228,-1000.4505 275.4877,-1006.1548 272.6614,-1001.5753 276.5,-1002.7 276.5,-1002.7 276.5,-1002.7 272.6614,-1001.5753 277.5123,-999.2452 268.8228,-1000.4505 268.8228,-1000.4505"/>
<ellipse fill="none" stroke="#000000" cx="265.7519" cy="-999.5507" rx="3.2" ry="3.2"/>
</g>
<!-- lrs_node -->
<g id="node4" class="node">
<title>lrs_node</title>
<g id="a_node4"><a xlink:href="../../tables/lrs_node.html" xlink:title="lrs_node" target="_top">
<polygon fill="#ffffff" stroke="transparent" points="272.5,-696.2 272.5,-867.2 368.5,-867.2 368.5,-696.2 272.5,-696.2"/>
<polygon fill="#f5f5f5" stroke="transparent" points="272.5,-843.7 272.5,-866.7 368.5,-866.7 368.5,-843.7 272.5,-843.7"/>
<polygon fill="none" stroke="#000000" points="272.5,-843.7 272.5,-866.7 368.5,-866.7 368.5,-843.7 272.5,-843.7"/>
<text text-anchor="start" x="277.5" y="-852.8" font-family="Helvetica,sans-Serif" font-weight="bold" font-size="11.00" fill="#000000">lrs_node</text>
<text text-anchor="start" x="333.5437" y="-851.8" font-family="Helvetica,sans-Serif" font-size="11.00" fill="#000000">[table]</text>
<polygon fill="none" stroke="#000000" points="272.5,-821.7 272.5,-843.7 368.5,-843.7 368.5,-821.7 272.5,-821.7"/>
<image xlink:href="../../images/primaryKeys.png" width="11px" height="12px" preserveAspectRatio="xMinYMin meet" x="277.5" y="-838.7"/>
<text text-anchor="start" x="292.5" y="-828.8" font-family="Helvetica,sans-Serif" font-size="11.00" fill="#000000">id</text>
<polygon fill="none" stroke="#000000" points="272.5,-799.7 272.5,-821.7 368.5,-821.7 368.5,-799.7 272.5,-799.7"/>
<image xlink:href="../../images/foreignKeys.png" width="11px" height="12px" preserveAspectRatio="xMinYMin meet" x="277.5" y="-816.7"/>
<text text-anchor="start" x="292.5" y="-806.8" font-family="Helvetica,sans-Serif" font-size="11.00" fill="#000000">id_estradas</text>
<polygon fill="none" stroke="#000000" points="272.5,-777.7 272.5,-799.7 368.5,-799.7 368.5,-777.7 272.5,-777.7"/>
<image xlink:href="../../images/foreignKeys.png" width="11px" height="12px" preserveAspectRatio="xMinYMin meet" x="277.5" y="-794.7"/>
<text text-anchor="start" x="292.5" y="-784.8" font-family="Helvetica,sans-Serif" font-size="11.00" fill="#000000">id_tipo_node</text>
<polygon fill="none" stroke="#000000" points="272.5,-755.7 272.5,-777.7 368.5,-777.7 368.5,-755.7 272.5,-755.7"/>
<image xlink:href="../../images/foreignKeys.png" width="11px" height="12px" preserveAspectRatio="xMinYMin meet" x="277.5" y="-772.7"/>
<text text-anchor="start" x="292.5" y="-762.8" font-family="Helvetica,sans-Serif" font-size="11.00" fill="#000000">id_estado</text>
<polygon fill="none" stroke="#000000" points="272.5,-733.7 272.5,-755.7 368.5,-755.7 368.5,-733.7 272.5,-733.7"/>
<image xlink:href="../../images/foreignKeys.png" width="11px" height="12px" preserveAspectRatio="xMinYMin meet" x="277.5" y="-750.7"/>
<text text-anchor="start" x="292.5" y="-740.8" font-family="Helvetica,sans-Serif" font-size="11.00" fill="#000000">id_lado</text>
<polygon fill="none" stroke="#000000" points="272.5,-714.7 272.5,-733.7 368.5,-733.7 368.5,-714.7 272.5,-714.7"/>
<text text-anchor="start" x="275.5" y="-720.8" font-family="Helvetica,sans-Serif" font-size="11.00" fill="#000000">...</text>
<polygon fill="#ffffff" stroke="transparent" points="272.5,-695.7 272.5,-714.7 305.5,-714.7 305.5,-695.7 272.5,-695.7"/>
<polygon fill="none" stroke="#000000" points="272.5,-695.7 272.5,-714.7 305.5,-714.7 305.5,-695.7 272.5,-695.7"/>
<text text-anchor="start" x="275.5" y="-701.8" font-family="Helvetica,sans-Serif" font-size="11.00" fill="#000000">&lt; 4</text>
<polygon fill="#ffffff" stroke="transparent" points="305.5,-695.7 305.5,-714.7 349.5,-714.7 349.5,-695.7 305.5,-695.7"/>
<polygon fill="none" stroke="#000000" points="305.5,-695.7 305.5,-714.7 349.5,-714.7 349.5,-695.7 305.5,-695.7"/>
<text text-anchor="start" x="314.1105" y="-701.8" font-family="Helvetica,sans-Serif" font-size="11.00" fill="#000000">0 rows</text>
<polygon fill="#ffffff" stroke="transparent" points="349.5,-695.7 349.5,-714.7 368.5,-714.7 368.5,-695.7 349.5,-695.7"/>
<polygon fill="none" stroke="#000000" points="349.5,-695.7 349.5,-714.7 368.5,-714.7 368.5,-695.7 349.5,-695.7"/>
<text text-anchor="start" x="359.3862" y="-701.8" font-family="Helvetica,sans-Serif" font-size="11.00" fill="#000000"> &#160;</text>
</a>
</g>
</g>
<!-- lrs_node&#45;&gt;estradas -->
<g id="edge3" class="edge">
<title>lrs_node:w&#45;&gt;estradas:e</title>
<path fill="none" stroke="#000000" d="M258.1054,-808.6737C194.2155,-788.1539 286.9723,-618.7 201.5,-618.7"/>
<polygon fill="#000000" stroke="#000000" points="264.5781,-809.5848 271.9982,-814.2649 268.5391,-810.1424 272.5,-810.7 272.5,-810.7 272.5,-810.7 268.5391,-810.1424 273.0018,-807.1351 264.5781,-809.5848 264.5781,-809.5848"/>
<ellipse fill="none" stroke="#000000" cx="261.4093" cy="-809.1387" rx="3.2" ry="3.2"/>
</g>
<!-- patologias -->
<g id="node5" class="node">
<title>patologias</title>
<g id="a_node5"><a xlink:href="../../tables/patologias.html" xlink:title="patologias" target="_top">
<polygon fill="#ffffff" stroke="transparent" points="252,-548.2 252,-675.2 389,-675.2 389,-548.2 252,-548.2"/>
<polygon fill="#f5f5f5" stroke="transparent" points="252.5,-651.7 252.5,-674.7 389.5,-674.7 389.5,-651.7 252.5,-651.7"/>
<polygon fill="none" stroke="#000000" points="252.5,-651.7 252.5,-674.7 389.5,-674.7 389.5,-651.7 252.5,-651.7"/>
<text text-anchor="start" x="257.5" y="-660.8" font-family="Helvetica,sans-Serif" font-weight="bold" font-size="11.00" fill="#000000">patologias</text>
<text text-anchor="start" x="354.5437" y="-659.8" font-family="Helvetica,sans-Serif" font-size="11.00" fill="#000000">[table]</text>
<polygon fill="none" stroke="#000000" points="252.5,-629.7 252.5,-651.7 389.5,-651.7 389.5,-629.7 252.5,-629.7"/>
<image xlink:href="../../images/primaryKeys.png" width="11px" height="12px" preserveAspectRatio="xMinYMin meet" x="257.5" y="-646.7"/>
<text text-anchor="start" x="272.5" y="-636.8" font-family="Helvetica,sans-Serif" font-size="11.00" fill="#000000">id</text>
<polygon fill="none" stroke="#000000" points="252.5,-607.7 252.5,-629.7 389.5,-629.7 389.5,-607.7 252.5,-607.7"/>
<image xlink:href="../../images/primaryKeys.png" width="11px" height="12px" preserveAspectRatio="xMinYMin meet" x="257.5" y="-624.7"/>
<text text-anchor="start" x="272.5" y="-614.8" font-family="Helvetica,sans-Serif" font-size="11.00" fill="#000000">id_estradas</text>
<polygon fill="none" stroke="#000000" points="252.5,-585.7 252.5,-607.7 389.5,-607.7 389.5,-585.7 252.5,-585.7"/>
<image xlink:href="../../images/primaryKeys.png" width="11px" height="12px" preserveAspectRatio="xMinYMin meet" x="257.5" y="-602.7"/>
<text text-anchor="start" x="272.5" y="-592.8" font-family="Helvetica,sans-Serif" font-size="11.00" fill="#000000">id_tipo_patologias</text>
<polygon fill="none" stroke="#000000" points="252.5,-566.7 252.5,-585.7 389.5,-585.7 389.5,-566.7 252.5,-566.7"/>
<text text-anchor="start" x="255.5" y="-572.8" font-family="Helvetica,sans-Serif" font-size="11.00" fill="#000000">...</text>
<polygon fill="#ffffff" stroke="transparent" points="252.5,-547.7 252.5,-566.7 306.5,-566.7 306.5,-547.7 252.5,-547.7"/>
<polygon fill="none" stroke="#000000" points="252.5,-547.7 252.5,-566.7 306.5,-566.7 306.5,-547.7 252.5,-547.7"/>
<text text-anchor="start" x="255.5" y="-553.8" font-family="Helvetica,sans-Serif" font-size="11.00" fill="#000000">&lt; 2</text>
<polygon fill="#ffffff" stroke="transparent" points="306.5,-547.7 306.5,-566.7 360.5,-566.7 360.5,-547.7 306.5,-547.7"/>
<polygon fill="none" stroke="#000000" points="306.5,-547.7 306.5,-566.7 360.5,-566.7 360.5,-547.7 306.5,-547.7"/>
<text text-anchor="start" x="325.1105" y="-553.8" font-family="Helvetica,sans-Serif" font-size="11.00" fill="#000000">0 rows</text>
<polygon fill="#ffffff" stroke="transparent" points="360.5,-547.7 360.5,-566.7 389.5,-566.7 389.5,-547.7 360.5,-547.7"/>
<polygon fill="none" stroke="#000000" points="360.5,-547.7 360.5,-566.7 389.5,-566.7 389.5,-547.7 360.5,-547.7"/>
<text text-anchor="start" x="380.3862" y="-553.8" font-family="Helvetica,sans-Serif" font-size="11.00" fill="#000000"> &#160;</text>
</a>
</g>
</g>
<!-- patologias&#45;&gt;estradas -->
<g id="edge4" class="edge">
<title>patologias:w&#45;&gt;estradas:e</title>
<path fill="none" stroke="#000000" d="M237.776,-618.7C225.7815,-618.7 218.3229,-618.7 201.5,-618.7"/>
<polygon fill="#000000" stroke="#000000" points="244.5,-618.7001 252.5,-622.3 248.5,-618.7 252.5,-618.7 252.5,-618.7 252.5,-618.7 248.5,-618.7 252.5,-615.1 244.5,-618.7001 244.5,-618.7001"/>
<ellipse fill="none" stroke="#000000" cx="241.3" cy="-618.7001" rx="3.2" ry="3.2"/>
</g>
<!-- rails -->
<g id="node6" class="node">
<title>rails</title>
<g id="a_node6"><a xlink:href="../../tables/rails.html" xlink:title="rails" target="_top">
<polygon fill="#ffffff" stroke="transparent" points="276.5,-378.2 276.5,-527.2 364.5,-527.2 364.5,-378.2 276.5,-378.2"/>
<polygon fill="#f5f5f5" stroke="transparent" points="276.5,-503.7 276.5,-526.7 364.5,-526.7 364.5,-503.7 276.5,-503.7"/>
<polygon fill="none" stroke="#000000" points="276.5,-503.7 276.5,-526.7 364.5,-526.7 364.5,-503.7 276.5,-503.7"/>
<text text-anchor="start" x="281.5" y="-512.8" font-family="Helvetica,sans-Serif" font-weight="bold" font-size="11.00" fill="#000000">rails</text>
<text text-anchor="start" x="329.5437" y="-511.8" font-family="Helvetica,sans-Serif" font-size="11.00" fill="#000000">[table]</text>
<polygon fill="none" stroke="#000000" points="276.5,-481.7 276.5,-503.7 364.5,-503.7 364.5,-481.7 276.5,-481.7"/>
<image xlink:href="../../images/primaryKeys.png" width="11px" height="12px" preserveAspectRatio="xMinYMin meet" x="281.5" y="-498.7"/>
<text text-anchor="start" x="296.5" y="-488.8" font-family="Helvetica,sans-Serif" font-size="11.00" fill="#000000">id</text>
<polygon fill="none" stroke="#000000" points="276.5,-459.7 276.5,-481.7 364.5,-481.7 364.5,-459.7 276.5,-459.7"/>
<image xlink:href="../../images/foreignKeys.png" width="11px" height="12px" preserveAspectRatio="xMinYMin meet" x="281.5" y="-476.7"/>
<text text-anchor="start" x="296.5" y="-466.8" font-family="Helvetica,sans-Serif" font-size="11.00" fill="#000000">id_estradas</text>
<polygon fill="none" stroke="#000000" points="276.5,-437.7 276.5,-459.7 364.5,-459.7 364.5,-437.7 276.5,-437.7"/>
<image xlink:href="../../images/foreignKeys.png" width="11px" height="12px" preserveAspectRatio="xMinYMin meet" x="281.5" y="-454.7"/>
<text text-anchor="start" x="296.5" y="-444.8" font-family="Helvetica,sans-Serif" font-size="11.00" fill="#000000">id_estado</text>
<polygon fill="none" stroke="#000000" points="276.5,-415.7 276.5,-437.7 364.5,-437.7 364.5,-415.7 276.5,-415.7"/>
<image xlink:href="../../images/foreignKeys.png" width="11px" height="12px" preserveAspectRatio="xMinYMin meet" x="281.5" y="-432.7"/>
<text text-anchor="start" x="296.5" y="-422.8" font-family="Helvetica,sans-Serif" font-size="11.00" fill="#000000">id_lado</text>
<polygon fill="none" stroke="#000000" points="276.5,-396.7 276.5,-415.7 364.5,-415.7 364.5,-396.7 276.5,-396.7"/>
<text text-anchor="start" x="279.5" y="-402.8" font-family="Helvetica,sans-Serif" font-size="11.00" fill="#000000">...</text>
<polygon fill="#ffffff" stroke="transparent" points="276.5,-377.7 276.5,-396.7 305.5,-396.7 305.5,-377.7 276.5,-377.7"/>
<polygon fill="none" stroke="#000000" points="276.5,-377.7 276.5,-396.7 305.5,-396.7 305.5,-377.7 276.5,-377.7"/>
<text text-anchor="start" x="279.5" y="-383.8" font-family="Helvetica,sans-Serif" font-size="11.00" fill="#000000">&lt; 3</text>
<polygon fill="#ffffff" stroke="transparent" points="305.5,-377.7 305.5,-396.7 347.5,-396.7 347.5,-377.7 305.5,-377.7"/>
<polygon fill="none" stroke="#000000" points="305.5,-377.7 305.5,-396.7 347.5,-396.7 347.5,-377.7 305.5,-377.7"/>
<text text-anchor="start" x="312.1105" y="-383.8" font-family="Helvetica,sans-Serif" font-size="11.00" fill="#000000">0 rows</text>
<polygon fill="#ffffff" stroke="transparent" points="347.5,-377.7 347.5,-396.7 364.5,-396.7 364.5,-377.7 347.5,-377.7"/>
<polygon fill="none" stroke="#000000" points="347.5,-377.7 347.5,-396.7 364.5,-396.7 364.5,-377.7 347.5,-377.7"/>
<text text-anchor="start" x="355.3862" y="-383.8" font-family="Helvetica,sans-Serif" font-size="11.00" fill="#000000"> &#160;</text>
</a>
</g>
</g>
<!-- rails&#45;&gt;estradas -->
<g id="edge5" class="edge">
<title>rails:w&#45;&gt;estradas:e</title>
<path fill="none" stroke="#000000" d="M262.0649,-473.1453C212.9523,-492.3882 269.6246,-618.7 201.5,-618.7"/>
<polygon fill="#000000" stroke="#000000" points="268.6124,-472.0362 277.1013,-474.2494 272.5562,-471.3681 276.5,-470.7 276.5,-470.7 276.5,-470.7 272.5562,-471.3681 275.8987,-467.1506 268.6124,-472.0362 268.6124,-472.0362"/>
<ellipse fill="none" stroke="#000000" cx="265.4573" cy="-472.5707" rx="3.2" ry="3.2"/>
</g>
<!-- trocos -->
<g id="node7" class="node">
<title>trocos</title>
<g id="a_node7"><a xlink:href="../../tables/trocos.html" xlink:title="trocos" target="_top">
<polygon fill="#ffffff" stroke="transparent" points="255.5,-230.2 255.5,-357.2 385.5,-357.2 385.5,-230.2 255.5,-230.2"/>
<polygon fill="#f5f5f5" stroke="transparent" points="255.5,-333.7 255.5,-356.7 385.5,-356.7 385.5,-333.7 255.5,-333.7"/>
<polygon fill="none" stroke="#000000" points="255.5,-333.7 255.5,-356.7 385.5,-356.7 385.5,-333.7 255.5,-333.7"/>
<text text-anchor="start" x="260.5" y="-342.8" font-family="Helvetica,sans-Serif" font-weight="bold" font-size="11.00" fill="#000000">trocos</text>
<text text-anchor="start" x="350.5437" y="-341.8" font-family="Helvetica,sans-Serif" font-size="11.00" fill="#000000">[table]</text>
<polygon fill="none" stroke="#000000" points="255.5,-311.7 255.5,-333.7 385.5,-333.7 385.5,-311.7 255.5,-311.7"/>
<image xlink:href="../../images/primaryKeys.png" width="11px" height="12px" preserveAspectRatio="xMinYMin meet" x="260.5" y="-328.7"/>
<text text-anchor="start" x="275.5" y="-318.8" font-family="Helvetica,sans-Serif" font-size="11.00" fill="#000000">id</text>
<polygon fill="none" stroke="#000000" points="255.5,-289.7 255.5,-311.7 385.5,-311.7 385.5,-289.7 255.5,-289.7"/>
<image xlink:href="../../images/foreignKeys.png" width="11px" height="12px" preserveAspectRatio="xMinYMin meet" x="260.5" y="-306.7"/>
<text text-anchor="start" x="275.5" y="-296.8" font-family="Helvetica,sans-Serif" font-size="11.00" fill="#000000">id_estradas</text>
<polygon fill="none" stroke="#000000" points="255.5,-267.7 255.5,-289.7 385.5,-289.7 385.5,-267.7 255.5,-267.7"/>
<image xlink:href="../../images/foreignKeys.png" width="11px" height="12px" preserveAspectRatio="xMinYMin meet" x="260.5" y="-284.7"/>
<text text-anchor="start" x="275.5" y="-274.8" font-family="Helvetica,sans-Serif" font-size="11.00" fill="#000000">id_tipo_pavimento</text>
<polygon fill="none" stroke="#000000" points="255.5,-248.7 255.5,-267.7 385.5,-267.7 385.5,-248.7 255.5,-248.7"/>
<text text-anchor="start" x="258.5" y="-254.8" font-family="Helvetica,sans-Serif" font-size="11.00" fill="#000000">...</text>
<polygon fill="#ffffff" stroke="transparent" points="255.5,-229.7 255.5,-248.7 301.5,-248.7 301.5,-229.7 255.5,-229.7"/>
<polygon fill="none" stroke="#000000" points="255.5,-229.7 255.5,-248.7 301.5,-248.7 301.5,-229.7 255.5,-229.7"/>
<text text-anchor="start" x="258.5" y="-235.8" font-family="Helvetica,sans-Serif" font-size="11.00" fill="#000000">&lt; 2</text>
<polygon fill="#ffffff" stroke="transparent" points="301.5,-229.7 301.5,-248.7 351.5,-248.7 351.5,-229.7 301.5,-229.7"/>
<polygon fill="none" stroke="#000000" points="301.5,-229.7 301.5,-248.7 351.5,-248.7 351.5,-229.7 301.5,-229.7"/>
<text text-anchor="start" x="316.1105" y="-235.8" font-family="Helvetica,sans-Serif" font-size="11.00" fill="#000000">0 rows</text>
<polygon fill="#ffffff" stroke="transparent" points="351.5,-229.7 351.5,-248.7 385.5,-248.7 385.5,-229.7 351.5,-229.7"/>
<polygon fill="none" stroke="#000000" points="351.5,-229.7 351.5,-248.7 385.5,-248.7 385.5,-229.7 351.5,-229.7"/>
<text text-anchor="start" x="366.9053" y="-235.8" font-family="Helvetica,sans-Serif" font-size="11.00" fill="#000000">1 &gt;</text>
</a>
</g>
</g>
<!-- trocos&#45;&gt;estradas -->
<g id="edge6" class="edge">
<title>trocos:w&#45;&gt;estradas:e</title>
<path fill="none" stroke="#000000" d="M241.7811,-305.9542C196.5003,-347.3002 267.7184,-618.7 201.5,-618.7"/>
<polygon fill="#000000" stroke="#000000" points="248.0292,-303.5613 256.7876,-304.0619 251.7646,-302.1306 255.5,-300.7 255.5,-300.7 255.5,-300.7 251.7646,-302.1306 254.2124,-297.3381 248.0292,-303.5613 248.0292,-303.5613"/>
<ellipse fill="none" stroke="#000000" cx="245.0408" cy="-304.7058" rx="3.2" ry="3.2"/>
</g>
<!-- valetas -->
<g id="node8" class="node">
<title>valetas</title>
<g id="a_node8"><a xlink:href="../../tables/valetas.html" xlink:title="valetas" target="_top">
<polygon fill="#ffffff" stroke="transparent" points="269,-38.2 269,-209.2 372,-209.2 372,-38.2 269,-38.2"/>
<polygon fill="#f5f5f5" stroke="transparent" points="269.5,-185.7 269.5,-208.7 372.5,-208.7 372.5,-185.7 269.5,-185.7"/>
<polygon fill="none" stroke="#000000" points="269.5,-185.7 269.5,-208.7 372.5,-208.7 372.5,-185.7 269.5,-185.7"/>
<text text-anchor="start" x="274.5" y="-194.8" font-family="Helvetica,sans-Serif" font-weight="bold" font-size="11.00" fill="#000000">valetas</text>
<text text-anchor="start" x="337.5437" y="-193.8" font-family="Helvetica,sans-Serif" font-size="11.00" fill="#000000">[table]</text>
<polygon fill="none" stroke="#000000" points="269.5,-163.7 269.5,-185.7 372.5,-185.7 372.5,-163.7 269.5,-163.7"/>
<image xlink:href="../../images/primaryKeys.png" width="11px" height="12px" preserveAspectRatio="xMinYMin meet" x="274.5" y="-180.7"/>
<text text-anchor="start" x="289.5" y="-170.8" font-family="Helvetica,sans-Serif" font-size="11.00" fill="#000000">id</text>
<polygon fill="none" stroke="#000000" points="269.5,-141.7 269.5,-163.7 372.5,-163.7 372.5,-141.7 269.5,-141.7"/>
<image xlink:href="../../images/foreignKeys.png" width="11px" height="12px" preserveAspectRatio="xMinYMin meet" x="274.5" y="-158.7"/>
<text text-anchor="start" x="289.5" y="-148.8" font-family="Helvetica,sans-Serif" font-size="11.00" fill="#000000">id_estradas</text>
<polygon fill="none" stroke="#000000" points="269.5,-119.7 269.5,-141.7 372.5,-141.7 372.5,-119.7 269.5,-119.7"/>
<image xlink:href="../../images/foreignKeys.png" width="11px" height="12px" preserveAspectRatio="xMinYMin meet" x="274.5" y="-136.7"/>
<text text-anchor="start" x="289.5" y="-126.8" font-family="Helvetica,sans-Serif" font-size="11.00" fill="#000000">id_tipo_valeta</text>
<polygon fill="none" stroke="#000000" points="269.5,-97.7 269.5,-119.7 372.5,-119.7 372.5,-97.7 269.5,-97.7"/>
<image xlink:href="../../images/foreignKeys.png" width="11px" height="12px" preserveAspectRatio="xMinYMin meet" x="274.5" y="-114.7"/>
<text text-anchor="start" x="289.5" y="-104.8" font-family="Helvetica,sans-Serif" font-size="11.00" fill="#000000">id_estado</text>
<polygon fill="none" stroke="#000000" points="269.5,-75.7 269.5,-97.7 372.5,-97.7 372.5,-75.7 269.5,-75.7"/>
<image xlink:href="../../images/foreignKeys.png" width="11px" height="12px" preserveAspectRatio="xMinYMin meet" x="274.5" y="-92.7"/>
<text text-anchor="start" x="289.5" y="-82.8" font-family="Helvetica,sans-Serif" font-size="11.00" fill="#000000">id_lado</text>
<polygon fill="none" stroke="#000000" points="269.5,-56.7 269.5,-75.7 372.5,-75.7 372.5,-56.7 269.5,-56.7"/>
<text text-anchor="start" x="272.5" y="-62.8" font-family="Helvetica,sans-Serif" font-size="11.00" fill="#000000">...</text>
<polygon fill="#ffffff" stroke="transparent" points="269.5,-37.7 269.5,-56.7 306.5,-56.7 306.5,-37.7 269.5,-37.7"/>
<polygon fill="none" stroke="#000000" points="269.5,-37.7 269.5,-56.7 306.5,-56.7 306.5,-37.7 269.5,-37.7"/>
<text text-anchor="start" x="272.5" y="-43.8" font-family="Helvetica,sans-Serif" font-size="11.00" fill="#000000">&lt; 4</text>
<polygon fill="#ffffff" stroke="transparent" points="306.5,-37.7 306.5,-56.7 352.5,-56.7 352.5,-37.7 306.5,-37.7"/>
<polygon fill="none" stroke="#000000" points="306.5,-37.7 306.5,-56.7 352.5,-56.7 352.5,-37.7 306.5,-37.7"/>
<text text-anchor="start" x="317.1105" y="-43.8" font-family="Helvetica,sans-Serif" font-size="11.00" fill="#000000">0 rows</text>
<polygon fill="#ffffff" stroke="transparent" points="352.5,-37.7 352.5,-56.7 372.5,-56.7 372.5,-37.7 352.5,-37.7"/>
<polygon fill="none" stroke="#000000" points="352.5,-37.7 352.5,-56.7 372.5,-56.7 372.5,-37.7 352.5,-37.7"/>
<text text-anchor="start" x="363.3862" y="-43.8" font-family="Helvetica,sans-Serif" font-size="11.00" fill="#000000"> &#160;</text>
</a>
</g>
</g>
<!-- valetas&#45;&gt;estradas -->
<g id="edge7" class="edge">
<title>valetas:w&#45;&gt;estradas:e</title>
<path fill="none" stroke="#000000" d="M255.3952,-156.183C178.5647,-198.8264 300.8379,-618.7 201.5,-618.7"/>
<polygon fill="#000000" stroke="#000000" points="261.7333,-154.6179 270.3631,-156.195 265.6166,-153.659 269.5,-152.7 269.5,-152.7 269.5,-152.7 265.6166,-153.659 268.6369,-149.205 261.7333,-154.6179 261.7333,-154.6179"/>
<ellipse fill="none" stroke="#000000" cx="258.6266" cy="-155.3851" rx="3.2" ry="3.2"/>
</g>
</g>
</svg>
