<?xml version="1.0" encoding="UTF-8" standalone="no"?>
<!DOCTYPE svg PUBLIC "-//W3C//DTD SVG 1.1//EN"
 "http://www.w3.org/Graphics/SVG/1.1/DTD/svg11.dtd">
<!-- Generated by graphviz version 2.40.1 (20161225.0304)
 -->
<!-- Title: twoDegreesRelationshipsDiagram Pages: 1 -->
<svg width="556pt" height="298pt"
 viewBox="0.00 0.00 556.00 297.70" xmlns="http://www.w3.org/2000/svg" xmlns:xlink="http://www.w3.org/1999/xlink">
<g id="graph0" class="graph" transform="scale(1 1) rotate(0) translate(4 293.7)">
<title>twoDegreesRelationshipsDiagram</title>
<polygon fill="#ffffff" stroke="transparent" points="-4,4 -4,-293.7 552,-293.7 552,4 -4,4"/>
<text text-anchor="middle" x="72.4936" y="-7.3" font-family="Helvetica,sans-Serif" font-size="11.00" fill="#000000">Generated by SchemaSpy</text>
<!-- intevencoes -->
<g id="node1" class="node">
<title>intevencoes</title>
<g id="a_node1"><a xlink:href="../../tables/intevencoes.html" xlink:title="intevencoes" target="_top">
<polygon fill="#ffffff" stroke="transparent" points="353,-107.7 353,-285.7 540,-285.7 540,-107.7 353,-107.7"/>
<polygon fill="#f5f5f5" stroke="transparent" points="355.5,-260.7 355.5,-283.7 538.5,-283.7 538.5,-260.7 355.5,-260.7"/>
<polygon fill="none" stroke="#000000" points="355.5,-260.7 355.5,-283.7 538.5,-283.7 538.5,-260.7 355.5,-260.7"/>
<text text-anchor="start" x="360.5" y="-269.8" font-family="Helvetica,sans-Serif" font-weight="bold" font-size="11.00" fill="#000000">intevencoes</text>
<text text-anchor="start" x="503.5437" y="-268.8" font-family="Helvetica,sans-Serif" font-size="11.00" fill="#000000">[table]</text>
<polygon fill="none" stroke="#000000" points="355.5,-238.7 355.5,-260.7 448.5,-260.7 448.5,-238.7 355.5,-238.7"/>
<image xlink:href="../../images/primaryKeys.png" width="11px" height="12px" preserveAspectRatio="xMinYMin meet" x="360.5" y="-255.7"/>
<text text-anchor="start" x="375.5" y="-245.8" font-family="Helvetica,sans-Serif" font-size="11.00" fill="#000000">id</text>
<polygon fill="none" stroke="#000000" points="448.5,-238.7 448.5,-260.7 538.5,-260.7 538.5,-238.7 448.5,-238.7"/>
<text text-anchor="start" x="451.5" y="-246.4" font-family="Helvetica,sans-Serif" font-size="11.00" fill="#000000">serial[10]</text>
<polygon fill="none" stroke="#000000" points="355.5,-216.7 355.5,-238.7 448.5,-238.7 448.5,-216.7 355.5,-216.7"/>
<text text-anchor="start" x="375.5" y="-223.8" font-family="Helvetica,sans-Serif" font-size="11.00" fill="#000000">data_inter</text>
<polygon fill="none" stroke="#000000" points="448.5,-216.7 448.5,-238.7 538.5,-238.7 538.5,-216.7 448.5,-216.7"/>
<text text-anchor="start" x="451.5" y="-224.4" font-family="Helvetica,sans-Serif" font-size="11.00" fill="#000000">date[13]</text>
<polygon fill="none" stroke="#000000" points="355.5,-194.7 355.5,-216.7 448.5,-216.7 448.5,-194.7 355.5,-194.7"/>
<text text-anchor="start" x="375.5" y="-201.8" font-family="Helvetica,sans-Serif" font-size="11.00" fill="#000000">desc_inter</text>
<polygon fill="none" stroke="#000000" points="448.5,-194.7 448.5,-216.7 538.5,-216.7 538.5,-194.7 448.5,-194.7"/>
<text text-anchor="start" x="451.0043" y="-202.4" font-family="Helvetica,sans-Serif" font-size="11.00" fill="#000000">text[2147483647]</text>
<polygon fill="none" stroke="#000000" points="355.5,-172.7 355.5,-194.7 448.5,-194.7 448.5,-172.7 355.5,-172.7"/>
<text text-anchor="start" x="375.5" y="-179.8" font-family="Helvetica,sans-Serif" font-size="11.00" fill="#000000">valor</text>
<polygon fill="none" stroke="#000000" points="448.5,-172.7 448.5,-194.7 538.5,-194.7 538.5,-172.7 448.5,-172.7"/>
<text text-anchor="start" x="451.5" y="-180.4" font-family="Helvetica,sans-Serif" font-size="11.00" fill="#000000">float8[17,17]</text>
<polygon fill="none" stroke="#000000" points="355.5,-150.7 355.5,-172.7 448.5,-172.7 448.5,-150.7 355.5,-150.7"/>
<text text-anchor="start" x="375.5" y="-157.8" font-family="Helvetica,sans-Serif" font-size="11.00" fill="#000000">obs</text>
<polygon fill="none" stroke="#000000" points="448.5,-150.7 448.5,-172.7 538.5,-172.7 538.5,-150.7 448.5,-150.7"/>
<text text-anchor="start" x="451.0043" y="-158.4" font-family="Helvetica,sans-Serif" font-size="11.00" fill="#000000">text[2147483647]</text>
<polygon fill="none" stroke="#000000" points="355.5,-128.7 355.5,-150.7 448.5,-150.7 448.5,-128.7 355.5,-128.7"/>
<image xlink:href="../../images/foreignKeys.png" width="11px" height="12px" preserveAspectRatio="xMinYMin meet" x="360.5" y="-145.7"/>
<text text-anchor="start" x="375.5" y="-135.8" font-family="Helvetica,sans-Serif" font-size="11.00" fill="#000000">id_trocos</text>
<polygon fill="none" stroke="#000000" points="448.5,-128.7 448.5,-150.7 538.5,-150.7 538.5,-128.7 448.5,-128.7"/>
<text text-anchor="start" x="451.5" y="-136.4" font-family="Helvetica,sans-Serif" font-size="11.00" fill="#000000">int4[10]</text>
<polygon fill="#ffffff" stroke="transparent" points="355.5,-109.7 355.5,-128.7 393.5,-128.7 393.5,-109.7 355.5,-109.7"/>
<polygon fill="none" stroke="#000000" points="355.5,-109.7 355.5,-128.7 393.5,-128.7 393.5,-109.7 355.5,-109.7"/>
<text text-anchor="start" x="358.5" y="-115.8" font-family="Helvetica,sans-Serif" font-size="11.00" fill="#000000">&lt; 1</text>
<polygon fill="#ffffff" stroke="transparent" points="393.5,-109.7 393.5,-128.7 448.5,-128.7 448.5,-109.7 393.5,-109.7"/>
<polygon fill="none" stroke="#000000" points="393.5,-109.7 393.5,-128.7 448.5,-128.7 448.5,-109.7 393.5,-109.7"/>
<text text-anchor="start" x="413.1105" y="-115.8" font-family="Helvetica,sans-Serif" font-size="11.00" fill="#000000">0 rows</text>
<polygon fill="#ffffff" stroke="transparent" points="448.5,-109.7 448.5,-128.7 538.5,-128.7 538.5,-109.7 448.5,-109.7"/>
<polygon fill="none" stroke="#000000" points="448.5,-109.7 448.5,-128.7 538.5,-128.7 538.5,-109.7 448.5,-109.7"/>
<text text-anchor="start" x="519.9053" y="-115.8" font-family="Helvetica,sans-Serif" font-size="11.00" fill="#000000">0 &gt;</text>
<polygon fill="none" stroke="#000000" stroke-width="2" points="354,-108.7 354,-284.7 539,-284.7 539,-108.7 354,-108.7"/>
</a>
</g>
</g>
<!-- trocos -->
<g id="node2" class="node">
<title>trocos</title>
<g id="a_node2"><a xlink:href="../../tables/trocos.html" xlink:title="trocos" target="_top">
<polygon fill="#ffffff" stroke="transparent" points="174,-47.2 174,-174.2 304,-174.2 304,-47.2 174,-47.2"/>
<polygon fill="#f5f5f5" stroke="transparent" points="174,-150.7 174,-173.7 304,-173.7 304,-150.7 174,-150.7"/>
<polygon fill="none" stroke="#000000" points="174,-150.7 174,-173.7 304,-173.7 304,-150.7 174,-150.7"/>
<text text-anchor="start" x="179" y="-159.8" font-family="Helvetica,sans-Serif" font-weight="bold" font-size="11.00" fill="#000000">trocos</text>
<text text-anchor="start" x="269.0437" y="-158.8" font-family="Helvetica,sans-Serif" font-size="11.00" fill="#000000">[table]</text>
<polygon fill="none" stroke="#000000" points="174,-128.7 174,-150.7 304,-150.7 304,-128.7 174,-128.7"/>
<image xlink:href="../../images/primaryKeys.png" width="11px" height="12px" preserveAspectRatio="xMinYMin meet" x="179" y="-145.7"/>
<text text-anchor="start" x="194" y="-135.8" font-family="Helvetica,sans-Serif" font-size="11.00" fill="#000000">id</text>
<polygon fill="none" stroke="#000000" points="174,-106.7 174,-128.7 304,-128.7 304,-106.7 174,-106.7"/>
<image xlink:href="../../images/foreignKeys.png" width="11px" height="12px" preserveAspectRatio="xMinYMin meet" x="179" y="-123.7"/>
<text text-anchor="start" x="194" y="-113.8" font-family="Helvetica,sans-Serif" font-size="11.00" fill="#000000">id_estradas</text>
<polygon fill="none" stroke="#000000" points="174,-84.7 174,-106.7 304,-106.7 304,-84.7 174,-84.7"/>
<image xlink:href="../../images/foreignKeys.png" width="11px" height="12px" preserveAspectRatio="xMinYMin meet" x="179" y="-101.7"/>
<text text-anchor="start" x="194" y="-91.8" font-family="Helvetica,sans-Serif" font-size="11.00" fill="#000000">id_tipo_pavimento</text>
<polygon fill="none" stroke="#000000" points="174,-65.7 174,-84.7 304,-84.7 304,-65.7 174,-65.7"/>
<text text-anchor="start" x="177" y="-71.8" font-family="Helvetica,sans-Serif" font-size="11.00" fill="#000000">...</text>
<polygon fill="#ffffff" stroke="transparent" points="174,-46.7 174,-65.7 220,-65.7 220,-46.7 174,-46.7"/>
<polygon fill="none" stroke="#000000" points="174,-46.7 174,-65.7 220,-65.7 220,-46.7 174,-46.7"/>
<text text-anchor="start" x="177" y="-52.8" font-family="Helvetica,sans-Serif" font-size="11.00" fill="#000000">&lt; 2</text>
<polygon fill="#ffffff" stroke="transparent" points="220,-46.7 220,-65.7 270,-65.7 270,-46.7 220,-46.7"/>
<polygon fill="none" stroke="#000000" points="220,-46.7 220,-65.7 270,-65.7 270,-46.7 220,-46.7"/>
<text text-anchor="start" x="234.6105" y="-52.8" font-family="Helvetica,sans-Serif" font-size="11.00" fill="#000000">0 rows</text>
<polygon fill="#ffffff" stroke="transparent" points="270,-46.7 270,-65.7 304,-65.7 304,-46.7 270,-46.7"/>
<polygon fill="none" stroke="#000000" points="270,-46.7 270,-65.7 304,-65.7 304,-46.7 270,-46.7"/>
<text text-anchor="start" x="285.4053" y="-52.8" font-family="Helvetica,sans-Serif" font-size="11.00" fill="#000000">1 &gt;</text>
</a>
</g>
</g>
<!-- intevencoes&#45;&gt;trocos -->
<g id="edge1" class="edge">
<title>intevencoes:w&#45;&gt;trocos:e</title>
<path fill="none" stroke="#000000" d="M341.0156,-139.7C328.6771,-139.7 321.1667,-139.7 304,-139.7"/>
<polygon fill="#000000" stroke="#000000" points="347.5,-139.7001 355.5,-143.3 351.5,-139.7 355.5,-139.7 355.5,-139.7 355.5,-139.7 351.5,-139.7 355.5,-136.1 347.5,-139.7001 347.5,-139.7001"/>
<ellipse fill="none" stroke="#000000" cx="344.3" cy="-139.7001" rx="3.2" ry="3.2"/>
</g>
<!-- estradas -->
<g id="node3" class="node">
<title>estradas</title>
<g id="a_node3"><a xlink:href="../../tables/estradas.html" xlink:title="estradas" target="_top">
<polygon fill="#ffffff" stroke="transparent" points="24,-120.2 24,-181.2 109,-181.2 109,-120.2 24,-120.2"/>
<polygon fill="#f5f5f5" stroke="transparent" points="24.5,-157.7 24.5,-180.7 109.5,-180.7 109.5,-157.7 24.5,-157.7"/>
<polygon fill="none" stroke="#000000" points="24.5,-157.7 24.5,-180.7 109.5,-180.7 109.5,-157.7 24.5,-157.7"/>
<text text-anchor="start" x="29.4108" y="-166.8" font-family="Helvetica,sans-Serif" font-weight="bold" font-size="11.00" fill="#000000">estradas</text>
<text text-anchor="start" x="75.0219" y="-165.8" font-family="Helvetica,sans-Serif" font-size="11.00" fill="#000000">[table]</text>
<polygon fill="none" stroke="#000000" points="24.5,-138.7 24.5,-157.7 109.5,-157.7 109.5,-138.7 24.5,-138.7"/>
<text text-anchor="start" x="27.5" y="-144.8" font-family="Helvetica,sans-Serif" font-size="11.00" fill="#000000">...</text>
<polygon fill="#ffffff" stroke="transparent" points="24.5,-119.7 24.5,-138.7 43.5,-138.7 43.5,-119.7 24.5,-119.7"/>
<polygon fill="none" stroke="#000000" points="24.5,-119.7 24.5,-138.7 43.5,-138.7 43.5,-119.7 24.5,-119.7"/>
<text text-anchor="start" x="27.5" y="-125.8" font-family="Helvetica,sans-Serif" font-size="11.00" fill="#000000"> &#160;</text>
<polygon fill="#ffffff" stroke="transparent" points="43.5,-119.7 43.5,-138.7 84.5,-138.7 84.5,-119.7 43.5,-119.7"/>
<polygon fill="none" stroke="#000000" points="43.5,-119.7 43.5,-138.7 84.5,-138.7 84.5,-119.7 43.5,-119.7"/>
<text text-anchor="start" x="49.1105" y="-125.8" font-family="Helvetica,sans-Serif" font-size="11.00" fill="#000000">0 rows</text>
<polygon fill="#ffffff" stroke="transparent" points="84.5,-119.7 84.5,-138.7 109.5,-138.7 109.5,-119.7 84.5,-119.7"/>
<polygon fill="none" stroke="#000000" points="84.5,-119.7 84.5,-138.7 109.5,-138.7 109.5,-119.7 84.5,-119.7"/>
<text text-anchor="start" x="90.9053" y="-125.8" font-family="Helvetica,sans-Serif" font-size="11.00" fill="#000000">7 &gt;</text>
</a>
</g>
</g>
<!-- trocos&#45;&gt;estradas -->
<g id="edge2" class="edge">
<title>trocos:w&#45;&gt;estradas:e</title>
<path fill="none" stroke="#000000" d="M159.5445,-120.2578C140.9485,-127.5126 135.4348,-147.7 109.5,-147.7"/>
<polygon fill="#000000" stroke="#000000" points="166.1224,-119.0939 174.6273,-121.2449 170.0612,-118.397 174,-117.7 174,-117.7 174,-117.7 170.0612,-118.397 173.3727,-114.1551 166.1224,-119.0939 166.1224,-119.0939"/>
<ellipse fill="none" stroke="#000000" cx="162.9713" cy="-119.6515" rx="3.2" ry="3.2"/>
</g>
<!-- tipo_pavimento -->
<g id="node4" class="node">
<title>tipo_pavimento</title>
<g id="a_node4"><a xlink:href="../../tables/tipo_pavimento.html" xlink:title="tipo_pavimento" target="_top">
<polygon fill="#ffffff" stroke="transparent" points="8,-38.2 8,-99.2 125,-99.2 125,-38.2 8,-38.2"/>
<polygon fill="#f5f5f5" stroke="transparent" points="8.5,-75.7 8.5,-98.7 125.5,-98.7 125.5,-75.7 8.5,-75.7"/>
<polygon fill="none" stroke="#000000" points="8.5,-75.7 8.5,-98.7 125.5,-98.7 125.5,-75.7 8.5,-75.7"/>
<text text-anchor="start" x="13.2117" y="-84.8" font-family="Helvetica,sans-Serif" font-weight="bold" font-size="11.00" fill="#000000">tipo_pavimento</text>
<text text-anchor="start" x="91.0219" y="-83.8" font-family="Helvetica,sans-Serif" font-size="11.00" fill="#000000">[table]</text>
<polygon fill="none" stroke="#000000" points="8.5,-56.7 8.5,-75.7 125.5,-75.7 125.5,-56.7 8.5,-56.7"/>
<text text-anchor="start" x="11.5" y="-62.8" font-family="Helvetica,sans-Serif" font-size="11.00" fill="#000000">...</text>
<polygon fill="#ffffff" stroke="transparent" points="8.5,-37.7 8.5,-56.7 43.5,-56.7 43.5,-37.7 8.5,-37.7"/>
<polygon fill="none" stroke="#000000" points="8.5,-37.7 8.5,-56.7 43.5,-56.7 43.5,-37.7 8.5,-37.7"/>
<text text-anchor="start" x="11.5" y="-43.8" font-family="Helvetica,sans-Serif" font-size="11.00" fill="#000000"> &#160;</text>
<polygon fill="#ffffff" stroke="transparent" points="43.5,-37.7 43.5,-56.7 92.5,-56.7 92.5,-37.7 43.5,-37.7"/>
<polygon fill="none" stroke="#000000" points="43.5,-37.7 43.5,-56.7 92.5,-56.7 92.5,-37.7 43.5,-37.7"/>
<text text-anchor="start" x="57.1105" y="-43.8" font-family="Helvetica,sans-Serif" font-size="11.00" fill="#000000">0 rows</text>
<polygon fill="#ffffff" stroke="transparent" points="92.5,-37.7 92.5,-56.7 125.5,-56.7 125.5,-37.7 92.5,-37.7"/>
<polygon fill="none" stroke="#000000" points="92.5,-37.7 92.5,-56.7 125.5,-56.7 125.5,-37.7 92.5,-37.7"/>
<text text-anchor="start" x="106.9053" y="-43.8" font-family="Helvetica,sans-Serif" font-size="11.00" fill="#000000">1 &gt;</text>
</a>
</g>
</g>
<!-- trocos&#45;&gt;tipo_pavimento -->
<g id="edge3" class="edge">
<title>trocos:w&#45;&gt;tipo_pavimento:e</title>
<path fill="none" stroke="#000000" d="M160.0076,-91.5286C148.1688,-83.2854 144.9055,-65.7 125.5,-65.7"/>
<polygon fill="#000000" stroke="#000000" points="166.3334,-93.4144 172.9715,-99.15 170.1667,-94.5572 174,-95.7 174,-95.7 174,-95.7 170.1667,-94.5572 175.0285,-92.25 166.3334,-93.4144 166.3334,-93.4144"/>
<ellipse fill="none" stroke="#000000" cx="163.2668" cy="-92.5002" rx="3.2" ry="3.2"/>
</g>
</g>
</svg>
