<?xml version="1.0" encoding="UTF-8" standalone="no"?>
<!DOCTYPE svg PUBLIC "-//W3C//DTD SVG 1.1//EN"
 "http://www.w3.org/Graphics/SVG/1.1/DTD/svg11.dtd">
<!-- Generated by graphviz version 2.40.1 (20161225.0304)
 -->
<!-- Title: oneDegreeRelationshipsDiagram Pages: 1 -->
<svg width="390pt" height="289pt"
 viewBox="0.00 0.00 390.00 288.70" xmlns="http://www.w3.org/2000/svg" xmlns:xlink="http://www.w3.org/1999/xlink">
<g id="graph0" class="graph" transform="scale(1 1) rotate(0) translate(4 284.7)">
<title>oneDegreeRelationshipsDiagram</title>
<polygon fill="#ffffff" stroke="transparent" points="-4,4 -4,-284.7 386,-284.7 386,4 -4,4"/>
<text text-anchor="middle" x="72.4936" y="-7.3" font-family="Helvetica,sans-Serif" font-size="11.00" fill="#000000">Generated by SchemaSpy</text>
<!-- intevencoes -->
<g id="node1" class="node">
<title>intevencoes</title>
<g id="a_node1"><a xlink:href="../../tables/intevencoes.html" xlink:title="intevencoes" target="_top">
<polygon fill="#ffffff" stroke="transparent" points="187,-98.7 187,-276.7 374,-276.7 374,-98.7 187,-98.7"/>
<polygon fill="#f5f5f5" stroke="transparent" points="189.5,-251.7 189.5,-274.7 372.5,-274.7 372.5,-251.7 189.5,-251.7"/>
<polygon fill="none" stroke="#000000" points="189.5,-251.7 189.5,-274.7 372.5,-274.7 372.5,-251.7 189.5,-251.7"/>
<text text-anchor="start" x="194.5" y="-260.8" font-family="Helvetica,sans-Serif" font-weight="bold" font-size="11.00" fill="#000000">intevencoes</text>
<text text-anchor="start" x="337.5437" y="-259.8" font-family="Helvetica,sans-Serif" font-size="11.00" fill="#000000">[table]</text>
<polygon fill="none" stroke="#000000" points="189.5,-229.7 189.5,-251.7 282.5,-251.7 282.5,-229.7 189.5,-229.7"/>
<image xlink:href="../../images/primaryKeys.png" width="11px" height="12px" preserveAspectRatio="xMinYMin meet" x="194.5" y="-246.7"/>
<text text-anchor="start" x="209.5" y="-236.8" font-family="Helvetica,sans-Serif" font-size="11.00" fill="#000000">id</text>
<polygon fill="none" stroke="#000000" points="282.5,-229.7 282.5,-251.7 372.5,-251.7 372.5,-229.7 282.5,-229.7"/>
<text text-anchor="start" x="285.5" y="-237.4" font-family="Helvetica,sans-Serif" font-size="11.00" fill="#000000">serial[10]</text>
<polygon fill="none" stroke="#000000" points="189.5,-207.7 189.5,-229.7 282.5,-229.7 282.5,-207.7 189.5,-207.7"/>
<text text-anchor="start" x="209.5" y="-214.8" font-family="Helvetica,sans-Serif" font-size="11.00" fill="#000000">data_inter</text>
<polygon fill="none" stroke="#000000" points="282.5,-207.7 282.5,-229.7 372.5,-229.7 372.5,-207.7 282.5,-207.7"/>
<text text-anchor="start" x="285.5" y="-215.4" font-family="Helvetica,sans-Serif" font-size="11.00" fill="#000000">date[13]</text>
<polygon fill="none" stroke="#000000" points="189.5,-185.7 189.5,-207.7 282.5,-207.7 282.5,-185.7 189.5,-185.7"/>
<text text-anchor="start" x="209.5" y="-192.8" font-family="Helvetica,sans-Serif" font-size="11.00" fill="#000000">desc_inter</text>
<polygon fill="none" stroke="#000000" points="282.5,-185.7 282.5,-207.7 372.5,-207.7 372.5,-185.7 282.5,-185.7"/>
<text text-anchor="start" x="285.0043" y="-193.4" font-family="Helvetica,sans-Serif" font-size="11.00" fill="#000000">text[2147483647]</text>
<polygon fill="none" stroke="#000000" points="189.5,-163.7 189.5,-185.7 282.5,-185.7 282.5,-163.7 189.5,-163.7"/>
<text text-anchor="start" x="209.5" y="-170.8" font-family="Helvetica,sans-Serif" font-size="11.00" fill="#000000">valor</text>
<polygon fill="none" stroke="#000000" points="282.5,-163.7 282.5,-185.7 372.5,-185.7 372.5,-163.7 282.5,-163.7"/>
<text text-anchor="start" x="285.5" y="-171.4" font-family="Helvetica,sans-Serif" font-size="11.00" fill="#000000">float8[17,17]</text>
<polygon fill="none" stroke="#000000" points="189.5,-141.7 189.5,-163.7 282.5,-163.7 282.5,-141.7 189.5,-141.7"/>
<text text-anchor="start" x="209.5" y="-148.8" font-family="Helvetica,sans-Serif" font-size="11.00" fill="#000000">obs</text>
<polygon fill="none" stroke="#000000" points="282.5,-141.7 282.5,-163.7 372.5,-163.7 372.5,-141.7 282.5,-141.7"/>
<text text-anchor="start" x="285.0043" y="-149.4" font-family="Helvetica,sans-Serif" font-size="11.00" fill="#000000">text[2147483647]</text>
<polygon fill="none" stroke="#000000" points="189.5,-119.7 189.5,-141.7 282.5,-141.7 282.5,-119.7 189.5,-119.7"/>
<image xlink:href="../../images/foreignKeys.png" width="11px" height="12px" preserveAspectRatio="xMinYMin meet" x="194.5" y="-136.7"/>
<text text-anchor="start" x="209.5" y="-126.8" font-family="Helvetica,sans-Serif" font-size="11.00" fill="#000000">id_trocos</text>
<polygon fill="none" stroke="#000000" points="282.5,-119.7 282.5,-141.7 372.5,-141.7 372.5,-119.7 282.5,-119.7"/>
<text text-anchor="start" x="285.5" y="-127.4" font-family="Helvetica,sans-Serif" font-size="11.00" fill="#000000">int4[10]</text>
<polygon fill="#ffffff" stroke="transparent" points="189.5,-100.7 189.5,-119.7 227.5,-119.7 227.5,-100.7 189.5,-100.7"/>
<polygon fill="none" stroke="#000000" points="189.5,-100.7 189.5,-119.7 227.5,-119.7 227.5,-100.7 189.5,-100.7"/>
<text text-anchor="start" x="192.5" y="-106.8" font-family="Helvetica,sans-Serif" font-size="11.00" fill="#000000">&lt; 1</text>
<polygon fill="#ffffff" stroke="transparent" points="227.5,-100.7 227.5,-119.7 282.5,-119.7 282.5,-100.7 227.5,-100.7"/>
<polygon fill="none" stroke="#000000" points="227.5,-100.7 227.5,-119.7 282.5,-119.7 282.5,-100.7 227.5,-100.7"/>
<text text-anchor="start" x="247.1105" y="-106.8" font-family="Helvetica,sans-Serif" font-size="11.00" fill="#000000">0 rows</text>
<polygon fill="#ffffff" stroke="transparent" points="282.5,-100.7 282.5,-119.7 372.5,-119.7 372.5,-100.7 282.5,-100.7"/>
<polygon fill="none" stroke="#000000" points="282.5,-100.7 282.5,-119.7 372.5,-119.7 372.5,-100.7 282.5,-100.7"/>
<text text-anchor="start" x="353.9053" y="-106.8" font-family="Helvetica,sans-Serif" font-size="11.00" fill="#000000">0 &gt;</text>
<polygon fill="none" stroke="#000000" stroke-width="2" points="188,-99.7 188,-275.7 373,-275.7 373,-99.7 188,-99.7"/>
</a>
</g>
</g>
<!-- trocos -->
<g id="node2" class="node">
<title>trocos</title>
<g id="a_node2"><a xlink:href="../../tables/trocos.html" xlink:title="trocos" target="_top">
<polygon fill="#ffffff" stroke="transparent" points="8,-38.2 8,-165.2 138,-165.2 138,-38.2 8,-38.2"/>
<polygon fill="#f5f5f5" stroke="transparent" points="8,-141.7 8,-164.7 138,-164.7 138,-141.7 8,-141.7"/>
<polygon fill="none" stroke="#000000" points="8,-141.7 8,-164.7 138,-164.7 138,-141.7 8,-141.7"/>
<text text-anchor="start" x="13" y="-150.8" font-family="Helvetica,sans-Serif" font-weight="bold" font-size="11.00" fill="#000000">trocos</text>
<text text-anchor="start" x="103.0437" y="-149.8" font-family="Helvetica,sans-Serif" font-size="11.00" fill="#000000">[table]</text>
<polygon fill="none" stroke="#000000" points="8,-119.7 8,-141.7 138,-141.7 138,-119.7 8,-119.7"/>
<image xlink:href="../../images/primaryKeys.png" width="11px" height="12px" preserveAspectRatio="xMinYMin meet" x="13" y="-136.7"/>
<text text-anchor="start" x="28" y="-126.8" font-family="Helvetica,sans-Serif" font-size="11.00" fill="#000000">id</text>
<polygon fill="none" stroke="#000000" points="8,-97.7 8,-119.7 138,-119.7 138,-97.7 8,-97.7"/>
<image xlink:href="../../images/foreignKeys.png" width="11px" height="12px" preserveAspectRatio="xMinYMin meet" x="13" y="-114.7"/>
<text text-anchor="start" x="28" y="-104.8" font-family="Helvetica,sans-Serif" font-size="11.00" fill="#000000">id_estradas</text>
<polygon fill="none" stroke="#000000" points="8,-75.7 8,-97.7 138,-97.7 138,-75.7 8,-75.7"/>
<image xlink:href="../../images/foreignKeys.png" width="11px" height="12px" preserveAspectRatio="xMinYMin meet" x="13" y="-92.7"/>
<text text-anchor="start" x="28" y="-82.8" font-family="Helvetica,sans-Serif" font-size="11.00" fill="#000000">id_tipo_pavimento</text>
<polygon fill="none" stroke="#000000" points="8,-56.7 8,-75.7 138,-75.7 138,-56.7 8,-56.7"/>
<text text-anchor="start" x="11" y="-62.8" font-family="Helvetica,sans-Serif" font-size="11.00" fill="#000000">...</text>
<polygon fill="#ffffff" stroke="transparent" points="8,-37.7 8,-56.7 54,-56.7 54,-37.7 8,-37.7"/>
<polygon fill="none" stroke="#000000" points="8,-37.7 8,-56.7 54,-56.7 54,-37.7 8,-37.7"/>
<text text-anchor="start" x="11" y="-43.8" font-family="Helvetica,sans-Serif" font-size="11.00" fill="#000000">&lt; 2</text>
<polygon fill="#ffffff" stroke="transparent" points="54,-37.7 54,-56.7 104,-56.7 104,-37.7 54,-37.7"/>
<polygon fill="none" stroke="#000000" points="54,-37.7 54,-56.7 104,-56.7 104,-37.7 54,-37.7"/>
<text text-anchor="start" x="68.6105" y="-43.8" font-family="Helvetica,sans-Serif" font-size="11.00" fill="#000000">0 rows</text>
<polygon fill="#ffffff" stroke="transparent" points="104,-37.7 104,-56.7 138,-56.7 138,-37.7 104,-37.7"/>
<polygon fill="none" stroke="#000000" points="104,-37.7 104,-56.7 138,-56.7 138,-37.7 104,-37.7"/>
<text text-anchor="start" x="119.4053" y="-43.8" font-family="Helvetica,sans-Serif" font-size="11.00" fill="#000000">1 &gt;</text>
</a>
</g>
</g>
<!-- intevencoes&#45;&gt;trocos -->
<g id="edge1" class="edge">
<title>intevencoes:w&#45;&gt;trocos:e</title>
<path fill="none" stroke="#000000" d="M175.0156,-130.7C162.6771,-130.7 155.1667,-130.7 138,-130.7"/>
<polygon fill="#000000" stroke="#000000" points="181.5,-130.7001 189.5,-134.3 185.5,-130.7 189.5,-130.7 189.5,-130.7 189.5,-130.7 185.5,-130.7 189.5,-127.1 181.5,-130.7001 181.5,-130.7001"/>
<ellipse fill="none" stroke="#000000" cx="178.3" cy="-130.7001" rx="3.2" ry="3.2"/>
</g>
</g>
</svg>
