<?xml version="1.0" encoding="UTF-8" standalone="no"?>
<!DOCTYPE svg PUBLIC "-//W3C//DTD SVG 1.1//EN"
 "http://www.w3.org/Graphics/SVG/1.1/DTD/svg11.dtd">
<!-- Generated by graphviz version 2.40.1 (20161225.0304)
 -->
<!-- Title: twoDegreesRelationshipsDiagram Pages: 1 -->
<svg width="347pt" height="775pt"
 viewBox="0.00 0.00 347.00 775.20" xmlns="http://www.w3.org/2000/svg" xmlns:xlink="http://www.w3.org/1999/xlink">
<g id="graph0" class="graph" transform="scale(1 1) rotate(0) translate(4 771.2)">
<title>twoDegreesRelationshipsDiagram</title>
<polygon fill="#ffffff" stroke="transparent" points="-4,4 -4,-771.2 343,-771.2 343,4 -4,4"/>
<text text-anchor="middle" x="72.4936" y="-7.3" font-family="Helvetica,sans-Serif" font-size="11.00" fill="#000000">Generated by SchemaSpy</text>
<!-- lrs_line -->
<g id="node1" class="node">
<title>lrs_line</title>
<g id="a_node1"><a xlink:href="../../tables/lrs_line.html" xlink:title="lrs_line" target="_top">
<polygon fill="#ffffff" stroke="transparent" points="235.5,-592.2 235.5,-763.2 323.5,-763.2 323.5,-592.2 235.5,-592.2"/>
<polygon fill="#f5f5f5" stroke="transparent" points="235.5,-739.7 235.5,-762.7 323.5,-762.7 323.5,-739.7 235.5,-739.7"/>
<polygon fill="none" stroke="#000000" points="235.5,-739.7 235.5,-762.7 323.5,-762.7 323.5,-739.7 235.5,-739.7"/>
<text text-anchor="start" x="240.5" y="-748.8" font-family="Helvetica,sans-Serif" font-weight="bold" font-size="11.00" fill="#000000">lrs_line</text>
<text text-anchor="start" x="288.5437" y="-747.8" font-family="Helvetica,sans-Serif" font-size="11.00" fill="#000000">[table]</text>
<polygon fill="none" stroke="#000000" points="235.5,-717.7 235.5,-739.7 323.5,-739.7 323.5,-717.7 235.5,-717.7"/>
<image xlink:href="../../images/primaryKeys.png" width="11px" height="12px" preserveAspectRatio="xMinYMin meet" x="240.5" y="-734.7"/>
<text text-anchor="start" x="255.5" y="-724.8" font-family="Helvetica,sans-Serif" font-size="11.00" fill="#000000">id</text>
<polygon fill="none" stroke="#000000" points="235.5,-695.7 235.5,-717.7 323.5,-717.7 323.5,-695.7 235.5,-695.7"/>
<image xlink:href="../../images/foreignKeys.png" width="11px" height="12px" preserveAspectRatio="xMinYMin meet" x="240.5" y="-712.7"/>
<text text-anchor="start" x="255.5" y="-702.8" font-family="Helvetica,sans-Serif" font-size="11.00" fill="#000000">id_estradas</text>
<polygon fill="none" stroke="#000000" points="235.5,-673.7 235.5,-695.7 323.5,-695.7 323.5,-673.7 235.5,-673.7"/>
<image xlink:href="../../images/foreignKeys.png" width="11px" height="12px" preserveAspectRatio="xMinYMin meet" x="240.5" y="-690.7"/>
<text text-anchor="start" x="255.5" y="-680.8" font-family="Helvetica,sans-Serif" font-size="11.00" fill="#000000">id_tipo_line</text>
<polygon fill="none" stroke="#000000" points="235.5,-651.7 235.5,-673.7 323.5,-673.7 323.5,-651.7 235.5,-651.7"/>
<image xlink:href="../../images/foreignKeys.png" width="11px" height="12px" preserveAspectRatio="xMinYMin meet" x="240.5" y="-668.7"/>
<text text-anchor="start" x="255.5" y="-658.8" font-family="Helvetica,sans-Serif" font-size="11.00" fill="#000000">id_estado</text>
<polygon fill="none" stroke="#000000" points="235.5,-629.7 235.5,-651.7 323.5,-651.7 323.5,-629.7 235.5,-629.7"/>
<image xlink:href="../../images/foreignKeys.png" width="11px" height="12px" preserveAspectRatio="xMinYMin meet" x="240.5" y="-646.7"/>
<text text-anchor="start" x="255.5" y="-636.8" font-family="Helvetica,sans-Serif" font-size="11.00" fill="#000000">id_lado</text>
<polygon fill="none" stroke="#000000" points="235.5,-610.7 235.5,-629.7 323.5,-629.7 323.5,-610.7 235.5,-610.7"/>
<text text-anchor="start" x="238.5" y="-616.8" font-family="Helvetica,sans-Serif" font-size="11.00" fill="#000000">...</text>
<polygon fill="#ffffff" stroke="transparent" points="235.5,-591.7 235.5,-610.7 264.5,-610.7 264.5,-591.7 235.5,-591.7"/>
<polygon fill="none" stroke="#000000" points="235.5,-591.7 235.5,-610.7 264.5,-610.7 264.5,-591.7 235.5,-591.7"/>
<text text-anchor="start" x="238.5" y="-597.8" font-family="Helvetica,sans-Serif" font-size="11.00" fill="#000000">&lt; 4</text>
<polygon fill="#ffffff" stroke="transparent" points="264.5,-591.7 264.5,-610.7 306.5,-610.7 306.5,-591.7 264.5,-591.7"/>
<polygon fill="none" stroke="#000000" points="264.5,-591.7 264.5,-610.7 306.5,-610.7 306.5,-591.7 264.5,-591.7"/>
<text text-anchor="start" x="271.1105" y="-597.8" font-family="Helvetica,sans-Serif" font-size="11.00" fill="#000000">0 rows</text>
<polygon fill="#ffffff" stroke="transparent" points="306.5,-591.7 306.5,-610.7 323.5,-610.7 323.5,-591.7 306.5,-591.7"/>
<polygon fill="none" stroke="#000000" points="306.5,-591.7 306.5,-610.7 323.5,-610.7 323.5,-591.7 306.5,-591.7"/>
<text text-anchor="start" x="314.3862" y="-597.8" font-family="Helvetica,sans-Serif" font-size="11.00" fill="#000000"> &#160;</text>
</a>
</g>
</g>
<!-- estado -->
<g id="node2" class="node">
<title>estado</title>
<g id="a_node2"><a xlink:href="../../tables/estado.html" xlink:title="estado" target="_top">
<polygon fill="#ffffff" stroke="transparent" points="55.5,-336.2 55.5,-397.2 131.5,-397.2 131.5,-336.2 55.5,-336.2"/>
<polygon fill="#f5f5f5" stroke="transparent" points="55.5,-373.7 55.5,-396.7 131.5,-396.7 131.5,-373.7 55.5,-373.7"/>
<polygon fill="none" stroke="#000000" points="55.5,-373.7 55.5,-396.7 131.5,-396.7 131.5,-373.7 55.5,-373.7"/>
<text text-anchor="start" x="60.4918" y="-382.8" font-family="Helvetica,sans-Serif" font-weight="bold" font-size="11.00" fill="#000000">estado</text>
<text text-anchor="start" x="97.0219" y="-381.8" font-family="Helvetica,sans-Serif" font-size="11.00" fill="#000000">[table]</text>
<polygon fill="none" stroke="#000000" points="55.5,-354.7 55.5,-373.7 131.5,-373.7 131.5,-354.7 55.5,-354.7"/>
<text text-anchor="start" x="58.5" y="-360.8" font-family="Helvetica,sans-Serif" font-size="11.00" fill="#000000">...</text>
<polygon fill="#ffffff" stroke="transparent" points="55.5,-335.7 55.5,-354.7 69.5,-354.7 69.5,-335.7 55.5,-335.7"/>
<polygon fill="none" stroke="#000000" points="55.5,-335.7 55.5,-354.7 69.5,-354.7 69.5,-335.7 55.5,-335.7"/>
<text text-anchor="start" x="58.5" y="-341.8" font-family="Helvetica,sans-Serif" font-size="11.00" fill="#000000"> &#160;</text>
<polygon fill="#ffffff" stroke="transparent" points="69.5,-335.7 69.5,-354.7 108.5,-354.7 108.5,-335.7 69.5,-335.7"/>
<polygon fill="none" stroke="#000000" points="69.5,-335.7 69.5,-354.7 108.5,-354.7 108.5,-335.7 69.5,-335.7"/>
<text text-anchor="start" x="73.1105" y="-341.8" font-family="Helvetica,sans-Serif" font-size="11.00" fill="#000000">0 rows</text>
<polygon fill="#ffffff" stroke="transparent" points="108.5,-335.7 108.5,-354.7 131.5,-354.7 131.5,-335.7 108.5,-335.7"/>
<polygon fill="none" stroke="#000000" points="108.5,-335.7 108.5,-354.7 131.5,-354.7 131.5,-335.7 108.5,-335.7"/>
<text text-anchor="start" x="112.9053" y="-341.8" font-family="Helvetica,sans-Serif" font-size="11.00" fill="#000000">4 &gt;</text>
</a>
</g>
</g>
<!-- lrs_line&#45;&gt;estado -->
<g id="edge1" class="edge">
<title>lrs_line:w&#45;&gt;estado:e</title>
<path fill="none" stroke="#000000" d="M221.4279,-658.6549C207.7879,-646.8204 225.6268,-611.2359 220,-581.7 200.431,-478.9789 236.0685,-363.7 131.5,-363.7"/>
<polygon fill="#000000" stroke="#000000" points="227.8113,-660.4898 234.5054,-666.1599 231.6557,-661.5949 235.5,-662.7 235.5,-662.7 235.5,-662.7 231.6557,-661.5949 236.4946,-659.2401 227.8113,-660.4898 227.8113,-660.4898"/>
<ellipse fill="none" stroke="#000000" cx="224.7359" cy="-659.6058" rx="3.2" ry="3.2"/>
</g>
<!-- estradas -->
<g id="node3" class="node">
<title>estradas</title>
<g id="a_node3"><a xlink:href="../../tables/estradas.html" xlink:title="estradas" target="_top">
<polygon fill="#ffffff" stroke="transparent" points="51,-418.2 51,-479.2 136,-479.2 136,-418.2 51,-418.2"/>
<polygon fill="#f5f5f5" stroke="transparent" points="51.5,-455.7 51.5,-478.7 136.5,-478.7 136.5,-455.7 51.5,-455.7"/>
<polygon fill="none" stroke="#000000" points="51.5,-455.7 51.5,-478.7 136.5,-478.7 136.5,-455.7 51.5,-455.7"/>
<text text-anchor="start" x="56.4108" y="-464.8" font-family="Helvetica,sans-Serif" font-weight="bold" font-size="11.00" fill="#000000">estradas</text>
<text text-anchor="start" x="102.0219" y="-463.8" font-family="Helvetica,sans-Serif" font-size="11.00" fill="#000000">[table]</text>
<polygon fill="none" stroke="#000000" points="51.5,-436.7 51.5,-455.7 136.5,-455.7 136.5,-436.7 51.5,-436.7"/>
<text text-anchor="start" x="54.5" y="-442.8" font-family="Helvetica,sans-Serif" font-size="11.00" fill="#000000">...</text>
<polygon fill="#ffffff" stroke="transparent" points="51.5,-417.7 51.5,-436.7 70.5,-436.7 70.5,-417.7 51.5,-417.7"/>
<polygon fill="none" stroke="#000000" points="51.5,-417.7 51.5,-436.7 70.5,-436.7 70.5,-417.7 51.5,-417.7"/>
<text text-anchor="start" x="54.5" y="-423.8" font-family="Helvetica,sans-Serif" font-size="11.00" fill="#000000"> &#160;</text>
<polygon fill="#ffffff" stroke="transparent" points="70.5,-417.7 70.5,-436.7 111.5,-436.7 111.5,-417.7 70.5,-417.7"/>
<polygon fill="none" stroke="#000000" points="70.5,-417.7 70.5,-436.7 111.5,-436.7 111.5,-417.7 70.5,-417.7"/>
<text text-anchor="start" x="76.1105" y="-423.8" font-family="Helvetica,sans-Serif" font-size="11.00" fill="#000000">0 rows</text>
<polygon fill="#ffffff" stroke="transparent" points="111.5,-417.7 111.5,-436.7 136.5,-436.7 136.5,-417.7 111.5,-417.7"/>
<polygon fill="none" stroke="#000000" points="111.5,-417.7 111.5,-436.7 136.5,-436.7 136.5,-417.7 111.5,-417.7"/>
<text text-anchor="start" x="117.9053" y="-423.8" font-family="Helvetica,sans-Serif" font-size="11.00" fill="#000000">7 &gt;</text>
</a>
</g>
</g>
<!-- lrs_line&#45;&gt;estradas -->
<g id="edge2" class="edge">
<title>lrs_line:w&#45;&gt;estradas:e</title>
<path fill="none" stroke="#000000" d="M221.021,-705.5442C147.2566,-692.3943 234.7882,-569.9714 187,-489.7 171.772,-464.1211 166.2687,-445.7 136.5,-445.7"/>
<polygon fill="#000000" stroke="#000000" points="227.5254,-706.0634 235.2135,-710.2886 231.5127,-706.3817 235.5,-706.7 235.5,-706.7 235.5,-706.7 231.5127,-706.3817 235.7865,-703.1114 227.5254,-706.0634 227.5254,-706.0634"/>
<ellipse fill="none" stroke="#000000" cx="224.3355" cy="-705.8087" rx="3.2" ry="3.2"/>
</g>
<!-- lado -->
<g id="node4" class="node">
<title>lado</title>
<g id="a_node4"><a xlink:href="../../tables/lado.html" xlink:title="lado" target="_top">
<polygon fill="#ffffff" stroke="transparent" points="8,-224.7 8,-314.7 179,-314.7 179,-224.7 8,-224.7"/>
<polygon fill="#f5f5f5" stroke="transparent" points="10.5,-289.7 10.5,-312.7 177.5,-312.7 177.5,-289.7 10.5,-289.7"/>
<polygon fill="none" stroke="#000000" points="10.5,-289.7 10.5,-312.7 177.5,-312.7 177.5,-289.7 10.5,-289.7"/>
<text text-anchor="start" x="15.5" y="-298.8" font-family="Helvetica,sans-Serif" font-weight="bold" font-size="11.00" fill="#000000">lado</text>
<text text-anchor="start" x="142.5437" y="-297.8" font-family="Helvetica,sans-Serif" font-size="11.00" fill="#000000">[table]</text>
<polygon fill="none" stroke="#000000" points="10.5,-267.7 10.5,-289.7 87.5,-289.7 87.5,-267.7 10.5,-267.7"/>
<image xlink:href="../../images/primaryKeys.png" width="11px" height="12px" preserveAspectRatio="xMinYMin meet" x="15.5" y="-284.7"/>
<text text-anchor="start" x="30.5" y="-274.8" font-family="Helvetica,sans-Serif" font-size="11.00" fill="#000000">id</text>
<polygon fill="none" stroke="#000000" points="87.5,-267.7 87.5,-289.7 177.5,-289.7 177.5,-267.7 87.5,-267.7"/>
<text text-anchor="start" x="90.5" y="-275.4" font-family="Helvetica,sans-Serif" font-size="11.00" fill="#000000">serial[10]</text>
<polygon fill="none" stroke="#000000" points="10.5,-245.7 10.5,-267.7 87.5,-267.7 87.5,-245.7 10.5,-245.7"/>
<text text-anchor="start" x="30.5" y="-252.8" font-family="Helvetica,sans-Serif" font-size="11.00" fill="#000000">descricao</text>
<polygon fill="none" stroke="#000000" points="87.5,-245.7 87.5,-267.7 177.5,-267.7 177.5,-245.7 87.5,-245.7"/>
<text text-anchor="start" x="90.0042" y="-253.4" font-family="Helvetica,sans-Serif" font-size="11.00" fill="#000000">text[2147483647]</text>
<polygon fill="#ffffff" stroke="transparent" points="10.5,-226.7 10.5,-245.7 40.5,-245.7 40.5,-226.7 10.5,-226.7"/>
<polygon fill="none" stroke="#000000" points="10.5,-226.7 10.5,-245.7 40.5,-245.7 40.5,-226.7 10.5,-226.7"/>
<text text-anchor="start" x="13.5" y="-232.8" font-family="Helvetica,sans-Serif" font-size="11.00" fill="#000000">&lt; 0</text>
<polygon fill="#ffffff" stroke="transparent" points="40.5,-226.7 40.5,-245.7 87.5,-245.7 87.5,-226.7 40.5,-226.7"/>
<polygon fill="none" stroke="#000000" points="40.5,-226.7 40.5,-245.7 87.5,-245.7 87.5,-226.7 40.5,-226.7"/>
<text text-anchor="start" x="52.1105" y="-232.8" font-family="Helvetica,sans-Serif" font-size="11.00" fill="#000000">0 rows</text>
<polygon fill="#ffffff" stroke="transparent" points="87.5,-226.7 87.5,-245.7 177.5,-245.7 177.5,-226.7 87.5,-226.7"/>
<polygon fill="none" stroke="#000000" points="87.5,-226.7 87.5,-245.7 177.5,-245.7 177.5,-226.7 87.5,-226.7"/>
<text text-anchor="start" x="158.9053" y="-232.8" font-family="Helvetica,sans-Serif" font-size="11.00" fill="#000000">4 &gt;</text>
<polygon fill="none" stroke="#000000" stroke-width="2" points="9,-225.7 9,-313.7 178,-313.7 178,-225.7 9,-225.7"/>
</a>
</g>
</g>
<!-- lrs_line&#45;&gt;lado -->
<g id="edge3" class="edge">
<title>lrs_line:w&#45;&gt;lado:e</title>
<path fill="none" stroke="#000000" d="M221.6265,-636.123C167.145,-594.2182 253.5603,-278.7 177.5,-278.7"/>
<polygon fill="#000000" stroke="#000000" points="227.9028,-638.1936 234.3721,-644.1188 231.7014,-639.4468 235.5,-640.7 235.5,-640.7 235.5,-640.7 231.7014,-639.4468 236.6279,-637.2812 227.9028,-638.1936 227.9028,-638.1936"/>
<ellipse fill="none" stroke="#000000" cx="224.8639" cy="-637.191" rx="3.2" ry="3.2"/>
</g>
<!-- tipo_line -->
<g id="node5" class="node">
<title>tipo_line</title>
<g id="a_node5"><a xlink:href="../../tables/tipo_line.html" xlink:title="tipo_line" target="_top">
<polygon fill="#ffffff" stroke="transparent" points="52,-657.2 52,-718.2 135,-718.2 135,-657.2 52,-657.2"/>
<polygon fill="#f5f5f5" stroke="transparent" points="52.5,-694.7 52.5,-717.7 135.5,-717.7 135.5,-694.7 52.5,-694.7"/>
<polygon fill="none" stroke="#000000" points="52.5,-694.7 52.5,-717.7 135.5,-717.7 135.5,-694.7 52.5,-694.7"/>
<text text-anchor="start" x="57.023" y="-703.8" font-family="Helvetica,sans-Serif" font-weight="bold" font-size="11.00" fill="#000000">tipo_line</text>
<text text-anchor="start" x="101.0219" y="-702.8" font-family="Helvetica,sans-Serif" font-size="11.00" fill="#000000">[table]</text>
<polygon fill="none" stroke="#000000" points="52.5,-675.7 52.5,-694.7 135.5,-694.7 135.5,-675.7 52.5,-675.7"/>
<text text-anchor="start" x="55.5" y="-681.8" font-family="Helvetica,sans-Serif" font-size="11.00" fill="#000000">...</text>
<polygon fill="#ffffff" stroke="transparent" points="52.5,-656.7 52.5,-675.7 70.5,-675.7 70.5,-656.7 52.5,-656.7"/>
<polygon fill="none" stroke="#000000" points="52.5,-656.7 52.5,-675.7 70.5,-675.7 70.5,-656.7 52.5,-656.7"/>
<text text-anchor="start" x="55.5" y="-662.8" font-family="Helvetica,sans-Serif" font-size="11.00" fill="#000000"> &#160;</text>
<polygon fill="#ffffff" stroke="transparent" points="70.5,-656.7 70.5,-675.7 111.5,-675.7 111.5,-656.7 70.5,-656.7"/>
<polygon fill="none" stroke="#000000" points="70.5,-656.7 70.5,-675.7 111.5,-675.7 111.5,-656.7 70.5,-656.7"/>
<text text-anchor="start" x="76.1105" y="-662.8" font-family="Helvetica,sans-Serif" font-size="11.00" fill="#000000">0 rows</text>
<polygon fill="#ffffff" stroke="transparent" points="111.5,-656.7 111.5,-675.7 135.5,-675.7 135.5,-656.7 111.5,-656.7"/>
<polygon fill="none" stroke="#000000" points="111.5,-656.7 111.5,-675.7 135.5,-675.7 135.5,-656.7 111.5,-656.7"/>
<text text-anchor="start" x="116.9053" y="-662.8" font-family="Helvetica,sans-Serif" font-size="11.00" fill="#000000">1 &gt;</text>
</a>
</g>
</g>
<!-- lrs_line&#45;&gt;tipo_line -->
<g id="edge4" class="edge">
<title>lrs_line:w&#45;&gt;tipo_line:e</title>
<path fill="none" stroke="#000000" d="M220.7022,-684.7C187.8758,-684.7 174.5625,-684.7 135.5,-684.7"/>
<polygon fill="#000000" stroke="#000000" points="227.5,-684.7001 235.5,-688.3 231.5,-684.7 235.5,-684.7 235.5,-684.7 235.5,-684.7 231.5,-684.7 235.5,-681.1 227.5,-684.7001 227.5,-684.7001"/>
<ellipse fill="none" stroke="#000000" cx="224.3" cy="-684.7001" rx="3.2" ry="3.2"/>
</g>
<!-- lrs_node -->
<g id="node6" class="node">
<title>lrs_node</title>
<g id="a_node6"><a xlink:href="../../tables/lrs_node.html" xlink:title="lrs_node" target="_top">
<polygon fill="#ffffff" stroke="transparent" points="231.5,-38.2 231.5,-209.2 327.5,-209.2 327.5,-38.2 231.5,-38.2"/>
<polygon fill="#f5f5f5" stroke="transparent" points="231.5,-185.7 231.5,-208.7 327.5,-208.7 327.5,-185.7 231.5,-185.7"/>
<polygon fill="none" stroke="#000000" points="231.5,-185.7 231.5,-208.7 327.5,-208.7 327.5,-185.7 231.5,-185.7"/>
<text text-anchor="start" x="236.5" y="-194.8" font-family="Helvetica,sans-Serif" font-weight="bold" font-size="11.00" fill="#000000">lrs_node</text>
<text text-anchor="start" x="292.5437" y="-193.8" font-family="Helvetica,sans-Serif" font-size="11.00" fill="#000000">[table]</text>
<polygon fill="none" stroke="#000000" points="231.5,-163.7 231.5,-185.7 327.5,-185.7 327.5,-163.7 231.5,-163.7"/>
<image xlink:href="../../images/primaryKeys.png" width="11px" height="12px" preserveAspectRatio="xMinYMin meet" x="236.5" y="-180.7"/>
<text text-anchor="start" x="251.5" y="-170.8" font-family="Helvetica,sans-Serif" font-size="11.00" fill="#000000">id</text>
<polygon fill="none" stroke="#000000" points="231.5,-141.7 231.5,-163.7 327.5,-163.7 327.5,-141.7 231.5,-141.7"/>
<image xlink:href="../../images/foreignKeys.png" width="11px" height="12px" preserveAspectRatio="xMinYMin meet" x="236.5" y="-158.7"/>
<text text-anchor="start" x="251.5" y="-148.8" font-family="Helvetica,sans-Serif" font-size="11.00" fill="#000000">id_estradas</text>
<polygon fill="none" stroke="#000000" points="231.5,-119.7 231.5,-141.7 327.5,-141.7 327.5,-119.7 231.5,-119.7"/>
<image xlink:href="../../images/foreignKeys.png" width="11px" height="12px" preserveAspectRatio="xMinYMin meet" x="236.5" y="-136.7"/>
<text text-anchor="start" x="251.5" y="-126.8" font-family="Helvetica,sans-Serif" font-size="11.00" fill="#000000">id_tipo_node</text>
<polygon fill="none" stroke="#000000" points="231.5,-97.7 231.5,-119.7 327.5,-119.7 327.5,-97.7 231.5,-97.7"/>
<image xlink:href="../../images/foreignKeys.png" width="11px" height="12px" preserveAspectRatio="xMinYMin meet" x="236.5" y="-114.7"/>
<text text-anchor="start" x="251.5" y="-104.8" font-family="Helvetica,sans-Serif" font-size="11.00" fill="#000000">id_estado</text>
<polygon fill="none" stroke="#000000" points="231.5,-75.7 231.5,-97.7 327.5,-97.7 327.5,-75.7 231.5,-75.7"/>
<image xlink:href="../../images/foreignKeys.png" width="11px" height="12px" preserveAspectRatio="xMinYMin meet" x="236.5" y="-92.7"/>
<text text-anchor="start" x="251.5" y="-82.8" font-family="Helvetica,sans-Serif" font-size="11.00" fill="#000000">id_lado</text>
<polygon fill="none" stroke="#000000" points="231.5,-56.7 231.5,-75.7 327.5,-75.7 327.5,-56.7 231.5,-56.7"/>
<text text-anchor="start" x="234.5" y="-62.8" font-family="Helvetica,sans-Serif" font-size="11.00" fill="#000000">...</text>
<polygon fill="#ffffff" stroke="transparent" points="231.5,-37.7 231.5,-56.7 264.5,-56.7 264.5,-37.7 231.5,-37.7"/>
<polygon fill="none" stroke="#000000" points="231.5,-37.7 231.5,-56.7 264.5,-56.7 264.5,-37.7 231.5,-37.7"/>
<text text-anchor="start" x="234.5" y="-43.8" font-family="Helvetica,sans-Serif" font-size="11.00" fill="#000000">&lt; 4</text>
<polygon fill="#ffffff" stroke="transparent" points="264.5,-37.7 264.5,-56.7 308.5,-56.7 308.5,-37.7 264.5,-37.7"/>
<polygon fill="none" stroke="#000000" points="264.5,-37.7 264.5,-56.7 308.5,-56.7 308.5,-37.7 264.5,-37.7"/>
<text text-anchor="start" x="273.1105" y="-43.8" font-family="Helvetica,sans-Serif" font-size="11.00" fill="#000000">0 rows</text>
<polygon fill="#ffffff" stroke="transparent" points="308.5,-37.7 308.5,-56.7 327.5,-56.7 327.5,-37.7 308.5,-37.7"/>
<polygon fill="none" stroke="#000000" points="308.5,-37.7 308.5,-56.7 327.5,-56.7 327.5,-37.7 308.5,-37.7"/>
<text text-anchor="start" x="318.3862" y="-43.8" font-family="Helvetica,sans-Serif" font-size="11.00" fill="#000000"> &#160;</text>
</a>
</g>
</g>
<!-- lrs_node&#45;&gt;estado -->
<g id="edge5" class="edge">
<title>lrs_node:w&#45;&gt;estado:e</title>
<path fill="none" stroke="#000000" d="M217.1435,-109.8804C144.4205,-123.3064 238.496,-248.1777 187,-325.7 170.4588,-350.6012 161.3945,-363.7 131.5,-363.7"/>
<polygon fill="#000000" stroke="#000000" points="223.5269,-109.3556 231.795,-112.2879 227.5135,-109.0278 231.5,-108.7 231.5,-108.7 231.5,-108.7 227.5135,-109.0278 231.205,-105.1121 223.5269,-109.3556 223.5269,-109.3556"/>
<ellipse fill="none" stroke="#000000" cx="220.3377" cy="-109.6179" rx="3.2" ry="3.2"/>
</g>
<!-- lrs_node&#45;&gt;estradas -->
<g id="edge6" class="edge">
<title>lrs_node:w&#45;&gt;estradas:e</title>
<path fill="none" stroke="#000000" d="M217.8304,-157.831C181.407,-189.9345 214.2141,-363.237 187,-407.7 172.3364,-431.6576 164.5889,-445.7 136.5,-445.7"/>
<polygon fill="#000000" stroke="#000000" points="224.0103,-155.5114 232.7651,-156.0704 227.7551,-154.1057 231.5,-152.7 231.5,-152.7 231.5,-152.7 227.7551,-154.1057 230.2349,-149.3296 224.0103,-155.5114 224.0103,-155.5114"/>
<ellipse fill="none" stroke="#000000" cx="221.0144" cy="-156.636" rx="3.2" ry="3.2"/>
</g>
<!-- lrs_node&#45;&gt;lado -->
<g id="edge7" class="edge">
<title>lrs_node:w&#45;&gt;lado:e</title>
<path fill="none" stroke="#000000" d="M217.2593,-88.8562C157.4391,-109.95 260.6039,-278.7 177.5,-278.7"/>
<polygon fill="#000000" stroke="#000000" points="223.5902,-87.8977 232.039,-90.2594 227.5451,-87.2989 231.5,-86.7 231.5,-86.7 231.5,-86.7 227.5451,-87.2989 230.961,-83.1406 223.5902,-87.8977 223.5902,-87.8977"/>
<ellipse fill="none" stroke="#000000" cx="220.4262" cy="-88.3768" rx="3.2" ry="3.2"/>
</g>
<!-- tipo_node -->
<g id="node7" class="node">
<title>tipo_node</title>
<g id="a_node7"><a xlink:href="../../tables/tipo_node.html" xlink:title="tipo_node" target="_top">
<polygon fill="#ffffff" stroke="transparent" points="48,-103.2 48,-164.2 139,-164.2 139,-103.2 48,-103.2"/>
<polygon fill="#f5f5f5" stroke="transparent" points="48.5,-140.7 48.5,-163.7 139.5,-163.7 139.5,-140.7 48.5,-140.7"/>
<polygon fill="none" stroke="#000000" points="48.5,-140.7 48.5,-163.7 139.5,-163.7 139.5,-140.7 48.5,-140.7"/>
<text text-anchor="start" x="53.349" y="-149.8" font-family="Helvetica,sans-Serif" font-weight="bold" font-size="11.00" fill="#000000">tipo_node</text>
<text text-anchor="start" x="105.0219" y="-148.8" font-family="Helvetica,sans-Serif" font-size="11.00" fill="#000000">[table]</text>
<polygon fill="none" stroke="#000000" points="48.5,-121.7 48.5,-140.7 139.5,-140.7 139.5,-121.7 48.5,-121.7"/>
<text text-anchor="start" x="51.5" y="-127.8" font-family="Helvetica,sans-Serif" font-size="11.00" fill="#000000">...</text>
<polygon fill="#ffffff" stroke="transparent" points="48.5,-102.7 48.5,-121.7 70.5,-121.7 70.5,-102.7 48.5,-102.7"/>
<polygon fill="none" stroke="#000000" points="48.5,-102.7 48.5,-121.7 70.5,-121.7 70.5,-102.7 48.5,-102.7"/>
<text text-anchor="start" x="51.5" y="-108.8" font-family="Helvetica,sans-Serif" font-size="11.00" fill="#000000"> &#160;</text>
<polygon fill="#ffffff" stroke="transparent" points="70.5,-102.7 70.5,-121.7 113.5,-121.7 113.5,-102.7 70.5,-102.7"/>
<polygon fill="none" stroke="#000000" points="70.5,-102.7 70.5,-121.7 113.5,-121.7 113.5,-102.7 70.5,-102.7"/>
<text text-anchor="start" x="78.1105" y="-108.8" font-family="Helvetica,sans-Serif" font-size="11.00" fill="#000000">0 rows</text>
<polygon fill="#ffffff" stroke="transparent" points="113.5,-102.7 113.5,-121.7 139.5,-121.7 139.5,-102.7 113.5,-102.7"/>
<polygon fill="none" stroke="#000000" points="113.5,-102.7 113.5,-121.7 139.5,-121.7 139.5,-102.7 113.5,-102.7"/>
<text text-anchor="start" x="120.9053" y="-108.8" font-family="Helvetica,sans-Serif" font-size="11.00" fill="#000000">1 &gt;</text>
</a>
</g>
</g>
<!-- lrs_node&#45;&gt;tipo_node -->
<g id="edge8" class="edge">
<title>lrs_node:w&#45;&gt;tipo_node:e</title>
<path fill="none" stroke="#000000" d="M217.0849,-130.7C187.4661,-130.7 175.1181,-130.7 139.5,-130.7"/>
<polygon fill="#000000" stroke="#000000" points="223.5,-130.7001 231.5,-134.3 227.5,-130.7 231.5,-130.7 231.5,-130.7 231.5,-130.7 227.5,-130.7 231.5,-127.1 223.5,-130.7001 223.5,-130.7001"/>
<ellipse fill="none" stroke="#000000" cx="220.3" cy="-130.7001" rx="3.2" ry="3.2"/>
</g>
<!-- rails -->
<g id="node8" class="node">
<title>rails</title>
<g id="a_node8"><a xlink:href="../../tables/rails.html" xlink:title="rails" target="_top">
<polygon fill="#ffffff" stroke="transparent" points="235.5,-230.2 235.5,-379.2 323.5,-379.2 323.5,-230.2 235.5,-230.2"/>
<polygon fill="#f5f5f5" stroke="transparent" points="235.5,-355.7 235.5,-378.7 323.5,-378.7 323.5,-355.7 235.5,-355.7"/>
<polygon fill="none" stroke="#000000" points="235.5,-355.7 235.5,-378.7 323.5,-378.7 323.5,-355.7 235.5,-355.7"/>
<text text-anchor="start" x="240.5" y="-364.8" font-family="Helvetica,sans-Serif" font-weight="bold" font-size="11.00" fill="#000000">rails</text>
<text text-anchor="start" x="288.5437" y="-363.8" font-family="Helvetica,sans-Serif" font-size="11.00" fill="#000000">[table]</text>
<polygon fill="none" stroke="#000000" points="235.5,-333.7 235.5,-355.7 323.5,-355.7 323.5,-333.7 235.5,-333.7"/>
<image xlink:href="../../images/primaryKeys.png" width="11px" height="12px" preserveAspectRatio="xMinYMin meet" x="240.5" y="-350.7"/>
<text text-anchor="start" x="255.5" y="-340.8" font-family="Helvetica,sans-Serif" font-size="11.00" fill="#000000">id</text>
<polygon fill="none" stroke="#000000" points="235.5,-311.7 235.5,-333.7 323.5,-333.7 323.5,-311.7 235.5,-311.7"/>
<image xlink:href="../../images/foreignKeys.png" width="11px" height="12px" preserveAspectRatio="xMinYMin meet" x="240.5" y="-328.7"/>
<text text-anchor="start" x="255.5" y="-318.8" font-family="Helvetica,sans-Serif" font-size="11.00" fill="#000000">id_estradas</text>
<polygon fill="none" stroke="#000000" points="235.5,-289.7 235.5,-311.7 323.5,-311.7 323.5,-289.7 235.5,-289.7"/>
<image xlink:href="../../images/foreignKeys.png" width="11px" height="12px" preserveAspectRatio="xMinYMin meet" x="240.5" y="-306.7"/>
<text text-anchor="start" x="255.5" y="-296.8" font-family="Helvetica,sans-Serif" font-size="11.00" fill="#000000">id_estado</text>
<polygon fill="none" stroke="#000000" points="235.5,-267.7 235.5,-289.7 323.5,-289.7 323.5,-267.7 235.5,-267.7"/>
<image xlink:href="../../images/foreignKeys.png" width="11px" height="12px" preserveAspectRatio="xMinYMin meet" x="240.5" y="-284.7"/>
<text text-anchor="start" x="255.5" y="-274.8" font-family="Helvetica,sans-Serif" font-size="11.00" fill="#000000">id_lado</text>
<polygon fill="none" stroke="#000000" points="235.5,-248.7 235.5,-267.7 323.5,-267.7 323.5,-248.7 235.5,-248.7"/>
<text text-anchor="start" x="238.5" y="-254.8" font-family="Helvetica,sans-Serif" font-size="11.00" fill="#000000">...</text>
<polygon fill="#ffffff" stroke="transparent" points="235.5,-229.7 235.5,-248.7 264.5,-248.7 264.5,-229.7 235.5,-229.7"/>
<polygon fill="none" stroke="#000000" points="235.5,-229.7 235.5,-248.7 264.5,-248.7 264.5,-229.7 235.5,-229.7"/>
<text text-anchor="start" x="238.5" y="-235.8" font-family="Helvetica,sans-Serif" font-size="11.00" fill="#000000">&lt; 3</text>
<polygon fill="#ffffff" stroke="transparent" points="264.5,-229.7 264.5,-248.7 306.5,-248.7 306.5,-229.7 264.5,-229.7"/>
<polygon fill="none" stroke="#000000" points="264.5,-229.7 264.5,-248.7 306.5,-248.7 306.5,-229.7 264.5,-229.7"/>
<text text-anchor="start" x="271.1105" y="-235.8" font-family="Helvetica,sans-Serif" font-size="11.00" fill="#000000">0 rows</text>
<polygon fill="#ffffff" stroke="transparent" points="306.5,-229.7 306.5,-248.7 323.5,-248.7 323.5,-229.7 306.5,-229.7"/>
<polygon fill="none" stroke="#000000" points="306.5,-229.7 306.5,-248.7 323.5,-248.7 323.5,-229.7 306.5,-229.7"/>
<text text-anchor="start" x="314.3862" y="-235.8" font-family="Helvetica,sans-Serif" font-size="11.00" fill="#000000"> &#160;</text>
</a>
</g>
</g>
<!-- rails&#45;&gt;estado -->
<g id="edge9" class="edge">
<title>rails:w&#45;&gt;estado:e</title>
<path fill="none" stroke="#000000" d="M220.9661,-302.4507C181.6951,-312.6257 180.1585,-363.7 131.5,-363.7"/>
<polygon fill="#000000" stroke="#000000" points="227.5574,-301.6568 235.9306,-304.2742 231.5287,-301.1784 235.5,-300.7 235.5,-300.7 235.5,-300.7 231.5287,-301.1784 235.0694,-297.1258 227.5574,-301.6568 227.5574,-301.6568"/>
<ellipse fill="none" stroke="#000000" cx="224.3804" cy="-302.0395" rx="3.2" ry="3.2"/>
</g>
<!-- rails&#45;&gt;estradas -->
<g id="edge10" class="edge">
<title>rails:w&#45;&gt;estradas:e</title>
<path fill="none" stroke="#000000" d="M221.1248,-325.452C197.5164,-336.6488 211.8184,-379.5233 187,-407.7 168.434,-428.7782 164.5889,-445.7 136.5,-445.7"/>
<polygon fill="#000000" stroke="#000000" points="227.6427,-324.2042 236.1769,-326.2358 231.5713,-323.4521 235.5,-322.7 235.5,-322.7 235.5,-322.7 231.5713,-323.4521 234.8231,-319.1642 227.6427,-324.2042 227.6427,-324.2042"/>
<ellipse fill="none" stroke="#000000" cx="224.4998" cy="-324.8059" rx="3.2" ry="3.2"/>
</g>
<!-- rails&#45;&gt;lado -->
<g id="edge11" class="edge">
<title>rails:w&#45;&gt;lado:e</title>
<path fill="none" stroke="#000000" d="M220.954,-278.7C205.9776,-278.7 197.6389,-278.7 177.5,-278.7"/>
<polygon fill="#000000" stroke="#000000" points="227.5,-278.7001 235.5,-282.3 231.5,-278.7 235.5,-278.7 235.5,-278.7 235.5,-278.7 231.5,-278.7 235.5,-275.1 227.5,-278.7001 227.5,-278.7001"/>
<ellipse fill="none" stroke="#000000" cx="224.3" cy="-278.7001" rx="3.2" ry="3.2"/>
</g>
<!-- valetas -->
<g id="node9" class="node">
<title>valetas</title>
<g id="a_node9"><a xlink:href="../../tables/valetas.html" xlink:title="valetas" target="_top">
<polygon fill="#ffffff" stroke="transparent" points="228,-400.2 228,-571.2 331,-571.2 331,-400.2 228,-400.2"/>
<polygon fill="#f5f5f5" stroke="transparent" points="228.5,-547.7 228.5,-570.7 331.5,-570.7 331.5,-547.7 228.5,-547.7"/>
<polygon fill="none" stroke="#000000" points="228.5,-547.7 228.5,-570.7 331.5,-570.7 331.5,-547.7 228.5,-547.7"/>
<text text-anchor="start" x="233.5" y="-556.8" font-family="Helvetica,sans-Serif" font-weight="bold" font-size="11.00" fill="#000000">valetas</text>
<text text-anchor="start" x="296.5437" y="-555.8" font-family="Helvetica,sans-Serif" font-size="11.00" fill="#000000">[table]</text>
<polygon fill="none" stroke="#000000" points="228.5,-525.7 228.5,-547.7 331.5,-547.7 331.5,-525.7 228.5,-525.7"/>
<image xlink:href="../../images/primaryKeys.png" width="11px" height="12px" preserveAspectRatio="xMinYMin meet" x="233.5" y="-542.7"/>
<text text-anchor="start" x="248.5" y="-532.8" font-family="Helvetica,sans-Serif" font-size="11.00" fill="#000000">id</text>
<polygon fill="none" stroke="#000000" points="228.5,-503.7 228.5,-525.7 331.5,-525.7 331.5,-503.7 228.5,-503.7"/>
<image xlink:href="../../images/foreignKeys.png" width="11px" height="12px" preserveAspectRatio="xMinYMin meet" x="233.5" y="-520.7"/>
<text text-anchor="start" x="248.5" y="-510.8" font-family="Helvetica,sans-Serif" font-size="11.00" fill="#000000">id_estradas</text>
<polygon fill="none" stroke="#000000" points="228.5,-481.7 228.5,-503.7 331.5,-503.7 331.5,-481.7 228.5,-481.7"/>
<image xlink:href="../../images/foreignKeys.png" width="11px" height="12px" preserveAspectRatio="xMinYMin meet" x="233.5" y="-498.7"/>
<text text-anchor="start" x="248.5" y="-488.8" font-family="Helvetica,sans-Serif" font-size="11.00" fill="#000000">id_tipo_valeta</text>
<polygon fill="none" stroke="#000000" points="228.5,-459.7 228.5,-481.7 331.5,-481.7 331.5,-459.7 228.5,-459.7"/>
<image xlink:href="../../images/foreignKeys.png" width="11px" height="12px" preserveAspectRatio="xMinYMin meet" x="233.5" y="-476.7"/>
<text text-anchor="start" x="248.5" y="-466.8" font-family="Helvetica,sans-Serif" font-size="11.00" fill="#000000">id_estado</text>
<polygon fill="none" stroke="#000000" points="228.5,-437.7 228.5,-459.7 331.5,-459.7 331.5,-437.7 228.5,-437.7"/>
<image xlink:href="../../images/foreignKeys.png" width="11px" height="12px" preserveAspectRatio="xMinYMin meet" x="233.5" y="-454.7"/>
<text text-anchor="start" x="248.5" y="-444.8" font-family="Helvetica,sans-Serif" font-size="11.00" fill="#000000">id_lado</text>
<polygon fill="none" stroke="#000000" points="228.5,-418.7 228.5,-437.7 331.5,-437.7 331.5,-418.7 228.5,-418.7"/>
<text text-anchor="start" x="231.5" y="-424.8" font-family="Helvetica,sans-Serif" font-size="11.00" fill="#000000">...</text>
<polygon fill="#ffffff" stroke="transparent" points="228.5,-399.7 228.5,-418.7 265.5,-418.7 265.5,-399.7 228.5,-399.7"/>
<polygon fill="none" stroke="#000000" points="228.5,-399.7 228.5,-418.7 265.5,-418.7 265.5,-399.7 228.5,-399.7"/>
<text text-anchor="start" x="231.5" y="-405.8" font-family="Helvetica,sans-Serif" font-size="11.00" fill="#000000">&lt; 4</text>
<polygon fill="#ffffff" stroke="transparent" points="265.5,-399.7 265.5,-418.7 311.5,-418.7 311.5,-399.7 265.5,-399.7"/>
<polygon fill="none" stroke="#000000" points="265.5,-399.7 265.5,-418.7 311.5,-418.7 311.5,-399.7 265.5,-399.7"/>
<text text-anchor="start" x="276.1105" y="-405.8" font-family="Helvetica,sans-Serif" font-size="11.00" fill="#000000">0 rows</text>
<polygon fill="#ffffff" stroke="transparent" points="311.5,-399.7 311.5,-418.7 331.5,-418.7 331.5,-399.7 311.5,-399.7"/>
<polygon fill="none" stroke="#000000" points="311.5,-399.7 311.5,-418.7 331.5,-418.7 331.5,-399.7 311.5,-399.7"/>
<text text-anchor="start" x="322.3862" y="-405.8" font-family="Helvetica,sans-Serif" font-size="11.00" fill="#000000"> &#160;</text>
</a>
</g>
</g>
<!-- valetas&#45;&gt;estado -->
<g id="edge12" class="edge">
<title>valetas:w&#45;&gt;estado:e</title>
<path fill="none" stroke="#000000" d="M214.1601,-467.005C199.1616,-456.8238 205.3989,-427.7905 187,-407.7 165.7405,-384.4859 162.978,-363.7 131.5,-363.7"/>
<polygon fill="#000000" stroke="#000000" points="220.7531,-468.7038 227.6017,-474.1861 224.6265,-469.7019 228.5,-470.7 228.5,-470.7 228.5,-470.7 224.6265,-469.7019 229.3983,-467.2139 220.7531,-468.7038 220.7531,-468.7038"/>
<ellipse fill="none" stroke="#000000" cx="217.6543" cy="-467.9053" rx="3.2" ry="3.2"/>
</g>
<!-- valetas&#45;&gt;estradas -->
<g id="edge13" class="edge">
<title>valetas:w&#45;&gt;estradas:e</title>
<path fill="none" stroke="#000000" d="M214.231,-512.5593C178.8629,-500.9128 182.2205,-445.7 136.5,-445.7"/>
<polygon fill="#000000" stroke="#000000" points="220.5885,-513.513 227.9659,-518.2602 224.5443,-514.1065 228.5,-514.7 228.5,-514.7 228.5,-514.7 224.5443,-514.1065 229.0341,-511.1398 220.5885,-513.513 220.5885,-513.513"/>
<ellipse fill="none" stroke="#000000" cx="217.424" cy="-513.0383" rx="3.2" ry="3.2"/>
</g>
<!-- valetas&#45;&gt;lado -->
<g id="edge14" class="edge">
<title>valetas:w&#45;&gt;lado:e</title>
<path fill="none" stroke="#000000" d="M214.167,-446.1649C164.079,-425.0175 250.6818,-278.7 177.5,-278.7"/>
<polygon fill="#000000" stroke="#000000" points="220.6223,-447.3066 227.873,-452.245 224.5611,-448.0033 228.5,-448.7 228.5,-448.7 228.5,-448.7 224.5611,-448.0033 229.127,-445.155 220.6223,-447.3066 220.6223,-447.3066"/>
<ellipse fill="none" stroke="#000000" cx="217.4712" cy="-446.7493" rx="3.2" ry="3.2"/>
</g>
<!-- tipo_valeta -->
<g id="node10" class="node">
<title>tipo_valeta</title>
<g id="a_node10"><a xlink:href="../../tables/tipo_valeta.html" xlink:title="tipo_valeta" target="_top">
<polygon fill="#ffffff" stroke="transparent" points="45.5,-500.2 45.5,-561.2 141.5,-561.2 141.5,-500.2 45.5,-500.2"/>
<polygon fill="#f5f5f5" stroke="transparent" points="45.5,-537.7 45.5,-560.7 141.5,-560.7 141.5,-537.7 45.5,-537.7"/>
<polygon fill="none" stroke="#000000" points="45.5,-537.7 45.5,-560.7 141.5,-560.7 141.5,-537.7 45.5,-537.7"/>
<text text-anchor="start" x="50.4075" y="-546.8" font-family="Helvetica,sans-Serif" font-weight="bold" font-size="11.00" fill="#000000">tipo_valeta</text>
<text text-anchor="start" x="107.0219" y="-545.8" font-family="Helvetica,sans-Serif" font-size="11.00" fill="#000000">[table]</text>
<polygon fill="none" stroke="#000000" points="45.5,-518.7 45.5,-537.7 141.5,-537.7 141.5,-518.7 45.5,-518.7"/>
<text text-anchor="start" x="48.5" y="-524.8" font-family="Helvetica,sans-Serif" font-size="11.00" fill="#000000">...</text>
<polygon fill="#ffffff" stroke="transparent" points="45.5,-499.7 45.5,-518.7 69.5,-518.7 69.5,-499.7 45.5,-499.7"/>
<polygon fill="none" stroke="#000000" points="45.5,-499.7 45.5,-518.7 69.5,-518.7 69.5,-499.7 45.5,-499.7"/>
<text text-anchor="start" x="48.5" y="-505.8" font-family="Helvetica,sans-Serif" font-size="11.00" fill="#000000"> &#160;</text>
<polygon fill="#ffffff" stroke="transparent" points="69.5,-499.7 69.5,-518.7 113.5,-518.7 113.5,-499.7 69.5,-499.7"/>
<polygon fill="none" stroke="#000000" points="69.5,-499.7 69.5,-518.7 113.5,-518.7 113.5,-499.7 69.5,-499.7"/>
<text text-anchor="start" x="78.1105" y="-505.8" font-family="Helvetica,sans-Serif" font-size="11.00" fill="#000000">0 rows</text>
<polygon fill="#ffffff" stroke="transparent" points="113.5,-499.7 113.5,-518.7 141.5,-518.7 141.5,-499.7 113.5,-499.7"/>
<polygon fill="none" stroke="#000000" points="113.5,-499.7 113.5,-518.7 141.5,-518.7 141.5,-499.7 113.5,-499.7"/>
<text text-anchor="start" x="122.9053" y="-505.8" font-family="Helvetica,sans-Serif" font-size="11.00" fill="#000000">1 &gt;</text>
</a>
</g>
</g>
<!-- valetas&#45;&gt;tipo_valeta -->
<g id="edge15" class="edge">
<title>valetas:w&#45;&gt;tipo_valeta:e</title>
<path fill="none" stroke="#000000" d="M214.1153,-494.2948C185.2503,-501.1418 177.8058,-527.7 141.5,-527.7"/>
<polygon fill="#000000" stroke="#000000" points="220.5487,-493.5816 228.8967,-496.2781 224.5244,-493.1408 228.5,-492.7 228.5,-492.7 228.5,-492.7 224.5244,-493.1408 228.1033,-489.1219 220.5487,-493.5816 220.5487,-493.5816"/>
<ellipse fill="none" stroke="#000000" cx="217.3682" cy="-493.9342" rx="3.2" ry="3.2"/>
</g>
</g>
</svg>
