<?xml version="1.0" encoding="UTF-8" standalone="no"?>
<!DOCTYPE svg PUBLIC "-//W3C//DTD SVG 1.1//EN"
 "http://www.w3.org/Graphics/SVG/1.1/DTD/svg11.dtd">
<!-- Generated by graphviz version 2.40.1 (20161225.0304)
 -->
<!-- Title: oneDegreeRelationshipsDiagram Pages: 1 -->
<svg width="383pt" height="445pt"
 viewBox="0.00 0.00 383.00 445.20" xmlns="http://www.w3.org/2000/svg" xmlns:xlink="http://www.w3.org/1999/xlink">
<g id="graph0" class="graph" transform="scale(1 1) rotate(0) translate(4 441.2)">
<title>oneDegreeRelationshipsDiagram</title>
<polygon fill="#ffffff" stroke="transparent" points="-4,4 -4,-441.2 379,-441.2 379,4 -4,4"/>
<text text-anchor="middle" x="72.4936" y="-7.3" font-family="Helvetica,sans-Serif" font-size="11.00" fill="#000000">Generated by SchemaSpy</text>
<!-- lrs_node -->
<g id="node1" class="node">
<title>lrs_node</title>
<g id="a_node1"><a xlink:href="../../tables/lrs_node.html" xlink:title="lrs_node" target="_top">
<polygon fill="#ffffff" stroke="transparent" points="148,-177.7 148,-421.7 367,-421.7 367,-177.7 148,-177.7"/>
<polygon fill="#f5f5f5" stroke="transparent" points="150.5,-396.7 150.5,-419.7 365.5,-419.7 365.5,-396.7 150.5,-396.7"/>
<polygon fill="none" stroke="#000000" points="150.5,-396.7 150.5,-419.7 365.5,-419.7 365.5,-396.7 150.5,-396.7"/>
<text text-anchor="start" x="155.5" y="-405.8" font-family="Helvetica,sans-Serif" font-weight="bold" font-size="11.00" fill="#000000">lrs_node</text>
<text text-anchor="start" x="330.5437" y="-404.8" font-family="Helvetica,sans-Serif" font-size="11.00" fill="#000000">[table]</text>
<polygon fill="none" stroke="#000000" points="150.5,-374.7 150.5,-396.7 246.5,-396.7 246.5,-374.7 150.5,-374.7"/>
<image xlink:href="../../images/primaryKeys.png" width="11px" height="12px" preserveAspectRatio="xMinYMin meet" x="155.5" y="-391.7"/>
<text text-anchor="start" x="170.5" y="-381.8" font-family="Helvetica,sans-Serif" font-size="11.00" fill="#000000">id</text>
<polygon fill="none" stroke="#000000" points="246.5,-374.7 246.5,-396.7 365.5,-396.7 365.5,-374.7 246.5,-374.7"/>
<text text-anchor="start" x="249.5" y="-382.4" font-family="Helvetica,sans-Serif" font-size="11.00" fill="#000000">serial[10]</text>
<polygon fill="none" stroke="#000000" points="150.5,-352.7 150.5,-374.7 246.5,-374.7 246.5,-352.7 150.5,-352.7"/>
<text text-anchor="start" x="170.5" y="-359.8" font-family="Helvetica,sans-Serif" font-size="11.00" fill="#000000">geom</text>
<polygon fill="none" stroke="#000000" points="246.5,-352.7 246.5,-374.7 365.5,-374.7 365.5,-352.7 246.5,-352.7"/>
<text text-anchor="start" x="249.4485" y="-360.4" font-family="Helvetica,sans-Serif" font-size="11.00" fill="#000000">geometry[2147483647]</text>
<polygon fill="none" stroke="#000000" points="150.5,-330.7 150.5,-352.7 246.5,-352.7 246.5,-330.7 150.5,-330.7"/>
<text text-anchor="start" x="170.5" y="-337.8" font-family="Helvetica,sans-Serif" font-size="11.00" fill="#000000">medicao</text>
<polygon fill="none" stroke="#000000" points="246.5,-330.7 246.5,-352.7 365.5,-352.7 365.5,-330.7 246.5,-330.7"/>
<text text-anchor="start" x="249.5" y="-338.4" font-family="Helvetica,sans-Serif" font-size="11.00" fill="#000000">float8[17,17]</text>
<polygon fill="none" stroke="#000000" points="150.5,-308.7 150.5,-330.7 246.5,-330.7 246.5,-308.7 150.5,-308.7"/>
<text text-anchor="start" x="170.5" y="-315.8" font-family="Helvetica,sans-Serif" font-size="11.00" fill="#000000">dimensoes</text>
<polygon fill="none" stroke="#000000" points="246.5,-308.7 246.5,-330.7 365.5,-330.7 365.5,-308.7 246.5,-308.7"/>
<text text-anchor="start" x="249.5" y="-316.4" font-family="Helvetica,sans-Serif" font-size="11.00" fill="#000000">text[2147483647]</text>
<polygon fill="none" stroke="#000000" points="150.5,-286.7 150.5,-308.7 246.5,-308.7 246.5,-286.7 150.5,-286.7"/>
<text text-anchor="start" x="170.5" y="-293.8" font-family="Helvetica,sans-Serif" font-size="11.00" fill="#000000">obs</text>
<polygon fill="none" stroke="#000000" points="246.5,-286.7 246.5,-308.7 365.5,-308.7 365.5,-286.7 246.5,-286.7"/>
<text text-anchor="start" x="249.5" y="-294.4" font-family="Helvetica,sans-Serif" font-size="11.00" fill="#000000">text[2147483647]</text>
<polygon fill="none" stroke="#000000" points="150.5,-264.7 150.5,-286.7 246.5,-286.7 246.5,-264.7 150.5,-264.7"/>
<image xlink:href="../../images/foreignKeys.png" width="11px" height="12px" preserveAspectRatio="xMinYMin meet" x="155.5" y="-281.7"/>
<text text-anchor="start" x="170.5" y="-271.8" font-family="Helvetica,sans-Serif" font-size="11.00" fill="#000000">id_estradas</text>
<polygon fill="none" stroke="#000000" points="246.5,-264.7 246.5,-286.7 365.5,-286.7 365.5,-264.7 246.5,-264.7"/>
<text text-anchor="start" x="249.5" y="-272.4" font-family="Helvetica,sans-Serif" font-size="11.00" fill="#000000">int4[10]</text>
<polygon fill="none" stroke="#000000" points="150.5,-242.7 150.5,-264.7 246.5,-264.7 246.5,-242.7 150.5,-242.7"/>
<image xlink:href="../../images/foreignKeys.png" width="11px" height="12px" preserveAspectRatio="xMinYMin meet" x="155.5" y="-259.7"/>
<text text-anchor="start" x="170.5" y="-249.8" font-family="Helvetica,sans-Serif" font-size="11.00" fill="#000000">id_tipo_node</text>
<polygon fill="none" stroke="#000000" points="246.5,-242.7 246.5,-264.7 365.5,-264.7 365.5,-242.7 246.5,-242.7"/>
<text text-anchor="start" x="249.5" y="-250.4" font-family="Helvetica,sans-Serif" font-size="11.00" fill="#000000">int4[10]</text>
<polygon fill="none" stroke="#000000" points="150.5,-220.7 150.5,-242.7 246.5,-242.7 246.5,-220.7 150.5,-220.7"/>
<image xlink:href="../../images/foreignKeys.png" width="11px" height="12px" preserveAspectRatio="xMinYMin meet" x="155.5" y="-237.7"/>
<text text-anchor="start" x="170.5" y="-227.8" font-family="Helvetica,sans-Serif" font-size="11.00" fill="#000000">id_estado</text>
<polygon fill="none" stroke="#000000" points="246.5,-220.7 246.5,-242.7 365.5,-242.7 365.5,-220.7 246.5,-220.7"/>
<text text-anchor="start" x="249.5" y="-228.4" font-family="Helvetica,sans-Serif" font-size="11.00" fill="#000000">int4[10]</text>
<polygon fill="none" stroke="#000000" points="150.5,-198.7 150.5,-220.7 246.5,-220.7 246.5,-198.7 150.5,-198.7"/>
<image xlink:href="../../images/foreignKeys.png" width="11px" height="12px" preserveAspectRatio="xMinYMin meet" x="155.5" y="-215.7"/>
<text text-anchor="start" x="170.5" y="-205.8" font-family="Helvetica,sans-Serif" font-size="11.00" fill="#000000">id_lado</text>
<polygon fill="none" stroke="#000000" points="246.5,-198.7 246.5,-220.7 365.5,-220.7 365.5,-198.7 246.5,-198.7"/>
<text text-anchor="start" x="249.5" y="-206.4" font-family="Helvetica,sans-Serif" font-size="11.00" fill="#000000">int4[10]</text>
<polygon fill="#ffffff" stroke="transparent" points="150.5,-179.7 150.5,-198.7 189.5,-198.7 189.5,-179.7 150.5,-179.7"/>
<polygon fill="none" stroke="#000000" points="150.5,-179.7 150.5,-198.7 189.5,-198.7 189.5,-179.7 150.5,-179.7"/>
<text text-anchor="start" x="153.5" y="-185.8" font-family="Helvetica,sans-Serif" font-size="11.00" fill="#000000">&lt; 4</text>
<polygon fill="#ffffff" stroke="transparent" points="189.5,-179.7 189.5,-198.7 246.5,-198.7 246.5,-179.7 189.5,-179.7"/>
<polygon fill="none" stroke="#000000" points="189.5,-179.7 189.5,-198.7 246.5,-198.7 246.5,-179.7 189.5,-179.7"/>
<text text-anchor="start" x="211.1105" y="-185.8" font-family="Helvetica,sans-Serif" font-size="11.00" fill="#000000">0 rows</text>
<polygon fill="#ffffff" stroke="transparent" points="246.5,-179.7 246.5,-198.7 365.5,-198.7 365.5,-179.7 246.5,-179.7"/>
<polygon fill="none" stroke="#000000" points="246.5,-179.7 246.5,-198.7 365.5,-198.7 365.5,-179.7 246.5,-179.7"/>
<text text-anchor="start" x="346.9053" y="-185.8" font-family="Helvetica,sans-Serif" font-size="11.00" fill="#000000">0 &gt;</text>
<polygon fill="none" stroke="#000000" stroke-width="2" points="149,-178.7 149,-420.7 366,-420.7 366,-178.7 149,-178.7"/>
</a>
</g>
</g>
<!-- estado -->
<g id="node2" class="node">
<title>estado</title>
<g id="a_node2"><a xlink:href="../../tables/estado.html" xlink:title="estado" target="_top">
<polygon fill="#ffffff" stroke="transparent" points="15,-142.2 15,-225.2 92,-225.2 92,-142.2 15,-142.2"/>
<polygon fill="#f5f5f5" stroke="transparent" points="15.5,-201.7 15.5,-224.7 92.5,-224.7 92.5,-201.7 15.5,-201.7"/>
<polygon fill="none" stroke="#000000" points="15.5,-201.7 15.5,-224.7 92.5,-224.7 92.5,-201.7 15.5,-201.7"/>
<text text-anchor="start" x="20.5" y="-210.8" font-family="Helvetica,sans-Serif" font-weight="bold" font-size="11.00" fill="#000000">estado</text>
<text text-anchor="start" x="58.0219" y="-209.8" font-family="Helvetica,sans-Serif" font-size="11.00" fill="#000000">[table]</text>
<polygon fill="none" stroke="#000000" points="15.5,-179.7 15.5,-201.7 92.5,-201.7 92.5,-179.7 15.5,-179.7"/>
<image xlink:href="../../images/primaryKeys.png" width="11px" height="12px" preserveAspectRatio="xMinYMin meet" x="20.5" y="-196.7"/>
<text text-anchor="start" x="35.5" y="-186.8" font-family="Helvetica,sans-Serif" font-size="11.00" fill="#000000">id</text>
<polygon fill="none" stroke="#000000" points="15.5,-160.7 15.5,-179.7 92.5,-179.7 92.5,-160.7 15.5,-160.7"/>
<text text-anchor="start" x="18.5" y="-166.8" font-family="Helvetica,sans-Serif" font-size="11.00" fill="#000000">...</text>
<polygon fill="#ffffff" stroke="transparent" points="15.5,-141.7 15.5,-160.7 30.5,-160.7 30.5,-141.7 15.5,-141.7"/>
<polygon fill="none" stroke="#000000" points="15.5,-141.7 15.5,-160.7 30.5,-160.7 30.5,-141.7 15.5,-141.7"/>
<text text-anchor="start" x="18.5" y="-147.8" font-family="Helvetica,sans-Serif" font-size="11.00" fill="#000000"> &#160;</text>
<polygon fill="#ffffff" stroke="transparent" points="30.5,-141.7 30.5,-160.7 69.5,-160.7 69.5,-141.7 30.5,-141.7"/>
<polygon fill="none" stroke="#000000" points="30.5,-141.7 30.5,-160.7 69.5,-160.7 69.5,-141.7 30.5,-141.7"/>
<text text-anchor="start" x="34.1105" y="-147.8" font-family="Helvetica,sans-Serif" font-size="11.00" fill="#000000">0 rows</text>
<polygon fill="#ffffff" stroke="transparent" points="69.5,-141.7 69.5,-160.7 92.5,-160.7 92.5,-141.7 69.5,-141.7"/>
<polygon fill="none" stroke="#000000" points="69.5,-141.7 69.5,-160.7 92.5,-160.7 92.5,-141.7 69.5,-141.7"/>
<text text-anchor="start" x="73.9053" y="-147.8" font-family="Helvetica,sans-Serif" font-size="11.00" fill="#000000">4 &gt;</text>
</a>
</g>
</g>
<!-- lrs_node&#45;&gt;estado -->
<g id="edge1" class="edge">
<title>lrs_node:w&#45;&gt;estado:e</title>
<path fill="none" stroke="#000000" d="M136.1302,-227.9163C119.5676,-217.7664 118.1491,-190.7 92.5,-190.7"/>
<polygon fill="#000000" stroke="#000000" points="142.7637,-229.6629 149.5833,-235.1813 146.6318,-230.6815 150.5,-231.7 150.5,-231.7 150.5,-231.7 146.6318,-230.6815 151.4167,-228.2187 142.7637,-229.6629 142.7637,-229.6629"/>
<ellipse fill="none" stroke="#000000" cx="139.6692" cy="-228.8481" rx="3.2" ry="3.2"/>
</g>
<!-- estradas -->
<g id="node3" class="node">
<title>estradas</title>
<g id="a_node3"><a xlink:href="../../tables/estradas.html" xlink:title="estradas" target="_top">
<polygon fill="#ffffff" stroke="transparent" points="11,-350.2 11,-433.2 96,-433.2 96,-350.2 11,-350.2"/>
<polygon fill="#f5f5f5" stroke="transparent" points="11.5,-409.7 11.5,-432.7 96.5,-432.7 96.5,-409.7 11.5,-409.7"/>
<polygon fill="none" stroke="#000000" points="11.5,-409.7 11.5,-432.7 96.5,-432.7 96.5,-409.7 11.5,-409.7"/>
<text text-anchor="start" x="16.4108" y="-418.8" font-family="Helvetica,sans-Serif" font-weight="bold" font-size="11.00" fill="#000000">estradas</text>
<text text-anchor="start" x="62.0219" y="-417.8" font-family="Helvetica,sans-Serif" font-size="11.00" fill="#000000">[table]</text>
<polygon fill="none" stroke="#000000" points="11.5,-387.7 11.5,-409.7 96.5,-409.7 96.5,-387.7 11.5,-387.7"/>
<image xlink:href="../../images/primaryKeys.png" width="11px" height="12px" preserveAspectRatio="xMinYMin meet" x="16.5" y="-404.7"/>
<text text-anchor="start" x="38.5" y="-394.8" font-family="Helvetica,sans-Serif" font-size="11.00" fill="#000000">id</text>
<polygon fill="none" stroke="#000000" points="11.5,-368.7 11.5,-387.7 96.5,-387.7 96.5,-368.7 11.5,-368.7"/>
<text text-anchor="start" x="14.5" y="-374.8" font-family="Helvetica,sans-Serif" font-size="11.00" fill="#000000">...</text>
<polygon fill="#ffffff" stroke="transparent" points="11.5,-349.7 11.5,-368.7 30.5,-368.7 30.5,-349.7 11.5,-349.7"/>
<polygon fill="none" stroke="#000000" points="11.5,-349.7 11.5,-368.7 30.5,-368.7 30.5,-349.7 11.5,-349.7"/>
<text text-anchor="start" x="14.5" y="-355.8" font-family="Helvetica,sans-Serif" font-size="11.00" fill="#000000"> &#160;</text>
<polygon fill="#ffffff" stroke="transparent" points="30.5,-349.7 30.5,-368.7 71.5,-368.7 71.5,-349.7 30.5,-349.7"/>
<polygon fill="none" stroke="#000000" points="30.5,-349.7 30.5,-368.7 71.5,-368.7 71.5,-349.7 30.5,-349.7"/>
<text text-anchor="start" x="36.1105" y="-355.8" font-family="Helvetica,sans-Serif" font-size="11.00" fill="#000000">0 rows</text>
<polygon fill="#ffffff" stroke="transparent" points="71.5,-349.7 71.5,-368.7 96.5,-368.7 96.5,-349.7 71.5,-349.7"/>
<polygon fill="none" stroke="#000000" points="71.5,-349.7 71.5,-368.7 96.5,-368.7 96.5,-349.7 71.5,-349.7"/>
<text text-anchor="start" x="77.9053" y="-355.8" font-family="Helvetica,sans-Serif" font-size="11.00" fill="#000000">7 &gt;</text>
</a>
</g>
</g>
<!-- lrs_node&#45;&gt;estradas -->
<g id="edge2" class="edge">
<title>lrs_node:w&#45;&gt;estradas:e</title>
<path fill="none" stroke="#000000" d="M136.3553,-278.99C102.3785,-298.5504 150.3726,-398.7 96.5,-398.7"/>
<polygon fill="#000000" stroke="#000000" points="142.708,-277.5124 151.3156,-279.2064 146.604,-276.6062 150.5,-275.7 150.5,-275.7 150.5,-275.7 146.604,-276.6062 149.6844,-272.1936 142.708,-277.5124 142.708,-277.5124"/>
<ellipse fill="none" stroke="#000000" cx="139.5912" cy="-278.2374" rx="3.2" ry="3.2"/>
</g>
<!-- lado -->
<g id="node4" class="node">
<title>lado</title>
<g id="a_node4"><a xlink:href="../../tables/lado.html" xlink:title="lado" target="_top">
<polygon fill="#ffffff" stroke="transparent" points="15,-38.2 15,-121.2 92,-121.2 92,-38.2 15,-38.2"/>
<polygon fill="#f5f5f5" stroke="transparent" points="15.5,-97.7 15.5,-120.7 92.5,-120.7 92.5,-97.7 15.5,-97.7"/>
<polygon fill="none" stroke="#000000" points="15.5,-97.7 15.5,-120.7 92.5,-120.7 92.5,-97.7 15.5,-97.7"/>
<text text-anchor="start" x="20.5" y="-106.8" font-family="Helvetica,sans-Serif" font-weight="bold" font-size="11.00" fill="#000000">lado</text>
<text text-anchor="start" x="57.5437" y="-105.8" font-family="Helvetica,sans-Serif" font-size="11.00" fill="#000000">[table]</text>
<polygon fill="none" stroke="#000000" points="15.5,-75.7 15.5,-97.7 92.5,-97.7 92.5,-75.7 15.5,-75.7"/>
<image xlink:href="../../images/primaryKeys.png" width="11px" height="12px" preserveAspectRatio="xMinYMin meet" x="20.5" y="-92.7"/>
<text text-anchor="start" x="35.5" y="-82.8" font-family="Helvetica,sans-Serif" font-size="11.00" fill="#000000">id</text>
<polygon fill="none" stroke="#000000" points="15.5,-56.7 15.5,-75.7 92.5,-75.7 92.5,-56.7 15.5,-56.7"/>
<text text-anchor="start" x="18.5" y="-62.8" font-family="Helvetica,sans-Serif" font-size="11.00" fill="#000000">...</text>
<polygon fill="#ffffff" stroke="transparent" points="15.5,-37.7 15.5,-56.7 30.5,-56.7 30.5,-37.7 15.5,-37.7"/>
<polygon fill="none" stroke="#000000" points="15.5,-37.7 15.5,-56.7 30.5,-56.7 30.5,-37.7 15.5,-37.7"/>
<text text-anchor="start" x="18.5" y="-43.8" font-family="Helvetica,sans-Serif" font-size="11.00" fill="#000000"> &#160;</text>
<polygon fill="#ffffff" stroke="transparent" points="30.5,-37.7 30.5,-56.7 69.5,-56.7 69.5,-37.7 30.5,-37.7"/>
<polygon fill="none" stroke="#000000" points="30.5,-37.7 30.5,-56.7 69.5,-56.7 69.5,-37.7 30.5,-37.7"/>
<text text-anchor="start" x="34.1105" y="-43.8" font-family="Helvetica,sans-Serif" font-size="11.00" fill="#000000">0 rows</text>
<polygon fill="#ffffff" stroke="transparent" points="69.5,-37.7 69.5,-56.7 92.5,-56.7 92.5,-37.7 69.5,-37.7"/>
<polygon fill="none" stroke="#000000" points="69.5,-37.7 69.5,-56.7 92.5,-56.7 92.5,-37.7 69.5,-37.7"/>
<text text-anchor="start" x="73.9053" y="-43.8" font-family="Helvetica,sans-Serif" font-size="11.00" fill="#000000">4 &gt;</text>
</a>
</g>
</g>
<!-- lrs_node&#45;&gt;lado -->
<g id="edge3" class="edge">
<title>lrs_node:w&#45;&gt;lado:e</title>
<path fill="none" stroke="#000000" d="M136.0916,-206.41C101.1655,-186.8496 147.0372,-86.7 92.5,-86.7"/>
<polygon fill="#000000" stroke="#000000" points="142.7007,-207.9191 149.6986,-213.2097 146.6004,-208.8096 150.5,-209.7 150.5,-209.7 150.5,-209.7 146.6004,-208.8096 151.3014,-206.1903 142.7007,-207.9191 142.7007,-207.9191"/>
<ellipse fill="none" stroke="#000000" cx="139.581" cy="-207.2068" rx="3.2" ry="3.2"/>
</g>
<!-- tipo_node -->
<g id="node5" class="node">
<title>tipo_node</title>
<g id="a_node5"><a xlink:href="../../tables/tipo_node.html" xlink:title="tipo_node" target="_top">
<polygon fill="#ffffff" stroke="transparent" points="8,-246.2 8,-329.2 99,-329.2 99,-246.2 8,-246.2"/>
<polygon fill="#f5f5f5" stroke="transparent" points="8.5,-305.7 8.5,-328.7 99.5,-328.7 99.5,-305.7 8.5,-305.7"/>
<polygon fill="none" stroke="#000000" points="8.5,-305.7 8.5,-328.7 99.5,-328.7 99.5,-305.7 8.5,-305.7"/>
<text text-anchor="start" x="13.349" y="-314.8" font-family="Helvetica,sans-Serif" font-weight="bold" font-size="11.00" fill="#000000">tipo_node</text>
<text text-anchor="start" x="65.0219" y="-313.8" font-family="Helvetica,sans-Serif" font-size="11.00" fill="#000000">[table]</text>
<polygon fill="none" stroke="#000000" points="8.5,-283.7 8.5,-305.7 99.5,-305.7 99.5,-283.7 8.5,-283.7"/>
<image xlink:href="../../images/primaryKeys.png" width="11px" height="12px" preserveAspectRatio="xMinYMin meet" x="13.5" y="-300.7"/>
<text text-anchor="start" x="34.5" y="-290.8" font-family="Helvetica,sans-Serif" font-size="11.00" fill="#000000">id</text>
<polygon fill="none" stroke="#000000" points="8.5,-264.7 8.5,-283.7 99.5,-283.7 99.5,-264.7 8.5,-264.7"/>
<text text-anchor="start" x="11.5" y="-270.8" font-family="Helvetica,sans-Serif" font-size="11.00" fill="#000000">...</text>
<polygon fill="#ffffff" stroke="transparent" points="8.5,-245.7 8.5,-264.7 30.5,-264.7 30.5,-245.7 8.5,-245.7"/>
<polygon fill="none" stroke="#000000" points="8.5,-245.7 8.5,-264.7 30.5,-264.7 30.5,-245.7 8.5,-245.7"/>
<text text-anchor="start" x="11.5" y="-251.8" font-family="Helvetica,sans-Serif" font-size="11.00" fill="#000000"> &#160;</text>
<polygon fill="#ffffff" stroke="transparent" points="30.5,-245.7 30.5,-264.7 73.5,-264.7 73.5,-245.7 30.5,-245.7"/>
<polygon fill="none" stroke="#000000" points="30.5,-245.7 30.5,-264.7 73.5,-264.7 73.5,-245.7 30.5,-245.7"/>
<text text-anchor="start" x="38.1105" y="-251.8" font-family="Helvetica,sans-Serif" font-size="11.00" fill="#000000">0 rows</text>
<polygon fill="#ffffff" stroke="transparent" points="73.5,-245.7 73.5,-264.7 99.5,-264.7 99.5,-245.7 73.5,-245.7"/>
<polygon fill="none" stroke="#000000" points="73.5,-245.7 73.5,-264.7 99.5,-264.7 99.5,-245.7 73.5,-245.7"/>
<text text-anchor="start" x="80.9053" y="-251.8" font-family="Helvetica,sans-Serif" font-size="11.00" fill="#000000">1 &gt;</text>
</a>
</g>
</g>
<!-- lrs_node&#45;&gt;tipo_node -->
<g id="edge4" class="edge">
<title>lrs_node:w&#45;&gt;tipo_node:e</title>
<path fill="none" stroke="#000000" d="M136.6568,-258.0877C122.8325,-268.6646 122.6756,-294.7 99.5,-294.7"/>
<polygon fill="#000000" stroke="#000000" points="142.8739,-256.1172 151.5877,-257.1317 146.6869,-254.9086 150.5,-253.7 150.5,-253.7 150.5,-253.7 146.6869,-254.9086 149.4123,-250.2683 142.8739,-256.1172 142.8739,-256.1172"/>
<ellipse fill="none" stroke="#000000" cx="139.8235" cy="-257.0841" rx="3.2" ry="3.2"/>
</g>
</g>
</svg>
