<?xml version="1.0" encoding="UTF-8" standalone="no"?>
<!DOCTYPE svg PUBLIC "-//W3C//DTD SVG 1.1//EN"
 "http://www.w3.org/Graphics/SVG/1.1/DTD/svg11.dtd">
<!-- Generated by graphviz version 2.40.1 (20161225.0304)
 -->
<!-- Title: oneDegreeRelationshipsDiagram Pages: 1 -->
<svg width="369pt" height="445pt"
 viewBox="0.00 0.00 369.00 445.20" xmlns="http://www.w3.org/2000/svg" xmlns:xlink="http://www.w3.org/1999/xlink">
<g id="graph0" class="graph" transform="scale(1 1) rotate(0) translate(4 441.2)">
<title>oneDegreeRelationshipsDiagram</title>
<polygon fill="#ffffff" stroke="transparent" points="-4,4 -4,-441.2 365,-441.2 365,4 -4,4"/>
<text text-anchor="middle" x="72.4936" y="-7.3" font-family="Helvetica,sans-Serif" font-size="11.00" fill="#000000">Generated by SchemaSpy</text>
<!-- lrs_line -->
<g id="node1" class="node">
<title>lrs_line</title>
<g id="a_node1"><a xlink:href="../../tables/lrs_line.html" xlink:title="lrs_line" target="_top">
<polygon fill="#ffffff" stroke="transparent" points="142,-177.7 142,-421.7 353,-421.7 353,-177.7 142,-177.7"/>
<polygon fill="#f5f5f5" stroke="transparent" points="144.5,-396.7 144.5,-419.7 351.5,-419.7 351.5,-396.7 144.5,-396.7"/>
<polygon fill="none" stroke="#000000" points="144.5,-396.7 144.5,-419.7 351.5,-419.7 351.5,-396.7 144.5,-396.7"/>
<text text-anchor="start" x="149.5" y="-405.8" font-family="Helvetica,sans-Serif" font-weight="bold" font-size="11.00" fill="#000000">lrs_line</text>
<text text-anchor="start" x="316.5437" y="-404.8" font-family="Helvetica,sans-Serif" font-size="11.00" fill="#000000">[table]</text>
<polygon fill="none" stroke="#000000" points="144.5,-374.7 144.5,-396.7 232.5,-396.7 232.5,-374.7 144.5,-374.7"/>
<image xlink:href="../../images/primaryKeys.png" width="11px" height="12px" preserveAspectRatio="xMinYMin meet" x="149.5" y="-391.7"/>
<text text-anchor="start" x="164.5" y="-381.8" font-family="Helvetica,sans-Serif" font-size="11.00" fill="#000000">id</text>
<polygon fill="none" stroke="#000000" points="232.5,-374.7 232.5,-396.7 351.5,-396.7 351.5,-374.7 232.5,-374.7"/>
<text text-anchor="start" x="235.5" y="-382.4" font-family="Helvetica,sans-Serif" font-size="11.00" fill="#000000">serial[10]</text>
<polygon fill="none" stroke="#000000" points="144.5,-352.7 144.5,-374.7 232.5,-374.7 232.5,-352.7 144.5,-352.7"/>
<text text-anchor="start" x="164.5" y="-359.8" font-family="Helvetica,sans-Serif" font-size="11.00" fill="#000000">geom</text>
<polygon fill="none" stroke="#000000" points="232.5,-352.7 232.5,-374.7 351.5,-374.7 351.5,-352.7 232.5,-352.7"/>
<text text-anchor="start" x="235.4485" y="-360.4" font-family="Helvetica,sans-Serif" font-size="11.00" fill="#000000">geometry[2147483647]</text>
<polygon fill="none" stroke="#000000" points="144.5,-330.7 144.5,-352.7 232.5,-352.7 232.5,-330.7 144.5,-330.7"/>
<text text-anchor="start" x="164.5" y="-337.8" font-family="Helvetica,sans-Serif" font-size="11.00" fill="#000000">start_m</text>
<polygon fill="none" stroke="#000000" points="232.5,-330.7 232.5,-352.7 351.5,-352.7 351.5,-330.7 232.5,-330.7"/>
<text text-anchor="start" x="235.5" y="-338.4" font-family="Helvetica,sans-Serif" font-size="11.00" fill="#000000">float8[17,17]</text>
<polygon fill="none" stroke="#000000" points="144.5,-308.7 144.5,-330.7 232.5,-330.7 232.5,-308.7 144.5,-308.7"/>
<text text-anchor="start" x="164.5" y="-315.8" font-family="Helvetica,sans-Serif" font-size="11.00" fill="#000000">end_m</text>
<polygon fill="none" stroke="#000000" points="232.5,-308.7 232.5,-330.7 351.5,-330.7 351.5,-308.7 232.5,-308.7"/>
<text text-anchor="start" x="235.5" y="-316.4" font-family="Helvetica,sans-Serif" font-size="11.00" fill="#000000">float8[17,17]</text>
<polygon fill="none" stroke="#000000" points="144.5,-286.7 144.5,-308.7 232.5,-308.7 232.5,-286.7 144.5,-286.7"/>
<text text-anchor="start" x="164.5" y="-293.8" font-family="Helvetica,sans-Serif" font-size="11.00" fill="#000000">obs</text>
<polygon fill="none" stroke="#000000" points="232.5,-286.7 232.5,-308.7 351.5,-308.7 351.5,-286.7 232.5,-286.7"/>
<text text-anchor="start" x="235.5" y="-294.4" font-family="Helvetica,sans-Serif" font-size="11.00" fill="#000000">text[2147483647]</text>
<polygon fill="none" stroke="#000000" points="144.5,-264.7 144.5,-286.7 232.5,-286.7 232.5,-264.7 144.5,-264.7"/>
<image xlink:href="../../images/foreignKeys.png" width="11px" height="12px" preserveAspectRatio="xMinYMin meet" x="149.5" y="-281.7"/>
<text text-anchor="start" x="164.5" y="-271.8" font-family="Helvetica,sans-Serif" font-size="11.00" fill="#000000">id_estradas</text>
<polygon fill="none" stroke="#000000" points="232.5,-264.7 232.5,-286.7 351.5,-286.7 351.5,-264.7 232.5,-264.7"/>
<text text-anchor="start" x="235.5" y="-272.4" font-family="Helvetica,sans-Serif" font-size="11.00" fill="#000000">int4[10]</text>
<polygon fill="none" stroke="#000000" points="144.5,-242.7 144.5,-264.7 232.5,-264.7 232.5,-242.7 144.5,-242.7"/>
<image xlink:href="../../images/foreignKeys.png" width="11px" height="12px" preserveAspectRatio="xMinYMin meet" x="149.5" y="-259.7"/>
<text text-anchor="start" x="164.5" y="-249.8" font-family="Helvetica,sans-Serif" font-size="11.00" fill="#000000">id_tipo_line</text>
<polygon fill="none" stroke="#000000" points="232.5,-242.7 232.5,-264.7 351.5,-264.7 351.5,-242.7 232.5,-242.7"/>
<text text-anchor="start" x="235.5" y="-250.4" font-family="Helvetica,sans-Serif" font-size="11.00" fill="#000000">int4[10]</text>
<polygon fill="none" stroke="#000000" points="144.5,-220.7 144.5,-242.7 232.5,-242.7 232.5,-220.7 144.5,-220.7"/>
<image xlink:href="../../images/foreignKeys.png" width="11px" height="12px" preserveAspectRatio="xMinYMin meet" x="149.5" y="-237.7"/>
<text text-anchor="start" x="164.5" y="-227.8" font-family="Helvetica,sans-Serif" font-size="11.00" fill="#000000">id_estado</text>
<polygon fill="none" stroke="#000000" points="232.5,-220.7 232.5,-242.7 351.5,-242.7 351.5,-220.7 232.5,-220.7"/>
<text text-anchor="start" x="235.5" y="-228.4" font-family="Helvetica,sans-Serif" font-size="11.00" fill="#000000">int4[10]</text>
<polygon fill="none" stroke="#000000" points="144.5,-198.7 144.5,-220.7 232.5,-220.7 232.5,-198.7 144.5,-198.7"/>
<image xlink:href="../../images/foreignKeys.png" width="11px" height="12px" preserveAspectRatio="xMinYMin meet" x="149.5" y="-215.7"/>
<text text-anchor="start" x="164.5" y="-205.8" font-family="Helvetica,sans-Serif" font-size="11.00" fill="#000000">id_lado</text>
<polygon fill="none" stroke="#000000" points="232.5,-198.7 232.5,-220.7 351.5,-220.7 351.5,-198.7 232.5,-198.7"/>
<text text-anchor="start" x="235.5" y="-206.4" font-family="Helvetica,sans-Serif" font-size="11.00" fill="#000000">int4[10]</text>
<polygon fill="#ffffff" stroke="transparent" points="144.5,-179.7 144.5,-198.7 179.5,-198.7 179.5,-179.7 144.5,-179.7"/>
<polygon fill="none" stroke="#000000" points="144.5,-179.7 144.5,-198.7 179.5,-198.7 179.5,-179.7 144.5,-179.7"/>
<text text-anchor="start" x="147.5" y="-185.8" font-family="Helvetica,sans-Serif" font-size="11.00" fill="#000000">&lt; 4</text>
<polygon fill="#ffffff" stroke="transparent" points="179.5,-179.7 179.5,-198.7 232.5,-198.7 232.5,-179.7 179.5,-179.7"/>
<polygon fill="none" stroke="#000000" points="179.5,-179.7 179.5,-198.7 232.5,-198.7 232.5,-179.7 179.5,-179.7"/>
<text text-anchor="start" x="197.1105" y="-185.8" font-family="Helvetica,sans-Serif" font-size="11.00" fill="#000000">0 rows</text>
<polygon fill="#ffffff" stroke="transparent" points="232.5,-179.7 232.5,-198.7 351.5,-198.7 351.5,-179.7 232.5,-179.7"/>
<polygon fill="none" stroke="#000000" points="232.5,-179.7 232.5,-198.7 351.5,-198.7 351.5,-179.7 232.5,-179.7"/>
<text text-anchor="start" x="332.9053" y="-185.8" font-family="Helvetica,sans-Serif" font-size="11.00" fill="#000000">0 &gt;</text>
<polygon fill="none" stroke="#000000" stroke-width="2" points="143,-178.7 143,-420.7 352,-420.7 352,-178.7 143,-178.7"/>
</a>
</g>
</g>
<!-- estado -->
<g id="node2" class="node">
<title>estado</title>
<g id="a_node2"><a xlink:href="../../tables/estado.html" xlink:title="estado" target="_top">
<polygon fill="#ffffff" stroke="transparent" points="12,-142.2 12,-225.2 89,-225.2 89,-142.2 12,-142.2"/>
<polygon fill="#f5f5f5" stroke="transparent" points="12.5,-201.7 12.5,-224.7 89.5,-224.7 89.5,-201.7 12.5,-201.7"/>
<polygon fill="none" stroke="#000000" points="12.5,-201.7 12.5,-224.7 89.5,-224.7 89.5,-201.7 12.5,-201.7"/>
<text text-anchor="start" x="17.5" y="-210.8" font-family="Helvetica,sans-Serif" font-weight="bold" font-size="11.00" fill="#000000">estado</text>
<text text-anchor="start" x="55.0219" y="-209.8" font-family="Helvetica,sans-Serif" font-size="11.00" fill="#000000">[table]</text>
<polygon fill="none" stroke="#000000" points="12.5,-179.7 12.5,-201.7 89.5,-201.7 89.5,-179.7 12.5,-179.7"/>
<image xlink:href="../../images/primaryKeys.png" width="11px" height="12px" preserveAspectRatio="xMinYMin meet" x="17.5" y="-196.7"/>
<text text-anchor="start" x="32.5" y="-186.8" font-family="Helvetica,sans-Serif" font-size="11.00" fill="#000000">id</text>
<polygon fill="none" stroke="#000000" points="12.5,-160.7 12.5,-179.7 89.5,-179.7 89.5,-160.7 12.5,-160.7"/>
<text text-anchor="start" x="15.5" y="-166.8" font-family="Helvetica,sans-Serif" font-size="11.00" fill="#000000">...</text>
<polygon fill="#ffffff" stroke="transparent" points="12.5,-141.7 12.5,-160.7 27.5,-160.7 27.5,-141.7 12.5,-141.7"/>
<polygon fill="none" stroke="#000000" points="12.5,-141.7 12.5,-160.7 27.5,-160.7 27.5,-141.7 12.5,-141.7"/>
<text text-anchor="start" x="15.5" y="-147.8" font-family="Helvetica,sans-Serif" font-size="11.00" fill="#000000"> &#160;</text>
<polygon fill="#ffffff" stroke="transparent" points="27.5,-141.7 27.5,-160.7 66.5,-160.7 66.5,-141.7 27.5,-141.7"/>
<polygon fill="none" stroke="#000000" points="27.5,-141.7 27.5,-160.7 66.5,-160.7 66.5,-141.7 27.5,-141.7"/>
<text text-anchor="start" x="31.1105" y="-147.8" font-family="Helvetica,sans-Serif" font-size="11.00" fill="#000000">0 rows</text>
<polygon fill="#ffffff" stroke="transparent" points="66.5,-141.7 66.5,-160.7 89.5,-160.7 89.5,-141.7 66.5,-141.7"/>
<polygon fill="none" stroke="#000000" points="66.5,-141.7 66.5,-160.7 89.5,-160.7 89.5,-141.7 66.5,-141.7"/>
<text text-anchor="start" x="70.9053" y="-147.8" font-family="Helvetica,sans-Serif" font-size="11.00" fill="#000000">4 &gt;</text>
</a>
</g>
</g>
<!-- lrs_line&#45;&gt;estado -->
<g id="edge1" class="edge">
<title>lrs_line:w&#45;&gt;estado:e</title>
<path fill="none" stroke="#000000" d="M130.2653,-227.6189C114.955,-217.2484 114.0341,-190.7 89.5,-190.7"/>
<polygon fill="#000000" stroke="#000000" points="136.8098,-229.4952 143.5078,-235.1606 140.6549,-230.5976 144.5,-231.7 144.5,-231.7 144.5,-231.7 140.6549,-230.5976 145.4922,-228.2394 136.8098,-229.4952 136.8098,-229.4952"/>
<ellipse fill="none" stroke="#000000" cx="133.7337" cy="-228.6132" rx="3.2" ry="3.2"/>
</g>
<!-- estradas -->
<g id="node3" class="node">
<title>estradas</title>
<g id="a_node3"><a xlink:href="../../tables/estradas.html" xlink:title="estradas" target="_top">
<polygon fill="#ffffff" stroke="transparent" points="8,-350.2 8,-433.2 93,-433.2 93,-350.2 8,-350.2"/>
<polygon fill="#f5f5f5" stroke="transparent" points="8.5,-409.7 8.5,-432.7 93.5,-432.7 93.5,-409.7 8.5,-409.7"/>
<polygon fill="none" stroke="#000000" points="8.5,-409.7 8.5,-432.7 93.5,-432.7 93.5,-409.7 8.5,-409.7"/>
<text text-anchor="start" x="13.4108" y="-418.8" font-family="Helvetica,sans-Serif" font-weight="bold" font-size="11.00" fill="#000000">estradas</text>
<text text-anchor="start" x="59.0219" y="-417.8" font-family="Helvetica,sans-Serif" font-size="11.00" fill="#000000">[table]</text>
<polygon fill="none" stroke="#000000" points="8.5,-387.7 8.5,-409.7 93.5,-409.7 93.5,-387.7 8.5,-387.7"/>
<image xlink:href="../../images/primaryKeys.png" width="11px" height="12px" preserveAspectRatio="xMinYMin meet" x="13.5" y="-404.7"/>
<text text-anchor="start" x="35.5" y="-394.8" font-family="Helvetica,sans-Serif" font-size="11.00" fill="#000000">id</text>
<polygon fill="none" stroke="#000000" points="8.5,-368.7 8.5,-387.7 93.5,-387.7 93.5,-368.7 8.5,-368.7"/>
<text text-anchor="start" x="11.5" y="-374.8" font-family="Helvetica,sans-Serif" font-size="11.00" fill="#000000">...</text>
<polygon fill="#ffffff" stroke="transparent" points="8.5,-349.7 8.5,-368.7 27.5,-368.7 27.5,-349.7 8.5,-349.7"/>
<polygon fill="none" stroke="#000000" points="8.5,-349.7 8.5,-368.7 27.5,-368.7 27.5,-349.7 8.5,-349.7"/>
<text text-anchor="start" x="11.5" y="-355.8" font-family="Helvetica,sans-Serif" font-size="11.00" fill="#000000"> &#160;</text>
<polygon fill="#ffffff" stroke="transparent" points="27.5,-349.7 27.5,-368.7 68.5,-368.7 68.5,-349.7 27.5,-349.7"/>
<polygon fill="none" stroke="#000000" points="27.5,-349.7 27.5,-368.7 68.5,-368.7 68.5,-349.7 27.5,-349.7"/>
<text text-anchor="start" x="33.1105" y="-355.8" font-family="Helvetica,sans-Serif" font-size="11.00" fill="#000000">0 rows</text>
<polygon fill="#ffffff" stroke="transparent" points="68.5,-349.7 68.5,-368.7 93.5,-368.7 93.5,-349.7 68.5,-349.7"/>
<polygon fill="none" stroke="#000000" points="68.5,-349.7 68.5,-368.7 93.5,-368.7 93.5,-349.7 68.5,-349.7"/>
<text text-anchor="start" x="74.9053" y="-355.8" font-family="Helvetica,sans-Serif" font-size="11.00" fill="#000000">7 &gt;</text>
</a>
</g>
</g>
<!-- lrs_line&#45;&gt;estradas -->
<g id="edge2" class="edge">
<title>lrs_line:w&#45;&gt;estradas:e</title>
<path fill="none" stroke="#000000" d="M130.1193,-279.2485C97.6975,-299.4156 146.6692,-398.7 93.5,-398.7"/>
<polygon fill="#000000" stroke="#000000" points="136.733,-277.6166 145.3625,-279.1952 140.6165,-276.6583 144.5,-275.7 144.5,-275.7 144.5,-275.7 140.6165,-276.6583 143.6375,-272.2048 136.733,-277.6166 136.733,-277.6166"/>
<ellipse fill="none" stroke="#000000" cx="133.6261" cy="-278.3832" rx="3.2" ry="3.2"/>
</g>
<!-- lado -->
<g id="node4" class="node">
<title>lado</title>
<g id="a_node4"><a xlink:href="../../tables/lado.html" xlink:title="lado" target="_top">
<polygon fill="#ffffff" stroke="transparent" points="12,-38.2 12,-121.2 89,-121.2 89,-38.2 12,-38.2"/>
<polygon fill="#f5f5f5" stroke="transparent" points="12.5,-97.7 12.5,-120.7 89.5,-120.7 89.5,-97.7 12.5,-97.7"/>
<polygon fill="none" stroke="#000000" points="12.5,-97.7 12.5,-120.7 89.5,-120.7 89.5,-97.7 12.5,-97.7"/>
<text text-anchor="start" x="17.5" y="-106.8" font-family="Helvetica,sans-Serif" font-weight="bold" font-size="11.00" fill="#000000">lado</text>
<text text-anchor="start" x="54.5437" y="-105.8" font-family="Helvetica,sans-Serif" font-size="11.00" fill="#000000">[table]</text>
<polygon fill="none" stroke="#000000" points="12.5,-75.7 12.5,-97.7 89.5,-97.7 89.5,-75.7 12.5,-75.7"/>
<image xlink:href="../../images/primaryKeys.png" width="11px" height="12px" preserveAspectRatio="xMinYMin meet" x="17.5" y="-92.7"/>
<text text-anchor="start" x="32.5" y="-82.8" font-family="Helvetica,sans-Serif" font-size="11.00" fill="#000000">id</text>
<polygon fill="none" stroke="#000000" points="12.5,-56.7 12.5,-75.7 89.5,-75.7 89.5,-56.7 12.5,-56.7"/>
<text text-anchor="start" x="15.5" y="-62.8" font-family="Helvetica,sans-Serif" font-size="11.00" fill="#000000">...</text>
<polygon fill="#ffffff" stroke="transparent" points="12.5,-37.7 12.5,-56.7 27.5,-56.7 27.5,-37.7 12.5,-37.7"/>
<polygon fill="none" stroke="#000000" points="12.5,-37.7 12.5,-56.7 27.5,-56.7 27.5,-37.7 12.5,-37.7"/>
<text text-anchor="start" x="15.5" y="-43.8" font-family="Helvetica,sans-Serif" font-size="11.00" fill="#000000"> &#160;</text>
<polygon fill="#ffffff" stroke="transparent" points="27.5,-37.7 27.5,-56.7 66.5,-56.7 66.5,-37.7 27.5,-37.7"/>
<polygon fill="none" stroke="#000000" points="27.5,-37.7 27.5,-56.7 66.5,-56.7 66.5,-37.7 27.5,-37.7"/>
<text text-anchor="start" x="31.1105" y="-43.8" font-family="Helvetica,sans-Serif" font-size="11.00" fill="#000000">0 rows</text>
<polygon fill="#ffffff" stroke="transparent" points="66.5,-37.7 66.5,-56.7 89.5,-56.7 89.5,-37.7 66.5,-37.7"/>
<polygon fill="none" stroke="#000000" points="66.5,-37.7 66.5,-56.7 89.5,-56.7 89.5,-37.7 66.5,-37.7"/>
<text text-anchor="start" x="70.9053" y="-43.8" font-family="Helvetica,sans-Serif" font-size="11.00" fill="#000000">4 &gt;</text>
</a>
</g>
</g>
<!-- lrs_line&#45;&gt;lado -->
<g id="edge3" class="edge">
<title>lrs_line:w&#45;&gt;lado:e</title>
<path fill="none" stroke="#000000" d="M130.2902,-206.41C96.0779,-186.8496 143.5351,-86.7 89.5,-86.7"/>
<polygon fill="#000000" stroke="#000000" points="136.7062,-207.8955 143.688,-213.2072 140.6031,-208.7977 144.5,-209.7 144.5,-209.7 144.5,-209.7 140.6031,-208.7977 145.312,-206.1928 136.7062,-207.8955 136.7062,-207.8955"/>
<ellipse fill="none" stroke="#000000" cx="133.5886" cy="-207.1737" rx="3.2" ry="3.2"/>
</g>
<!-- tipo_line -->
<g id="node5" class="node">
<title>tipo_line</title>
<g id="a_node5"><a xlink:href="../../tables/tipo_line.html" xlink:title="tipo_line" target="_top">
<polygon fill="#ffffff" stroke="transparent" points="9,-246.2 9,-329.2 92,-329.2 92,-246.2 9,-246.2"/>
<polygon fill="#f5f5f5" stroke="transparent" points="9.5,-305.7 9.5,-328.7 92.5,-328.7 92.5,-305.7 9.5,-305.7"/>
<polygon fill="none" stroke="#000000" points="9.5,-305.7 9.5,-328.7 92.5,-328.7 92.5,-305.7 9.5,-305.7"/>
<text text-anchor="start" x="14.023" y="-314.8" font-family="Helvetica,sans-Serif" font-weight="bold" font-size="11.00" fill="#000000">tipo_line</text>
<text text-anchor="start" x="58.0219" y="-313.8" font-family="Helvetica,sans-Serif" font-size="11.00" fill="#000000">[table]</text>
<polygon fill="none" stroke="#000000" points="9.5,-283.7 9.5,-305.7 92.5,-305.7 92.5,-283.7 9.5,-283.7"/>
<image xlink:href="../../images/primaryKeys.png" width="11px" height="12px" preserveAspectRatio="xMinYMin meet" x="14.5" y="-300.7"/>
<text text-anchor="start" x="32.5" y="-290.8" font-family="Helvetica,sans-Serif" font-size="11.00" fill="#000000">id</text>
<polygon fill="none" stroke="#000000" points="9.5,-264.7 9.5,-283.7 92.5,-283.7 92.5,-264.7 9.5,-264.7"/>
<text text-anchor="start" x="12.5" y="-270.8" font-family="Helvetica,sans-Serif" font-size="11.00" fill="#000000">...</text>
<polygon fill="#ffffff" stroke="transparent" points="9.5,-245.7 9.5,-264.7 27.5,-264.7 27.5,-245.7 9.5,-245.7"/>
<polygon fill="none" stroke="#000000" points="9.5,-245.7 9.5,-264.7 27.5,-264.7 27.5,-245.7 9.5,-245.7"/>
<text text-anchor="start" x="12.5" y="-251.8" font-family="Helvetica,sans-Serif" font-size="11.00" fill="#000000"> &#160;</text>
<polygon fill="#ffffff" stroke="transparent" points="27.5,-245.7 27.5,-264.7 68.5,-264.7 68.5,-245.7 27.5,-245.7"/>
<polygon fill="none" stroke="#000000" points="27.5,-245.7 27.5,-264.7 68.5,-264.7 68.5,-245.7 27.5,-245.7"/>
<text text-anchor="start" x="33.1105" y="-251.8" font-family="Helvetica,sans-Serif" font-size="11.00" fill="#000000">0 rows</text>
<polygon fill="#ffffff" stroke="transparent" points="68.5,-245.7 68.5,-264.7 92.5,-264.7 92.5,-245.7 68.5,-245.7"/>
<polygon fill="none" stroke="#000000" points="68.5,-245.7 68.5,-264.7 92.5,-264.7 92.5,-245.7 68.5,-245.7"/>
<text text-anchor="start" x="73.9053" y="-251.8" font-family="Helvetica,sans-Serif" font-size="11.00" fill="#000000">1 &gt;</text>
</a>
</g>
</g>
<!-- lrs_line&#45;&gt;tipo_line -->
<g id="edge4" class="edge">
<title>lrs_line:w&#45;&gt;tipo_line:e</title>
<path fill="none" stroke="#000000" d="M130.4495,-258.0877C116.3593,-268.6646 115.9527,-294.7 92.5,-294.7"/>
<polygon fill="#000000" stroke="#000000" points="136.8637,-256.0847 145.5731,-257.1363 140.6818,-254.8924 144.5,-253.7 144.5,-253.7 144.5,-253.7 140.6818,-254.8924 143.4269,-250.2637 136.8637,-256.0847 136.8637,-256.0847"/>
<ellipse fill="none" stroke="#000000" cx="133.8092" cy="-257.0386" rx="3.2" ry="3.2"/>
</g>
</g>
</svg>
