<?xml version="1.0" encoding="UTF-8" standalone="no"?>
<!DOCTYPE svg PUBLIC "-//W3C//DTD SVG 1.1//EN"
 "http://www.w3.org/Graphics/SVG/1.1/DTD/svg11.dtd">
<!-- Generated by graphviz version 2.40.1 (20161225.0304)
 -->
<!-- Title: twoDegreesRelationshipsDiagram Pages: 1 -->
<svg width="369pt" height="787pt"
 viewBox="0.00 0.00 369.00 787.20" xmlns="http://www.w3.org/2000/svg" xmlns:xlink="http://www.w3.org/1999/xlink">
<g id="graph0" class="graph" transform="scale(1 1) rotate(0) translate(4 783.2)">
<title>twoDegreesRelationshipsDiagram</title>
<polygon fill="#ffffff" stroke="transparent" points="-4,4 -4,-783.2 365,-783.2 365,4 -4,4"/>
<text text-anchor="middle" x="72.4936" y="-7.3" font-family="Helvetica,sans-Serif" font-size="11.00" fill="#000000">Generated by SchemaSpy</text>
<!-- caract -->
<g id="node1" class="node">
<title>caract</title>
<g id="a_node1"><a xlink:href="../../tables/caract.html" xlink:title="caract" target="_top">
<polygon fill="#ffffff" stroke="transparent" points="211.5,-714.2 211.5,-775.2 283.5,-775.2 283.5,-714.2 211.5,-714.2"/>
<polygon fill="#f5f5f5" stroke="transparent" points="211.5,-751.7 211.5,-774.7 283.5,-774.7 283.5,-751.7 211.5,-751.7"/>
<polygon fill="none" stroke="#000000" points="211.5,-751.7 211.5,-774.7 283.5,-774.7 283.5,-751.7 211.5,-751.7"/>
<text text-anchor="start" x="216.0257" y="-760.8" font-family="Helvetica,sans-Serif" font-weight="bold" font-size="11.00" fill="#000000">caract</text>
<text text-anchor="start" x="249.0219" y="-759.8" font-family="Helvetica,sans-Serif" font-size="11.00" fill="#000000">[table]</text>
<polygon fill="none" stroke="#000000" points="211.5,-732.7 211.5,-751.7 283.5,-751.7 283.5,-732.7 211.5,-732.7"/>
<text text-anchor="start" x="214.5" y="-738.8" font-family="Helvetica,sans-Serif" font-size="11.00" fill="#000000">...</text>
<polygon fill="#ffffff" stroke="transparent" points="211.5,-713.7 211.5,-732.7 232.5,-732.7 232.5,-713.7 211.5,-713.7"/>
<polygon fill="none" stroke="#000000" points="211.5,-713.7 211.5,-732.7 232.5,-732.7 232.5,-713.7 211.5,-713.7"/>
<text text-anchor="start" x="214.2027" y="-719.8" font-family="Helvetica,sans-Serif" font-size="11.00" fill="#000000">&lt; 1</text>
<polygon fill="#ffffff" stroke="transparent" points="232.5,-713.7 232.5,-732.7 270.5,-732.7 270.5,-713.7 232.5,-713.7"/>
<polygon fill="none" stroke="#000000" points="232.5,-713.7 232.5,-732.7 270.5,-732.7 270.5,-713.7 232.5,-713.7"/>
<text text-anchor="start" x="235.3053" y="-719.8" font-family="Helvetica,sans-Serif" font-size="11.00" fill="#000000">0 rows</text>
<polygon fill="#ffffff" stroke="transparent" points="270.5,-713.7 270.5,-732.7 283.5,-732.7 283.5,-713.7 270.5,-713.7"/>
<polygon fill="none" stroke="#000000" points="270.5,-713.7 270.5,-732.7 283.5,-732.7 283.5,-713.7 270.5,-713.7"/>
<text text-anchor="start" x="274.3862" y="-719.8" font-family="Helvetica,sans-Serif" font-size="11.00" fill="#000000"> &#160;</text>
</a>
</g>
</g>
<!-- estradas -->
<g id="node2" class="node">
<title>estradas</title>
<g id="a_node2"><a xlink:href="../../tables/estradas.html" xlink:title="estradas" target="_top">
<polygon fill="#ffffff" stroke="transparent" points="8,-409.2 8,-492.2 93,-492.2 93,-409.2 8,-409.2"/>
<polygon fill="#f5f5f5" stroke="transparent" points="8.5,-468.7 8.5,-491.7 93.5,-491.7 93.5,-468.7 8.5,-468.7"/>
<polygon fill="none" stroke="#000000" points="8.5,-468.7 8.5,-491.7 93.5,-491.7 93.5,-468.7 8.5,-468.7"/>
<text text-anchor="start" x="13.4108" y="-477.8" font-family="Helvetica,sans-Serif" font-weight="bold" font-size="11.00" fill="#000000">estradas</text>
<text text-anchor="start" x="59.0219" y="-476.8" font-family="Helvetica,sans-Serif" font-size="11.00" fill="#000000">[table]</text>
<polygon fill="none" stroke="#000000" points="8.5,-446.7 8.5,-468.7 93.5,-468.7 93.5,-446.7 8.5,-446.7"/>
<image xlink:href="../../images/primaryKeys.png" width="11px" height="12px" preserveAspectRatio="xMinYMin meet" x="13.5" y="-463.7"/>
<text text-anchor="start" x="35.5" y="-453.8" font-family="Helvetica,sans-Serif" font-size="11.00" fill="#000000">id</text>
<polygon fill="none" stroke="#000000" points="8.5,-427.7 8.5,-446.7 93.5,-446.7 93.5,-427.7 8.5,-427.7"/>
<text text-anchor="start" x="11.5" y="-433.8" font-family="Helvetica,sans-Serif" font-size="11.00" fill="#000000">...</text>
<polygon fill="#ffffff" stroke="transparent" points="8.5,-408.7 8.5,-427.7 27.5,-427.7 27.5,-408.7 8.5,-408.7"/>
<polygon fill="none" stroke="#000000" points="8.5,-408.7 8.5,-427.7 27.5,-427.7 27.5,-408.7 8.5,-408.7"/>
<text text-anchor="start" x="11.5" y="-414.8" font-family="Helvetica,sans-Serif" font-size="11.00" fill="#000000"> &#160;</text>
<polygon fill="#ffffff" stroke="transparent" points="27.5,-408.7 27.5,-427.7 68.5,-427.7 68.5,-408.7 27.5,-408.7"/>
<polygon fill="none" stroke="#000000" points="27.5,-408.7 27.5,-427.7 68.5,-427.7 68.5,-408.7 27.5,-408.7"/>
<text text-anchor="start" x="33.1105" y="-414.8" font-family="Helvetica,sans-Serif" font-size="11.00" fill="#000000">0 rows</text>
<polygon fill="#ffffff" stroke="transparent" points="68.5,-408.7 68.5,-427.7 93.5,-427.7 93.5,-408.7 68.5,-408.7"/>
<polygon fill="none" stroke="#000000" points="68.5,-408.7 68.5,-427.7 93.5,-427.7 93.5,-408.7 68.5,-408.7"/>
<text text-anchor="start" x="74.9053" y="-414.8" font-family="Helvetica,sans-Serif" font-size="11.00" fill="#000000">7 &gt;</text>
</a>
</g>
</g>
<!-- caract&#45;&gt;estradas -->
<g id="edge1" class="edge">
<title>caract:w&#45;&gt;estradas:e</title>
<path fill="none" stroke="#000000" d="M200.8668,-741.4785C169.8994,-740.0673 154.6459,-731.4849 134,-703.7 100.9563,-659.2303 148.9026,-457.7 93.5,-457.7"/>
<polygon fill="#000000" stroke="#000000" points="210.7835,-737.6842 210.6168,-745.6825 209.0172,-745.6491 209.1839,-737.6509 210.7835,-737.6842"/>
<polyline fill="none" stroke="#000000" points="211.5,-741.7 207.5009,-741.6167 "/>
<ellipse fill="none" stroke="#000000" cx="204.3016" cy="-741.55" rx="3.2" ry="3.2"/>
</g>
<!-- lrs_line -->
<g id="node3" class="node">
<title>lrs_line</title>
<g id="a_node3"><a xlink:href="../../tables/lrs_line.html" xlink:title="lrs_line" target="_top">
<polygon fill="#ffffff" stroke="transparent" points="142,-284.7 142,-528.7 353,-528.7 353,-284.7 142,-284.7"/>
<polygon fill="#f5f5f5" stroke="transparent" points="144.5,-503.7 144.5,-526.7 351.5,-526.7 351.5,-503.7 144.5,-503.7"/>
<polygon fill="none" stroke="#000000" points="144.5,-503.7 144.5,-526.7 351.5,-526.7 351.5,-503.7 144.5,-503.7"/>
<text text-anchor="start" x="149.5" y="-512.8" font-family="Helvetica,sans-Serif" font-weight="bold" font-size="11.00" fill="#000000">lrs_line</text>
<text text-anchor="start" x="316.5437" y="-511.8" font-family="Helvetica,sans-Serif" font-size="11.00" fill="#000000">[table]</text>
<polygon fill="none" stroke="#000000" points="144.5,-481.7 144.5,-503.7 232.5,-503.7 232.5,-481.7 144.5,-481.7"/>
<image xlink:href="../../images/primaryKeys.png" width="11px" height="12px" preserveAspectRatio="xMinYMin meet" x="149.5" y="-498.7"/>
<text text-anchor="start" x="164.5" y="-488.8" font-family="Helvetica,sans-Serif" font-size="11.00" fill="#000000">id</text>
<polygon fill="none" stroke="#000000" points="232.5,-481.7 232.5,-503.7 351.5,-503.7 351.5,-481.7 232.5,-481.7"/>
<text text-anchor="start" x="235.5" y="-489.4" font-family="Helvetica,sans-Serif" font-size="11.00" fill="#000000">serial[10]</text>
<polygon fill="none" stroke="#000000" points="144.5,-459.7 144.5,-481.7 232.5,-481.7 232.5,-459.7 144.5,-459.7"/>
<text text-anchor="start" x="164.5" y="-466.8" font-family="Helvetica,sans-Serif" font-size="11.00" fill="#000000">geom</text>
<polygon fill="none" stroke="#000000" points="232.5,-459.7 232.5,-481.7 351.5,-481.7 351.5,-459.7 232.5,-459.7"/>
<text text-anchor="start" x="235.4485" y="-467.4" font-family="Helvetica,sans-Serif" font-size="11.00" fill="#000000">geometry[2147483647]</text>
<polygon fill="none" stroke="#000000" points="144.5,-437.7 144.5,-459.7 232.5,-459.7 232.5,-437.7 144.5,-437.7"/>
<text text-anchor="start" x="164.5" y="-444.8" font-family="Helvetica,sans-Serif" font-size="11.00" fill="#000000">start_m</text>
<polygon fill="none" stroke="#000000" points="232.5,-437.7 232.5,-459.7 351.5,-459.7 351.5,-437.7 232.5,-437.7"/>
<text text-anchor="start" x="235.5" y="-445.4" font-family="Helvetica,sans-Serif" font-size="11.00" fill="#000000">float8[17,17]</text>
<polygon fill="none" stroke="#000000" points="144.5,-415.7 144.5,-437.7 232.5,-437.7 232.5,-415.7 144.5,-415.7"/>
<text text-anchor="start" x="164.5" y="-422.8" font-family="Helvetica,sans-Serif" font-size="11.00" fill="#000000">end_m</text>
<polygon fill="none" stroke="#000000" points="232.5,-415.7 232.5,-437.7 351.5,-437.7 351.5,-415.7 232.5,-415.7"/>
<text text-anchor="start" x="235.5" y="-423.4" font-family="Helvetica,sans-Serif" font-size="11.00" fill="#000000">float8[17,17]</text>
<polygon fill="none" stroke="#000000" points="144.5,-393.7 144.5,-415.7 232.5,-415.7 232.5,-393.7 144.5,-393.7"/>
<text text-anchor="start" x="164.5" y="-400.8" font-family="Helvetica,sans-Serif" font-size="11.00" fill="#000000">obs</text>
<polygon fill="none" stroke="#000000" points="232.5,-393.7 232.5,-415.7 351.5,-415.7 351.5,-393.7 232.5,-393.7"/>
<text text-anchor="start" x="235.5" y="-401.4" font-family="Helvetica,sans-Serif" font-size="11.00" fill="#000000">text[2147483647]</text>
<polygon fill="none" stroke="#000000" points="144.5,-371.7 144.5,-393.7 232.5,-393.7 232.5,-371.7 144.5,-371.7"/>
<image xlink:href="../../images/foreignKeys.png" width="11px" height="12px" preserveAspectRatio="xMinYMin meet" x="149.5" y="-388.7"/>
<text text-anchor="start" x="164.5" y="-378.8" font-family="Helvetica,sans-Serif" font-size="11.00" fill="#000000">id_estradas</text>
<polygon fill="none" stroke="#000000" points="232.5,-371.7 232.5,-393.7 351.5,-393.7 351.5,-371.7 232.5,-371.7"/>
<text text-anchor="start" x="235.5" y="-379.4" font-family="Helvetica,sans-Serif" font-size="11.00" fill="#000000">int4[10]</text>
<polygon fill="none" stroke="#000000" points="144.5,-349.7 144.5,-371.7 232.5,-371.7 232.5,-349.7 144.5,-349.7"/>
<image xlink:href="../../images/foreignKeys.png" width="11px" height="12px" preserveAspectRatio="xMinYMin meet" x="149.5" y="-366.7"/>
<text text-anchor="start" x="164.5" y="-356.8" font-family="Helvetica,sans-Serif" font-size="11.00" fill="#000000">id_tipo_line</text>
<polygon fill="none" stroke="#000000" points="232.5,-349.7 232.5,-371.7 351.5,-371.7 351.5,-349.7 232.5,-349.7"/>
<text text-anchor="start" x="235.5" y="-357.4" font-family="Helvetica,sans-Serif" font-size="11.00" fill="#000000">int4[10]</text>
<polygon fill="none" stroke="#000000" points="144.5,-327.7 144.5,-349.7 232.5,-349.7 232.5,-327.7 144.5,-327.7"/>
<image xlink:href="../../images/foreignKeys.png" width="11px" height="12px" preserveAspectRatio="xMinYMin meet" x="149.5" y="-344.7"/>
<text text-anchor="start" x="164.5" y="-334.8" font-family="Helvetica,sans-Serif" font-size="11.00" fill="#000000">id_estado</text>
<polygon fill="none" stroke="#000000" points="232.5,-327.7 232.5,-349.7 351.5,-349.7 351.5,-327.7 232.5,-327.7"/>
<text text-anchor="start" x="235.5" y="-335.4" font-family="Helvetica,sans-Serif" font-size="11.00" fill="#000000">int4[10]</text>
<polygon fill="none" stroke="#000000" points="144.5,-305.7 144.5,-327.7 232.5,-327.7 232.5,-305.7 144.5,-305.7"/>
<image xlink:href="../../images/foreignKeys.png" width="11px" height="12px" preserveAspectRatio="xMinYMin meet" x="149.5" y="-322.7"/>
<text text-anchor="start" x="164.5" y="-312.8" font-family="Helvetica,sans-Serif" font-size="11.00" fill="#000000">id_lado</text>
<polygon fill="none" stroke="#000000" points="232.5,-305.7 232.5,-327.7 351.5,-327.7 351.5,-305.7 232.5,-305.7"/>
<text text-anchor="start" x="235.5" y="-313.4" font-family="Helvetica,sans-Serif" font-size="11.00" fill="#000000">int4[10]</text>
<polygon fill="#ffffff" stroke="transparent" points="144.5,-286.7 144.5,-305.7 179.5,-305.7 179.5,-286.7 144.5,-286.7"/>
<polygon fill="none" stroke="#000000" points="144.5,-286.7 144.5,-305.7 179.5,-305.7 179.5,-286.7 144.5,-286.7"/>
<text text-anchor="start" x="147.5" y="-292.8" font-family="Helvetica,sans-Serif" font-size="11.00" fill="#000000">&lt; 4</text>
<polygon fill="#ffffff" stroke="transparent" points="179.5,-286.7 179.5,-305.7 232.5,-305.7 232.5,-286.7 179.5,-286.7"/>
<polygon fill="none" stroke="#000000" points="179.5,-286.7 179.5,-305.7 232.5,-305.7 232.5,-286.7 179.5,-286.7"/>
<text text-anchor="start" x="197.1105" y="-292.8" font-family="Helvetica,sans-Serif" font-size="11.00" fill="#000000">0 rows</text>
<polygon fill="#ffffff" stroke="transparent" points="232.5,-286.7 232.5,-305.7 351.5,-305.7 351.5,-286.7 232.5,-286.7"/>
<polygon fill="none" stroke="#000000" points="232.5,-286.7 232.5,-305.7 351.5,-305.7 351.5,-286.7 232.5,-286.7"/>
<text text-anchor="start" x="332.9053" y="-292.8" font-family="Helvetica,sans-Serif" font-size="11.00" fill="#000000">0 &gt;</text>
<polygon fill="none" stroke="#000000" stroke-width="2" points="143,-285.7 143,-527.7 352,-527.7 352,-285.7 143,-285.7"/>
</a>
</g>
</g>
<!-- lrs_line&#45;&gt;estradas -->
<g id="edge3" class="edge">
<title>lrs_line:w&#45;&gt;estradas:e</title>
<path fill="none" stroke="#000000" d="M130.7145,-387.167C111.4427,-403.3131 127.8264,-457.7 93.5,-457.7"/>
<polygon fill="#000000" stroke="#000000" points="136.8896,-385.1661 145.6097,-386.1247 140.6948,-383.933 144.5,-382.7 144.5,-382.7 144.5,-382.7 140.6948,-383.933 143.3903,-379.2753 136.8896,-385.1661 136.8896,-385.1661"/>
<ellipse fill="none" stroke="#000000" cx="133.8454" cy="-386.1525" rx="3.2" ry="3.2"/>
</g>
<!-- estado -->
<g id="node4" class="node">
<title>estado</title>
<g id="a_node4"><a xlink:href="../../tables/estado.html" xlink:title="estado" target="_top">
<polygon fill="#ffffff" stroke="transparent" points="12,-188.2 12,-271.2 89,-271.2 89,-188.2 12,-188.2"/>
<polygon fill="#f5f5f5" stroke="transparent" points="12.5,-247.7 12.5,-270.7 89.5,-270.7 89.5,-247.7 12.5,-247.7"/>
<polygon fill="none" stroke="#000000" points="12.5,-247.7 12.5,-270.7 89.5,-270.7 89.5,-247.7 12.5,-247.7"/>
<text text-anchor="start" x="17.5" y="-256.8" font-family="Helvetica,sans-Serif" font-weight="bold" font-size="11.00" fill="#000000">estado</text>
<text text-anchor="start" x="55.0219" y="-255.8" font-family="Helvetica,sans-Serif" font-size="11.00" fill="#000000">[table]</text>
<polygon fill="none" stroke="#000000" points="12.5,-225.7 12.5,-247.7 89.5,-247.7 89.5,-225.7 12.5,-225.7"/>
<image xlink:href="../../images/primaryKeys.png" width="11px" height="12px" preserveAspectRatio="xMinYMin meet" x="17.5" y="-242.7"/>
<text text-anchor="start" x="32.5" y="-232.8" font-family="Helvetica,sans-Serif" font-size="11.00" fill="#000000">id</text>
<polygon fill="none" stroke="#000000" points="12.5,-206.7 12.5,-225.7 89.5,-225.7 89.5,-206.7 12.5,-206.7"/>
<text text-anchor="start" x="15.5" y="-212.8" font-family="Helvetica,sans-Serif" font-size="11.00" fill="#000000">...</text>
<polygon fill="#ffffff" stroke="transparent" points="12.5,-187.7 12.5,-206.7 27.5,-206.7 27.5,-187.7 12.5,-187.7"/>
<polygon fill="none" stroke="#000000" points="12.5,-187.7 12.5,-206.7 27.5,-206.7 27.5,-187.7 12.5,-187.7"/>
<text text-anchor="start" x="15.5" y="-193.8" font-family="Helvetica,sans-Serif" font-size="11.00" fill="#000000"> &#160;</text>
<polygon fill="#ffffff" stroke="transparent" points="27.5,-187.7 27.5,-206.7 66.5,-206.7 66.5,-187.7 27.5,-187.7"/>
<polygon fill="none" stroke="#000000" points="27.5,-187.7 27.5,-206.7 66.5,-206.7 66.5,-187.7 27.5,-187.7"/>
<text text-anchor="start" x="31.1105" y="-193.8" font-family="Helvetica,sans-Serif" font-size="11.00" fill="#000000">0 rows</text>
<polygon fill="#ffffff" stroke="transparent" points="66.5,-187.7 66.5,-206.7 89.5,-206.7 89.5,-187.7 66.5,-187.7"/>
<polygon fill="none" stroke="#000000" points="66.5,-187.7 66.5,-206.7 89.5,-206.7 89.5,-187.7 66.5,-187.7"/>
<text text-anchor="start" x="70.9053" y="-193.8" font-family="Helvetica,sans-Serif" font-size="11.00" fill="#000000">4 &gt;</text>
</a>
</g>
</g>
<!-- lrs_line&#45;&gt;estado -->
<g id="edge2" class="edge">
<title>lrs_line:w&#45;&gt;estado:e</title>
<path fill="none" stroke="#000000" d="M130.5384,-335.0698C102.5959,-316.8996 135.1694,-236.7 89.5,-236.7"/>
<polygon fill="#000000" stroke="#000000" points="136.7574,-336.6868 143.594,-342.1841 140.6287,-337.6934 144.5,-338.7 144.5,-338.7 144.5,-338.7 140.6287,-337.6934 145.406,-335.2159 136.7574,-336.6868 136.7574,-336.6868"/>
<ellipse fill="none" stroke="#000000" cx="133.6604" cy="-335.8815" rx="3.2" ry="3.2"/>
</g>
<!-- lado -->
<g id="node5" class="node">
<title>lado</title>
<g id="a_node5"><a xlink:href="../../tables/lado.html" xlink:title="lado" target="_top">
<polygon fill="#ffffff" stroke="transparent" points="12,-84.2 12,-167.2 89,-167.2 89,-84.2 12,-84.2"/>
<polygon fill="#f5f5f5" stroke="transparent" points="12.5,-143.7 12.5,-166.7 89.5,-166.7 89.5,-143.7 12.5,-143.7"/>
<polygon fill="none" stroke="#000000" points="12.5,-143.7 12.5,-166.7 89.5,-166.7 89.5,-143.7 12.5,-143.7"/>
<text text-anchor="start" x="17.5" y="-152.8" font-family="Helvetica,sans-Serif" font-weight="bold" font-size="11.00" fill="#000000">lado</text>
<text text-anchor="start" x="54.5437" y="-151.8" font-family="Helvetica,sans-Serif" font-size="11.00" fill="#000000">[table]</text>
<polygon fill="none" stroke="#000000" points="12.5,-121.7 12.5,-143.7 89.5,-143.7 89.5,-121.7 12.5,-121.7"/>
<image xlink:href="../../images/primaryKeys.png" width="11px" height="12px" preserveAspectRatio="xMinYMin meet" x="17.5" y="-138.7"/>
<text text-anchor="start" x="32.5" y="-128.8" font-family="Helvetica,sans-Serif" font-size="11.00" fill="#000000">id</text>
<polygon fill="none" stroke="#000000" points="12.5,-102.7 12.5,-121.7 89.5,-121.7 89.5,-102.7 12.5,-102.7"/>
<text text-anchor="start" x="15.5" y="-108.8" font-family="Helvetica,sans-Serif" font-size="11.00" fill="#000000">...</text>
<polygon fill="#ffffff" stroke="transparent" points="12.5,-83.7 12.5,-102.7 27.5,-102.7 27.5,-83.7 12.5,-83.7"/>
<polygon fill="none" stroke="#000000" points="12.5,-83.7 12.5,-102.7 27.5,-102.7 27.5,-83.7 12.5,-83.7"/>
<text text-anchor="start" x="15.5" y="-89.8" font-family="Helvetica,sans-Serif" font-size="11.00" fill="#000000"> &#160;</text>
<polygon fill="#ffffff" stroke="transparent" points="27.5,-83.7 27.5,-102.7 66.5,-102.7 66.5,-83.7 27.5,-83.7"/>
<polygon fill="none" stroke="#000000" points="27.5,-83.7 27.5,-102.7 66.5,-102.7 66.5,-83.7 27.5,-83.7"/>
<text text-anchor="start" x="31.1105" y="-89.8" font-family="Helvetica,sans-Serif" font-size="11.00" fill="#000000">0 rows</text>
<polygon fill="#ffffff" stroke="transparent" points="66.5,-83.7 66.5,-102.7 89.5,-102.7 89.5,-83.7 66.5,-83.7"/>
<polygon fill="none" stroke="#000000" points="66.5,-83.7 66.5,-102.7 89.5,-102.7 89.5,-83.7 66.5,-83.7"/>
<text text-anchor="start" x="70.9053" y="-89.8" font-family="Helvetica,sans-Serif" font-size="11.00" fill="#000000">4 &gt;</text>
</a>
</g>
</g>
<!-- lrs_line&#45;&gt;lado -->
<g id="edge4" class="edge">
<title>lrs_line:w&#45;&gt;lado:e</title>
<path fill="none" stroke="#000000" d="M130.0382,-314.3736C73.6276,-293.0739 169.185,-132.7 89.5,-132.7"/>
<polygon fill="#000000" stroke="#000000" points="136.6015,-315.4293 143.9282,-320.2543 140.5508,-316.0647 144.5,-316.7 144.5,-316.7 144.5,-316.7 140.5508,-316.0647 145.0718,-313.1457 136.6015,-315.4293 136.6015,-315.4293"/>
<ellipse fill="none" stroke="#000000" cx="133.4422" cy="-314.9211" rx="3.2" ry="3.2"/>
</g>
<!-- tipo_line -->
<g id="node6" class="node">
<title>tipo_line</title>
<g id="a_node6"><a xlink:href="../../tables/tipo_line.html" xlink:title="tipo_line" target="_top">
<polygon fill="#ffffff" stroke="transparent" points="9,-305.2 9,-388.2 92,-388.2 92,-305.2 9,-305.2"/>
<polygon fill="#f5f5f5" stroke="transparent" points="9.5,-364.7 9.5,-387.7 92.5,-387.7 92.5,-364.7 9.5,-364.7"/>
<polygon fill="none" stroke="#000000" points="9.5,-364.7 9.5,-387.7 92.5,-387.7 92.5,-364.7 9.5,-364.7"/>
<text text-anchor="start" x="14.023" y="-373.8" font-family="Helvetica,sans-Serif" font-weight="bold" font-size="11.00" fill="#000000">tipo_line</text>
<text text-anchor="start" x="58.0219" y="-372.8" font-family="Helvetica,sans-Serif" font-size="11.00" fill="#000000">[table]</text>
<polygon fill="none" stroke="#000000" points="9.5,-342.7 9.5,-364.7 92.5,-364.7 92.5,-342.7 9.5,-342.7"/>
<image xlink:href="../../images/primaryKeys.png" width="11px" height="12px" preserveAspectRatio="xMinYMin meet" x="14.5" y="-359.7"/>
<text text-anchor="start" x="32.5" y="-349.8" font-family="Helvetica,sans-Serif" font-size="11.00" fill="#000000">id</text>
<polygon fill="none" stroke="#000000" points="9.5,-323.7 9.5,-342.7 92.5,-342.7 92.5,-323.7 9.5,-323.7"/>
<text text-anchor="start" x="12.5" y="-329.8" font-family="Helvetica,sans-Serif" font-size="11.00" fill="#000000">...</text>
<polygon fill="#ffffff" stroke="transparent" points="9.5,-304.7 9.5,-323.7 27.5,-323.7 27.5,-304.7 9.5,-304.7"/>
<polygon fill="none" stroke="#000000" points="9.5,-304.7 9.5,-323.7 27.5,-323.7 27.5,-304.7 9.5,-304.7"/>
<text text-anchor="start" x="12.5" y="-310.8" font-family="Helvetica,sans-Serif" font-size="11.00" fill="#000000"> &#160;</text>
<polygon fill="#ffffff" stroke="transparent" points="27.5,-304.7 27.5,-323.7 68.5,-323.7 68.5,-304.7 27.5,-304.7"/>
<polygon fill="none" stroke="#000000" points="27.5,-304.7 27.5,-323.7 68.5,-323.7 68.5,-304.7 27.5,-304.7"/>
<text text-anchor="start" x="33.1105" y="-310.8" font-family="Helvetica,sans-Serif" font-size="11.00" fill="#000000">0 rows</text>
<polygon fill="#ffffff" stroke="transparent" points="68.5,-304.7 68.5,-323.7 92.5,-323.7 92.5,-304.7 68.5,-304.7"/>
<polygon fill="none" stroke="#000000" points="68.5,-304.7 68.5,-323.7 92.5,-323.7 92.5,-304.7 68.5,-304.7"/>
<text text-anchor="start" x="73.9053" y="-310.8" font-family="Helvetica,sans-Serif" font-size="11.00" fill="#000000">1 &gt;</text>
</a>
</g>
</g>
<!-- lrs_line&#45;&gt;tipo_line -->
<g id="edge5" class="edge">
<title>lrs_line:w&#45;&gt;tipo_line:e</title>
<path fill="none" stroke="#000000" d="M129.8164,-359.6063C117.3776,-357.6375 109.9897,-353.7 92.5,-353.7"/>
<polygon fill="#000000" stroke="#000000" points="136.5221,-360.1057 144.2326,-364.2901 140.5111,-360.4028 144.5,-360.7 144.5,-360.7 144.5,-360.7 140.5111,-360.4028 144.7674,-357.1099 136.5221,-360.1057 136.5221,-360.1057"/>
<ellipse fill="none" stroke="#000000" cx="133.3309" cy="-359.868" rx="3.2" ry="3.2"/>
</g>
<!-- lrs_node -->
<g id="node7" class="node">
<title>lrs_node</title>
<g id="a_node7"><a xlink:href="../../tables/lrs_node.html" xlink:title="lrs_node" target="_top">
<polygon fill="#ffffff" stroke="transparent" points="205,-202.2 205,-263.2 290,-263.2 290,-202.2 205,-202.2"/>
<polygon fill="#f5f5f5" stroke="transparent" points="205.5,-239.7 205.5,-262.7 290.5,-262.7 290.5,-239.7 205.5,-239.7"/>
<polygon fill="none" stroke="#000000" points="205.5,-239.7 205.5,-262.7 290.5,-262.7 290.5,-239.7 205.5,-239.7"/>
<text text-anchor="start" x="210.4114" y="-248.8" font-family="Helvetica,sans-Serif" font-weight="bold" font-size="11.00" fill="#000000">lrs_node</text>
<text text-anchor="start" x="256.0219" y="-247.8" font-family="Helvetica,sans-Serif" font-size="11.00" fill="#000000">[table]</text>
<polygon fill="none" stroke="#000000" points="205.5,-220.7 205.5,-239.7 290.5,-239.7 290.5,-220.7 205.5,-220.7"/>
<text text-anchor="start" x="208.5" y="-226.8" font-family="Helvetica,sans-Serif" font-size="11.00" fill="#000000">...</text>
<polygon fill="#ffffff" stroke="transparent" points="205.5,-201.7 205.5,-220.7 233.5,-220.7 233.5,-201.7 205.5,-201.7"/>
<polygon fill="none" stroke="#000000" points="205.5,-201.7 205.5,-220.7 233.5,-220.7 233.5,-201.7 205.5,-201.7"/>
<text text-anchor="start" x="208.5" y="-207.8" font-family="Helvetica,sans-Serif" font-size="11.00" fill="#000000">&lt; 4</text>
<polygon fill="#ffffff" stroke="transparent" points="233.5,-201.7 233.5,-220.7 274.5,-220.7 274.5,-201.7 233.5,-201.7"/>
<polygon fill="none" stroke="#000000" points="233.5,-201.7 233.5,-220.7 274.5,-220.7 274.5,-201.7 233.5,-201.7"/>
<text text-anchor="start" x="239.1105" y="-207.8" font-family="Helvetica,sans-Serif" font-size="11.00" fill="#000000">0 rows</text>
<polygon fill="#ffffff" stroke="transparent" points="274.5,-201.7 274.5,-220.7 290.5,-220.7 290.5,-201.7 274.5,-201.7"/>
<polygon fill="none" stroke="#000000" points="274.5,-201.7 274.5,-220.7 290.5,-220.7 290.5,-201.7 274.5,-201.7"/>
<text text-anchor="start" x="281.3862" y="-207.8" font-family="Helvetica,sans-Serif" font-size="11.00" fill="#000000"> &#160;</text>
</a>
</g>
</g>
<!-- lrs_node&#45;&gt;estradas -->
<g id="edge7" class="edge">
<title>lrs_node:w&#45;&gt;estradas:e</title>
<path fill="none" stroke="#000000" d="M190.7699,-230.5612C164.3644,-233.9788 152.492,-247.6821 134,-273.7 85.4902,-341.9525 177.2353,-457.7 93.5,-457.7"/>
<polygon fill="#000000" stroke="#000000" points="197.5136,-230.167 205.7101,-233.2939 201.5068,-229.9335 205.5,-229.7 205.5,-229.7 205.5,-229.7 201.5068,-229.9335 205.2899,-226.1061 197.5136,-230.167 197.5136,-230.167"/>
<ellipse fill="none" stroke="#000000" cx="194.3191" cy="-230.3538" rx="3.2" ry="3.2"/>
</g>
<!-- lrs_node&#45;&gt;estado -->
<g id="edge6" class="edge">
<title>lrs_node:w&#45;&gt;estado:e</title>
<path fill="none" stroke="#000000" d="M190.8867,-229.9019C150.869,-231.0497 135.9037,-236.7 89.5,-236.7"/>
<polygon fill="#000000" stroke="#000000" points="197.5008,-229.8106 205.5498,-233.2997 201.5004,-229.7553 205.5,-229.7 205.5,-229.7 205.5,-229.7 201.5004,-229.7553 205.4502,-226.1003 197.5008,-229.8106 197.5008,-229.8106"/>
<ellipse fill="none" stroke="#000000" cx="194.3011" cy="-229.8548" rx="3.2" ry="3.2"/>
</g>
<!-- lrs_node&#45;&gt;lado -->
<g id="edge8" class="edge">
<title>lrs_node:w&#45;&gt;lado:e</title>
<path fill="none" stroke="#000000" d="M190.8252,-228.7018C166.5862,-225.0378 157.202,-211.5039 134,-191.7 109.0181,-170.3769 122.3446,-132.7 89.5,-132.7"/>
<polygon fill="#000000" stroke="#000000" points="197.5184,-229.157 205.2557,-233.2917 201.5092,-229.4285 205.5,-229.7 205.5,-229.7 205.5,-229.7 201.5092,-229.4285 205.7443,-226.1083 197.5184,-229.157 197.5184,-229.157"/>
<ellipse fill="none" stroke="#000000" cx="194.3258" cy="-228.9398" rx="3.2" ry="3.2"/>
</g>
<!-- patologias -->
<g id="node8" class="node">
<title>patologias</title>
<g id="a_node8"><a xlink:href="../../tables/patologias.html" xlink:title="patologias" target="_top">
<polygon fill="#ffffff" stroke="transparent" points="201,-632.2 201,-693.2 294,-693.2 294,-632.2 201,-632.2"/>
<polygon fill="#f5f5f5" stroke="transparent" points="201.5,-669.7 201.5,-692.7 294.5,-692.7 294.5,-669.7 201.5,-669.7"/>
<polygon fill="none" stroke="#000000" points="201.5,-669.7 201.5,-692.7 294.5,-692.7 294.5,-669.7 201.5,-669.7"/>
<text text-anchor="start" x="206.436" y="-678.8" font-family="Helvetica,sans-Serif" font-weight="bold" font-size="11.00" fill="#000000">patologias</text>
<text text-anchor="start" x="260.0219" y="-677.8" font-family="Helvetica,sans-Serif" font-size="11.00" fill="#000000">[table]</text>
<polygon fill="none" stroke="#000000" points="201.5,-650.7 201.5,-669.7 294.5,-669.7 294.5,-650.7 201.5,-650.7"/>
<text text-anchor="start" x="204.5" y="-656.8" font-family="Helvetica,sans-Serif" font-size="11.00" fill="#000000">...</text>
<polygon fill="#ffffff" stroke="transparent" points="201.5,-631.7 201.5,-650.7 233.5,-650.7 233.5,-631.7 201.5,-631.7"/>
<polygon fill="none" stroke="#000000" points="201.5,-631.7 201.5,-650.7 233.5,-650.7 233.5,-631.7 201.5,-631.7"/>
<text text-anchor="start" x="204.5" y="-637.8" font-family="Helvetica,sans-Serif" font-size="11.00" fill="#000000">&lt; 2</text>
<polygon fill="#ffffff" stroke="transparent" points="233.5,-631.7 233.5,-650.7 276.5,-650.7 276.5,-631.7 233.5,-631.7"/>
<polygon fill="none" stroke="#000000" points="233.5,-631.7 233.5,-650.7 276.5,-650.7 276.5,-631.7 233.5,-631.7"/>
<text text-anchor="start" x="241.1105" y="-637.8" font-family="Helvetica,sans-Serif" font-size="11.00" fill="#000000">0 rows</text>
<polygon fill="#ffffff" stroke="transparent" points="276.5,-631.7 276.5,-650.7 294.5,-650.7 294.5,-631.7 276.5,-631.7"/>
<polygon fill="none" stroke="#000000" points="276.5,-631.7 276.5,-650.7 294.5,-650.7 294.5,-631.7 276.5,-631.7"/>
<text text-anchor="start" x="285.3862" y="-637.8" font-family="Helvetica,sans-Serif" font-size="11.00" fill="#000000"> &#160;</text>
</a>
</g>
</g>
<!-- patologias&#45;&gt;estradas -->
<g id="edge9" class="edge">
<title>patologias:w&#45;&gt;estradas:e</title>
<path fill="none" stroke="#000000" d="M186.8701,-658.9003C163.0391,-655.9787 151.5813,-644.8232 134,-621.7 88.5586,-561.9349 168.5786,-457.7 93.5,-457.7"/>
<polygon fill="#000000" stroke="#000000" points="193.5119,-659.2633 201.3035,-663.2946 197.506,-659.4817 201.5,-659.7 201.5,-659.7 201.5,-659.7 197.506,-659.4817 201.6965,-656.1054 193.5119,-659.2633 193.5119,-659.2633"/>
<ellipse fill="none" stroke="#000000" cx="190.3167" cy="-659.0886" rx="3.2" ry="3.2"/>
</g>
<!-- rails -->
<g id="node9" class="node">
<title>rails</title>
<g id="a_node9"><a xlink:href="../../tables/rails.html" xlink:title="rails" target="_top">
<polygon fill="#ffffff" stroke="transparent" points="212,-120.2 212,-181.2 283,-181.2 283,-120.2 212,-120.2"/>
<polygon fill="#f5f5f5" stroke="transparent" points="212.5,-157.7 212.5,-180.7 283.5,-180.7 283.5,-157.7 212.5,-157.7"/>
<polygon fill="none" stroke="#000000" points="212.5,-157.7 212.5,-180.7 283.5,-180.7 283.5,-157.7 212.5,-157.7"/>
<text text-anchor="start" x="217.5" y="-166.8" font-family="Helvetica,sans-Serif" font-weight="bold" font-size="11.00" fill="#000000">rails</text>
<text text-anchor="start" x="248.5437" y="-165.8" font-family="Helvetica,sans-Serif" font-size="11.00" fill="#000000">[table]</text>
<polygon fill="none" stroke="#000000" points="212.5,-138.7 212.5,-157.7 283.5,-157.7 283.5,-138.7 212.5,-138.7"/>
<text text-anchor="start" x="215.5" y="-144.8" font-family="Helvetica,sans-Serif" font-size="11.00" fill="#000000">...</text>
<polygon fill="#ffffff" stroke="transparent" points="212.5,-119.7 212.5,-138.7 233.5,-138.7 233.5,-119.7 212.5,-119.7"/>
<polygon fill="none" stroke="#000000" points="212.5,-119.7 212.5,-138.7 233.5,-138.7 233.5,-119.7 212.5,-119.7"/>
<text text-anchor="start" x="215.2027" y="-125.8" font-family="Helvetica,sans-Serif" font-size="11.00" fill="#000000">&lt; 3</text>
<polygon fill="#ffffff" stroke="transparent" points="233.5,-119.7 233.5,-138.7 271.5,-138.7 271.5,-119.7 233.5,-119.7"/>
<polygon fill="none" stroke="#000000" points="233.5,-119.7 233.5,-138.7 271.5,-138.7 271.5,-119.7 233.5,-119.7"/>
<text text-anchor="start" x="236.3053" y="-125.8" font-family="Helvetica,sans-Serif" font-size="11.00" fill="#000000">0 rows</text>
<polygon fill="#ffffff" stroke="transparent" points="271.5,-119.7 271.5,-138.7 283.5,-138.7 283.5,-119.7 271.5,-119.7"/>
<polygon fill="none" stroke="#000000" points="271.5,-119.7 271.5,-138.7 283.5,-138.7 283.5,-119.7 271.5,-119.7"/>
<text text-anchor="start" x="274.4431" y="-125.8" font-family="Helvetica,sans-Serif" font-size="11.00" fill="#000000"> &#160;</text>
</a>
</g>
</g>
<!-- rails&#45;&gt;estradas -->
<g id="edge11" class="edge">
<title>rails:w&#45;&gt;estradas:e</title>
<path fill="none" stroke="#000000" d="M197.7745,-148.3131C168.1996,-151.0364 153.7413,-163.1826 134,-191.7 99.9674,-240.862 153.2923,-457.7 93.5,-457.7"/>
<polygon fill="#000000" stroke="#000000" points="204.5069,-148.0329 212.6498,-151.2969 208.5035,-147.8664 212.5,-147.7 212.5,-147.7 212.5,-147.7 208.5035,-147.8664 212.3502,-144.1031 204.5069,-148.0329 204.5069,-148.0329"/>
<ellipse fill="none" stroke="#000000" cx="201.3097" cy="-148.166" rx="3.2" ry="3.2"/>
</g>
<!-- rails&#45;&gt;estado -->
<g id="edge10" class="edge">
<title>rails:w&#45;&gt;estado:e</title>
<path fill="none" stroke="#000000" d="M197.814,-148.7693C170.2061,-153.1882 161.4673,-170.7788 134,-191.7 111.6239,-208.7433 117.6276,-236.7 89.5,-236.7"/>
<polygon fill="#000000" stroke="#000000" points="204.5211,-148.281 212.7614,-151.2905 208.5106,-147.9905 212.5,-147.7 212.5,-147.7 212.5,-147.7 208.5106,-147.9905 212.2386,-144.1095 204.5211,-148.281 204.5211,-148.281"/>
<ellipse fill="none" stroke="#000000" cx="201.3296" cy="-148.5134" rx="3.2" ry="3.2"/>
</g>
<!-- rails&#45;&gt;lado -->
<g id="edge12" class="edge">
<title>rails:w&#45;&gt;lado:e</title>
<path fill="none" stroke="#000000" d="M198.0546,-147.3292C154.6467,-145.0193 139.4087,-132.7 89.5,-132.7"/>
<polygon fill="#000000" stroke="#000000" points="204.5026,-147.4947 212.4076,-151.2988 208.5013,-147.5973 212.5,-147.7 212.5,-147.7 212.5,-147.7 208.5013,-147.5973 212.5924,-144.1012 204.5026,-147.4947 204.5026,-147.4947"/>
<ellipse fill="none" stroke="#000000" cx="201.3037" cy="-147.4125" rx="3.2" ry="3.2"/>
</g>
<!-- trocos -->
<g id="node10" class="node">
<title>trocos</title>
<g id="a_node10"><a xlink:href="../../tables/trocos.html" xlink:title="trocos" target="_top">
<polygon fill="#ffffff" stroke="transparent" points="207.5,-550.2 207.5,-611.2 287.5,-611.2 287.5,-550.2 207.5,-550.2"/>
<polygon fill="#f5f5f5" stroke="transparent" points="207.5,-587.7 207.5,-610.7 287.5,-610.7 287.5,-587.7 207.5,-587.7"/>
<polygon fill="none" stroke="#000000" points="207.5,-587.7 207.5,-610.7 287.5,-610.7 287.5,-587.7 207.5,-587.7"/>
<text text-anchor="start" x="212.5" y="-596.8" font-family="Helvetica,sans-Serif" font-weight="bold" font-size="11.00" fill="#000000">trocos</text>
<text text-anchor="start" x="252.5437" y="-595.8" font-family="Helvetica,sans-Serif" font-size="11.00" fill="#000000">[table]</text>
<polygon fill="none" stroke="#000000" points="207.5,-568.7 207.5,-587.7 287.5,-587.7 287.5,-568.7 207.5,-568.7"/>
<text text-anchor="start" x="210.5" y="-574.8" font-family="Helvetica,sans-Serif" font-size="11.00" fill="#000000">...</text>
<polygon fill="#ffffff" stroke="transparent" points="207.5,-549.7 207.5,-568.7 228.5,-568.7 228.5,-549.7 207.5,-549.7"/>
<polygon fill="none" stroke="#000000" points="207.5,-549.7 207.5,-568.7 228.5,-568.7 228.5,-549.7 207.5,-549.7"/>
<text text-anchor="start" x="210.2027" y="-555.8" font-family="Helvetica,sans-Serif" font-size="11.00" fill="#000000">&lt; 2</text>
<polygon fill="#ffffff" stroke="transparent" points="228.5,-549.7 228.5,-568.7 266.5,-568.7 266.5,-549.7 228.5,-549.7"/>
<polygon fill="none" stroke="#000000" points="228.5,-549.7 228.5,-568.7 266.5,-568.7 266.5,-549.7 228.5,-549.7"/>
<text text-anchor="start" x="231.3053" y="-555.8" font-family="Helvetica,sans-Serif" font-size="11.00" fill="#000000">0 rows</text>
<polygon fill="#ffffff" stroke="transparent" points="266.5,-549.7 266.5,-568.7 287.5,-568.7 287.5,-549.7 266.5,-549.7"/>
<polygon fill="none" stroke="#000000" points="266.5,-549.7 266.5,-568.7 287.5,-568.7 287.5,-549.7 266.5,-549.7"/>
<text text-anchor="start" x="269.2027" y="-555.8" font-family="Helvetica,sans-Serif" font-size="11.00" fill="#000000">1 &gt;</text>
</a>
</g>
</g>
<!-- trocos&#45;&gt;estradas -->
<g id="edge13" class="edge">
<title>trocos:w&#45;&gt;estradas:e</title>
<path fill="none" stroke="#000000" d="M193.0499,-576.9549C167.2477,-573.9985 156.0394,-562.1488 134,-539.7 105.5237,-510.6948 134.1472,-457.7 93.5,-457.7"/>
<polygon fill="#000000" stroke="#000000" points="199.5106,-577.288 207.3146,-581.2952 203.5053,-577.494 207.5,-577.7 207.5,-577.7 207.5,-577.7 203.5053,-577.494 207.6854,-574.1048 199.5106,-577.288 199.5106,-577.288"/>
<ellipse fill="none" stroke="#000000" cx="196.3149" cy="-577.1232" rx="3.2" ry="3.2"/>
</g>
<!-- valetas -->
<g id="node11" class="node">
<title>valetas</title>
<g id="a_node11"><a xlink:href="../../tables/valetas.html" xlink:title="valetas" target="_top">
<polygon fill="#ffffff" stroke="transparent" points="209,-38.2 209,-99.2 286,-99.2 286,-38.2 209,-38.2"/>
<polygon fill="#f5f5f5" stroke="transparent" points="209.5,-75.7 209.5,-98.7 286.5,-98.7 286.5,-75.7 209.5,-75.7"/>
<polygon fill="none" stroke="#000000" points="209.5,-75.7 209.5,-98.7 286.5,-98.7 286.5,-75.7 209.5,-75.7"/>
<text text-anchor="start" x="214.0788" y="-84.8" font-family="Helvetica,sans-Serif" font-weight="bold" font-size="11.00" fill="#000000">valetas</text>
<text text-anchor="start" x="252.0219" y="-83.8" font-family="Helvetica,sans-Serif" font-size="11.00" fill="#000000">[table]</text>
<polygon fill="none" stroke="#000000" points="209.5,-56.7 209.5,-75.7 286.5,-75.7 286.5,-56.7 209.5,-56.7"/>
<text text-anchor="start" x="212.5" y="-62.8" font-family="Helvetica,sans-Serif" font-size="11.00" fill="#000000">...</text>
<polygon fill="#ffffff" stroke="transparent" points="209.5,-37.7 209.5,-56.7 233.5,-56.7 233.5,-37.7 209.5,-37.7"/>
<polygon fill="none" stroke="#000000" points="209.5,-37.7 209.5,-56.7 233.5,-56.7 233.5,-37.7 209.5,-37.7"/>
<text text-anchor="start" x="212.5" y="-43.8" font-family="Helvetica,sans-Serif" font-size="11.00" fill="#000000">&lt; 4</text>
<polygon fill="#ffffff" stroke="transparent" points="233.5,-37.7 233.5,-56.7 272.5,-56.7 272.5,-37.7 233.5,-37.7"/>
<polygon fill="none" stroke="#000000" points="233.5,-37.7 233.5,-56.7 272.5,-56.7 272.5,-37.7 233.5,-37.7"/>
<text text-anchor="start" x="237.1105" y="-43.8" font-family="Helvetica,sans-Serif" font-size="11.00" fill="#000000">0 rows</text>
<polygon fill="#ffffff" stroke="transparent" points="272.5,-37.7 272.5,-56.7 286.5,-56.7 286.5,-37.7 272.5,-37.7"/>
<polygon fill="none" stroke="#000000" points="272.5,-37.7 272.5,-56.7 286.5,-56.7 286.5,-37.7 272.5,-37.7"/>
<text text-anchor="start" x="277.3862" y="-43.8" font-family="Helvetica,sans-Serif" font-size="11.00" fill="#000000"> &#160;</text>
</a>
</g>
</g>
<!-- valetas&#45;&gt;estradas -->
<g id="edge15" class="edge">
<title>valetas:w&#45;&gt;estradas:e</title>
<path fill="none" stroke="#000000" d="M194.8083,-66.3682C166.3345,-69.2323 152.3297,-81.6258 134,-109.7 91.4368,-174.8906 171.3553,-457.7 93.5,-457.7"/>
<polygon fill="#000000" stroke="#000000" points="201.5083,-66.0635 209.6636,-69.2963 205.5041,-65.8818 209.5,-65.7 209.5,-65.7 209.5,-65.7 205.5041,-65.8818 209.3364,-62.1037 201.5083,-66.0635 201.5083,-66.0635"/>
<ellipse fill="none" stroke="#000000" cx="198.3116" cy="-66.2089" rx="3.2" ry="3.2"/>
</g>
<!-- valetas&#45;&gt;estado -->
<g id="edge14" class="edge">
<title>valetas:w&#45;&gt;estado:e</title>
<path fill="none" stroke="#000000" d="M194.9774,-66.4925C167.1587,-69.8386 155.344,-83.8432 134,-109.7 95.9256,-155.8245 149.3092,-236.7 89.5,-236.7"/>
<polygon fill="#000000" stroke="#000000" points="201.5119,-66.136 209.6962,-69.2947 205.5059,-65.918 209.5,-65.7 209.5,-65.7 209.5,-65.7 205.5059,-65.918 209.3038,-62.1053 201.5119,-66.136 201.5119,-66.136"/>
<ellipse fill="none" stroke="#000000" cx="198.3166" cy="-66.3104" rx="3.2" ry="3.2"/>
</g>
<!-- valetas&#45;&gt;lado -->
<g id="edge16" class="edge">
<title>valetas:w&#45;&gt;lado:e</title>
<path fill="none" stroke="#000000" d="M195.8046,-70.9574C165.6694,-86.752 102.1461,-132.7 89.5,-132.7"/>
<polygon fill="#000000" stroke="#000000" points="202.0314,-68.5671 210.7902,-69.0609 205.7657,-67.1335 209.5,-65.7 209.5,-65.7 209.5,-65.7 205.7657,-67.1335 208.2098,-62.3391 202.0314,-68.5671 202.0314,-68.5671"/>
<ellipse fill="none" stroke="#000000" cx="199.0439" cy="-69.7139" rx="3.2" ry="3.2"/>
</g>
</g>
</svg>
