<?xml version="1.0" encoding="UTF-8" standalone="no"?>
<!DOCTYPE svg PUBLIC "-//W3C//DTD SVG 1.1//EN"
 "http://www.w3.org/Graphics/SVG/1.1/DTD/svg11.dtd">
<!-- Generated by graphviz version 2.40.1 (20161225.0304)
 -->
<!-- Title: twoDegreesRelationshipsDiagram Pages: 1 -->
<svg width="383pt" height="787pt"
 viewBox="0.00 0.00 383.00 787.20" xmlns="http://www.w3.org/2000/svg" xmlns:xlink="http://www.w3.org/1999/xlink">
<g id="graph0" class="graph" transform="scale(1 1) rotate(0) translate(4 783.2)">
<title>twoDegreesRelationshipsDiagram</title>
<polygon fill="#ffffff" stroke="transparent" points="-4,4 -4,-783.2 379,-783.2 379,4 -4,4"/>
<text text-anchor="middle" x="72.4936" y="-7.3" font-family="Helvetica,sans-Serif" font-size="11.00" fill="#000000">Generated by SchemaSpy</text>
<!-- caract -->
<g id="node1" class="node">
<title>caract</title>
<g id="a_node1"><a xlink:href="../../tables/caract.html" xlink:title="caract" target="_top">
<polygon fill="#ffffff" stroke="transparent" points="221.5,-714.2 221.5,-775.2 293.5,-775.2 293.5,-714.2 221.5,-714.2"/>
<polygon fill="#f5f5f5" stroke="transparent" points="221.5,-751.7 221.5,-774.7 293.5,-774.7 293.5,-751.7 221.5,-751.7"/>
<polygon fill="none" stroke="#000000" points="221.5,-751.7 221.5,-774.7 293.5,-774.7 293.5,-751.7 221.5,-751.7"/>
<text text-anchor="start" x="226.0257" y="-760.8" font-family="Helvetica,sans-Serif" font-weight="bold" font-size="11.00" fill="#000000">caract</text>
<text text-anchor="start" x="259.0219" y="-759.8" font-family="Helvetica,sans-Serif" font-size="11.00" fill="#000000">[table]</text>
<polygon fill="none" stroke="#000000" points="221.5,-732.7 221.5,-751.7 293.5,-751.7 293.5,-732.7 221.5,-732.7"/>
<text text-anchor="start" x="224.5" y="-738.8" font-family="Helvetica,sans-Serif" font-size="11.00" fill="#000000">...</text>
<polygon fill="#ffffff" stroke="transparent" points="221.5,-713.7 221.5,-732.7 242.5,-732.7 242.5,-713.7 221.5,-713.7"/>
<polygon fill="none" stroke="#000000" points="221.5,-713.7 221.5,-732.7 242.5,-732.7 242.5,-713.7 221.5,-713.7"/>
<text text-anchor="start" x="224.2027" y="-719.8" font-family="Helvetica,sans-Serif" font-size="11.00" fill="#000000">&lt; 1</text>
<polygon fill="#ffffff" stroke="transparent" points="242.5,-713.7 242.5,-732.7 280.5,-732.7 280.5,-713.7 242.5,-713.7"/>
<polygon fill="none" stroke="#000000" points="242.5,-713.7 242.5,-732.7 280.5,-732.7 280.5,-713.7 242.5,-713.7"/>
<text text-anchor="start" x="245.3053" y="-719.8" font-family="Helvetica,sans-Serif" font-size="11.00" fill="#000000">0 rows</text>
<polygon fill="#ffffff" stroke="transparent" points="280.5,-713.7 280.5,-732.7 293.5,-732.7 293.5,-713.7 280.5,-713.7"/>
<polygon fill="none" stroke="#000000" points="280.5,-713.7 280.5,-732.7 293.5,-732.7 293.5,-713.7 280.5,-713.7"/>
<text text-anchor="start" x="284.3862" y="-719.8" font-family="Helvetica,sans-Serif" font-size="11.00" fill="#000000"> &#160;</text>
</a>
</g>
</g>
<!-- estradas -->
<g id="node2" class="node">
<title>estradas</title>
<g id="a_node2"><a xlink:href="../../tables/estradas.html" xlink:title="estradas" target="_top">
<polygon fill="#ffffff" stroke="transparent" points="11,-409.2 11,-492.2 96,-492.2 96,-409.2 11,-409.2"/>
<polygon fill="#f5f5f5" stroke="transparent" points="11.5,-468.7 11.5,-491.7 96.5,-491.7 96.5,-468.7 11.5,-468.7"/>
<polygon fill="none" stroke="#000000" points="11.5,-468.7 11.5,-491.7 96.5,-491.7 96.5,-468.7 11.5,-468.7"/>
<text text-anchor="start" x="16.4108" y="-477.8" font-family="Helvetica,sans-Serif" font-weight="bold" font-size="11.00" fill="#000000">estradas</text>
<text text-anchor="start" x="62.0219" y="-476.8" font-family="Helvetica,sans-Serif" font-size="11.00" fill="#000000">[table]</text>
<polygon fill="none" stroke="#000000" points="11.5,-446.7 11.5,-468.7 96.5,-468.7 96.5,-446.7 11.5,-446.7"/>
<image xlink:href="../../images/primaryKeys.png" width="11px" height="12px" preserveAspectRatio="xMinYMin meet" x="16.5" y="-463.7"/>
<text text-anchor="start" x="38.5" y="-453.8" font-family="Helvetica,sans-Serif" font-size="11.00" fill="#000000">id</text>
<polygon fill="none" stroke="#000000" points="11.5,-427.7 11.5,-446.7 96.5,-446.7 96.5,-427.7 11.5,-427.7"/>
<text text-anchor="start" x="14.5" y="-433.8" font-family="Helvetica,sans-Serif" font-size="11.00" fill="#000000">...</text>
<polygon fill="#ffffff" stroke="transparent" points="11.5,-408.7 11.5,-427.7 30.5,-427.7 30.5,-408.7 11.5,-408.7"/>
<polygon fill="none" stroke="#000000" points="11.5,-408.7 11.5,-427.7 30.5,-427.7 30.5,-408.7 11.5,-408.7"/>
<text text-anchor="start" x="14.5" y="-414.8" font-family="Helvetica,sans-Serif" font-size="11.00" fill="#000000"> &#160;</text>
<polygon fill="#ffffff" stroke="transparent" points="30.5,-408.7 30.5,-427.7 71.5,-427.7 71.5,-408.7 30.5,-408.7"/>
<polygon fill="none" stroke="#000000" points="30.5,-408.7 30.5,-427.7 71.5,-427.7 71.5,-408.7 30.5,-408.7"/>
<text text-anchor="start" x="36.1105" y="-414.8" font-family="Helvetica,sans-Serif" font-size="11.00" fill="#000000">0 rows</text>
<polygon fill="#ffffff" stroke="transparent" points="71.5,-408.7 71.5,-427.7 96.5,-427.7 96.5,-408.7 71.5,-408.7"/>
<polygon fill="none" stroke="#000000" points="71.5,-408.7 71.5,-427.7 96.5,-427.7 96.5,-408.7 71.5,-408.7"/>
<text text-anchor="start" x="77.9053" y="-414.8" font-family="Helvetica,sans-Serif" font-size="11.00" fill="#000000">7 &gt;</text>
</a>
</g>
</g>
<!-- caract&#45;&gt;estradas -->
<g id="edge1" class="edge">
<title>caract:w&#45;&gt;estradas:e</title>
<path fill="none" stroke="#000000" d="M210.8353,-741.5182C178.247,-740.2956 162.0565,-732.4288 140,-703.7 106.1931,-659.6661 152.0148,-457.7 96.5,-457.7"/>
<polygon fill="#000000" stroke="#000000" points="220.7683,-737.6869 220.6319,-745.6858 219.0321,-745.6585 219.1686,-737.6596 220.7683,-737.6869"/>
<polyline fill="none" stroke="#000000" points="221.5,-741.7 217.5006,-741.6318 "/>
<ellipse fill="none" stroke="#000000" cx="214.301" cy="-741.5772" rx="3.2" ry="3.2"/>
</g>
<!-- lrs_line -->
<g id="node3" class="node">
<title>lrs_line</title>
<g id="a_node3"><a xlink:href="../../tables/lrs_line.html" xlink:title="lrs_line" target="_top">
<polygon fill="#ffffff" stroke="transparent" points="219,-202.2 219,-263.2 296,-263.2 296,-202.2 219,-202.2"/>
<polygon fill="#f5f5f5" stroke="transparent" points="219.5,-239.7 219.5,-262.7 296.5,-262.7 296.5,-239.7 219.5,-239.7"/>
<polygon fill="none" stroke="#000000" points="219.5,-239.7 219.5,-262.7 296.5,-262.7 296.5,-239.7 219.5,-239.7"/>
<text text-anchor="start" x="224.0854" y="-248.8" font-family="Helvetica,sans-Serif" font-weight="bold" font-size="11.00" fill="#000000">lrs_line</text>
<text text-anchor="start" x="262.0219" y="-247.8" font-family="Helvetica,sans-Serif" font-size="11.00" fill="#000000">[table]</text>
<polygon fill="none" stroke="#000000" points="219.5,-220.7 219.5,-239.7 296.5,-239.7 296.5,-220.7 219.5,-220.7"/>
<text text-anchor="start" x="222.5" y="-226.8" font-family="Helvetica,sans-Serif" font-size="11.00" fill="#000000">...</text>
<polygon fill="#ffffff" stroke="transparent" points="219.5,-201.7 219.5,-220.7 243.5,-220.7 243.5,-201.7 219.5,-201.7"/>
<polygon fill="none" stroke="#000000" points="219.5,-201.7 219.5,-220.7 243.5,-220.7 243.5,-201.7 219.5,-201.7"/>
<text text-anchor="start" x="222.5" y="-207.8" font-family="Helvetica,sans-Serif" font-size="11.00" fill="#000000">&lt; 4</text>
<polygon fill="#ffffff" stroke="transparent" points="243.5,-201.7 243.5,-220.7 282.5,-220.7 282.5,-201.7 243.5,-201.7"/>
<polygon fill="none" stroke="#000000" points="243.5,-201.7 243.5,-220.7 282.5,-220.7 282.5,-201.7 243.5,-201.7"/>
<text text-anchor="start" x="247.1105" y="-207.8" font-family="Helvetica,sans-Serif" font-size="11.00" fill="#000000">0 rows</text>
<polygon fill="#ffffff" stroke="transparent" points="282.5,-201.7 282.5,-220.7 296.5,-220.7 296.5,-201.7 282.5,-201.7"/>
<polygon fill="none" stroke="#000000" points="282.5,-201.7 282.5,-220.7 296.5,-220.7 296.5,-201.7 282.5,-201.7"/>
<text text-anchor="start" x="287.3862" y="-207.8" font-family="Helvetica,sans-Serif" font-size="11.00" fill="#000000"> &#160;</text>
</a>
</g>
</g>
<!-- lrs_line&#45;&gt;estradas -->
<g id="edge3" class="edge">
<title>lrs_line:w&#45;&gt;estradas:e</title>
<path fill="none" stroke="#000000" d="M205.0865,-230.3075C175.1609,-233.0856 161.2537,-245.6681 140,-273.7 89.2302,-340.6613 180.532,-457.7 96.5,-457.7"/>
<polygon fill="#000000" stroke="#000000" points="211.5071,-230.0369 219.6516,-233.2968 215.5035,-229.8685 219.5,-229.7 219.5,-229.7 219.5,-229.7 215.5035,-229.8685 219.3484,-226.1032 211.5071,-230.0369 211.5071,-230.0369"/>
<ellipse fill="none" stroke="#000000" cx="208.3099" cy="-230.1717" rx="3.2" ry="3.2"/>
</g>
<!-- estado -->
<g id="node4" class="node">
<title>estado</title>
<g id="a_node4"><a xlink:href="../../tables/estado.html" xlink:title="estado" target="_top">
<polygon fill="#ffffff" stroke="transparent" points="15,-188.2 15,-271.2 92,-271.2 92,-188.2 15,-188.2"/>
<polygon fill="#f5f5f5" stroke="transparent" points="15.5,-247.7 15.5,-270.7 92.5,-270.7 92.5,-247.7 15.5,-247.7"/>
<polygon fill="none" stroke="#000000" points="15.5,-247.7 15.5,-270.7 92.5,-270.7 92.5,-247.7 15.5,-247.7"/>
<text text-anchor="start" x="20.5" y="-256.8" font-family="Helvetica,sans-Serif" font-weight="bold" font-size="11.00" fill="#000000">estado</text>
<text text-anchor="start" x="58.0219" y="-255.8" font-family="Helvetica,sans-Serif" font-size="11.00" fill="#000000">[table]</text>
<polygon fill="none" stroke="#000000" points="15.5,-225.7 15.5,-247.7 92.5,-247.7 92.5,-225.7 15.5,-225.7"/>
<image xlink:href="../../images/primaryKeys.png" width="11px" height="12px" preserveAspectRatio="xMinYMin meet" x="20.5" y="-242.7"/>
<text text-anchor="start" x="35.5" y="-232.8" font-family="Helvetica,sans-Serif" font-size="11.00" fill="#000000">id</text>
<polygon fill="none" stroke="#000000" points="15.5,-206.7 15.5,-225.7 92.5,-225.7 92.5,-206.7 15.5,-206.7"/>
<text text-anchor="start" x="18.5" y="-212.8" font-family="Helvetica,sans-Serif" font-size="11.00" fill="#000000">...</text>
<polygon fill="#ffffff" stroke="transparent" points="15.5,-187.7 15.5,-206.7 30.5,-206.7 30.5,-187.7 15.5,-187.7"/>
<polygon fill="none" stroke="#000000" points="15.5,-187.7 15.5,-206.7 30.5,-206.7 30.5,-187.7 15.5,-187.7"/>
<text text-anchor="start" x="18.5" y="-193.8" font-family="Helvetica,sans-Serif" font-size="11.00" fill="#000000"> &#160;</text>
<polygon fill="#ffffff" stroke="transparent" points="30.5,-187.7 30.5,-206.7 69.5,-206.7 69.5,-187.7 30.5,-187.7"/>
<polygon fill="none" stroke="#000000" points="30.5,-187.7 30.5,-206.7 69.5,-206.7 69.5,-187.7 30.5,-187.7"/>
<text text-anchor="start" x="34.1105" y="-193.8" font-family="Helvetica,sans-Serif" font-size="11.00" fill="#000000">0 rows</text>
<polygon fill="#ffffff" stroke="transparent" points="69.5,-187.7 69.5,-206.7 92.5,-206.7 92.5,-187.7 69.5,-187.7"/>
<polygon fill="none" stroke="#000000" points="69.5,-187.7 69.5,-206.7 92.5,-206.7 92.5,-187.7 69.5,-187.7"/>
<text text-anchor="start" x="73.9053" y="-193.8" font-family="Helvetica,sans-Serif" font-size="11.00" fill="#000000">4 &gt;</text>
</a>
</g>
</g>
<!-- lrs_line&#45;&gt;estado -->
<g id="edge2" class="edge">
<title>lrs_line:w&#45;&gt;estado:e</title>
<path fill="none" stroke="#000000" d="M204.9429,-229.8661C160.0517,-230.9262 143.8408,-236.7 92.5,-236.7"/>
<polygon fill="#000000" stroke="#000000" points="211.5005,-229.7913 219.5411,-233.2998 215.5003,-229.7457 219.5,-229.7 219.5,-229.7 219.5,-229.7 215.5003,-229.7457 219.4589,-226.1002 211.5005,-229.7913 211.5005,-229.7913"/>
<ellipse fill="none" stroke="#000000" cx="208.3007" cy="-229.8279" rx="3.2" ry="3.2"/>
</g>
<!-- lado -->
<g id="node5" class="node">
<title>lado</title>
<g id="a_node5"><a xlink:href="../../tables/lado.html" xlink:title="lado" target="_top">
<polygon fill="#ffffff" stroke="transparent" points="15,-84.2 15,-167.2 92,-167.2 92,-84.2 15,-84.2"/>
<polygon fill="#f5f5f5" stroke="transparent" points="15.5,-143.7 15.5,-166.7 92.5,-166.7 92.5,-143.7 15.5,-143.7"/>
<polygon fill="none" stroke="#000000" points="15.5,-143.7 15.5,-166.7 92.5,-166.7 92.5,-143.7 15.5,-143.7"/>
<text text-anchor="start" x="20.5" y="-152.8" font-family="Helvetica,sans-Serif" font-weight="bold" font-size="11.00" fill="#000000">lado</text>
<text text-anchor="start" x="57.5437" y="-151.8" font-family="Helvetica,sans-Serif" font-size="11.00" fill="#000000">[table]</text>
<polygon fill="none" stroke="#000000" points="15.5,-121.7 15.5,-143.7 92.5,-143.7 92.5,-121.7 15.5,-121.7"/>
<image xlink:href="../../images/primaryKeys.png" width="11px" height="12px" preserveAspectRatio="xMinYMin meet" x="20.5" y="-138.7"/>
<text text-anchor="start" x="35.5" y="-128.8" font-family="Helvetica,sans-Serif" font-size="11.00" fill="#000000">id</text>
<polygon fill="none" stroke="#000000" points="15.5,-102.7 15.5,-121.7 92.5,-121.7 92.5,-102.7 15.5,-102.7"/>
<text text-anchor="start" x="18.5" y="-108.8" font-family="Helvetica,sans-Serif" font-size="11.00" fill="#000000">...</text>
<polygon fill="#ffffff" stroke="transparent" points="15.5,-83.7 15.5,-102.7 30.5,-102.7 30.5,-83.7 15.5,-83.7"/>
<polygon fill="none" stroke="#000000" points="15.5,-83.7 15.5,-102.7 30.5,-102.7 30.5,-83.7 15.5,-83.7"/>
<text text-anchor="start" x="18.5" y="-89.8" font-family="Helvetica,sans-Serif" font-size="11.00" fill="#000000"> &#160;</text>
<polygon fill="#ffffff" stroke="transparent" points="30.5,-83.7 30.5,-102.7 69.5,-102.7 69.5,-83.7 30.5,-83.7"/>
<polygon fill="none" stroke="#000000" points="30.5,-83.7 30.5,-102.7 69.5,-102.7 69.5,-83.7 30.5,-83.7"/>
<text text-anchor="start" x="34.1105" y="-89.8" font-family="Helvetica,sans-Serif" font-size="11.00" fill="#000000">0 rows</text>
<polygon fill="#ffffff" stroke="transparent" points="69.5,-83.7 69.5,-102.7 92.5,-102.7 92.5,-83.7 69.5,-83.7"/>
<polygon fill="none" stroke="#000000" points="69.5,-83.7 69.5,-102.7 92.5,-102.7 92.5,-83.7 69.5,-83.7"/>
<text text-anchor="start" x="73.9053" y="-89.8" font-family="Helvetica,sans-Serif" font-size="11.00" fill="#000000">4 &gt;</text>
</a>
</g>
</g>
<!-- lrs_line&#45;&gt;lado -->
<g id="edge4" class="edge">
<title>lrs_line:w&#45;&gt;lado:e</title>
<path fill="none" stroke="#000000" d="M204.9642,-228.9398C177.3112,-225.7561 166.5116,-212.679 140,-191.7 113.6011,-170.8102 126.1643,-132.7 92.5,-132.7"/>
<polygon fill="#000000" stroke="#000000" points="211.5109,-229.2821 219.3119,-233.2951 215.5055,-229.4911 219.5,-229.7 219.5,-229.7 219.5,-229.7 215.5055,-229.4911 219.6881,-226.1049 211.5109,-229.2821 211.5109,-229.2821"/>
<ellipse fill="none" stroke="#000000" cx="208.3153" cy="-229.1149" rx="3.2" ry="3.2"/>
</g>
<!-- lrs_node -->
<g id="node6" class="node">
<title>lrs_node</title>
<g id="a_node6"><a xlink:href="../../tables/lrs_node.html" xlink:title="lrs_node" target="_top">
<polygon fill="#ffffff" stroke="transparent" points="148,-284.7 148,-528.7 367,-528.7 367,-284.7 148,-284.7"/>
<polygon fill="#f5f5f5" stroke="transparent" points="150.5,-503.7 150.5,-526.7 365.5,-526.7 365.5,-503.7 150.5,-503.7"/>
<polygon fill="none" stroke="#000000" points="150.5,-503.7 150.5,-526.7 365.5,-526.7 365.5,-503.7 150.5,-503.7"/>
<text text-anchor="start" x="155.5" y="-512.8" font-family="Helvetica,sans-Serif" font-weight="bold" font-size="11.00" fill="#000000">lrs_node</text>
<text text-anchor="start" x="330.5437" y="-511.8" font-family="Helvetica,sans-Serif" font-size="11.00" fill="#000000">[table]</text>
<polygon fill="none" stroke="#000000" points="150.5,-481.7 150.5,-503.7 246.5,-503.7 246.5,-481.7 150.5,-481.7"/>
<image xlink:href="../../images/primaryKeys.png" width="11px" height="12px" preserveAspectRatio="xMinYMin meet" x="155.5" y="-498.7"/>
<text text-anchor="start" x="170.5" y="-488.8" font-family="Helvetica,sans-Serif" font-size="11.00" fill="#000000">id</text>
<polygon fill="none" stroke="#000000" points="246.5,-481.7 246.5,-503.7 365.5,-503.7 365.5,-481.7 246.5,-481.7"/>
<text text-anchor="start" x="249.5" y="-489.4" font-family="Helvetica,sans-Serif" font-size="11.00" fill="#000000">serial[10]</text>
<polygon fill="none" stroke="#000000" points="150.5,-459.7 150.5,-481.7 246.5,-481.7 246.5,-459.7 150.5,-459.7"/>
<text text-anchor="start" x="170.5" y="-466.8" font-family="Helvetica,sans-Serif" font-size="11.00" fill="#000000">geom</text>
<polygon fill="none" stroke="#000000" points="246.5,-459.7 246.5,-481.7 365.5,-481.7 365.5,-459.7 246.5,-459.7"/>
<text text-anchor="start" x="249.4485" y="-467.4" font-family="Helvetica,sans-Serif" font-size="11.00" fill="#000000">geometry[2147483647]</text>
<polygon fill="none" stroke="#000000" points="150.5,-437.7 150.5,-459.7 246.5,-459.7 246.5,-437.7 150.5,-437.7"/>
<text text-anchor="start" x="170.5" y="-444.8" font-family="Helvetica,sans-Serif" font-size="11.00" fill="#000000">medicao</text>
<polygon fill="none" stroke="#000000" points="246.5,-437.7 246.5,-459.7 365.5,-459.7 365.5,-437.7 246.5,-437.7"/>
<text text-anchor="start" x="249.5" y="-445.4" font-family="Helvetica,sans-Serif" font-size="11.00" fill="#000000">float8[17,17]</text>
<polygon fill="none" stroke="#000000" points="150.5,-415.7 150.5,-437.7 246.5,-437.7 246.5,-415.7 150.5,-415.7"/>
<text text-anchor="start" x="170.5" y="-422.8" font-family="Helvetica,sans-Serif" font-size="11.00" fill="#000000">dimensoes</text>
<polygon fill="none" stroke="#000000" points="246.5,-415.7 246.5,-437.7 365.5,-437.7 365.5,-415.7 246.5,-415.7"/>
<text text-anchor="start" x="249.5" y="-423.4" font-family="Helvetica,sans-Serif" font-size="11.00" fill="#000000">text[2147483647]</text>
<polygon fill="none" stroke="#000000" points="150.5,-393.7 150.5,-415.7 246.5,-415.7 246.5,-393.7 150.5,-393.7"/>
<text text-anchor="start" x="170.5" y="-400.8" font-family="Helvetica,sans-Serif" font-size="11.00" fill="#000000">obs</text>
<polygon fill="none" stroke="#000000" points="246.5,-393.7 246.5,-415.7 365.5,-415.7 365.5,-393.7 246.5,-393.7"/>
<text text-anchor="start" x="249.5" y="-401.4" font-family="Helvetica,sans-Serif" font-size="11.00" fill="#000000">text[2147483647]</text>
<polygon fill="none" stroke="#000000" points="150.5,-371.7 150.5,-393.7 246.5,-393.7 246.5,-371.7 150.5,-371.7"/>
<image xlink:href="../../images/foreignKeys.png" width="11px" height="12px" preserveAspectRatio="xMinYMin meet" x="155.5" y="-388.7"/>
<text text-anchor="start" x="170.5" y="-378.8" font-family="Helvetica,sans-Serif" font-size="11.00" fill="#000000">id_estradas</text>
<polygon fill="none" stroke="#000000" points="246.5,-371.7 246.5,-393.7 365.5,-393.7 365.5,-371.7 246.5,-371.7"/>
<text text-anchor="start" x="249.5" y="-379.4" font-family="Helvetica,sans-Serif" font-size="11.00" fill="#000000">int4[10]</text>
<polygon fill="none" stroke="#000000" points="150.5,-349.7 150.5,-371.7 246.5,-371.7 246.5,-349.7 150.5,-349.7"/>
<image xlink:href="../../images/foreignKeys.png" width="11px" height="12px" preserveAspectRatio="xMinYMin meet" x="155.5" y="-366.7"/>
<text text-anchor="start" x="170.5" y="-356.8" font-family="Helvetica,sans-Serif" font-size="11.00" fill="#000000">id_tipo_node</text>
<polygon fill="none" stroke="#000000" points="246.5,-349.7 246.5,-371.7 365.5,-371.7 365.5,-349.7 246.5,-349.7"/>
<text text-anchor="start" x="249.5" y="-357.4" font-family="Helvetica,sans-Serif" font-size="11.00" fill="#000000">int4[10]</text>
<polygon fill="none" stroke="#000000" points="150.5,-327.7 150.5,-349.7 246.5,-349.7 246.5,-327.7 150.5,-327.7"/>
<image xlink:href="../../images/foreignKeys.png" width="11px" height="12px" preserveAspectRatio="xMinYMin meet" x="155.5" y="-344.7"/>
<text text-anchor="start" x="170.5" y="-334.8" font-family="Helvetica,sans-Serif" font-size="11.00" fill="#000000">id_estado</text>
<polygon fill="none" stroke="#000000" points="246.5,-327.7 246.5,-349.7 365.5,-349.7 365.5,-327.7 246.5,-327.7"/>
<text text-anchor="start" x="249.5" y="-335.4" font-family="Helvetica,sans-Serif" font-size="11.00" fill="#000000">int4[10]</text>
<polygon fill="none" stroke="#000000" points="150.5,-305.7 150.5,-327.7 246.5,-327.7 246.5,-305.7 150.5,-305.7"/>
<image xlink:href="../../images/foreignKeys.png" width="11px" height="12px" preserveAspectRatio="xMinYMin meet" x="155.5" y="-322.7"/>
<text text-anchor="start" x="170.5" y="-312.8" font-family="Helvetica,sans-Serif" font-size="11.00" fill="#000000">id_lado</text>
<polygon fill="none" stroke="#000000" points="246.5,-305.7 246.5,-327.7 365.5,-327.7 365.5,-305.7 246.5,-305.7"/>
<text text-anchor="start" x="249.5" y="-313.4" font-family="Helvetica,sans-Serif" font-size="11.00" fill="#000000">int4[10]</text>
<polygon fill="#ffffff" stroke="transparent" points="150.5,-286.7 150.5,-305.7 189.5,-305.7 189.5,-286.7 150.5,-286.7"/>
<polygon fill="none" stroke="#000000" points="150.5,-286.7 150.5,-305.7 189.5,-305.7 189.5,-286.7 150.5,-286.7"/>
<text text-anchor="start" x="153.5" y="-292.8" font-family="Helvetica,sans-Serif" font-size="11.00" fill="#000000">&lt; 4</text>
<polygon fill="#ffffff" stroke="transparent" points="189.5,-286.7 189.5,-305.7 246.5,-305.7 246.5,-286.7 189.5,-286.7"/>
<polygon fill="none" stroke="#000000" points="189.5,-286.7 189.5,-305.7 246.5,-305.7 246.5,-286.7 189.5,-286.7"/>
<text text-anchor="start" x="211.1105" y="-292.8" font-family="Helvetica,sans-Serif" font-size="11.00" fill="#000000">0 rows</text>
<polygon fill="#ffffff" stroke="transparent" points="246.5,-286.7 246.5,-305.7 365.5,-305.7 365.5,-286.7 246.5,-286.7"/>
<polygon fill="none" stroke="#000000" points="246.5,-286.7 246.5,-305.7 365.5,-305.7 365.5,-286.7 246.5,-286.7"/>
<text text-anchor="start" x="346.9053" y="-292.8" font-family="Helvetica,sans-Serif" font-size="11.00" fill="#000000">0 &gt;</text>
<polygon fill="none" stroke="#000000" stroke-width="2" points="149,-285.7 149,-527.7 366,-527.7 366,-285.7 149,-285.7"/>
</a>
</g>
</g>
<!-- lrs_node&#45;&gt;estradas -->
<g id="edge6" class="edge">
<title>lrs_node:w&#45;&gt;estradas:e</title>
<path fill="none" stroke="#000000" d="M136.6105,-386.9472C116.1163,-402.813 131.6379,-457.7 96.5,-457.7"/>
<polygon fill="#000000" stroke="#000000" points="142.8497,-385.0394 151.5527,-386.1426 146.6748,-383.8697 150.5,-382.7 150.5,-382.7 150.5,-382.7 146.6748,-383.8697 149.4473,-379.2574 142.8497,-385.0394 142.8497,-385.0394"/>
<ellipse fill="none" stroke="#000000" cx="139.7895" cy="-385.9752" rx="3.2" ry="3.2"/>
</g>
<!-- lrs_node&#45;&gt;estado -->
<g id="edge5" class="edge">
<title>lrs_node:w&#45;&gt;estado:e</title>
<path fill="none" stroke="#000000" d="M136.2811,-335.0698C107.5766,-316.8996 138.7422,-236.7 92.5,-236.7"/>
<polygon fill="#000000" stroke="#000000" points="142.7486,-336.721 149.6094,-342.1881 146.6243,-337.7105 150.5,-338.7 150.5,-338.7 150.5,-338.7 146.6243,-337.7105 151.3906,-335.2119 142.7486,-336.721 142.7486,-336.721"/>
<ellipse fill="none" stroke="#000000" cx="139.6481" cy="-335.9293" rx="3.2" ry="3.2"/>
</g>
<!-- lrs_node&#45;&gt;lado -->
<g id="edge7" class="edge">
<title>lrs_node:w&#45;&gt;lado:e</title>
<path fill="none" stroke="#000000" d="M135.9372,-314.3736C78.9498,-293.0739 172.5504,-132.7 92.5,-132.7"/>
<polygon fill="#000000" stroke="#000000" points="142.6002,-315.4379 149.9321,-320.2549 146.5501,-316.069 150.5,-316.7 150.5,-316.7 150.5,-316.7 146.5501,-316.069 151.0679,-313.1451 142.6002,-315.4379 142.6002,-315.4379"/>
<ellipse fill="none" stroke="#000000" cx="139.4402" cy="-314.9331" rx="3.2" ry="3.2"/>
</g>
<!-- tipo_node -->
<g id="node7" class="node">
<title>tipo_node</title>
<g id="a_node7"><a xlink:href="../../tables/tipo_node.html" xlink:title="tipo_node" target="_top">
<polygon fill="#ffffff" stroke="transparent" points="8,-305.2 8,-388.2 99,-388.2 99,-305.2 8,-305.2"/>
<polygon fill="#f5f5f5" stroke="transparent" points="8.5,-364.7 8.5,-387.7 99.5,-387.7 99.5,-364.7 8.5,-364.7"/>
<polygon fill="none" stroke="#000000" points="8.5,-364.7 8.5,-387.7 99.5,-387.7 99.5,-364.7 8.5,-364.7"/>
<text text-anchor="start" x="13.349" y="-373.8" font-family="Helvetica,sans-Serif" font-weight="bold" font-size="11.00" fill="#000000">tipo_node</text>
<text text-anchor="start" x="65.0219" y="-372.8" font-family="Helvetica,sans-Serif" font-size="11.00" fill="#000000">[table]</text>
<polygon fill="none" stroke="#000000" points="8.5,-342.7 8.5,-364.7 99.5,-364.7 99.5,-342.7 8.5,-342.7"/>
<image xlink:href="../../images/primaryKeys.png" width="11px" height="12px" preserveAspectRatio="xMinYMin meet" x="13.5" y="-359.7"/>
<text text-anchor="start" x="34.5" y="-349.8" font-family="Helvetica,sans-Serif" font-size="11.00" fill="#000000">id</text>
<polygon fill="none" stroke="#000000" points="8.5,-323.7 8.5,-342.7 99.5,-342.7 99.5,-323.7 8.5,-323.7"/>
<text text-anchor="start" x="11.5" y="-329.8" font-family="Helvetica,sans-Serif" font-size="11.00" fill="#000000">...</text>
<polygon fill="#ffffff" stroke="transparent" points="8.5,-304.7 8.5,-323.7 30.5,-323.7 30.5,-304.7 8.5,-304.7"/>
<polygon fill="none" stroke="#000000" points="8.5,-304.7 8.5,-323.7 30.5,-323.7 30.5,-304.7 8.5,-304.7"/>
<text text-anchor="start" x="11.5" y="-310.8" font-family="Helvetica,sans-Serif" font-size="11.00" fill="#000000"> &#160;</text>
<polygon fill="#ffffff" stroke="transparent" points="30.5,-304.7 30.5,-323.7 73.5,-323.7 73.5,-304.7 30.5,-304.7"/>
<polygon fill="none" stroke="#000000" points="30.5,-304.7 30.5,-323.7 73.5,-323.7 73.5,-304.7 30.5,-304.7"/>
<text text-anchor="start" x="38.1105" y="-310.8" font-family="Helvetica,sans-Serif" font-size="11.00" fill="#000000">0 rows</text>
<polygon fill="#ffffff" stroke="transparent" points="73.5,-304.7 73.5,-323.7 99.5,-323.7 99.5,-304.7 73.5,-304.7"/>
<polygon fill="none" stroke="#000000" points="73.5,-304.7 73.5,-323.7 99.5,-323.7 99.5,-304.7 73.5,-304.7"/>
<text text-anchor="start" x="80.9053" y="-310.8" font-family="Helvetica,sans-Serif" font-size="11.00" fill="#000000">1 &gt;</text>
</a>
</g>
</g>
<!-- lrs_node&#45;&gt;tipo_node -->
<g id="edge8" class="edge">
<title>lrs_node:w&#45;&gt;tipo_node:e</title>
<path fill="none" stroke="#000000" d="M136.0965,-359.6063C123.8977,-357.6375 116.6594,-353.7 99.5,-353.7"/>
<polygon fill="#000000" stroke="#000000" points="142.523,-360.0942 150.2274,-364.2897 146.5115,-360.3971 150.5,-360.7 150.5,-360.7 150.5,-360.7 146.5115,-360.3971 150.7726,-357.1103 142.523,-360.0942 142.523,-360.0942"/>
<ellipse fill="none" stroke="#000000" cx="139.3322" cy="-359.8519" rx="3.2" ry="3.2"/>
</g>
<!-- patologias -->
<g id="node8" class="node">
<title>patologias</title>
<g id="a_node8"><a xlink:href="../../tables/patologias.html" xlink:title="patologias" target="_top">
<polygon fill="#ffffff" stroke="transparent" points="211,-632.2 211,-693.2 304,-693.2 304,-632.2 211,-632.2"/>
<polygon fill="#f5f5f5" stroke="transparent" points="211.5,-669.7 211.5,-692.7 304.5,-692.7 304.5,-669.7 211.5,-669.7"/>
<polygon fill="none" stroke="#000000" points="211.5,-669.7 211.5,-692.7 304.5,-692.7 304.5,-669.7 211.5,-669.7"/>
<text text-anchor="start" x="216.436" y="-678.8" font-family="Helvetica,sans-Serif" font-weight="bold" font-size="11.00" fill="#000000">patologias</text>
<text text-anchor="start" x="270.0219" y="-677.8" font-family="Helvetica,sans-Serif" font-size="11.00" fill="#000000">[table]</text>
<polygon fill="none" stroke="#000000" points="211.5,-650.7 211.5,-669.7 304.5,-669.7 304.5,-650.7 211.5,-650.7"/>
<text text-anchor="start" x="214.5" y="-656.8" font-family="Helvetica,sans-Serif" font-size="11.00" fill="#000000">...</text>
<polygon fill="#ffffff" stroke="transparent" points="211.5,-631.7 211.5,-650.7 243.5,-650.7 243.5,-631.7 211.5,-631.7"/>
<polygon fill="none" stroke="#000000" points="211.5,-631.7 211.5,-650.7 243.5,-650.7 243.5,-631.7 211.5,-631.7"/>
<text text-anchor="start" x="214.5" y="-637.8" font-family="Helvetica,sans-Serif" font-size="11.00" fill="#000000">&lt; 2</text>
<polygon fill="#ffffff" stroke="transparent" points="243.5,-631.7 243.5,-650.7 286.5,-650.7 286.5,-631.7 243.5,-631.7"/>
<polygon fill="none" stroke="#000000" points="243.5,-631.7 243.5,-650.7 286.5,-650.7 286.5,-631.7 243.5,-631.7"/>
<text text-anchor="start" x="251.1105" y="-637.8" font-family="Helvetica,sans-Serif" font-size="11.00" fill="#000000">0 rows</text>
<polygon fill="#ffffff" stroke="transparent" points="286.5,-631.7 286.5,-650.7 304.5,-650.7 304.5,-631.7 286.5,-631.7"/>
<polygon fill="none" stroke="#000000" points="286.5,-631.7 286.5,-650.7 304.5,-650.7 304.5,-631.7 286.5,-631.7"/>
<text text-anchor="start" x="295.3862" y="-637.8" font-family="Helvetica,sans-Serif" font-size="11.00" fill="#000000"> &#160;</text>
</a>
</g>
</g>
<!-- patologias&#45;&gt;estradas -->
<g id="edge9" class="edge">
<title>patologias:w&#45;&gt;estradas:e</title>
<path fill="none" stroke="#000000" d="M196.8796,-659.0235C171.4078,-656.3826 159.049,-645.7054 140,-621.7 93.1256,-562.6292 171.9093,-457.7 96.5,-457.7"/>
<polygon fill="#000000" stroke="#000000" points="203.5085,-659.3302 211.3336,-663.2962 207.5043,-659.5151 211.5,-659.7 211.5,-659.7 211.5,-659.7 207.5043,-659.5151 211.6664,-656.1038 203.5085,-659.3302 203.5085,-659.3302"/>
<ellipse fill="none" stroke="#000000" cx="200.312" cy="-659.1823" rx="3.2" ry="3.2"/>
</g>
<!-- rails -->
<g id="node9" class="node">
<title>rails</title>
<g id="a_node9"><a xlink:href="../../tables/rails.html" xlink:title="rails" target="_top">
<polygon fill="#ffffff" stroke="transparent" points="222,-120.2 222,-181.2 293,-181.2 293,-120.2 222,-120.2"/>
<polygon fill="#f5f5f5" stroke="transparent" points="222.5,-157.7 222.5,-180.7 293.5,-180.7 293.5,-157.7 222.5,-157.7"/>
<polygon fill="none" stroke="#000000" points="222.5,-157.7 222.5,-180.7 293.5,-180.7 293.5,-157.7 222.5,-157.7"/>
<text text-anchor="start" x="227.5" y="-166.8" font-family="Helvetica,sans-Serif" font-weight="bold" font-size="11.00" fill="#000000">rails</text>
<text text-anchor="start" x="258.5437" y="-165.8" font-family="Helvetica,sans-Serif" font-size="11.00" fill="#000000">[table]</text>
<polygon fill="none" stroke="#000000" points="222.5,-138.7 222.5,-157.7 293.5,-157.7 293.5,-138.7 222.5,-138.7"/>
<text text-anchor="start" x="225.5" y="-144.8" font-family="Helvetica,sans-Serif" font-size="11.00" fill="#000000">...</text>
<polygon fill="#ffffff" stroke="transparent" points="222.5,-119.7 222.5,-138.7 243.5,-138.7 243.5,-119.7 222.5,-119.7"/>
<polygon fill="none" stroke="#000000" points="222.5,-119.7 222.5,-138.7 243.5,-138.7 243.5,-119.7 222.5,-119.7"/>
<text text-anchor="start" x="225.2027" y="-125.8" font-family="Helvetica,sans-Serif" font-size="11.00" fill="#000000">&lt; 3</text>
<polygon fill="#ffffff" stroke="transparent" points="243.5,-119.7 243.5,-138.7 281.5,-138.7 281.5,-119.7 243.5,-119.7"/>
<polygon fill="none" stroke="#000000" points="243.5,-119.7 243.5,-138.7 281.5,-138.7 281.5,-119.7 243.5,-119.7"/>
<text text-anchor="start" x="246.3053" y="-125.8" font-family="Helvetica,sans-Serif" font-size="11.00" fill="#000000">0 rows</text>
<polygon fill="#ffffff" stroke="transparent" points="281.5,-119.7 281.5,-138.7 293.5,-138.7 293.5,-119.7 281.5,-119.7"/>
<polygon fill="none" stroke="#000000" points="281.5,-119.7 281.5,-138.7 293.5,-138.7 293.5,-119.7 281.5,-119.7"/>
<text text-anchor="start" x="284.4431" y="-125.8" font-family="Helvetica,sans-Serif" font-size="11.00" fill="#000000"> &#160;</text>
</a>
</g>
</g>
<!-- rails&#45;&gt;estradas -->
<g id="edge11" class="edge">
<title>rails:w&#45;&gt;estradas:e</title>
<path fill="none" stroke="#000000" d="M208.0137,-148.2029C176.6259,-150.6113 161.1112,-162.0952 140,-191.7 105.2242,-240.4669 156.3963,-457.7 96.5,-457.7"/>
<polygon fill="#000000" stroke="#000000" points="214.5048,-147.9776 222.6249,-151.2978 218.5024,-147.8388 222.5,-147.7 222.5,-147.7 222.5,-147.7 218.5024,-147.8388 222.3751,-144.1022 214.5048,-147.9776 214.5048,-147.9776"/>
<ellipse fill="none" stroke="#000000" cx="211.3067" cy="-148.0887" rx="3.2" ry="3.2"/>
</g>
<!-- rails&#45;&gt;estado -->
<g id="edge10" class="edge">
<title>rails:w&#45;&gt;estado:e</title>
<path fill="none" stroke="#000000" d="M208.0108,-148.6503C178.6417,-152.8585 169.3735,-170.5446 140,-191.7 116.4026,-208.6953 121.5806,-236.7 92.5,-236.7"/>
<polygon fill="#000000" stroke="#000000" points="214.5172,-148.2236 222.7356,-151.2923 218.5086,-147.9618 222.5,-147.7 222.5,-147.7 222.5,-147.7 218.5086,-147.9618 222.2644,-144.1077 214.5172,-148.2236 214.5172,-148.2236"/>
<ellipse fill="none" stroke="#000000" cx="211.324" cy="-148.4331" rx="3.2" ry="3.2"/>
</g>
<!-- rails&#45;&gt;lado -->
<g id="edge12" class="edge">
<title>rails:w&#45;&gt;lado:e</title>
<path fill="none" stroke="#000000" d="M207.8364,-147.3585C161.5221,-145.1258 145.4357,-132.7 92.5,-132.7"/>
<polygon fill="#000000" stroke="#000000" points="214.5022,-147.5137 222.4162,-151.299 218.5011,-147.6068 222.5,-147.7 222.5,-147.7 222.5,-147.7 218.5011,-147.6068 222.5838,-144.101 214.5022,-147.5137 214.5022,-147.5137"/>
<ellipse fill="none" stroke="#000000" cx="211.303" cy="-147.4392" rx="3.2" ry="3.2"/>
</g>
<!-- trocos -->
<g id="node10" class="node">
<title>trocos</title>
<g id="a_node10"><a xlink:href="../../tables/trocos.html" xlink:title="trocos" target="_top">
<polygon fill="#ffffff" stroke="transparent" points="217.5,-550.2 217.5,-611.2 297.5,-611.2 297.5,-550.2 217.5,-550.2"/>
<polygon fill="#f5f5f5" stroke="transparent" points="217.5,-587.7 217.5,-610.7 297.5,-610.7 297.5,-587.7 217.5,-587.7"/>
<polygon fill="none" stroke="#000000" points="217.5,-587.7 217.5,-610.7 297.5,-610.7 297.5,-587.7 217.5,-587.7"/>
<text text-anchor="start" x="222.5" y="-596.8" font-family="Helvetica,sans-Serif" font-weight="bold" font-size="11.00" fill="#000000">trocos</text>
<text text-anchor="start" x="262.5437" y="-595.8" font-family="Helvetica,sans-Serif" font-size="11.00" fill="#000000">[table]</text>
<polygon fill="none" stroke="#000000" points="217.5,-568.7 217.5,-587.7 297.5,-587.7 297.5,-568.7 217.5,-568.7"/>
<text text-anchor="start" x="220.5" y="-574.8" font-family="Helvetica,sans-Serif" font-size="11.00" fill="#000000">...</text>
<polygon fill="#ffffff" stroke="transparent" points="217.5,-549.7 217.5,-568.7 238.5,-568.7 238.5,-549.7 217.5,-549.7"/>
<polygon fill="none" stroke="#000000" points="217.5,-549.7 217.5,-568.7 238.5,-568.7 238.5,-549.7 217.5,-549.7"/>
<text text-anchor="start" x="220.2027" y="-555.8" font-family="Helvetica,sans-Serif" font-size="11.00" fill="#000000">&lt; 2</text>
<polygon fill="#ffffff" stroke="transparent" points="238.5,-549.7 238.5,-568.7 276.5,-568.7 276.5,-549.7 238.5,-549.7"/>
<polygon fill="none" stroke="#000000" points="238.5,-549.7 238.5,-568.7 276.5,-568.7 276.5,-549.7 238.5,-549.7"/>
<text text-anchor="start" x="241.3053" y="-555.8" font-family="Helvetica,sans-Serif" font-size="11.00" fill="#000000">0 rows</text>
<polygon fill="#ffffff" stroke="transparent" points="276.5,-549.7 276.5,-568.7 297.5,-568.7 297.5,-549.7 276.5,-549.7"/>
<polygon fill="none" stroke="#000000" points="276.5,-549.7 276.5,-568.7 297.5,-568.7 297.5,-549.7 276.5,-549.7"/>
<text text-anchor="start" x="279.2027" y="-555.8" font-family="Helvetica,sans-Serif" font-size="11.00" fill="#000000">1 &gt;</text>
</a>
</g>
</g>
<!-- trocos&#45;&gt;estradas -->
<g id="edge13" class="edge">
<title>trocos:w&#45;&gt;estradas:e</title>
<path fill="none" stroke="#000000" d="M202.7858,-577.0177C175.5643,-574.215 163.6799,-562.6372 140,-539.7 110.3673,-510.9967 137.755,-457.7 96.5,-457.7"/>
<polygon fill="#000000" stroke="#000000" points="209.5086,-577.3294 217.3332,-581.2961 213.5043,-577.5147 217.5,-577.7 217.5,-577.7 217.5,-577.7 213.5043,-577.5147 217.6668,-574.1039 209.5086,-577.3294 209.5086,-577.3294"/>
<ellipse fill="none" stroke="#000000" cx="206.312" cy="-577.1812" rx="3.2" ry="3.2"/>
</g>
<!-- valetas -->
<g id="node11" class="node">
<title>valetas</title>
<g id="a_node11"><a xlink:href="../../tables/valetas.html" xlink:title="valetas" target="_top">
<polygon fill="#ffffff" stroke="transparent" points="219,-38.2 219,-99.2 296,-99.2 296,-38.2 219,-38.2"/>
<polygon fill="#f5f5f5" stroke="transparent" points="219.5,-75.7 219.5,-98.7 296.5,-98.7 296.5,-75.7 219.5,-75.7"/>
<polygon fill="none" stroke="#000000" points="219.5,-75.7 219.5,-98.7 296.5,-98.7 296.5,-75.7 219.5,-75.7"/>
<text text-anchor="start" x="224.0788" y="-84.8" font-family="Helvetica,sans-Serif" font-weight="bold" font-size="11.00" fill="#000000">valetas</text>
<text text-anchor="start" x="262.0219" y="-83.8" font-family="Helvetica,sans-Serif" font-size="11.00" fill="#000000">[table]</text>
<polygon fill="none" stroke="#000000" points="219.5,-56.7 219.5,-75.7 296.5,-75.7 296.5,-56.7 219.5,-56.7"/>
<text text-anchor="start" x="222.5" y="-62.8" font-family="Helvetica,sans-Serif" font-size="11.00" fill="#000000">...</text>
<polygon fill="#ffffff" stroke="transparent" points="219.5,-37.7 219.5,-56.7 243.5,-56.7 243.5,-37.7 219.5,-37.7"/>
<polygon fill="none" stroke="#000000" points="219.5,-37.7 219.5,-56.7 243.5,-56.7 243.5,-37.7 219.5,-37.7"/>
<text text-anchor="start" x="222.5" y="-43.8" font-family="Helvetica,sans-Serif" font-size="11.00" fill="#000000">&lt; 4</text>
<polygon fill="#ffffff" stroke="transparent" points="243.5,-37.7 243.5,-56.7 282.5,-56.7 282.5,-37.7 243.5,-37.7"/>
<polygon fill="none" stroke="#000000" points="243.5,-37.7 243.5,-56.7 282.5,-56.7 282.5,-37.7 243.5,-37.7"/>
<text text-anchor="start" x="247.1105" y="-43.8" font-family="Helvetica,sans-Serif" font-size="11.00" fill="#000000">0 rows</text>
<polygon fill="#ffffff" stroke="transparent" points="282.5,-37.7 282.5,-56.7 296.5,-56.7 296.5,-37.7 282.5,-37.7"/>
<polygon fill="none" stroke="#000000" points="282.5,-37.7 282.5,-56.7 296.5,-56.7 296.5,-37.7 282.5,-37.7"/>
<text text-anchor="start" x="287.3862" y="-43.8" font-family="Helvetica,sans-Serif" font-size="11.00" fill="#000000"> &#160;</text>
</a>
</g>
</g>
<!-- valetas&#45;&gt;estradas -->
<g id="edge15" class="edge">
<title>valetas:w&#45;&gt;estradas:e</title>
<path fill="none" stroke="#000000" d="M205.002,-66.2473C174.7235,-68.774 159.5571,-80.4592 140,-109.7 96.6724,-174.4813 174.4352,-457.7 96.5,-457.7"/>
<polygon fill="#000000" stroke="#000000" points="211.5057,-66.0018 219.6358,-69.2974 215.5028,-65.8509 219.5,-65.7 219.5,-65.7 219.5,-65.7 215.5028,-65.8509 219.3642,-62.1026 211.5057,-66.0018 211.5057,-66.0018"/>
<ellipse fill="none" stroke="#000000" cx="208.308" cy="-66.1225" rx="3.2" ry="3.2"/>
</g>
<!-- valetas&#45;&gt;estado -->
<g id="edge14" class="edge">
<title>valetas:w&#45;&gt;estado:e</title>
<path fill="none" stroke="#000000" d="M204.7755,-66.4188C175.4907,-69.5666 162.8701,-83.1785 140,-109.7 100.6451,-155.3382 152.7632,-236.7 92.5,-236.7"/>
<polygon fill="#000000" stroke="#000000" points="211.5095,-66.0901 219.6755,-69.2957 215.5048,-65.895 219.5,-65.7 219.5,-65.7 219.5,-65.7 215.5048,-65.895 219.3245,-62.1043 211.5095,-66.0901 211.5095,-66.0901"/>
<ellipse fill="none" stroke="#000000" cx="208.3133" cy="-66.2461" rx="3.2" ry="3.2"/>
</g>
<!-- valetas&#45;&gt;lado -->
<g id="edge16" class="edge">
<title>valetas:w&#45;&gt;lado:e</title>
<path fill="none" stroke="#000000" d="M205.5124,-70.7359C173.8336,-86.3175 105.7746,-132.7 92.5,-132.7"/>
<polygon fill="#000000" stroke="#000000" points="211.973,-68.41 220.7195,-69.0872 215.7365,-67.055 219.5,-65.7 219.5,-65.7 219.5,-65.7 215.7365,-67.055 218.2805,-62.3128 211.973,-68.41 211.973,-68.41"/>
<ellipse fill="none" stroke="#000000" cx="208.9621" cy="-69.4939" rx="3.2" ry="3.2"/>
</g>
</g>
</svg>
