<?xml version="1.0" encoding="UTF-8" standalone="no"?>
<!DOCTYPE svg PUBLIC "-//W3C//DTD SVG 1.1//EN"
 "http://www.w3.org/Graphics/SVG/1.1/DTD/svg11.dtd">
<!-- Generated by graphviz version 2.40.1 (20161225.0304)
 -->
<!-- Title: twoDegreesRelationshipsDiagram Pages: 1 -->
<svg width="449pt" height="913pt"
 viewBox="0.00 0.00 449.00 913.20" xmlns="http://www.w3.org/2000/svg" xmlns:xlink="http://www.w3.org/1999/xlink">
<g id="graph0" class="graph" transform="scale(1 1) rotate(0) translate(4 909.2)">
<title>twoDegreesRelationshipsDiagram</title>
<polygon fill="#ffffff" stroke="transparent" points="-4,4 -4,-909.2 445,-909.2 445,4 -4,4"/>
<text text-anchor="middle" x="72.4936" y="-7.3" font-family="Helvetica,sans-Serif" font-size="11.00" fill="#000000">Generated by SchemaSpy</text>
<!-- caract -->
<g id="node1" class="node">
<title>caract</title>
<g id="a_node1"><a xlink:href="../../tables/caract.html" xlink:title="caract" target="_top">
<polygon fill="#ffffff" stroke="transparent" points="267,-840.2 267,-901.2 339,-901.2 339,-840.2 267,-840.2"/>
<polygon fill="#f5f5f5" stroke="transparent" points="267,-877.7 267,-900.7 339,-900.7 339,-877.7 267,-877.7"/>
<polygon fill="none" stroke="#000000" points="267,-877.7 267,-900.7 339,-900.7 339,-877.7 267,-877.7"/>
<text text-anchor="start" x="271.5257" y="-886.8" font-family="Helvetica,sans-Serif" font-weight="bold" font-size="11.00" fill="#000000">caract</text>
<text text-anchor="start" x="304.5219" y="-885.8" font-family="Helvetica,sans-Serif" font-size="11.00" fill="#000000">[table]</text>
<polygon fill="none" stroke="#000000" points="267,-858.7 267,-877.7 339,-877.7 339,-858.7 267,-858.7"/>
<text text-anchor="start" x="270" y="-864.8" font-family="Helvetica,sans-Serif" font-size="11.00" fill="#000000">...</text>
<polygon fill="#ffffff" stroke="transparent" points="267,-839.7 267,-858.7 288,-858.7 288,-839.7 267,-839.7"/>
<polygon fill="none" stroke="#000000" points="267,-839.7 267,-858.7 288,-858.7 288,-839.7 267,-839.7"/>
<text text-anchor="start" x="269.7027" y="-845.8" font-family="Helvetica,sans-Serif" font-size="11.00" fill="#000000">&lt; 1</text>
<polygon fill="#ffffff" stroke="transparent" points="288,-839.7 288,-858.7 326,-858.7 326,-839.7 288,-839.7"/>
<polygon fill="none" stroke="#000000" points="288,-839.7 288,-858.7 326,-858.7 326,-839.7 288,-839.7"/>
<text text-anchor="start" x="290.8053" y="-845.8" font-family="Helvetica,sans-Serif" font-size="11.00" fill="#000000">0 rows</text>
<polygon fill="#ffffff" stroke="transparent" points="326,-839.7 326,-858.7 339,-858.7 339,-839.7 326,-839.7"/>
<polygon fill="none" stroke="#000000" points="326,-839.7 326,-858.7 339,-858.7 339,-839.7 326,-839.7"/>
<text text-anchor="start" x="329.8862" y="-845.8" font-family="Helvetica,sans-Serif" font-size="11.00" fill="#000000"> &#160;</text>
</a>
</g>
</g>
<!-- estradas -->
<g id="node2" class="node">
<title>estradas</title>
<g id="a_node2"><a xlink:href="../../tables/estradas.html" xlink:title="estradas" target="_top">
<polygon fill="#ffffff" stroke="transparent" points="23.5,-573.2 23.5,-656.2 108.5,-656.2 108.5,-573.2 23.5,-573.2"/>
<polygon fill="#f5f5f5" stroke="transparent" points="24,-632.7 24,-655.7 109,-655.7 109,-632.7 24,-632.7"/>
<polygon fill="none" stroke="#000000" points="24,-632.7 24,-655.7 109,-655.7 109,-632.7 24,-632.7"/>
<text text-anchor="start" x="28.9108" y="-641.8" font-family="Helvetica,sans-Serif" font-weight="bold" font-size="11.00" fill="#000000">estradas</text>
<text text-anchor="start" x="74.5219" y="-640.8" font-family="Helvetica,sans-Serif" font-size="11.00" fill="#000000">[table]</text>
<polygon fill="none" stroke="#000000" points="24,-610.7 24,-632.7 109,-632.7 109,-610.7 24,-610.7"/>
<image xlink:href="../../images/primaryKeys.png" width="11px" height="12px" preserveAspectRatio="xMinYMin meet" x="29" y="-627.7"/>
<text text-anchor="start" x="51" y="-617.8" font-family="Helvetica,sans-Serif" font-size="11.00" fill="#000000">id</text>
<polygon fill="none" stroke="#000000" points="24,-591.7 24,-610.7 109,-610.7 109,-591.7 24,-591.7"/>
<text text-anchor="start" x="27" y="-597.8" font-family="Helvetica,sans-Serif" font-size="11.00" fill="#000000">...</text>
<polygon fill="#ffffff" stroke="transparent" points="24,-572.7 24,-591.7 43,-591.7 43,-572.7 24,-572.7"/>
<polygon fill="none" stroke="#000000" points="24,-572.7 24,-591.7 43,-591.7 43,-572.7 24,-572.7"/>
<text text-anchor="start" x="27" y="-578.8" font-family="Helvetica,sans-Serif" font-size="11.00" fill="#000000"> &#160;</text>
<polygon fill="#ffffff" stroke="transparent" points="43,-572.7 43,-591.7 84,-591.7 84,-572.7 43,-572.7"/>
<polygon fill="none" stroke="#000000" points="43,-572.7 43,-591.7 84,-591.7 84,-572.7 43,-572.7"/>
<text text-anchor="start" x="48.6105" y="-578.8" font-family="Helvetica,sans-Serif" font-size="11.00" fill="#000000">0 rows</text>
<polygon fill="#ffffff" stroke="transparent" points="84,-572.7 84,-591.7 109,-591.7 109,-572.7 84,-572.7"/>
<polygon fill="none" stroke="#000000" points="84,-572.7 84,-591.7 109,-591.7 109,-572.7 84,-572.7"/>
<text text-anchor="start" x="90.4053" y="-578.8" font-family="Helvetica,sans-Serif" font-size="11.00" fill="#000000">7 &gt;</text>
</a>
</g>
</g>
<!-- caract&#45;&gt;estradas -->
<g id="edge1" class="edge">
<title>caract:w&#45;&gt;estradas:e</title>
<path fill="none" stroke="#000000" d="M256.4035,-867.6474C215.3487,-867.1658 195.0887,-862.7463 165,-829.7 100.5463,-758.9105 204.7363,-621.7 109,-621.7"/>
<polygon fill="#000000" stroke="#000000" points="266.2199,-863.6961 266.1801,-871.696 264.5801,-871.688 264.6199,-863.6881 266.2199,-863.6961"/>
<polyline fill="none" stroke="#000000" points="267,-867.7 263,-867.6801 "/>
<ellipse fill="none" stroke="#000000" cx="259.8001" cy="-867.6642" rx="3.2" ry="3.2"/>
</g>
<!-- lrs_line -->
<g id="node3" class="node">
<title>lrs_line</title>
<g id="a_node3"><a xlink:href="../../tables/lrs_line.html" xlink:title="lrs_line" target="_top">
<polygon fill="#ffffff" stroke="transparent" points="264.5,-758.2 264.5,-819.2 341.5,-819.2 341.5,-758.2 264.5,-758.2"/>
<polygon fill="#f5f5f5" stroke="transparent" points="265,-795.7 265,-818.7 342,-818.7 342,-795.7 265,-795.7"/>
<polygon fill="none" stroke="#000000" points="265,-795.7 265,-818.7 342,-818.7 342,-795.7 265,-795.7"/>
<text text-anchor="start" x="269.5854" y="-804.8" font-family="Helvetica,sans-Serif" font-weight="bold" font-size="11.00" fill="#000000">lrs_line</text>
<text text-anchor="start" x="307.5219" y="-803.8" font-family="Helvetica,sans-Serif" font-size="11.00" fill="#000000">[table]</text>
<polygon fill="none" stroke="#000000" points="265,-776.7 265,-795.7 342,-795.7 342,-776.7 265,-776.7"/>
<text text-anchor="start" x="268" y="-782.8" font-family="Helvetica,sans-Serif" font-size="11.00" fill="#000000">...</text>
<polygon fill="#ffffff" stroke="transparent" points="265,-757.7 265,-776.7 289,-776.7 289,-757.7 265,-757.7"/>
<polygon fill="none" stroke="#000000" points="265,-757.7 265,-776.7 289,-776.7 289,-757.7 265,-757.7"/>
<text text-anchor="start" x="268" y="-763.8" font-family="Helvetica,sans-Serif" font-size="11.00" fill="#000000">&lt; 4</text>
<polygon fill="#ffffff" stroke="transparent" points="289,-757.7 289,-776.7 328,-776.7 328,-757.7 289,-757.7"/>
<polygon fill="none" stroke="#000000" points="289,-757.7 289,-776.7 328,-776.7 328,-757.7 289,-757.7"/>
<text text-anchor="start" x="292.6105" y="-763.8" font-family="Helvetica,sans-Serif" font-size="11.00" fill="#000000">0 rows</text>
<polygon fill="#ffffff" stroke="transparent" points="328,-757.7 328,-776.7 342,-776.7 342,-757.7 328,-757.7"/>
<polygon fill="none" stroke="#000000" points="328,-757.7 328,-776.7 342,-776.7 342,-757.7 328,-757.7"/>
<text text-anchor="start" x="332.8862" y="-763.8" font-family="Helvetica,sans-Serif" font-size="11.00" fill="#000000"> &#160;</text>
</a>
</g>
</g>
<!-- lrs_line&#45;&gt;estradas -->
<g id="edge2" class="edge">
<title>lrs_line:w&#45;&gt;estradas:e</title>
<path fill="none" stroke="#000000" d="M250.4019,-785.4803C213.3356,-784.2091 195.7555,-776.8066 165,-747.7 120.4905,-705.5768 170.2818,-621.7 109,-621.7"/>
<polygon fill="#000000" stroke="#000000" points="257.0009,-785.5795 264.9458,-789.2996 261.0005,-785.6398 265,-785.7 265,-785.7 265,-785.7 261.0005,-785.6398 265.0542,-782.1004 257.0009,-785.5795 257.0009,-785.5795"/>
<ellipse fill="none" stroke="#000000" cx="253.8013" cy="-785.5314" rx="3.2" ry="3.2"/>
</g>
<!-- lrs_node -->
<g id="node4" class="node">
<title>lrs_node</title>
<g id="a_node4"><a xlink:href="../../tables/lrs_node.html" xlink:title="lrs_node" target="_top">
<polygon fill="#ffffff" stroke="transparent" points="260.5,-676.2 260.5,-737.2 345.5,-737.2 345.5,-676.2 260.5,-676.2"/>
<polygon fill="#f5f5f5" stroke="transparent" points="261,-713.7 261,-736.7 346,-736.7 346,-713.7 261,-713.7"/>
<polygon fill="none" stroke="#000000" points="261,-713.7 261,-736.7 346,-736.7 346,-713.7 261,-713.7"/>
<text text-anchor="start" x="265.9114" y="-722.8" font-family="Helvetica,sans-Serif" font-weight="bold" font-size="11.00" fill="#000000">lrs_node</text>
<text text-anchor="start" x="311.5219" y="-721.8" font-family="Helvetica,sans-Serif" font-size="11.00" fill="#000000">[table]</text>
<polygon fill="none" stroke="#000000" points="261,-694.7 261,-713.7 346,-713.7 346,-694.7 261,-694.7"/>
<text text-anchor="start" x="264" y="-700.8" font-family="Helvetica,sans-Serif" font-size="11.00" fill="#000000">...</text>
<polygon fill="#ffffff" stroke="transparent" points="261,-675.7 261,-694.7 289,-694.7 289,-675.7 261,-675.7"/>
<polygon fill="none" stroke="#000000" points="261,-675.7 261,-694.7 289,-694.7 289,-675.7 261,-675.7"/>
<text text-anchor="start" x="264" y="-681.8" font-family="Helvetica,sans-Serif" font-size="11.00" fill="#000000">&lt; 4</text>
<polygon fill="#ffffff" stroke="transparent" points="289,-675.7 289,-694.7 330,-694.7 330,-675.7 289,-675.7"/>
<polygon fill="none" stroke="#000000" points="289,-675.7 289,-694.7 330,-694.7 330,-675.7 289,-675.7"/>
<text text-anchor="start" x="294.6105" y="-681.8" font-family="Helvetica,sans-Serif" font-size="11.00" fill="#000000">0 rows</text>
<polygon fill="#ffffff" stroke="transparent" points="330,-675.7 330,-694.7 346,-694.7 346,-675.7 330,-675.7"/>
<polygon fill="none" stroke="#000000" points="330,-675.7 330,-694.7 346,-694.7 346,-675.7 330,-675.7"/>
<text text-anchor="start" x="336.8862" y="-681.8" font-family="Helvetica,sans-Serif" font-size="11.00" fill="#000000"> &#160;</text>
</a>
</g>
</g>
<!-- lrs_node&#45;&gt;estradas -->
<g id="edge3" class="edge">
<title>lrs_node:w&#45;&gt;estradas:e</title>
<path fill="none" stroke="#000000" d="M246.2282,-703.0881C212.2882,-700.0451 200.1265,-685.8793 165,-665.7 137.5541,-649.933 140.6524,-621.7 109,-621.7"/>
<polygon fill="#000000" stroke="#000000" points="253.0069,-703.3689 260.851,-707.2969 257.0034,-703.5344 261,-703.7 261,-703.7 261,-703.7 257.0034,-703.5344 261.149,-700.1031 253.0069,-703.3689 253.0069,-703.3689"/>
<ellipse fill="none" stroke="#000000" cx="249.8096" cy="-703.2364" rx="3.2" ry="3.2"/>
</g>
<!-- patologias -->
<g id="node5" class="node">
<title>patologias</title>
<g id="a_node5"><a xlink:href="../../tables/patologias.html" xlink:title="patologias" target="_top">
<polygon fill="#ffffff" stroke="transparent" points="173,-54.7 173,-408.7 433,-408.7 433,-54.7 173,-54.7"/>
<polygon fill="#f5f5f5" stroke="transparent" points="175,-383.7 175,-406.7 431,-406.7 431,-383.7 175,-383.7"/>
<polygon fill="none" stroke="#000000" points="175,-383.7 175,-406.7 431,-406.7 431,-383.7 175,-383.7"/>
<text text-anchor="start" x="180" y="-392.8" font-family="Helvetica,sans-Serif" font-weight="bold" font-size="11.00" fill="#000000">patologias</text>
<text text-anchor="start" x="396.0437" y="-391.8" font-family="Helvetica,sans-Serif" font-size="11.00" fill="#000000">[table]</text>
<polygon fill="none" stroke="#000000" points="175,-361.7 175,-383.7 312,-383.7 312,-361.7 175,-361.7"/>
<image xlink:href="../../images/primaryKeys.png" width="11px" height="12px" preserveAspectRatio="xMinYMin meet" x="180" y="-378.7"/>
<text text-anchor="start" x="195" y="-368.8" font-family="Helvetica,sans-Serif" font-size="11.00" fill="#000000">id</text>
<polygon fill="none" stroke="#000000" points="312,-361.7 312,-383.7 431,-383.7 431,-361.7 312,-361.7"/>
<text text-anchor="start" x="315" y="-369.4" font-family="Helvetica,sans-Serif" font-size="11.00" fill="#000000">serial[10]</text>
<polygon fill="none" stroke="#000000" points="175,-339.7 175,-361.7 312,-361.7 312,-339.7 175,-339.7"/>
<text text-anchor="start" x="195" y="-346.8" font-family="Helvetica,sans-Serif" font-size="11.00" fill="#000000">geom</text>
<polygon fill="none" stroke="#000000" points="312,-339.7 312,-361.7 431,-361.7 431,-339.7 312,-339.7"/>
<text text-anchor="start" x="314.9485" y="-347.4" font-family="Helvetica,sans-Serif" font-size="11.00" fill="#000000">geometry[2147483647]</text>
<polygon fill="none" stroke="#000000" points="175,-317.7 175,-339.7 312,-339.7 312,-317.7 175,-317.7"/>
<text text-anchor="start" x="195" y="-324.8" font-family="Helvetica,sans-Serif" font-size="11.00" fill="#000000">nivel</text>
<polygon fill="none" stroke="#000000" points="312,-317.7 312,-339.7 431,-339.7 431,-317.7 312,-317.7"/>
<text text-anchor="start" x="315" y="-325.4" font-family="Helvetica,sans-Serif" font-size="11.00" fill="#000000">int2[5]</text>
<polygon fill="none" stroke="#000000" points="175,-295.7 175,-317.7 312,-317.7 312,-295.7 175,-295.7"/>
<text text-anchor="start" x="195" y="-302.8" font-family="Helvetica,sans-Serif" font-size="11.00" fill="#000000">start_m</text>
<polygon fill="none" stroke="#000000" points="312,-295.7 312,-317.7 431,-317.7 431,-295.7 312,-295.7"/>
<text text-anchor="start" x="315" y="-303.4" font-family="Helvetica,sans-Serif" font-size="11.00" fill="#000000">float8[17,17]</text>
<polygon fill="none" stroke="#000000" points="175,-273.7 175,-295.7 312,-295.7 312,-273.7 175,-273.7"/>
<text text-anchor="start" x="195" y="-280.8" font-family="Helvetica,sans-Serif" font-size="11.00" fill="#000000">end_m</text>
<polygon fill="none" stroke="#000000" points="312,-273.7 312,-295.7 431,-295.7 431,-273.7 312,-273.7"/>
<text text-anchor="start" x="315" y="-281.4" font-family="Helvetica,sans-Serif" font-size="11.00" fill="#000000">float8[17,17]</text>
<polygon fill="none" stroke="#000000" points="175,-251.7 175,-273.7 312,-273.7 312,-251.7 175,-251.7"/>
<text text-anchor="start" x="195" y="-258.8" font-family="Helvetica,sans-Serif" font-size="11.00" fill="#000000">area_afectada</text>
<polygon fill="none" stroke="#000000" points="312,-251.7 312,-273.7 431,-273.7 431,-251.7 312,-251.7"/>
<text text-anchor="start" x="315" y="-259.4" font-family="Helvetica,sans-Serif" font-size="11.00" fill="#000000">float8[17,17]</text>
<polygon fill="none" stroke="#000000" points="175,-229.7 175,-251.7 312,-251.7 312,-229.7 175,-229.7"/>
<text text-anchor="start" x="195" y="-236.8" font-family="Helvetica,sans-Serif" font-size="11.00" fill="#000000">largura</text>
<polygon fill="none" stroke="#000000" points="312,-229.7 312,-251.7 431,-251.7 431,-229.7 312,-229.7"/>
<text text-anchor="start" x="315" y="-237.4" font-family="Helvetica,sans-Serif" font-size="11.00" fill="#000000">float8[17,17]</text>
<polygon fill="none" stroke="#000000" points="175,-207.7 175,-229.7 312,-229.7 312,-207.7 175,-207.7"/>
<text text-anchor="start" x="195" y="-214.8" font-family="Helvetica,sans-Serif" font-size="11.00" fill="#000000">profundidade</text>
<polygon fill="none" stroke="#000000" points="312,-207.7 312,-229.7 431,-229.7 431,-207.7 312,-207.7"/>
<text text-anchor="start" x="315" y="-215.4" font-family="Helvetica,sans-Serif" font-size="11.00" fill="#000000">float8[17,17]</text>
<polygon fill="none" stroke="#000000" points="175,-185.7 175,-207.7 312,-207.7 312,-185.7 175,-185.7"/>
<text text-anchor="start" x="195" y="-192.8" font-family="Helvetica,sans-Serif" font-size="11.00" fill="#000000">data_reparacao</text>
<polygon fill="none" stroke="#000000" points="312,-185.7 312,-207.7 431,-207.7 431,-185.7 312,-185.7"/>
<text text-anchor="start" x="315" y="-193.4" font-family="Helvetica,sans-Serif" font-size="11.00" fill="#000000">date[13]</text>
<polygon fill="none" stroke="#000000" points="175,-163.7 175,-185.7 312,-185.7 312,-163.7 175,-163.7"/>
<text text-anchor="start" x="195" y="-170.8" font-family="Helvetica,sans-Serif" font-size="11.00" fill="#000000">data_levantamento</text>
<polygon fill="none" stroke="#000000" points="312,-163.7 312,-185.7 431,-185.7 431,-163.7 312,-163.7"/>
<text text-anchor="start" x="315" y="-171.4" font-family="Helvetica,sans-Serif" font-size="11.00" fill="#000000">date[13]</text>
<polygon fill="none" stroke="#000000" points="175,-141.7 175,-163.7 312,-163.7 312,-141.7 175,-141.7"/>
<text text-anchor="start" x="195" y="-148.8" font-family="Helvetica,sans-Serif" font-size="11.00" fill="#000000">largura_real</text>
<polygon fill="none" stroke="#000000" points="312,-141.7 312,-163.7 431,-163.7 431,-141.7 312,-141.7"/>
<text text-anchor="start" x="315" y="-149.4" font-family="Helvetica,sans-Serif" font-size="11.00" fill="#000000">float8[17,17]</text>
<polygon fill="none" stroke="#000000" points="175,-119.7 175,-141.7 312,-141.7 312,-119.7 175,-119.7"/>
<text text-anchor="start" x="195" y="-126.8" font-family="Helvetica,sans-Serif" font-size="11.00" fill="#000000">obs</text>
<polygon fill="none" stroke="#000000" points="312,-119.7 312,-141.7 431,-141.7 431,-119.7 312,-119.7"/>
<text text-anchor="start" x="315" y="-127.4" font-family="Helvetica,sans-Serif" font-size="11.00" fill="#000000">text[2147483647]</text>
<polygon fill="none" stroke="#000000" points="175,-97.7 175,-119.7 312,-119.7 312,-97.7 175,-97.7"/>
<image xlink:href="../../images/primaryKeys.png" width="11px" height="12px" preserveAspectRatio="xMinYMin meet" x="180" y="-114.7"/>
<text text-anchor="start" x="195" y="-104.8" font-family="Helvetica,sans-Serif" font-size="11.00" fill="#000000">id_estradas</text>
<polygon fill="none" stroke="#000000" points="312,-97.7 312,-119.7 431,-119.7 431,-97.7 312,-97.7"/>
<text text-anchor="start" x="315" y="-105.4" font-family="Helvetica,sans-Serif" font-size="11.00" fill="#000000">int4[10]</text>
<polygon fill="none" stroke="#000000" points="175,-75.7 175,-97.7 312,-97.7 312,-75.7 175,-75.7"/>
<image xlink:href="../../images/primaryKeys.png" width="11px" height="12px" preserveAspectRatio="xMinYMin meet" x="180" y="-92.7"/>
<text text-anchor="start" x="195" y="-82.8" font-family="Helvetica,sans-Serif" font-size="11.00" fill="#000000">id_tipo_patologias</text>
<polygon fill="none" stroke="#000000" points="312,-75.7 312,-97.7 431,-97.7 431,-75.7 312,-75.7"/>
<text text-anchor="start" x="315" y="-83.4" font-family="Helvetica,sans-Serif" font-size="11.00" fill="#000000">int4[10]</text>
<polygon fill="#ffffff" stroke="transparent" points="175,-56.7 175,-75.7 235,-75.7 235,-56.7 175,-56.7"/>
<polygon fill="none" stroke="#000000" points="175,-56.7 175,-75.7 235,-75.7 235,-56.7 175,-56.7"/>
<text text-anchor="start" x="178" y="-62.8" font-family="Helvetica,sans-Serif" font-size="11.00" fill="#000000">&lt; 2</text>
<polygon fill="#ffffff" stroke="transparent" points="235,-56.7 235,-75.7 312,-75.7 312,-56.7 235,-56.7"/>
<polygon fill="none" stroke="#000000" points="235,-56.7 235,-75.7 312,-75.7 312,-56.7 235,-56.7"/>
<text text-anchor="start" x="276.6105" y="-62.8" font-family="Helvetica,sans-Serif" font-size="11.00" fill="#000000">0 rows</text>
<polygon fill="#ffffff" stroke="transparent" points="312,-56.7 312,-75.7 431,-75.7 431,-56.7 312,-56.7"/>
<polygon fill="none" stroke="#000000" points="312,-56.7 312,-75.7 431,-75.7 431,-56.7 312,-56.7"/>
<text text-anchor="start" x="412.4053" y="-62.8" font-family="Helvetica,sans-Serif" font-size="11.00" fill="#000000">0 &gt;</text>
<polygon fill="none" stroke="#000000" stroke-width="2" points="174,-55.7 174,-407.7 432,-407.7 432,-55.7 174,-55.7"/>
</a>
</g>
</g>
<!-- patologias&#45;&gt;estradas -->
<g id="edge4" class="edge">
<title>patologias:w&#45;&gt;estradas:e</title>
<path fill="none" stroke="#000000" d="M160.8816,-111.843C74.5166,-154.7111 218.664,-621.7 109,-621.7"/>
<polygon fill="#000000" stroke="#000000" points="167.1911,-110.4384 175.7823,-112.214 171.0956,-109.5692 175,-108.7 175,-108.7 175,-108.7 171.0956,-109.5692 174.2177,-105.186 167.1911,-110.4384 167.1911,-110.4384"/>
<ellipse fill="none" stroke="#000000" cx="164.0676" cy="-111.1338" rx="3.2" ry="3.2"/>
</g>
<!-- tipo_patologias -->
<g id="node6" class="node">
<title>tipo_patologias</title>
<g id="a_node6"><a xlink:href="../../tables/tipo_patologias.html" xlink:title="tipo_patologias" target="_top">
<polygon fill="#ffffff" stroke="transparent" points="8,-38.2 8,-121.2 124,-121.2 124,-38.2 8,-38.2"/>
<polygon fill="#f5f5f5" stroke="transparent" points="8,-97.7 8,-120.7 124,-120.7 124,-97.7 8,-97.7"/>
<polygon fill="none" stroke="#000000" points="8,-97.7 8,-120.7 124,-120.7 124,-97.7 8,-97.7"/>
<text text-anchor="start" x="12.5147" y="-106.8" font-family="Helvetica,sans-Serif" font-weight="bold" font-size="11.00" fill="#000000">tipo_patologias</text>
<text text-anchor="start" x="89.5219" y="-105.8" font-family="Helvetica,sans-Serif" font-size="11.00" fill="#000000">[table]</text>
<polygon fill="none" stroke="#000000" points="8,-75.7 8,-97.7 124,-97.7 124,-75.7 8,-75.7"/>
<image xlink:href="../../images/primaryKeys.png" width="11px" height="12px" preserveAspectRatio="xMinYMin meet" x="13" y="-92.7"/>
<text text-anchor="start" x="30" y="-82.8" font-family="Helvetica,sans-Serif" font-size="11.00" fill="#000000">id</text>
<polygon fill="none" stroke="#000000" points="8,-56.7 8,-75.7 124,-75.7 124,-56.7 8,-56.7"/>
<text text-anchor="start" x="11" y="-62.8" font-family="Helvetica,sans-Serif" font-size="11.00" fill="#000000">...</text>
<polygon fill="#ffffff" stroke="transparent" points="8,-37.7 8,-56.7 42,-56.7 42,-37.7 8,-37.7"/>
<polygon fill="none" stroke="#000000" points="8,-37.7 8,-56.7 42,-56.7 42,-37.7 8,-37.7"/>
<text text-anchor="start" x="11" y="-43.8" font-family="Helvetica,sans-Serif" font-size="11.00" fill="#000000"> &#160;</text>
<polygon fill="#ffffff" stroke="transparent" points="42,-37.7 42,-56.7 91,-56.7 91,-37.7 42,-37.7"/>
<polygon fill="none" stroke="#000000" points="42,-37.7 42,-56.7 91,-56.7 91,-37.7 42,-37.7"/>
<text text-anchor="start" x="55.6105" y="-43.8" font-family="Helvetica,sans-Serif" font-size="11.00" fill="#000000">0 rows</text>
<polygon fill="#ffffff" stroke="transparent" points="91,-37.7 91,-56.7 124,-56.7 124,-37.7 91,-37.7"/>
<polygon fill="none" stroke="#000000" points="91,-37.7 91,-56.7 124,-56.7 124,-37.7 91,-37.7"/>
<text text-anchor="start" x="105.4053" y="-43.8" font-family="Helvetica,sans-Serif" font-size="11.00" fill="#000000">1 &gt;</text>
</a>
</g>
</g>
<!-- patologias&#45;&gt;tipo_patologias -->
<g id="edge5" class="edge">
<title>patologias:w&#45;&gt;tipo_patologias:e</title>
<path fill="none" stroke="#000000" d="M160.276,-86.7C148.2815,-86.7 140.8229,-86.7 124,-86.7"/>
<polygon fill="#000000" stroke="#000000" points="167,-86.7001 175,-90.3 171,-86.7 175,-86.7 175,-86.7 175,-86.7 171,-86.7 175,-83.1 167,-86.7001 167,-86.7001"/>
<ellipse fill="none" stroke="#000000" cx="163.8" cy="-86.7001" rx="3.2" ry="3.2"/>
</g>
<!-- rails -->
<g id="node7" class="node">
<title>rails</title>
<g id="a_node7"><a xlink:href="../../tables/rails.html" xlink:title="rails" target="_top">
<polygon fill="#ffffff" stroke="transparent" points="267.5,-594.2 267.5,-655.2 338.5,-655.2 338.5,-594.2 267.5,-594.2"/>
<polygon fill="#f5f5f5" stroke="transparent" points="268,-631.7 268,-654.7 339,-654.7 339,-631.7 268,-631.7"/>
<polygon fill="none" stroke="#000000" points="268,-631.7 268,-654.7 339,-654.7 339,-631.7 268,-631.7"/>
<text text-anchor="start" x="273" y="-640.8" font-family="Helvetica,sans-Serif" font-weight="bold" font-size="11.00" fill="#000000">rails</text>
<text text-anchor="start" x="304.0437" y="-639.8" font-family="Helvetica,sans-Serif" font-size="11.00" fill="#000000">[table]</text>
<polygon fill="none" stroke="#000000" points="268,-612.7 268,-631.7 339,-631.7 339,-612.7 268,-612.7"/>
<text text-anchor="start" x="271" y="-618.8" font-family="Helvetica,sans-Serif" font-size="11.00" fill="#000000">...</text>
<polygon fill="#ffffff" stroke="transparent" points="268,-593.7 268,-612.7 289,-612.7 289,-593.7 268,-593.7"/>
<polygon fill="none" stroke="#000000" points="268,-593.7 268,-612.7 289,-612.7 289,-593.7 268,-593.7"/>
<text text-anchor="start" x="270.7027" y="-599.8" font-family="Helvetica,sans-Serif" font-size="11.00" fill="#000000">&lt; 3</text>
<polygon fill="#ffffff" stroke="transparent" points="289,-593.7 289,-612.7 327,-612.7 327,-593.7 289,-593.7"/>
<polygon fill="none" stroke="#000000" points="289,-593.7 289,-612.7 327,-612.7 327,-593.7 289,-593.7"/>
<text text-anchor="start" x="291.8053" y="-599.8" font-family="Helvetica,sans-Serif" font-size="11.00" fill="#000000">0 rows</text>
<polygon fill="#ffffff" stroke="transparent" points="327,-593.7 327,-612.7 339,-612.7 339,-593.7 327,-593.7"/>
<polygon fill="none" stroke="#000000" points="327,-593.7 327,-612.7 339,-612.7 339,-593.7 327,-593.7"/>
<text text-anchor="start" x="329.9431" y="-599.8" font-family="Helvetica,sans-Serif" font-size="11.00" fill="#000000"> &#160;</text>
</a>
</g>
</g>
<!-- rails&#45;&gt;estradas -->
<g id="edge6" class="edge">
<title>rails:w&#45;&gt;estradas:e</title>
<path fill="none" stroke="#000000" d="M253.47,-621.7C194.5032,-621.7 174.5599,-621.7 109,-621.7"/>
<polygon fill="#000000" stroke="#000000" points="260,-621.7001 268,-625.3 264,-621.7 268,-621.7 268,-621.7 268,-621.7 264,-621.7 268,-618.1 260,-621.7001 260,-621.7001"/>
<ellipse fill="none" stroke="#000000" cx="256.8" cy="-621.7001" rx="3.2" ry="3.2"/>
</g>
<!-- trocos -->
<g id="node8" class="node">
<title>trocos</title>
<g id="a_node8"><a xlink:href="../../tables/trocos.html" xlink:title="trocos" target="_top">
<polygon fill="#ffffff" stroke="transparent" points="263,-512.2 263,-573.2 343,-573.2 343,-512.2 263,-512.2"/>
<polygon fill="#f5f5f5" stroke="transparent" points="263,-549.7 263,-572.7 343,-572.7 343,-549.7 263,-549.7"/>
<polygon fill="none" stroke="#000000" points="263,-549.7 263,-572.7 343,-572.7 343,-549.7 263,-549.7"/>
<text text-anchor="start" x="268" y="-558.8" font-family="Helvetica,sans-Serif" font-weight="bold" font-size="11.00" fill="#000000">trocos</text>
<text text-anchor="start" x="308.0437" y="-557.8" font-family="Helvetica,sans-Serif" font-size="11.00" fill="#000000">[table]</text>
<polygon fill="none" stroke="#000000" points="263,-530.7 263,-549.7 343,-549.7 343,-530.7 263,-530.7"/>
<text text-anchor="start" x="266" y="-536.8" font-family="Helvetica,sans-Serif" font-size="11.00" fill="#000000">...</text>
<polygon fill="#ffffff" stroke="transparent" points="263,-511.7 263,-530.7 284,-530.7 284,-511.7 263,-511.7"/>
<polygon fill="none" stroke="#000000" points="263,-511.7 263,-530.7 284,-530.7 284,-511.7 263,-511.7"/>
<text text-anchor="start" x="265.7027" y="-517.8" font-family="Helvetica,sans-Serif" font-size="11.00" fill="#000000">&lt; 2</text>
<polygon fill="#ffffff" stroke="transparent" points="284,-511.7 284,-530.7 322,-530.7 322,-511.7 284,-511.7"/>
<polygon fill="none" stroke="#000000" points="284,-511.7 284,-530.7 322,-530.7 322,-511.7 284,-511.7"/>
<text text-anchor="start" x="286.8053" y="-517.8" font-family="Helvetica,sans-Serif" font-size="11.00" fill="#000000">0 rows</text>
<polygon fill="#ffffff" stroke="transparent" points="322,-511.7 322,-530.7 343,-530.7 343,-511.7 322,-511.7"/>
<polygon fill="none" stroke="#000000" points="322,-511.7 322,-530.7 343,-530.7 343,-511.7 322,-511.7"/>
<text text-anchor="start" x="324.7027" y="-517.8" font-family="Helvetica,sans-Serif" font-size="11.00" fill="#000000">1 &gt;</text>
</a>
</g>
</g>
<!-- trocos&#45;&gt;estradas -->
<g id="edge7" class="edge">
<title>trocos:w&#45;&gt;estradas:e</title>
<path fill="none" stroke="#000000" d="M248.1776,-540.4716C212.8899,-544.4292 201.9668,-563.0659 165,-583.7 138.7363,-598.3599 139.0781,-621.7 109,-621.7"/>
<polygon fill="#000000" stroke="#000000" points="255.0108,-540.1159 263.1872,-543.2951 259.0054,-539.908 263,-539.7 263,-539.7 263,-539.7 259.0054,-539.908 262.8128,-536.1049 255.0108,-540.1159 255.0108,-540.1159"/>
<ellipse fill="none" stroke="#000000" cx="251.8151" cy="-540.2823" rx="3.2" ry="3.2"/>
</g>
<!-- valetas -->
<g id="node9" class="node">
<title>valetas</title>
<g id="a_node9"><a xlink:href="../../tables/valetas.html" xlink:title="valetas" target="_top">
<polygon fill="#ffffff" stroke="transparent" points="264.5,-430.2 264.5,-491.2 341.5,-491.2 341.5,-430.2 264.5,-430.2"/>
<polygon fill="#f5f5f5" stroke="transparent" points="265,-467.7 265,-490.7 342,-490.7 342,-467.7 265,-467.7"/>
<polygon fill="none" stroke="#000000" points="265,-467.7 265,-490.7 342,-490.7 342,-467.7 265,-467.7"/>
<text text-anchor="start" x="269.5788" y="-476.8" font-family="Helvetica,sans-Serif" font-weight="bold" font-size="11.00" fill="#000000">valetas</text>
<text text-anchor="start" x="307.5219" y="-475.8" font-family="Helvetica,sans-Serif" font-size="11.00" fill="#000000">[table]</text>
<polygon fill="none" stroke="#000000" points="265,-448.7 265,-467.7 342,-467.7 342,-448.7 265,-448.7"/>
<text text-anchor="start" x="268" y="-454.8" font-family="Helvetica,sans-Serif" font-size="11.00" fill="#000000">...</text>
<polygon fill="#ffffff" stroke="transparent" points="265,-429.7 265,-448.7 289,-448.7 289,-429.7 265,-429.7"/>
<polygon fill="none" stroke="#000000" points="265,-429.7 265,-448.7 289,-448.7 289,-429.7 265,-429.7"/>
<text text-anchor="start" x="268" y="-435.8" font-family="Helvetica,sans-Serif" font-size="11.00" fill="#000000">&lt; 4</text>
<polygon fill="#ffffff" stroke="transparent" points="289,-429.7 289,-448.7 328,-448.7 328,-429.7 289,-429.7"/>
<polygon fill="none" stroke="#000000" points="289,-429.7 289,-448.7 328,-448.7 328,-429.7 289,-429.7"/>
<text text-anchor="start" x="292.6105" y="-435.8" font-family="Helvetica,sans-Serif" font-size="11.00" fill="#000000">0 rows</text>
<polygon fill="#ffffff" stroke="transparent" points="328,-429.7 328,-448.7 342,-448.7 342,-429.7 328,-429.7"/>
<polygon fill="none" stroke="#000000" points="328,-429.7 328,-448.7 342,-448.7 342,-429.7 328,-429.7"/>
<text text-anchor="start" x="332.8862" y="-435.8" font-family="Helvetica,sans-Serif" font-size="11.00" fill="#000000"> &#160;</text>
</a>
</g>
</g>
<!-- valetas&#45;&gt;estradas -->
<g id="edge8" class="edge">
<title>valetas:w&#45;&gt;estradas:e</title>
<path fill="none" stroke="#000000" d="M250.1444,-458.0787C212.5685,-460.1838 195.9156,-471.4608 165,-501.7 122.9256,-542.8539 167.8549,-621.7 109,-621.7"/>
<polygon fill="#000000" stroke="#000000" points="257.0026,-457.9039 265.0918,-461.2988 261.0013,-457.802 265,-457.7 265,-457.7 265,-457.7 261.0013,-457.802 264.9082,-454.1012 257.0026,-457.9039 257.0026,-457.9039"/>
<ellipse fill="none" stroke="#000000" cx="253.8036" cy="-457.9855" rx="3.2" ry="3.2"/>
</g>
</g>
</svg>
