<?xml version="1.0" encoding="UTF-8" standalone="no"?>
<!DOCTYPE svg PUBLIC "-//W3C//DTD SVG 1.1//EN"
 "http://www.w3.org/Graphics/SVG/1.1/DTD/svg11.dtd">
<!-- Generated by graphviz version 2.40.1 (20161225.0304)
 -->
<!-- Title: oneDegreeRelationshipsDiagram Pages: 1 -->
<svg width="449pt" height="462pt"
 viewBox="0.00 0.00 449.00 461.70" xmlns="http://www.w3.org/2000/svg" xmlns:xlink="http://www.w3.org/1999/xlink">
<g id="graph0" class="graph" transform="scale(1 1) rotate(0) translate(4 457.7)">
<title>oneDegreeRelationshipsDiagram</title>
<polygon fill="#ffffff" stroke="transparent" points="-4,4 -4,-457.7 445,-457.7 445,4 -4,4"/>
<text text-anchor="middle" x="72.4936" y="-7.3" font-family="Helvetica,sans-Serif" font-size="11.00" fill="#000000">Generated by SchemaSpy</text>
<!-- patologias -->
<g id="node1" class="node">
<title>patologias</title>
<g id="a_node1"><a xlink:href="../../tables/patologias.html" xlink:title="patologias" target="_top">
<polygon fill="#ffffff" stroke="transparent" points="173,-95.7 173,-449.7 433,-449.7 433,-95.7 173,-95.7"/>
<polygon fill="#f5f5f5" stroke="transparent" points="175,-424.7 175,-447.7 431,-447.7 431,-424.7 175,-424.7"/>
<polygon fill="none" stroke="#000000" points="175,-424.7 175,-447.7 431,-447.7 431,-424.7 175,-424.7"/>
<text text-anchor="start" x="180" y="-433.8" font-family="Helvetica,sans-Serif" font-weight="bold" font-size="11.00" fill="#000000">patologias</text>
<text text-anchor="start" x="396.0437" y="-432.8" font-family="Helvetica,sans-Serif" font-size="11.00" fill="#000000">[table]</text>
<polygon fill="none" stroke="#000000" points="175,-402.7 175,-424.7 312,-424.7 312,-402.7 175,-402.7"/>
<image xlink:href="../../images/primaryKeys.png" width="11px" height="12px" preserveAspectRatio="xMinYMin meet" x="180" y="-419.7"/>
<text text-anchor="start" x="195" y="-409.8" font-family="Helvetica,sans-Serif" font-size="11.00" fill="#000000">id</text>
<polygon fill="none" stroke="#000000" points="312,-402.7 312,-424.7 431,-424.7 431,-402.7 312,-402.7"/>
<text text-anchor="start" x="315" y="-410.4" font-family="Helvetica,sans-Serif" font-size="11.00" fill="#000000">serial[10]</text>
<polygon fill="none" stroke="#000000" points="175,-380.7 175,-402.7 312,-402.7 312,-380.7 175,-380.7"/>
<text text-anchor="start" x="195" y="-387.8" font-family="Helvetica,sans-Serif" font-size="11.00" fill="#000000">geom</text>
<polygon fill="none" stroke="#000000" points="312,-380.7 312,-402.7 431,-402.7 431,-380.7 312,-380.7"/>
<text text-anchor="start" x="314.9485" y="-388.4" font-family="Helvetica,sans-Serif" font-size="11.00" fill="#000000">geometry[2147483647]</text>
<polygon fill="none" stroke="#000000" points="175,-358.7 175,-380.7 312,-380.7 312,-358.7 175,-358.7"/>
<text text-anchor="start" x="195" y="-365.8" font-family="Helvetica,sans-Serif" font-size="11.00" fill="#000000">nivel</text>
<polygon fill="none" stroke="#000000" points="312,-358.7 312,-380.7 431,-380.7 431,-358.7 312,-358.7"/>
<text text-anchor="start" x="315" y="-366.4" font-family="Helvetica,sans-Serif" font-size="11.00" fill="#000000">int2[5]</text>
<polygon fill="none" stroke="#000000" points="175,-336.7 175,-358.7 312,-358.7 312,-336.7 175,-336.7"/>
<text text-anchor="start" x="195" y="-343.8" font-family="Helvetica,sans-Serif" font-size="11.00" fill="#000000">start_m</text>
<polygon fill="none" stroke="#000000" points="312,-336.7 312,-358.7 431,-358.7 431,-336.7 312,-336.7"/>
<text text-anchor="start" x="315" y="-344.4" font-family="Helvetica,sans-Serif" font-size="11.00" fill="#000000">float8[17,17]</text>
<polygon fill="none" stroke="#000000" points="175,-314.7 175,-336.7 312,-336.7 312,-314.7 175,-314.7"/>
<text text-anchor="start" x="195" y="-321.8" font-family="Helvetica,sans-Serif" font-size="11.00" fill="#000000">end_m</text>
<polygon fill="none" stroke="#000000" points="312,-314.7 312,-336.7 431,-336.7 431,-314.7 312,-314.7"/>
<text text-anchor="start" x="315" y="-322.4" font-family="Helvetica,sans-Serif" font-size="11.00" fill="#000000">float8[17,17]</text>
<polygon fill="none" stroke="#000000" points="175,-292.7 175,-314.7 312,-314.7 312,-292.7 175,-292.7"/>
<text text-anchor="start" x="195" y="-299.8" font-family="Helvetica,sans-Serif" font-size="11.00" fill="#000000">area_afectada</text>
<polygon fill="none" stroke="#000000" points="312,-292.7 312,-314.7 431,-314.7 431,-292.7 312,-292.7"/>
<text text-anchor="start" x="315" y="-300.4" font-family="Helvetica,sans-Serif" font-size="11.00" fill="#000000">float8[17,17]</text>
<polygon fill="none" stroke="#000000" points="175,-270.7 175,-292.7 312,-292.7 312,-270.7 175,-270.7"/>
<text text-anchor="start" x="195" y="-277.8" font-family="Helvetica,sans-Serif" font-size="11.00" fill="#000000">largura</text>
<polygon fill="none" stroke="#000000" points="312,-270.7 312,-292.7 431,-292.7 431,-270.7 312,-270.7"/>
<text text-anchor="start" x="315" y="-278.4" font-family="Helvetica,sans-Serif" font-size="11.00" fill="#000000">float8[17,17]</text>
<polygon fill="none" stroke="#000000" points="175,-248.7 175,-270.7 312,-270.7 312,-248.7 175,-248.7"/>
<text text-anchor="start" x="195" y="-255.8" font-family="Helvetica,sans-Serif" font-size="11.00" fill="#000000">profundidade</text>
<polygon fill="none" stroke="#000000" points="312,-248.7 312,-270.7 431,-270.7 431,-248.7 312,-248.7"/>
<text text-anchor="start" x="315" y="-256.4" font-family="Helvetica,sans-Serif" font-size="11.00" fill="#000000">float8[17,17]</text>
<polygon fill="none" stroke="#000000" points="175,-226.7 175,-248.7 312,-248.7 312,-226.7 175,-226.7"/>
<text text-anchor="start" x="195" y="-233.8" font-family="Helvetica,sans-Serif" font-size="11.00" fill="#000000">data_reparacao</text>
<polygon fill="none" stroke="#000000" points="312,-226.7 312,-248.7 431,-248.7 431,-226.7 312,-226.7"/>
<text text-anchor="start" x="315" y="-234.4" font-family="Helvetica,sans-Serif" font-size="11.00" fill="#000000">date[13]</text>
<polygon fill="none" stroke="#000000" points="175,-204.7 175,-226.7 312,-226.7 312,-204.7 175,-204.7"/>
<text text-anchor="start" x="195" y="-211.8" font-family="Helvetica,sans-Serif" font-size="11.00" fill="#000000">data_levantamento</text>
<polygon fill="none" stroke="#000000" points="312,-204.7 312,-226.7 431,-226.7 431,-204.7 312,-204.7"/>
<text text-anchor="start" x="315" y="-212.4" font-family="Helvetica,sans-Serif" font-size="11.00" fill="#000000">date[13]</text>
<polygon fill="none" stroke="#000000" points="175,-182.7 175,-204.7 312,-204.7 312,-182.7 175,-182.7"/>
<text text-anchor="start" x="195" y="-189.8" font-family="Helvetica,sans-Serif" font-size="11.00" fill="#000000">largura_real</text>
<polygon fill="none" stroke="#000000" points="312,-182.7 312,-204.7 431,-204.7 431,-182.7 312,-182.7"/>
<text text-anchor="start" x="315" y="-190.4" font-family="Helvetica,sans-Serif" font-size="11.00" fill="#000000">float8[17,17]</text>
<polygon fill="none" stroke="#000000" points="175,-160.7 175,-182.7 312,-182.7 312,-160.7 175,-160.7"/>
<text text-anchor="start" x="195" y="-167.8" font-family="Helvetica,sans-Serif" font-size="11.00" fill="#000000">obs</text>
<polygon fill="none" stroke="#000000" points="312,-160.7 312,-182.7 431,-182.7 431,-160.7 312,-160.7"/>
<text text-anchor="start" x="315" y="-168.4" font-family="Helvetica,sans-Serif" font-size="11.00" fill="#000000">text[2147483647]</text>
<polygon fill="none" stroke="#000000" points="175,-138.7 175,-160.7 312,-160.7 312,-138.7 175,-138.7"/>
<image xlink:href="../../images/primaryKeys.png" width="11px" height="12px" preserveAspectRatio="xMinYMin meet" x="180" y="-155.7"/>
<text text-anchor="start" x="195" y="-145.8" font-family="Helvetica,sans-Serif" font-size="11.00" fill="#000000">id_estradas</text>
<polygon fill="none" stroke="#000000" points="312,-138.7 312,-160.7 431,-160.7 431,-138.7 312,-138.7"/>
<text text-anchor="start" x="315" y="-146.4" font-family="Helvetica,sans-Serif" font-size="11.00" fill="#000000">int4[10]</text>
<polygon fill="none" stroke="#000000" points="175,-116.7 175,-138.7 312,-138.7 312,-116.7 175,-116.7"/>
<image xlink:href="../../images/primaryKeys.png" width="11px" height="12px" preserveAspectRatio="xMinYMin meet" x="180" y="-133.7"/>
<text text-anchor="start" x="195" y="-123.8" font-family="Helvetica,sans-Serif" font-size="11.00" fill="#000000">id_tipo_patologias</text>
<polygon fill="none" stroke="#000000" points="312,-116.7 312,-138.7 431,-138.7 431,-116.7 312,-116.7"/>
<text text-anchor="start" x="315" y="-124.4" font-family="Helvetica,sans-Serif" font-size="11.00" fill="#000000">int4[10]</text>
<polygon fill="#ffffff" stroke="transparent" points="175,-97.7 175,-116.7 235,-116.7 235,-97.7 175,-97.7"/>
<polygon fill="none" stroke="#000000" points="175,-97.7 175,-116.7 235,-116.7 235,-97.7 175,-97.7"/>
<text text-anchor="start" x="178" y="-103.8" font-family="Helvetica,sans-Serif" font-size="11.00" fill="#000000">&lt; 2</text>
<polygon fill="#ffffff" stroke="transparent" points="235,-97.7 235,-116.7 312,-116.7 312,-97.7 235,-97.7"/>
<polygon fill="none" stroke="#000000" points="235,-97.7 235,-116.7 312,-116.7 312,-97.7 235,-97.7"/>
<text text-anchor="start" x="276.6105" y="-103.8" font-family="Helvetica,sans-Serif" font-size="11.00" fill="#000000">0 rows</text>
<polygon fill="#ffffff" stroke="transparent" points="312,-97.7 312,-116.7 431,-116.7 431,-97.7 312,-97.7"/>
<polygon fill="none" stroke="#000000" points="312,-97.7 312,-116.7 431,-116.7 431,-97.7 312,-97.7"/>
<text text-anchor="start" x="412.4053" y="-103.8" font-family="Helvetica,sans-Serif" font-size="11.00" fill="#000000">0 &gt;</text>
<polygon fill="none" stroke="#000000" stroke-width="2" points="174,-96.7 174,-448.7 432,-448.7 432,-96.7 174,-96.7"/>
</a>
</g>
</g>
<!-- estradas -->
<g id="node2" class="node">
<title>estradas</title>
<g id="a_node2"><a xlink:href="../../tables/estradas.html" xlink:title="estradas" target="_top">
<polygon fill="#ffffff" stroke="transparent" points="23.5,-142.2 23.5,-225.2 108.5,-225.2 108.5,-142.2 23.5,-142.2"/>
<polygon fill="#f5f5f5" stroke="transparent" points="24,-201.7 24,-224.7 109,-224.7 109,-201.7 24,-201.7"/>
<polygon fill="none" stroke="#000000" points="24,-201.7 24,-224.7 109,-224.7 109,-201.7 24,-201.7"/>
<text text-anchor="start" x="28.9108" y="-210.8" font-family="Helvetica,sans-Serif" font-weight="bold" font-size="11.00" fill="#000000">estradas</text>
<text text-anchor="start" x="74.5219" y="-209.8" font-family="Helvetica,sans-Serif" font-size="11.00" fill="#000000">[table]</text>
<polygon fill="none" stroke="#000000" points="24,-179.7 24,-201.7 109,-201.7 109,-179.7 24,-179.7"/>
<image xlink:href="../../images/primaryKeys.png" width="11px" height="12px" preserveAspectRatio="xMinYMin meet" x="29" y="-196.7"/>
<text text-anchor="start" x="51" y="-186.8" font-family="Helvetica,sans-Serif" font-size="11.00" fill="#000000">id</text>
<polygon fill="none" stroke="#000000" points="24,-160.7 24,-179.7 109,-179.7 109,-160.7 24,-160.7"/>
<text text-anchor="start" x="27" y="-166.8" font-family="Helvetica,sans-Serif" font-size="11.00" fill="#000000">...</text>
<polygon fill="#ffffff" stroke="transparent" points="24,-141.7 24,-160.7 43,-160.7 43,-141.7 24,-141.7"/>
<polygon fill="none" stroke="#000000" points="24,-141.7 24,-160.7 43,-160.7 43,-141.7 24,-141.7"/>
<text text-anchor="start" x="27" y="-147.8" font-family="Helvetica,sans-Serif" font-size="11.00" fill="#000000"> &#160;</text>
<polygon fill="#ffffff" stroke="transparent" points="43,-141.7 43,-160.7 84,-160.7 84,-141.7 43,-141.7"/>
<polygon fill="none" stroke="#000000" points="43,-141.7 43,-160.7 84,-160.7 84,-141.7 43,-141.7"/>
<text text-anchor="start" x="48.6105" y="-147.8" font-family="Helvetica,sans-Serif" font-size="11.00" fill="#000000">0 rows</text>
<polygon fill="#ffffff" stroke="transparent" points="84,-141.7 84,-160.7 109,-160.7 109,-141.7 84,-141.7"/>
<polygon fill="none" stroke="#000000" points="84,-141.7 84,-160.7 109,-160.7 109,-141.7 84,-141.7"/>
<text text-anchor="start" x="90.4053" y="-147.8" font-family="Helvetica,sans-Serif" font-size="11.00" fill="#000000">7 &gt;</text>
</a>
</g>
</g>
<!-- patologias&#45;&gt;estradas -->
<g id="edge1" class="edge">
<title>patologias:w&#45;&gt;estradas:e</title>
<path fill="none" stroke="#000000" d="M160.7075,-152.6486C140.4612,-162.0495 137.867,-190.7 109,-190.7"/>
<polygon fill="#000000" stroke="#000000" points="167.165,-151.3164 175.7274,-153.2258 171.0825,-150.5082 175,-149.7 175,-149.7 175,-149.7 171.0825,-150.5082 174.2726,-146.1742 167.165,-151.3164 167.165,-151.3164"/>
<ellipse fill="none" stroke="#000000" cx="164.031" cy="-151.963" rx="3.2" ry="3.2"/>
</g>
<!-- tipo_patologias -->
<g id="node3" class="node">
<title>tipo_patologias</title>
<g id="a_node3"><a xlink:href="../../tables/tipo_patologias.html" xlink:title="tipo_patologias" target="_top">
<polygon fill="#ffffff" stroke="transparent" points="8,-38.2 8,-121.2 124,-121.2 124,-38.2 8,-38.2"/>
<polygon fill="#f5f5f5" stroke="transparent" points="8,-97.7 8,-120.7 124,-120.7 124,-97.7 8,-97.7"/>
<polygon fill="none" stroke="#000000" points="8,-97.7 8,-120.7 124,-120.7 124,-97.7 8,-97.7"/>
<text text-anchor="start" x="12.5147" y="-106.8" font-family="Helvetica,sans-Serif" font-weight="bold" font-size="11.00" fill="#000000">tipo_patologias</text>
<text text-anchor="start" x="89.5219" y="-105.8" font-family="Helvetica,sans-Serif" font-size="11.00" fill="#000000">[table]</text>
<polygon fill="none" stroke="#000000" points="8,-75.7 8,-97.7 124,-97.7 124,-75.7 8,-75.7"/>
<image xlink:href="../../images/primaryKeys.png" width="11px" height="12px" preserveAspectRatio="xMinYMin meet" x="13" y="-92.7"/>
<text text-anchor="start" x="30" y="-82.8" font-family="Helvetica,sans-Serif" font-size="11.00" fill="#000000">id</text>
<polygon fill="none" stroke="#000000" points="8,-56.7 8,-75.7 124,-75.7 124,-56.7 8,-56.7"/>
<text text-anchor="start" x="11" y="-62.8" font-family="Helvetica,sans-Serif" font-size="11.00" fill="#000000">...</text>
<polygon fill="#ffffff" stroke="transparent" points="8,-37.7 8,-56.7 42,-56.7 42,-37.7 8,-37.7"/>
<polygon fill="none" stroke="#000000" points="8,-37.7 8,-56.7 42,-56.7 42,-37.7 8,-37.7"/>
<text text-anchor="start" x="11" y="-43.8" font-family="Helvetica,sans-Serif" font-size="11.00" fill="#000000"> &#160;</text>
<polygon fill="#ffffff" stroke="transparent" points="42,-37.7 42,-56.7 91,-56.7 91,-37.7 42,-37.7"/>
<polygon fill="none" stroke="#000000" points="42,-37.7 42,-56.7 91,-56.7 91,-37.7 42,-37.7"/>
<text text-anchor="start" x="55.6105" y="-43.8" font-family="Helvetica,sans-Serif" font-size="11.00" fill="#000000">0 rows</text>
<polygon fill="#ffffff" stroke="transparent" points="91,-37.7 91,-56.7 124,-56.7 124,-37.7 91,-37.7"/>
<polygon fill="none" stroke="#000000" points="91,-37.7 91,-56.7 124,-56.7 124,-37.7 91,-37.7"/>
<text text-anchor="start" x="105.4053" y="-43.8" font-family="Helvetica,sans-Serif" font-size="11.00" fill="#000000">1 &gt;</text>
</a>
</g>
</g>
<!-- patologias&#45;&gt;tipo_patologias -->
<g id="edge2" class="edge">
<title>patologias:w&#45;&gt;tipo_patologias:e</title>
<path fill="none" stroke="#000000" d="M161.1568,-123.3123C147.3325,-112.7354 147.1756,-86.7 124,-86.7"/>
<polygon fill="#000000" stroke="#000000" points="167.3739,-125.2828 173.9123,-131.1317 171.1869,-126.4914 175,-127.7 175,-127.7 175,-127.7 171.1869,-126.4914 176.0877,-124.2683 167.3739,-125.2828 167.3739,-125.2828"/>
<ellipse fill="none" stroke="#000000" cx="164.3235" cy="-124.3159" rx="3.2" ry="3.2"/>
</g>
</g>
</svg>
