<?xml version="1.0" encoding="UTF-8" standalone="no"?>
<!DOCTYPE svg PUBLIC "-//W3C//DTD SVG 1.1//EN"
 "http://www.w3.org/Graphics/SVG/1.1/DTD/svg11.dtd">
<!-- Generated by graphviz version 2.40.1 (20161225.0304)
 -->
<!-- Title: twoDegreesRelationshipsDiagram Pages: 1 -->
<svg width="369pt" height="831pt"
 viewBox="0.00 0.00 369.00 831.20" xmlns="http://www.w3.org/2000/svg" xmlns:xlink="http://www.w3.org/1999/xlink">
<g id="graph0" class="graph" transform="scale(1 1) rotate(0) translate(4 827.2)">
<title>twoDegreesRelationshipsDiagram</title>
<polygon fill="#ffffff" stroke="transparent" points="-4,4 -4,-827.2 365,-827.2 365,4 -4,4"/>
<text text-anchor="middle" x="72.4936" y="-7.3" font-family="Helvetica,sans-Serif" font-size="11.00" fill="#000000">Generated by SchemaSpy</text>
<!-- caract -->
<g id="node1" class="node">
<title>caract</title>
<g id="a_node1"><a xlink:href="../../tables/caract.html" xlink:title="caract" target="_top">
<polygon fill="#ffffff" stroke="transparent" points="211.5,-758.2 211.5,-819.2 283.5,-819.2 283.5,-758.2 211.5,-758.2"/>
<polygon fill="#f5f5f5" stroke="transparent" points="211.5,-795.7 211.5,-818.7 283.5,-818.7 283.5,-795.7 211.5,-795.7"/>
<polygon fill="none" stroke="#000000" points="211.5,-795.7 211.5,-818.7 283.5,-818.7 283.5,-795.7 211.5,-795.7"/>
<text text-anchor="start" x="216.0257" y="-804.8" font-family="Helvetica,sans-Serif" font-weight="bold" font-size="11.00" fill="#000000">caract</text>
<text text-anchor="start" x="249.0219" y="-803.8" font-family="Helvetica,sans-Serif" font-size="11.00" fill="#000000">[table]</text>
<polygon fill="none" stroke="#000000" points="211.5,-776.7 211.5,-795.7 283.5,-795.7 283.5,-776.7 211.5,-776.7"/>
<text text-anchor="start" x="214.5" y="-782.8" font-family="Helvetica,sans-Serif" font-size="11.00" fill="#000000">...</text>
<polygon fill="#ffffff" stroke="transparent" points="211.5,-757.7 211.5,-776.7 232.5,-776.7 232.5,-757.7 211.5,-757.7"/>
<polygon fill="none" stroke="#000000" points="211.5,-757.7 211.5,-776.7 232.5,-776.7 232.5,-757.7 211.5,-757.7"/>
<text text-anchor="start" x="214.2027" y="-763.8" font-family="Helvetica,sans-Serif" font-size="11.00" fill="#000000">&lt; 1</text>
<polygon fill="#ffffff" stroke="transparent" points="232.5,-757.7 232.5,-776.7 270.5,-776.7 270.5,-757.7 232.5,-757.7"/>
<polygon fill="none" stroke="#000000" points="232.5,-757.7 232.5,-776.7 270.5,-776.7 270.5,-757.7 232.5,-757.7"/>
<text text-anchor="start" x="235.3053" y="-763.8" font-family="Helvetica,sans-Serif" font-size="11.00" fill="#000000">0 rows</text>
<polygon fill="#ffffff" stroke="transparent" points="270.5,-757.7 270.5,-776.7 283.5,-776.7 283.5,-757.7 270.5,-757.7"/>
<polygon fill="none" stroke="#000000" points="270.5,-757.7 270.5,-776.7 283.5,-776.7 283.5,-757.7 270.5,-757.7"/>
<text text-anchor="start" x="274.3862" y="-763.8" font-family="Helvetica,sans-Serif" font-size="11.00" fill="#000000"> &#160;</text>
</a>
</g>
</g>
<!-- estradas -->
<g id="node2" class="node">
<title>estradas</title>
<g id="a_node2"><a xlink:href="../../tables/estradas.html" xlink:title="estradas" target="_top">
<polygon fill="#ffffff" stroke="transparent" points="8,-491.2 8,-574.2 93,-574.2 93,-491.2 8,-491.2"/>
<polygon fill="#f5f5f5" stroke="transparent" points="8.5,-550.7 8.5,-573.7 93.5,-573.7 93.5,-550.7 8.5,-550.7"/>
<polygon fill="none" stroke="#000000" points="8.5,-550.7 8.5,-573.7 93.5,-573.7 93.5,-550.7 8.5,-550.7"/>
<text text-anchor="start" x="13.4108" y="-559.8" font-family="Helvetica,sans-Serif" font-weight="bold" font-size="11.00" fill="#000000">estradas</text>
<text text-anchor="start" x="59.0219" y="-558.8" font-family="Helvetica,sans-Serif" font-size="11.00" fill="#000000">[table]</text>
<polygon fill="none" stroke="#000000" points="8.5,-528.7 8.5,-550.7 93.5,-550.7 93.5,-528.7 8.5,-528.7"/>
<image xlink:href="../../images/primaryKeys.png" width="11px" height="12px" preserveAspectRatio="xMinYMin meet" x="13.5" y="-545.7"/>
<text text-anchor="start" x="35.5" y="-535.8" font-family="Helvetica,sans-Serif" font-size="11.00" fill="#000000">id</text>
<polygon fill="none" stroke="#000000" points="8.5,-509.7 8.5,-528.7 93.5,-528.7 93.5,-509.7 8.5,-509.7"/>
<text text-anchor="start" x="11.5" y="-515.8" font-family="Helvetica,sans-Serif" font-size="11.00" fill="#000000">...</text>
<polygon fill="#ffffff" stroke="transparent" points="8.5,-490.7 8.5,-509.7 27.5,-509.7 27.5,-490.7 8.5,-490.7"/>
<polygon fill="none" stroke="#000000" points="8.5,-490.7 8.5,-509.7 27.5,-509.7 27.5,-490.7 8.5,-490.7"/>
<text text-anchor="start" x="11.5" y="-496.8" font-family="Helvetica,sans-Serif" font-size="11.00" fill="#000000"> &#160;</text>
<polygon fill="#ffffff" stroke="transparent" points="27.5,-490.7 27.5,-509.7 68.5,-509.7 68.5,-490.7 27.5,-490.7"/>
<polygon fill="none" stroke="#000000" points="27.5,-490.7 27.5,-509.7 68.5,-509.7 68.5,-490.7 27.5,-490.7"/>
<text text-anchor="start" x="33.1105" y="-496.8" font-family="Helvetica,sans-Serif" font-size="11.00" fill="#000000">0 rows</text>
<polygon fill="#ffffff" stroke="transparent" points="68.5,-490.7 68.5,-509.7 93.5,-509.7 93.5,-490.7 68.5,-490.7"/>
<polygon fill="none" stroke="#000000" points="68.5,-490.7 68.5,-509.7 93.5,-509.7 93.5,-490.7 68.5,-490.7"/>
<text text-anchor="start" x="74.9053" y="-496.8" font-family="Helvetica,sans-Serif" font-size="11.00" fill="#000000">7 &gt;</text>
</a>
</g>
</g>
<!-- caract&#45;&gt;estradas -->
<g id="edge1" class="edge">
<title>caract:w&#45;&gt;estradas:e</title>
<path fill="none" stroke="#000000" d="M200.8783,-785.4698C169.978,-784.008 155.0485,-775.1812 134,-747.7 76.7327,-672.9308 187.6805,-539.7 93.5,-539.7"/>
<polygon fill="#000000" stroke="#000000" points="210.7869,-781.6836 210.6135,-789.6817 209.0139,-789.647 209.1873,-781.6489 210.7869,-781.6836"/>
<polyline fill="none" stroke="#000000" points="211.5,-785.7 207.5009,-785.6133 "/>
<ellipse fill="none" stroke="#000000" cx="204.3017" cy="-785.544" rx="3.2" ry="3.2"/>
</g>
<!-- lrs_line -->
<g id="node3" class="node">
<title>lrs_line</title>
<g id="a_node3"><a xlink:href="../../tables/lrs_line.html" xlink:title="lrs_line" target="_top">
<polygon fill="#ffffff" stroke="transparent" points="209,-512.2 209,-573.2 286,-573.2 286,-512.2 209,-512.2"/>
<polygon fill="#f5f5f5" stroke="transparent" points="209.5,-549.7 209.5,-572.7 286.5,-572.7 286.5,-549.7 209.5,-549.7"/>
<polygon fill="none" stroke="#000000" points="209.5,-549.7 209.5,-572.7 286.5,-572.7 286.5,-549.7 209.5,-549.7"/>
<text text-anchor="start" x="214.0854" y="-558.8" font-family="Helvetica,sans-Serif" font-weight="bold" font-size="11.00" fill="#000000">lrs_line</text>
<text text-anchor="start" x="252.0219" y="-557.8" font-family="Helvetica,sans-Serif" font-size="11.00" fill="#000000">[table]</text>
<polygon fill="none" stroke="#000000" points="209.5,-530.7 209.5,-549.7 286.5,-549.7 286.5,-530.7 209.5,-530.7"/>
<text text-anchor="start" x="212.5" y="-536.8" font-family="Helvetica,sans-Serif" font-size="11.00" fill="#000000">...</text>
<polygon fill="#ffffff" stroke="transparent" points="209.5,-511.7 209.5,-530.7 233.5,-530.7 233.5,-511.7 209.5,-511.7"/>
<polygon fill="none" stroke="#000000" points="209.5,-511.7 209.5,-530.7 233.5,-530.7 233.5,-511.7 209.5,-511.7"/>
<text text-anchor="start" x="212.5" y="-517.8" font-family="Helvetica,sans-Serif" font-size="11.00" fill="#000000">&lt; 4</text>
<polygon fill="#ffffff" stroke="transparent" points="233.5,-511.7 233.5,-530.7 272.5,-530.7 272.5,-511.7 233.5,-511.7"/>
<polygon fill="none" stroke="#000000" points="233.5,-511.7 233.5,-530.7 272.5,-530.7 272.5,-511.7 233.5,-511.7"/>
<text text-anchor="start" x="237.1105" y="-517.8" font-family="Helvetica,sans-Serif" font-size="11.00" fill="#000000">0 rows</text>
<polygon fill="#ffffff" stroke="transparent" points="272.5,-511.7 272.5,-530.7 286.5,-530.7 286.5,-511.7 272.5,-511.7"/>
<polygon fill="none" stroke="#000000" points="272.5,-511.7 272.5,-530.7 286.5,-530.7 286.5,-511.7 272.5,-511.7"/>
<text text-anchor="start" x="277.3862" y="-517.8" font-family="Helvetica,sans-Serif" font-size="11.00" fill="#000000"> &#160;</text>
</a>
</g>
</g>
<!-- lrs_line&#45;&gt;estradas -->
<g id="edge3" class="edge">
<title>lrs_line:w&#45;&gt;estradas:e</title>
<path fill="none" stroke="#000000" d="M194.9072,-539.7C154.9275,-539.7 139.8194,-539.7 93.5,-539.7"/>
<polygon fill="#000000" stroke="#000000" points="201.5,-539.7001 209.5,-543.3 205.5,-539.7 209.5,-539.7 209.5,-539.7 209.5,-539.7 205.5,-539.7 209.5,-536.1 201.5,-539.7001 201.5,-539.7001"/>
<ellipse fill="none" stroke="#000000" cx="198.3" cy="-539.7001" rx="3.2" ry="3.2"/>
</g>
<!-- estado -->
<g id="node4" class="node">
<title>estado</title>
<g id="a_node4"><a xlink:href="../../tables/estado.html" xlink:title="estado" target="_top">
<polygon fill="#ffffff" stroke="transparent" points="12,-342.2 12,-425.2 89,-425.2 89,-342.2 12,-342.2"/>
<polygon fill="#f5f5f5" stroke="transparent" points="12.5,-401.7 12.5,-424.7 89.5,-424.7 89.5,-401.7 12.5,-401.7"/>
<polygon fill="none" stroke="#000000" points="12.5,-401.7 12.5,-424.7 89.5,-424.7 89.5,-401.7 12.5,-401.7"/>
<text text-anchor="start" x="17.5" y="-410.8" font-family="Helvetica,sans-Serif" font-weight="bold" font-size="11.00" fill="#000000">estado</text>
<text text-anchor="start" x="55.0219" y="-409.8" font-family="Helvetica,sans-Serif" font-size="11.00" fill="#000000">[table]</text>
<polygon fill="none" stroke="#000000" points="12.5,-379.7 12.5,-401.7 89.5,-401.7 89.5,-379.7 12.5,-379.7"/>
<image xlink:href="../../images/primaryKeys.png" width="11px" height="12px" preserveAspectRatio="xMinYMin meet" x="17.5" y="-396.7"/>
<text text-anchor="start" x="32.5" y="-386.8" font-family="Helvetica,sans-Serif" font-size="11.00" fill="#000000">id</text>
<polygon fill="none" stroke="#000000" points="12.5,-360.7 12.5,-379.7 89.5,-379.7 89.5,-360.7 12.5,-360.7"/>
<text text-anchor="start" x="15.5" y="-366.8" font-family="Helvetica,sans-Serif" font-size="11.00" fill="#000000">...</text>
<polygon fill="#ffffff" stroke="transparent" points="12.5,-341.7 12.5,-360.7 27.5,-360.7 27.5,-341.7 12.5,-341.7"/>
<polygon fill="none" stroke="#000000" points="12.5,-341.7 12.5,-360.7 27.5,-360.7 27.5,-341.7 12.5,-341.7"/>
<text text-anchor="start" x="15.5" y="-347.8" font-family="Helvetica,sans-Serif" font-size="11.00" fill="#000000"> &#160;</text>
<polygon fill="#ffffff" stroke="transparent" points="27.5,-341.7 27.5,-360.7 66.5,-360.7 66.5,-341.7 27.5,-341.7"/>
<polygon fill="none" stroke="#000000" points="27.5,-341.7 27.5,-360.7 66.5,-360.7 66.5,-341.7 27.5,-341.7"/>
<text text-anchor="start" x="31.1105" y="-347.8" font-family="Helvetica,sans-Serif" font-size="11.00" fill="#000000">0 rows</text>
<polygon fill="#ffffff" stroke="transparent" points="66.5,-341.7 66.5,-360.7 89.5,-360.7 89.5,-341.7 66.5,-341.7"/>
<polygon fill="none" stroke="#000000" points="66.5,-341.7 66.5,-360.7 89.5,-360.7 89.5,-341.7 66.5,-341.7"/>
<text text-anchor="start" x="70.9053" y="-347.8" font-family="Helvetica,sans-Serif" font-size="11.00" fill="#000000">4 &gt;</text>
</a>
</g>
</g>
<!-- lrs_line&#45;&gt;estado -->
<g id="edge2" class="edge">
<title>lrs_line:w&#45;&gt;estado:e</title>
<path fill="none" stroke="#000000" d="M195.032,-539.0676C168.1569,-536.4513 155.8371,-525.4772 134,-501.7 98.0481,-462.5541 142.6501,-390.7 89.5,-390.7"/>
<polygon fill="#000000" stroke="#000000" points="201.5076,-539.3506 209.3428,-543.2966 205.5038,-539.5253 209.5,-539.7 209.5,-539.7 209.5,-539.7 205.5038,-539.5253 209.6572,-536.1034 201.5076,-539.3506 201.5076,-539.3506"/>
<ellipse fill="none" stroke="#000000" cx="198.3107" cy="-539.2108" rx="3.2" ry="3.2"/>
</g>
<!-- lado -->
<g id="node5" class="node">
<title>lado</title>
<g id="a_node5"><a xlink:href="../../tables/lado.html" xlink:title="lado" target="_top">
<polygon fill="#ffffff" stroke="transparent" points="12,-149.2 12,-232.2 89,-232.2 89,-149.2 12,-149.2"/>
<polygon fill="#f5f5f5" stroke="transparent" points="12.5,-208.7 12.5,-231.7 89.5,-231.7 89.5,-208.7 12.5,-208.7"/>
<polygon fill="none" stroke="#000000" points="12.5,-208.7 12.5,-231.7 89.5,-231.7 89.5,-208.7 12.5,-208.7"/>
<text text-anchor="start" x="17.5" y="-217.8" font-family="Helvetica,sans-Serif" font-weight="bold" font-size="11.00" fill="#000000">lado</text>
<text text-anchor="start" x="54.5437" y="-216.8" font-family="Helvetica,sans-Serif" font-size="11.00" fill="#000000">[table]</text>
<polygon fill="none" stroke="#000000" points="12.5,-186.7 12.5,-208.7 89.5,-208.7 89.5,-186.7 12.5,-186.7"/>
<image xlink:href="../../images/primaryKeys.png" width="11px" height="12px" preserveAspectRatio="xMinYMin meet" x="17.5" y="-203.7"/>
<text text-anchor="start" x="32.5" y="-193.8" font-family="Helvetica,sans-Serif" font-size="11.00" fill="#000000">id</text>
<polygon fill="none" stroke="#000000" points="12.5,-167.7 12.5,-186.7 89.5,-186.7 89.5,-167.7 12.5,-167.7"/>
<text text-anchor="start" x="15.5" y="-173.8" font-family="Helvetica,sans-Serif" font-size="11.00" fill="#000000">...</text>
<polygon fill="#ffffff" stroke="transparent" points="12.5,-148.7 12.5,-167.7 27.5,-167.7 27.5,-148.7 12.5,-148.7"/>
<polygon fill="none" stroke="#000000" points="12.5,-148.7 12.5,-167.7 27.5,-167.7 27.5,-148.7 12.5,-148.7"/>
<text text-anchor="start" x="15.5" y="-154.8" font-family="Helvetica,sans-Serif" font-size="11.00" fill="#000000"> &#160;</text>
<polygon fill="#ffffff" stroke="transparent" points="27.5,-148.7 27.5,-167.7 66.5,-167.7 66.5,-148.7 27.5,-148.7"/>
<polygon fill="none" stroke="#000000" points="27.5,-148.7 27.5,-167.7 66.5,-167.7 66.5,-148.7 27.5,-148.7"/>
<text text-anchor="start" x="31.1105" y="-154.8" font-family="Helvetica,sans-Serif" font-size="11.00" fill="#000000">0 rows</text>
<polygon fill="#ffffff" stroke="transparent" points="66.5,-148.7 66.5,-167.7 89.5,-167.7 89.5,-148.7 66.5,-148.7"/>
<polygon fill="none" stroke="#000000" points="66.5,-148.7 66.5,-167.7 89.5,-167.7 89.5,-148.7 66.5,-148.7"/>
<text text-anchor="start" x="70.9053" y="-154.8" font-family="Helvetica,sans-Serif" font-size="11.00" fill="#000000">4 &gt;</text>
</a>
</g>
</g>
<!-- lrs_line&#45;&gt;lado -->
<g id="edge4" class="edge">
<title>lrs_line:w&#45;&gt;lado:e</title>
<path fill="none" stroke="#000000" d="M194.857,-539.2102C167.3271,-537.1277 152.887,-527.882 134,-501.7 94.0563,-446.3281 157.7755,-197.7 89.5,-197.7"/>
<polygon fill="#000000" stroke="#000000" points="201.5045,-539.4325 209.3796,-543.298 205.5022,-539.5663 209.5,-539.7 209.5,-539.7 209.5,-539.7 205.5022,-539.5663 209.6204,-536.102 201.5045,-539.4325 201.5045,-539.4325"/>
<ellipse fill="none" stroke="#000000" cx="198.3063" cy="-539.3255" rx="3.2" ry="3.2"/>
</g>
<!-- lrs_node -->
<g id="node6" class="node">
<title>lrs_node</title>
<g id="a_node6"><a xlink:href="../../tables/lrs_node.html" xlink:title="lrs_node" target="_top">
<polygon fill="#ffffff" stroke="transparent" points="205,-430.2 205,-491.2 290,-491.2 290,-430.2 205,-430.2"/>
<polygon fill="#f5f5f5" stroke="transparent" points="205.5,-467.7 205.5,-490.7 290.5,-490.7 290.5,-467.7 205.5,-467.7"/>
<polygon fill="none" stroke="#000000" points="205.5,-467.7 205.5,-490.7 290.5,-490.7 290.5,-467.7 205.5,-467.7"/>
<text text-anchor="start" x="210.4114" y="-476.8" font-family="Helvetica,sans-Serif" font-weight="bold" font-size="11.00" fill="#000000">lrs_node</text>
<text text-anchor="start" x="256.0219" y="-475.8" font-family="Helvetica,sans-Serif" font-size="11.00" fill="#000000">[table]</text>
<polygon fill="none" stroke="#000000" points="205.5,-448.7 205.5,-467.7 290.5,-467.7 290.5,-448.7 205.5,-448.7"/>
<text text-anchor="start" x="208.5" y="-454.8" font-family="Helvetica,sans-Serif" font-size="11.00" fill="#000000">...</text>
<polygon fill="#ffffff" stroke="transparent" points="205.5,-429.7 205.5,-448.7 233.5,-448.7 233.5,-429.7 205.5,-429.7"/>
<polygon fill="none" stroke="#000000" points="205.5,-429.7 205.5,-448.7 233.5,-448.7 233.5,-429.7 205.5,-429.7"/>
<text text-anchor="start" x="208.5" y="-435.8" font-family="Helvetica,sans-Serif" font-size="11.00" fill="#000000">&lt; 4</text>
<polygon fill="#ffffff" stroke="transparent" points="233.5,-429.7 233.5,-448.7 274.5,-448.7 274.5,-429.7 233.5,-429.7"/>
<polygon fill="none" stroke="#000000" points="233.5,-429.7 233.5,-448.7 274.5,-448.7 274.5,-429.7 233.5,-429.7"/>
<text text-anchor="start" x="239.1105" y="-435.8" font-family="Helvetica,sans-Serif" font-size="11.00" fill="#000000">0 rows</text>
<polygon fill="#ffffff" stroke="transparent" points="274.5,-429.7 274.5,-448.7 290.5,-448.7 290.5,-429.7 274.5,-429.7"/>
<polygon fill="none" stroke="#000000" points="274.5,-429.7 274.5,-448.7 290.5,-448.7 290.5,-429.7 274.5,-429.7"/>
<text text-anchor="start" x="281.3862" y="-435.8" font-family="Helvetica,sans-Serif" font-size="11.00" fill="#000000"> &#160;</text>
</a>
</g>
</g>
<!-- lrs_node&#45;&gt;estradas -->
<g id="edge6" class="edge">
<title>lrs_node:w&#45;&gt;estradas:e</title>
<path fill="none" stroke="#000000" d="M190.861,-459.0452C166.2856,-464.0647 159.2447,-482.4048 134,-501.7 114.3896,-516.6888 118.1827,-539.7 93.5,-539.7"/>
<polygon fill="#000000" stroke="#000000" points="197.5336,-458.4321 205.8294,-461.2849 201.5168,-458.066 205.5,-457.7 205.5,-457.7 205.5,-457.7 201.5168,-458.066 205.1706,-454.1151 197.5336,-458.4321 197.5336,-458.4321"/>
<ellipse fill="none" stroke="#000000" cx="194.347" cy="-458.7249" rx="3.2" ry="3.2"/>
</g>
<!-- lrs_node&#45;&gt;estado -->
<g id="edge5" class="edge">
<title>lrs_node:w&#45;&gt;estado:e</title>
<path fill="none" stroke="#000000" d="M190.9833,-456.3413C167.4294,-451.4524 160.4661,-434.2242 134,-418.7 113.8444,-406.8773 112.8672,-390.7 89.5,-390.7"/>
<polygon fill="#000000" stroke="#000000" points="197.5348,-456.9544 205.1645,-461.2843 201.5174,-457.3272 205.5,-457.7 205.5,-457.7 205.5,-457.7 201.5174,-457.3272 205.8355,-454.1157 197.5348,-456.9544 197.5348,-456.9544"/>
<ellipse fill="none" stroke="#000000" cx="194.3487" cy="-456.6562" rx="3.2" ry="3.2"/>
</g>
<!-- lrs_node&#45;&gt;lado -->
<g id="edge7" class="edge">
<title>lrs_node:w&#45;&gt;lado:e</title>
<path fill="none" stroke="#000000" d="M190.7612,-457.0174C165.0285,-454.348 152.2863,-443.5146 134,-418.7 74.5613,-338.0414 189.6936,-197.7 89.5,-197.7"/>
<polygon fill="#000000" stroke="#000000" points="197.5086,-457.3299 205.3334,-461.2961 201.5043,-457.5149 205.5,-457.7 205.5,-457.7 205.5,-457.7 201.5043,-457.5149 205.6666,-454.1039 197.5086,-457.3299 197.5086,-457.3299"/>
<ellipse fill="none" stroke="#000000" cx="194.312" cy="-457.1818" rx="3.2" ry="3.2"/>
</g>
<!-- patologias -->
<g id="node7" class="node">
<title>patologias</title>
<g id="a_node7"><a xlink:href="../../tables/patologias.html" xlink:title="patologias" target="_top">
<polygon fill="#ffffff" stroke="transparent" points="201,-676.2 201,-737.2 294,-737.2 294,-676.2 201,-676.2"/>
<polygon fill="#f5f5f5" stroke="transparent" points="201.5,-713.7 201.5,-736.7 294.5,-736.7 294.5,-713.7 201.5,-713.7"/>
<polygon fill="none" stroke="#000000" points="201.5,-713.7 201.5,-736.7 294.5,-736.7 294.5,-713.7 201.5,-713.7"/>
<text text-anchor="start" x="206.436" y="-722.8" font-family="Helvetica,sans-Serif" font-weight="bold" font-size="11.00" fill="#000000">patologias</text>
<text text-anchor="start" x="260.0219" y="-721.8" font-family="Helvetica,sans-Serif" font-size="11.00" fill="#000000">[table]</text>
<polygon fill="none" stroke="#000000" points="201.5,-694.7 201.5,-713.7 294.5,-713.7 294.5,-694.7 201.5,-694.7"/>
<text text-anchor="start" x="204.5" y="-700.8" font-family="Helvetica,sans-Serif" font-size="11.00" fill="#000000">...</text>
<polygon fill="#ffffff" stroke="transparent" points="201.5,-675.7 201.5,-694.7 233.5,-694.7 233.5,-675.7 201.5,-675.7"/>
<polygon fill="none" stroke="#000000" points="201.5,-675.7 201.5,-694.7 233.5,-694.7 233.5,-675.7 201.5,-675.7"/>
<text text-anchor="start" x="204.5" y="-681.8" font-family="Helvetica,sans-Serif" font-size="11.00" fill="#000000">&lt; 2</text>
<polygon fill="#ffffff" stroke="transparent" points="233.5,-675.7 233.5,-694.7 276.5,-694.7 276.5,-675.7 233.5,-675.7"/>
<polygon fill="none" stroke="#000000" points="233.5,-675.7 233.5,-694.7 276.5,-694.7 276.5,-675.7 233.5,-675.7"/>
<text text-anchor="start" x="241.1105" y="-681.8" font-family="Helvetica,sans-Serif" font-size="11.00" fill="#000000">0 rows</text>
<polygon fill="#ffffff" stroke="transparent" points="276.5,-675.7 276.5,-694.7 294.5,-694.7 294.5,-675.7 276.5,-675.7"/>
<polygon fill="none" stroke="#000000" points="276.5,-675.7 276.5,-694.7 294.5,-694.7 294.5,-675.7 276.5,-675.7"/>
<text text-anchor="start" x="285.3862" y="-681.8" font-family="Helvetica,sans-Serif" font-size="11.00" fill="#000000"> &#160;</text>
</a>
</g>
</g>
<!-- patologias&#45;&gt;estradas -->
<g id="edge8" class="edge">
<title>patologias:w&#45;&gt;estradas:e</title>
<path fill="none" stroke="#000000" d="M186.9277,-702.855C163.2847,-699.7852 152.3672,-688.204 134,-665.7 96.8066,-620.1297 152.3218,-539.7 93.5,-539.7"/>
<polygon fill="#000000" stroke="#000000" points="193.5134,-703.2368 201.2916,-707.294 197.5067,-703.4684 201.5,-703.7 201.5,-703.7 201.5,-703.7 197.5067,-703.4684 201.7084,-700.106 193.5134,-703.2368 193.5134,-703.2368"/>
<ellipse fill="none" stroke="#000000" cx="190.3188" cy="-703.0515" rx="3.2" ry="3.2"/>
</g>
<!-- rails -->
<g id="node8" class="node">
<title>rails</title>
<g id="a_node8"><a xlink:href="../../tables/rails.html" xlink:title="rails" target="_top">
<polygon fill="#ffffff" stroke="transparent" points="142,-120.7 142,-408.7 353,-408.7 353,-120.7 142,-120.7"/>
<polygon fill="#f5f5f5" stroke="transparent" points="144.5,-383.7 144.5,-406.7 351.5,-406.7 351.5,-383.7 144.5,-383.7"/>
<polygon fill="none" stroke="#000000" points="144.5,-383.7 144.5,-406.7 351.5,-406.7 351.5,-383.7 144.5,-383.7"/>
<text text-anchor="start" x="149.5" y="-392.8" font-family="Helvetica,sans-Serif" font-weight="bold" font-size="11.00" fill="#000000">rails</text>
<text text-anchor="start" x="316.5437" y="-391.8" font-family="Helvetica,sans-Serif" font-size="11.00" fill="#000000">[table]</text>
<polygon fill="none" stroke="#000000" points="144.5,-361.7 144.5,-383.7 232.5,-383.7 232.5,-361.7 144.5,-361.7"/>
<image xlink:href="../../images/primaryKeys.png" width="11px" height="12px" preserveAspectRatio="xMinYMin meet" x="149.5" y="-378.7"/>
<text text-anchor="start" x="164.5" y="-368.8" font-family="Helvetica,sans-Serif" font-size="11.00" fill="#000000">id</text>
<polygon fill="none" stroke="#000000" points="232.5,-361.7 232.5,-383.7 351.5,-383.7 351.5,-361.7 232.5,-361.7"/>
<text text-anchor="start" x="235.5" y="-369.4" font-family="Helvetica,sans-Serif" font-size="11.00" fill="#000000">serial[10]</text>
<polygon fill="none" stroke="#000000" points="144.5,-339.7 144.5,-361.7 232.5,-361.7 232.5,-339.7 144.5,-339.7"/>
<text text-anchor="start" x="164.5" y="-346.8" font-family="Helvetica,sans-Serif" font-size="11.00" fill="#000000">geom</text>
<polygon fill="none" stroke="#000000" points="232.5,-339.7 232.5,-361.7 351.5,-361.7 351.5,-339.7 232.5,-339.7"/>
<text text-anchor="start" x="235.4485" y="-347.4" font-family="Helvetica,sans-Serif" font-size="11.00" fill="#000000">geometry[2147483647]</text>
<polygon fill="none" stroke="#000000" points="144.5,-317.7 144.5,-339.7 232.5,-339.7 232.5,-317.7 144.5,-317.7"/>
<text text-anchor="start" x="164.5" y="-324.8" font-family="Helvetica,sans-Serif" font-size="11.00" fill="#000000">start_m</text>
<polygon fill="none" stroke="#000000" points="232.5,-317.7 232.5,-339.7 351.5,-339.7 351.5,-317.7 232.5,-317.7"/>
<text text-anchor="start" x="235.5" y="-325.4" font-family="Helvetica,sans-Serif" font-size="11.00" fill="#000000">float8[17,17]</text>
<polygon fill="none" stroke="#000000" points="144.5,-295.7 144.5,-317.7 232.5,-317.7 232.5,-295.7 144.5,-295.7"/>
<text text-anchor="start" x="164.5" y="-302.8" font-family="Helvetica,sans-Serif" font-size="11.00" fill="#000000">end_m</text>
<polygon fill="none" stroke="#000000" points="232.5,-295.7 232.5,-317.7 351.5,-317.7 351.5,-295.7 232.5,-295.7"/>
<text text-anchor="start" x="235.5" y="-303.4" font-family="Helvetica,sans-Serif" font-size="11.00" fill="#000000">float8[17,17]</text>
<polygon fill="none" stroke="#000000" points="144.5,-273.7 144.5,-295.7 232.5,-295.7 232.5,-273.7 144.5,-273.7"/>
<text text-anchor="start" x="164.5" y="-280.8" font-family="Helvetica,sans-Serif" font-size="11.00" fill="#000000">refletor</text>
<polygon fill="none" stroke="#000000" points="232.5,-273.7 232.5,-295.7 351.5,-295.7 351.5,-273.7 232.5,-273.7"/>
<text text-anchor="start" x="235.5" y="-281.4" font-family="Helvetica,sans-Serif" font-size="11.00" fill="#000000">bool[1]</text>
<polygon fill="none" stroke="#000000" points="144.5,-251.7 144.5,-273.7 232.5,-273.7 232.5,-251.7 144.5,-251.7"/>
<text text-anchor="start" x="164.5" y="-258.8" font-family="Helvetica,sans-Serif" font-size="11.00" fill="#000000">pmoto</text>
<polygon fill="none" stroke="#000000" points="232.5,-251.7 232.5,-273.7 351.5,-273.7 351.5,-251.7 232.5,-251.7"/>
<text text-anchor="start" x="235.5" y="-259.4" font-family="Helvetica,sans-Serif" font-size="11.00" fill="#000000">bool[1]</text>
<polygon fill="none" stroke="#000000" points="144.5,-229.7 144.5,-251.7 232.5,-251.7 232.5,-229.7 144.5,-229.7"/>
<text text-anchor="start" x="164.5" y="-236.8" font-family="Helvetica,sans-Serif" font-size="11.00" fill="#000000">cauda</text>
<polygon fill="none" stroke="#000000" points="232.5,-229.7 232.5,-251.7 351.5,-251.7 351.5,-229.7 232.5,-229.7"/>
<text text-anchor="start" x="235.5" y="-237.4" font-family="Helvetica,sans-Serif" font-size="11.00" fill="#000000">varchar[24]</text>
<polygon fill="none" stroke="#000000" points="144.5,-207.7 144.5,-229.7 232.5,-229.7 232.5,-207.7 144.5,-207.7"/>
<text text-anchor="start" x="164.5" y="-214.8" font-family="Helvetica,sans-Serif" font-size="11.00" fill="#000000">obs</text>
<polygon fill="none" stroke="#000000" points="232.5,-207.7 232.5,-229.7 351.5,-229.7 351.5,-207.7 232.5,-207.7"/>
<text text-anchor="start" x="235.5" y="-215.4" font-family="Helvetica,sans-Serif" font-size="11.00" fill="#000000">text[2147483647]</text>
<polygon fill="none" stroke="#000000" points="144.5,-185.7 144.5,-207.7 232.5,-207.7 232.5,-185.7 144.5,-185.7"/>
<image xlink:href="../../images/foreignKeys.png" width="11px" height="12px" preserveAspectRatio="xMinYMin meet" x="149.5" y="-202.7"/>
<text text-anchor="start" x="164.5" y="-192.8" font-family="Helvetica,sans-Serif" font-size="11.00" fill="#000000">id_estradas</text>
<polygon fill="none" stroke="#000000" points="232.5,-185.7 232.5,-207.7 351.5,-207.7 351.5,-185.7 232.5,-185.7"/>
<text text-anchor="start" x="235.5" y="-193.4" font-family="Helvetica,sans-Serif" font-size="11.00" fill="#000000">int4[10]</text>
<polygon fill="none" stroke="#000000" points="144.5,-163.7 144.5,-185.7 232.5,-185.7 232.5,-163.7 144.5,-163.7"/>
<image xlink:href="../../images/foreignKeys.png" width="11px" height="12px" preserveAspectRatio="xMinYMin meet" x="149.5" y="-180.7"/>
<text text-anchor="start" x="164.5" y="-170.8" font-family="Helvetica,sans-Serif" font-size="11.00" fill="#000000">id_estado</text>
<polygon fill="none" stroke="#000000" points="232.5,-163.7 232.5,-185.7 351.5,-185.7 351.5,-163.7 232.5,-163.7"/>
<text text-anchor="start" x="235.5" y="-171.4" font-family="Helvetica,sans-Serif" font-size="11.00" fill="#000000">int4[10]</text>
<polygon fill="none" stroke="#000000" points="144.5,-141.7 144.5,-163.7 232.5,-163.7 232.5,-141.7 144.5,-141.7"/>
<image xlink:href="../../images/foreignKeys.png" width="11px" height="12px" preserveAspectRatio="xMinYMin meet" x="149.5" y="-158.7"/>
<text text-anchor="start" x="164.5" y="-148.8" font-family="Helvetica,sans-Serif" font-size="11.00" fill="#000000">id_lado</text>
<polygon fill="none" stroke="#000000" points="232.5,-141.7 232.5,-163.7 351.5,-163.7 351.5,-141.7 232.5,-141.7"/>
<text text-anchor="start" x="235.5" y="-149.4" font-family="Helvetica,sans-Serif" font-size="11.00" fill="#000000">int4[10]</text>
<polygon fill="#ffffff" stroke="transparent" points="144.5,-122.7 144.5,-141.7 179.5,-141.7 179.5,-122.7 144.5,-122.7"/>
<polygon fill="none" stroke="#000000" points="144.5,-122.7 144.5,-141.7 179.5,-141.7 179.5,-122.7 144.5,-122.7"/>
<text text-anchor="start" x="147.5" y="-128.8" font-family="Helvetica,sans-Serif" font-size="11.00" fill="#000000">&lt; 3</text>
<polygon fill="#ffffff" stroke="transparent" points="179.5,-122.7 179.5,-141.7 232.5,-141.7 232.5,-122.7 179.5,-122.7"/>
<polygon fill="none" stroke="#000000" points="179.5,-122.7 179.5,-141.7 232.5,-141.7 232.5,-122.7 179.5,-122.7"/>
<text text-anchor="start" x="197.1105" y="-128.8" font-family="Helvetica,sans-Serif" font-size="11.00" fill="#000000">0 rows</text>
<polygon fill="#ffffff" stroke="transparent" points="232.5,-122.7 232.5,-141.7 351.5,-141.7 351.5,-122.7 232.5,-122.7"/>
<polygon fill="none" stroke="#000000" points="232.5,-122.7 232.5,-141.7 351.5,-141.7 351.5,-122.7 232.5,-122.7"/>
<text text-anchor="start" x="332.9053" y="-128.8" font-family="Helvetica,sans-Serif" font-size="11.00" fill="#000000">0 &gt;</text>
<polygon fill="none" stroke="#000000" stroke-width="2" points="143,-121.7 143,-407.7 352,-407.7 352,-121.7 143,-121.7"/>
</a>
</g>
</g>
<!-- rails&#45;&gt;estradas -->
<g id="edge10" class="edge">
<title>rails:w&#45;&gt;estradas:e</title>
<path fill="none" stroke="#000000" d="M130.7922,-201.5488C81.0503,-243.2386 165.1419,-539.7 93.5,-539.7"/>
<polygon fill="#000000" stroke="#000000" points="136.9579,-199.3678 145.7005,-200.0939 140.729,-198.0339 144.5,-196.7 144.5,-196.7 144.5,-196.7 140.729,-198.0339 143.2995,-193.3061 136.9579,-199.3678 136.9579,-199.3678"/>
<ellipse fill="none" stroke="#000000" cx="133.9411" cy="-200.435" rx="3.2" ry="3.2"/>
</g>
<!-- rails&#45;&gt;estado -->
<g id="edge9" class="edge">
<title>rails:w&#45;&gt;estado:e</title>
<path fill="none" stroke="#000000" d="M129.9099,-176.7004C60.8733,-198.4758 182.9523,-390.7 89.5,-390.7"/>
<polygon fill="#000000" stroke="#000000" points="136.5741,-175.7867 144.989,-178.2666 140.5371,-175.2434 144.5,-174.7 144.5,-174.7 144.5,-174.7 140.5371,-175.2434 144.011,-171.1334 136.5741,-175.7867 136.5741,-175.7867"/>
<ellipse fill="none" stroke="#000000" cx="133.4038" cy="-176.2214" rx="3.2" ry="3.2"/>
</g>
<!-- rails&#45;&gt;lado -->
<g id="edge11" class="edge">
<title>rails:w&#45;&gt;lado:e</title>
<path fill="none" stroke="#000000" d="M130.4026,-156.8528C114.5816,-167.993 115.1618,-197.7 89.5,-197.7"/>
<polygon fill="#000000" stroke="#000000" points="136.826,-154.9606 145.5173,-156.1533 140.663,-153.8303 144.5,-152.7 144.5,-152.7 144.5,-152.7 140.663,-153.8303 143.4827,-149.2467 136.826,-154.9606 136.826,-154.9606"/>
<ellipse fill="none" stroke="#000000" cx="133.7565" cy="-155.8649" rx="3.2" ry="3.2"/>
</g>
<!-- trocos -->
<g id="node9" class="node">
<title>trocos</title>
<g id="a_node9"><a xlink:href="../../tables/trocos.html" xlink:title="trocos" target="_top">
<polygon fill="#ffffff" stroke="transparent" points="207.5,-594.2 207.5,-655.2 287.5,-655.2 287.5,-594.2 207.5,-594.2"/>
<polygon fill="#f5f5f5" stroke="transparent" points="207.5,-631.7 207.5,-654.7 287.5,-654.7 287.5,-631.7 207.5,-631.7"/>
<polygon fill="none" stroke="#000000" points="207.5,-631.7 207.5,-654.7 287.5,-654.7 287.5,-631.7 207.5,-631.7"/>
<text text-anchor="start" x="212.5" y="-640.8" font-family="Helvetica,sans-Serif" font-weight="bold" font-size="11.00" fill="#000000">trocos</text>
<text text-anchor="start" x="252.5437" y="-639.8" font-family="Helvetica,sans-Serif" font-size="11.00" fill="#000000">[table]</text>
<polygon fill="none" stroke="#000000" points="207.5,-612.7 207.5,-631.7 287.5,-631.7 287.5,-612.7 207.5,-612.7"/>
<text text-anchor="start" x="210.5" y="-618.8" font-family="Helvetica,sans-Serif" font-size="11.00" fill="#000000">...</text>
<polygon fill="#ffffff" stroke="transparent" points="207.5,-593.7 207.5,-612.7 228.5,-612.7 228.5,-593.7 207.5,-593.7"/>
<polygon fill="none" stroke="#000000" points="207.5,-593.7 207.5,-612.7 228.5,-612.7 228.5,-593.7 207.5,-593.7"/>
<text text-anchor="start" x="210.2027" y="-599.8" font-family="Helvetica,sans-Serif" font-size="11.00" fill="#000000">&lt; 2</text>
<polygon fill="#ffffff" stroke="transparent" points="228.5,-593.7 228.5,-612.7 266.5,-612.7 266.5,-593.7 228.5,-593.7"/>
<polygon fill="none" stroke="#000000" points="228.5,-593.7 228.5,-612.7 266.5,-612.7 266.5,-593.7 228.5,-593.7"/>
<text text-anchor="start" x="231.3053" y="-599.8" font-family="Helvetica,sans-Serif" font-size="11.00" fill="#000000">0 rows</text>
<polygon fill="#ffffff" stroke="transparent" points="266.5,-593.7 266.5,-612.7 287.5,-612.7 287.5,-593.7 266.5,-593.7"/>
<polygon fill="none" stroke="#000000" points="266.5,-593.7 266.5,-612.7 287.5,-612.7 287.5,-593.7 266.5,-593.7"/>
<text text-anchor="start" x="269.2027" y="-599.8" font-family="Helvetica,sans-Serif" font-size="11.00" fill="#000000">1 &gt;</text>
</a>
</g>
</g>
<!-- trocos&#45;&gt;estradas -->
<g id="edge12" class="edge">
<title>trocos:w&#45;&gt;estradas:e</title>
<path fill="none" stroke="#000000" d="M192.8925,-620.6927C168.0219,-616.897 158.8923,-602.701 134,-583.7 112.8731,-567.5732 120.0786,-539.7 93.5,-539.7"/>
<polygon fill="#000000" stroke="#000000" points="199.519,-621.1496 207.2523,-625.2915 203.5095,-621.4248 207.5,-621.7 207.5,-621.7 207.5,-621.7 203.5095,-621.4248 207.7477,-618.1085 199.519,-621.1496 199.519,-621.1496"/>
<ellipse fill="none" stroke="#000000" cx="196.3265" cy="-620.9294" rx="3.2" ry="3.2"/>
</g>
<!-- valetas -->
<g id="node10" class="node">
<title>valetas</title>
<g id="a_node10"><a xlink:href="../../tables/valetas.html" xlink:title="valetas" target="_top">
<polygon fill="#ffffff" stroke="transparent" points="209,-38.2 209,-99.2 286,-99.2 286,-38.2 209,-38.2"/>
<polygon fill="#f5f5f5" stroke="transparent" points="209.5,-75.7 209.5,-98.7 286.5,-98.7 286.5,-75.7 209.5,-75.7"/>
<polygon fill="none" stroke="#000000" points="209.5,-75.7 209.5,-98.7 286.5,-98.7 286.5,-75.7 209.5,-75.7"/>
<text text-anchor="start" x="214.0788" y="-84.8" font-family="Helvetica,sans-Serif" font-weight="bold" font-size="11.00" fill="#000000">valetas</text>
<text text-anchor="start" x="252.0219" y="-83.8" font-family="Helvetica,sans-Serif" font-size="11.00" fill="#000000">[table]</text>
<polygon fill="none" stroke="#000000" points="209.5,-56.7 209.5,-75.7 286.5,-75.7 286.5,-56.7 209.5,-56.7"/>
<text text-anchor="start" x="212.5" y="-62.8" font-family="Helvetica,sans-Serif" font-size="11.00" fill="#000000">...</text>
<polygon fill="#ffffff" stroke="transparent" points="209.5,-37.7 209.5,-56.7 233.5,-56.7 233.5,-37.7 209.5,-37.7"/>
<polygon fill="none" stroke="#000000" points="209.5,-37.7 209.5,-56.7 233.5,-56.7 233.5,-37.7 209.5,-37.7"/>
<text text-anchor="start" x="212.5" y="-43.8" font-family="Helvetica,sans-Serif" font-size="11.00" fill="#000000">&lt; 4</text>
<polygon fill="#ffffff" stroke="transparent" points="233.5,-37.7 233.5,-56.7 272.5,-56.7 272.5,-37.7 233.5,-37.7"/>
<polygon fill="none" stroke="#000000" points="233.5,-37.7 233.5,-56.7 272.5,-56.7 272.5,-37.7 233.5,-37.7"/>
<text text-anchor="start" x="237.1105" y="-43.8" font-family="Helvetica,sans-Serif" font-size="11.00" fill="#000000">0 rows</text>
<polygon fill="#ffffff" stroke="transparent" points="272.5,-37.7 272.5,-56.7 286.5,-56.7 286.5,-37.7 272.5,-37.7"/>
<polygon fill="none" stroke="#000000" points="272.5,-37.7 272.5,-56.7 286.5,-56.7 286.5,-37.7 272.5,-37.7"/>
<text text-anchor="start" x="277.3862" y="-43.8" font-family="Helvetica,sans-Serif" font-size="11.00" fill="#000000"> &#160;</text>
</a>
</g>
</g>
<!-- valetas&#45;&gt;estradas -->
<g id="edge14" class="edge">
<title>valetas:w&#45;&gt;estradas:e</title>
<path fill="none" stroke="#000000" d="M194.7927,-66.3581C166.2583,-69.1831 152.0511,-81.4459 134,-109.7 108.1632,-150.1404 141.4892,-539.7 93.5,-539.7"/>
<polygon fill="#000000" stroke="#000000" points="201.508,-66.0577 209.6609,-69.2964 205.504,-65.8788 209.5,-65.7 209.5,-65.7 209.5,-65.7 205.504,-65.8788 209.3391,-62.1036 201.508,-66.0577 201.508,-66.0577"/>
<ellipse fill="none" stroke="#000000" cx="198.3112" cy="-66.2007" rx="3.2" ry="3.2"/>
</g>
<!-- valetas&#45;&gt;estado -->
<g id="edge13" class="edge">
<title>valetas:w&#45;&gt;estado:e</title>
<path fill="none" stroke="#000000" d="M194.8422,-66.3908C166.4998,-69.3427 152.9341,-82.0298 134,-109.7 98.2968,-161.8764 152.7226,-390.7 89.5,-390.7"/>
<polygon fill="#000000" stroke="#000000" points="201.5089,-66.0767 209.6695,-69.296 205.5044,-65.8883 209.5,-65.7 209.5,-65.7 209.5,-65.7 205.5044,-65.8883 209.3305,-62.104 201.5089,-66.0767 201.5089,-66.0767"/>
<ellipse fill="none" stroke="#000000" cx="198.3124" cy="-66.2273" rx="3.2" ry="3.2"/>
</g>
<!-- valetas&#45;&gt;lado -->
<g id="edge15" class="edge">
<title>valetas:w&#45;&gt;lado:e</title>
<path fill="none" stroke="#000000" d="M195.0698,-66.5741C167.6095,-70.2362 156.9925,-85.2975 134,-109.7 103.9446,-141.5985 133.3274,-197.7 89.5,-197.7"/>
<polygon fill="#000000" stroke="#000000" points="201.5146,-66.1837 209.7177,-69.2934 205.5073,-65.9419 209.5,-65.7 209.5,-65.7 209.5,-65.7 205.5073,-65.9419 209.2823,-62.1066 201.5146,-66.1837 201.5146,-66.1837"/>
<ellipse fill="none" stroke="#000000" cx="198.3205" cy="-66.3772" rx="3.2" ry="3.2"/>
</g>
</g>
</svg>
