<?xml version="1.0" encoding="UTF-8" standalone="no"?>
<!DOCTYPE svg PUBLIC "-//W3C//DTD SVG 1.1//EN"
 "http://www.w3.org/Graphics/SVG/1.1/DTD/svg11.dtd">
<!-- Generated by graphviz version 2.40.1 (20161225.0304)
 -->
<!-- Title: oneDegreeRelationshipsDiagram Pages: 1 -->
<svg width="369pt" height="437pt"
 viewBox="0.00 0.00 369.00 436.70" xmlns="http://www.w3.org/2000/svg" xmlns:xlink="http://www.w3.org/1999/xlink">
<g id="graph0" class="graph" transform="scale(1 1) rotate(0) translate(4 432.7)">
<title>oneDegreeRelationshipsDiagram</title>
<polygon fill="#ffffff" stroke="transparent" points="-4,4 -4,-432.7 365,-432.7 365,4 -4,4"/>
<text text-anchor="middle" x="72.4936" y="-7.3" font-family="Helvetica,sans-Serif" font-size="11.00" fill="#000000">Generated by SchemaSpy</text>
<!-- rails -->
<g id="node1" class="node">
<title>rails</title>
<g id="a_node1"><a xlink:href="../../tables/rails.html" xlink:title="rails" target="_top">
<polygon fill="#ffffff" stroke="transparent" points="142,-136.7 142,-424.7 353,-424.7 353,-136.7 142,-136.7"/>
<polygon fill="#f5f5f5" stroke="transparent" points="144.5,-399.7 144.5,-422.7 351.5,-422.7 351.5,-399.7 144.5,-399.7"/>
<polygon fill="none" stroke="#000000" points="144.5,-399.7 144.5,-422.7 351.5,-422.7 351.5,-399.7 144.5,-399.7"/>
<text text-anchor="start" x="149.5" y="-408.8" font-family="Helvetica,sans-Serif" font-weight="bold" font-size="11.00" fill="#000000">rails</text>
<text text-anchor="start" x="316.5437" y="-407.8" font-family="Helvetica,sans-Serif" font-size="11.00" fill="#000000">[table]</text>
<polygon fill="none" stroke="#000000" points="144.5,-377.7 144.5,-399.7 232.5,-399.7 232.5,-377.7 144.5,-377.7"/>
<image xlink:href="../../images/primaryKeys.png" width="11px" height="12px" preserveAspectRatio="xMinYMin meet" x="149.5" y="-394.7"/>
<text text-anchor="start" x="164.5" y="-384.8" font-family="Helvetica,sans-Serif" font-size="11.00" fill="#000000">id</text>
<polygon fill="none" stroke="#000000" points="232.5,-377.7 232.5,-399.7 351.5,-399.7 351.5,-377.7 232.5,-377.7"/>
<text text-anchor="start" x="235.5" y="-385.4" font-family="Helvetica,sans-Serif" font-size="11.00" fill="#000000">serial[10]</text>
<polygon fill="none" stroke="#000000" points="144.5,-355.7 144.5,-377.7 232.5,-377.7 232.5,-355.7 144.5,-355.7"/>
<text text-anchor="start" x="164.5" y="-362.8" font-family="Helvetica,sans-Serif" font-size="11.00" fill="#000000">geom</text>
<polygon fill="none" stroke="#000000" points="232.5,-355.7 232.5,-377.7 351.5,-377.7 351.5,-355.7 232.5,-355.7"/>
<text text-anchor="start" x="235.4485" y="-363.4" font-family="Helvetica,sans-Serif" font-size="11.00" fill="#000000">geometry[2147483647]</text>
<polygon fill="none" stroke="#000000" points="144.5,-333.7 144.5,-355.7 232.5,-355.7 232.5,-333.7 144.5,-333.7"/>
<text text-anchor="start" x="164.5" y="-340.8" font-family="Helvetica,sans-Serif" font-size="11.00" fill="#000000">start_m</text>
<polygon fill="none" stroke="#000000" points="232.5,-333.7 232.5,-355.7 351.5,-355.7 351.5,-333.7 232.5,-333.7"/>
<text text-anchor="start" x="235.5" y="-341.4" font-family="Helvetica,sans-Serif" font-size="11.00" fill="#000000">float8[17,17]</text>
<polygon fill="none" stroke="#000000" points="144.5,-311.7 144.5,-333.7 232.5,-333.7 232.5,-311.7 144.5,-311.7"/>
<text text-anchor="start" x="164.5" y="-318.8" font-family="Helvetica,sans-Serif" font-size="11.00" fill="#000000">end_m</text>
<polygon fill="none" stroke="#000000" points="232.5,-311.7 232.5,-333.7 351.5,-333.7 351.5,-311.7 232.5,-311.7"/>
<text text-anchor="start" x="235.5" y="-319.4" font-family="Helvetica,sans-Serif" font-size="11.00" fill="#000000">float8[17,17]</text>
<polygon fill="none" stroke="#000000" points="144.5,-289.7 144.5,-311.7 232.5,-311.7 232.5,-289.7 144.5,-289.7"/>
<text text-anchor="start" x="164.5" y="-296.8" font-family="Helvetica,sans-Serif" font-size="11.00" fill="#000000">refletor</text>
<polygon fill="none" stroke="#000000" points="232.5,-289.7 232.5,-311.7 351.5,-311.7 351.5,-289.7 232.5,-289.7"/>
<text text-anchor="start" x="235.5" y="-297.4" font-family="Helvetica,sans-Serif" font-size="11.00" fill="#000000">bool[1]</text>
<polygon fill="none" stroke="#000000" points="144.5,-267.7 144.5,-289.7 232.5,-289.7 232.5,-267.7 144.5,-267.7"/>
<text text-anchor="start" x="164.5" y="-274.8" font-family="Helvetica,sans-Serif" font-size="11.00" fill="#000000">pmoto</text>
<polygon fill="none" stroke="#000000" points="232.5,-267.7 232.5,-289.7 351.5,-289.7 351.5,-267.7 232.5,-267.7"/>
<text text-anchor="start" x="235.5" y="-275.4" font-family="Helvetica,sans-Serif" font-size="11.00" fill="#000000">bool[1]</text>
<polygon fill="none" stroke="#000000" points="144.5,-245.7 144.5,-267.7 232.5,-267.7 232.5,-245.7 144.5,-245.7"/>
<text text-anchor="start" x="164.5" y="-252.8" font-family="Helvetica,sans-Serif" font-size="11.00" fill="#000000">cauda</text>
<polygon fill="none" stroke="#000000" points="232.5,-245.7 232.5,-267.7 351.5,-267.7 351.5,-245.7 232.5,-245.7"/>
<text text-anchor="start" x="235.5" y="-253.4" font-family="Helvetica,sans-Serif" font-size="11.00" fill="#000000">varchar[24]</text>
<polygon fill="none" stroke="#000000" points="144.5,-223.7 144.5,-245.7 232.5,-245.7 232.5,-223.7 144.5,-223.7"/>
<text text-anchor="start" x="164.5" y="-230.8" font-family="Helvetica,sans-Serif" font-size="11.00" fill="#000000">obs</text>
<polygon fill="none" stroke="#000000" points="232.5,-223.7 232.5,-245.7 351.5,-245.7 351.5,-223.7 232.5,-223.7"/>
<text text-anchor="start" x="235.5" y="-231.4" font-family="Helvetica,sans-Serif" font-size="11.00" fill="#000000">text[2147483647]</text>
<polygon fill="none" stroke="#000000" points="144.5,-201.7 144.5,-223.7 232.5,-223.7 232.5,-201.7 144.5,-201.7"/>
<image xlink:href="../../images/foreignKeys.png" width="11px" height="12px" preserveAspectRatio="xMinYMin meet" x="149.5" y="-218.7"/>
<text text-anchor="start" x="164.5" y="-208.8" font-family="Helvetica,sans-Serif" font-size="11.00" fill="#000000">id_estradas</text>
<polygon fill="none" stroke="#000000" points="232.5,-201.7 232.5,-223.7 351.5,-223.7 351.5,-201.7 232.5,-201.7"/>
<text text-anchor="start" x="235.5" y="-209.4" font-family="Helvetica,sans-Serif" font-size="11.00" fill="#000000">int4[10]</text>
<polygon fill="none" stroke="#000000" points="144.5,-179.7 144.5,-201.7 232.5,-201.7 232.5,-179.7 144.5,-179.7"/>
<image xlink:href="../../images/foreignKeys.png" width="11px" height="12px" preserveAspectRatio="xMinYMin meet" x="149.5" y="-196.7"/>
<text text-anchor="start" x="164.5" y="-186.8" font-family="Helvetica,sans-Serif" font-size="11.00" fill="#000000">id_estado</text>
<polygon fill="none" stroke="#000000" points="232.5,-179.7 232.5,-201.7 351.5,-201.7 351.5,-179.7 232.5,-179.7"/>
<text text-anchor="start" x="235.5" y="-187.4" font-family="Helvetica,sans-Serif" font-size="11.00" fill="#000000">int4[10]</text>
<polygon fill="none" stroke="#000000" points="144.5,-157.7 144.5,-179.7 232.5,-179.7 232.5,-157.7 144.5,-157.7"/>
<image xlink:href="../../images/foreignKeys.png" width="11px" height="12px" preserveAspectRatio="xMinYMin meet" x="149.5" y="-174.7"/>
<text text-anchor="start" x="164.5" y="-164.8" font-family="Helvetica,sans-Serif" font-size="11.00" fill="#000000">id_lado</text>
<polygon fill="none" stroke="#000000" points="232.5,-157.7 232.5,-179.7 351.5,-179.7 351.5,-157.7 232.5,-157.7"/>
<text text-anchor="start" x="235.5" y="-165.4" font-family="Helvetica,sans-Serif" font-size="11.00" fill="#000000">int4[10]</text>
<polygon fill="#ffffff" stroke="transparent" points="144.5,-138.7 144.5,-157.7 179.5,-157.7 179.5,-138.7 144.5,-138.7"/>
<polygon fill="none" stroke="#000000" points="144.5,-138.7 144.5,-157.7 179.5,-157.7 179.5,-138.7 144.5,-138.7"/>
<text text-anchor="start" x="147.5" y="-144.8" font-family="Helvetica,sans-Serif" font-size="11.00" fill="#000000">&lt; 3</text>
<polygon fill="#ffffff" stroke="transparent" points="179.5,-138.7 179.5,-157.7 232.5,-157.7 232.5,-138.7 179.5,-138.7"/>
<polygon fill="none" stroke="#000000" points="179.5,-138.7 179.5,-157.7 232.5,-157.7 232.5,-138.7 179.5,-138.7"/>
<text text-anchor="start" x="197.1105" y="-144.8" font-family="Helvetica,sans-Serif" font-size="11.00" fill="#000000">0 rows</text>
<polygon fill="#ffffff" stroke="transparent" points="232.5,-138.7 232.5,-157.7 351.5,-157.7 351.5,-138.7 232.5,-138.7"/>
<polygon fill="none" stroke="#000000" points="232.5,-138.7 232.5,-157.7 351.5,-157.7 351.5,-138.7 232.5,-138.7"/>
<text text-anchor="start" x="332.9053" y="-144.8" font-family="Helvetica,sans-Serif" font-size="11.00" fill="#000000">0 &gt;</text>
<polygon fill="none" stroke="#000000" stroke-width="2" points="143,-137.7 143,-423.7 352,-423.7 352,-137.7 143,-137.7"/>
</a>
</g>
</g>
<!-- estado -->
<g id="node2" class="node">
<title>estado</title>
<g id="a_node2"><a xlink:href="../../tables/estado.html" xlink:title="estado" target="_top">
<polygon fill="#ffffff" stroke="transparent" points="12,-142.2 12,-225.2 89,-225.2 89,-142.2 12,-142.2"/>
<polygon fill="#f5f5f5" stroke="transparent" points="12.5,-201.7 12.5,-224.7 89.5,-224.7 89.5,-201.7 12.5,-201.7"/>
<polygon fill="none" stroke="#000000" points="12.5,-201.7 12.5,-224.7 89.5,-224.7 89.5,-201.7 12.5,-201.7"/>
<text text-anchor="start" x="17.5" y="-210.8" font-family="Helvetica,sans-Serif" font-weight="bold" font-size="11.00" fill="#000000">estado</text>
<text text-anchor="start" x="55.0219" y="-209.8" font-family="Helvetica,sans-Serif" font-size="11.00" fill="#000000">[table]</text>
<polygon fill="none" stroke="#000000" points="12.5,-179.7 12.5,-201.7 89.5,-201.7 89.5,-179.7 12.5,-179.7"/>
<image xlink:href="../../images/primaryKeys.png" width="11px" height="12px" preserveAspectRatio="xMinYMin meet" x="17.5" y="-196.7"/>
<text text-anchor="start" x="32.5" y="-186.8" font-family="Helvetica,sans-Serif" font-size="11.00" fill="#000000">id</text>
<polygon fill="none" stroke="#000000" points="12.5,-160.7 12.5,-179.7 89.5,-179.7 89.5,-160.7 12.5,-160.7"/>
<text text-anchor="start" x="15.5" y="-166.8" font-family="Helvetica,sans-Serif" font-size="11.00" fill="#000000">...</text>
<polygon fill="#ffffff" stroke="transparent" points="12.5,-141.7 12.5,-160.7 27.5,-160.7 27.5,-141.7 12.5,-141.7"/>
<polygon fill="none" stroke="#000000" points="12.5,-141.7 12.5,-160.7 27.5,-160.7 27.5,-141.7 12.5,-141.7"/>
<text text-anchor="start" x="15.5" y="-147.8" font-family="Helvetica,sans-Serif" font-size="11.00" fill="#000000"> &#160;</text>
<polygon fill="#ffffff" stroke="transparent" points="27.5,-141.7 27.5,-160.7 66.5,-160.7 66.5,-141.7 27.5,-141.7"/>
<polygon fill="none" stroke="#000000" points="27.5,-141.7 27.5,-160.7 66.5,-160.7 66.5,-141.7 27.5,-141.7"/>
<text text-anchor="start" x="31.1105" y="-147.8" font-family="Helvetica,sans-Serif" font-size="11.00" fill="#000000">0 rows</text>
<polygon fill="#ffffff" stroke="transparent" points="66.5,-141.7 66.5,-160.7 89.5,-160.7 89.5,-141.7 66.5,-141.7"/>
<polygon fill="none" stroke="#000000" points="66.5,-141.7 66.5,-160.7 89.5,-160.7 89.5,-141.7 66.5,-141.7"/>
<text text-anchor="start" x="70.9053" y="-147.8" font-family="Helvetica,sans-Serif" font-size="11.00" fill="#000000">4 &gt;</text>
</a>
</g>
</g>
<!-- rails&#45;&gt;estado -->
<g id="edge1" class="edge">
<title>rails:w&#45;&gt;estado:e</title>
<path fill="none" stroke="#000000" d="M129.8617,-190.7C116.1839,-190.7 108.2153,-190.7 89.5,-190.7"/>
<polygon fill="#000000" stroke="#000000" points="136.5,-190.7001 144.5,-194.3 140.5,-190.7 144.5,-190.7 144.5,-190.7 144.5,-190.7 140.5,-190.7 144.5,-187.1 136.5,-190.7001 136.5,-190.7001"/>
<ellipse fill="none" stroke="#000000" cx="133.3" cy="-190.7001" rx="3.2" ry="3.2"/>
</g>
<!-- estradas -->
<g id="node3" class="node">
<title>estradas</title>
<g id="a_node3"><a xlink:href="../../tables/estradas.html" xlink:title="estradas" target="_top">
<polygon fill="#ffffff" stroke="transparent" points="8,-246.2 8,-329.2 93,-329.2 93,-246.2 8,-246.2"/>
<polygon fill="#f5f5f5" stroke="transparent" points="8.5,-305.7 8.5,-328.7 93.5,-328.7 93.5,-305.7 8.5,-305.7"/>
<polygon fill="none" stroke="#000000" points="8.5,-305.7 8.5,-328.7 93.5,-328.7 93.5,-305.7 8.5,-305.7"/>
<text text-anchor="start" x="13.4108" y="-314.8" font-family="Helvetica,sans-Serif" font-weight="bold" font-size="11.00" fill="#000000">estradas</text>
<text text-anchor="start" x="59.0219" y="-313.8" font-family="Helvetica,sans-Serif" font-size="11.00" fill="#000000">[table]</text>
<polygon fill="none" stroke="#000000" points="8.5,-283.7 8.5,-305.7 93.5,-305.7 93.5,-283.7 8.5,-283.7"/>
<image xlink:href="../../images/primaryKeys.png" width="11px" height="12px" preserveAspectRatio="xMinYMin meet" x="13.5" y="-300.7"/>
<text text-anchor="start" x="35.5" y="-290.8" font-family="Helvetica,sans-Serif" font-size="11.00" fill="#000000">id</text>
<polygon fill="none" stroke="#000000" points="8.5,-264.7 8.5,-283.7 93.5,-283.7 93.5,-264.7 8.5,-264.7"/>
<text text-anchor="start" x="11.5" y="-270.8" font-family="Helvetica,sans-Serif" font-size="11.00" fill="#000000">...</text>
<polygon fill="#ffffff" stroke="transparent" points="8.5,-245.7 8.5,-264.7 27.5,-264.7 27.5,-245.7 8.5,-245.7"/>
<polygon fill="none" stroke="#000000" points="8.5,-245.7 8.5,-264.7 27.5,-264.7 27.5,-245.7 8.5,-245.7"/>
<text text-anchor="start" x="11.5" y="-251.8" font-family="Helvetica,sans-Serif" font-size="11.00" fill="#000000"> &#160;</text>
<polygon fill="#ffffff" stroke="transparent" points="27.5,-245.7 27.5,-264.7 68.5,-264.7 68.5,-245.7 27.5,-245.7"/>
<polygon fill="none" stroke="#000000" points="27.5,-245.7 27.5,-264.7 68.5,-264.7 68.5,-245.7 27.5,-245.7"/>
<text text-anchor="start" x="33.1105" y="-251.8" font-family="Helvetica,sans-Serif" font-size="11.00" fill="#000000">0 rows</text>
<polygon fill="#ffffff" stroke="transparent" points="68.5,-245.7 68.5,-264.7 93.5,-264.7 93.5,-245.7 68.5,-245.7"/>
<polygon fill="none" stroke="#000000" points="68.5,-245.7 68.5,-264.7 93.5,-264.7 93.5,-245.7 68.5,-245.7"/>
<text text-anchor="start" x="74.9053" y="-251.8" font-family="Helvetica,sans-Serif" font-size="11.00" fill="#000000">7 &gt;</text>
</a>
</g>
</g>
<!-- rails&#45;&gt;estradas -->
<g id="edge2" class="edge">
<title>rails:w&#45;&gt;estradas:e</title>
<path fill="none" stroke="#000000" d="M130.5743,-217.1087C109.8419,-234.1409 130.3829,-294.7 93.5,-294.7"/>
<polygon fill="#000000" stroke="#000000" points="136.8731,-215.1146 145.5866,-216.1321 140.6865,-213.9073 144.5,-212.7 144.5,-212.7 144.5,-212.7 140.6865,-213.9073 143.4134,-209.2679 136.8731,-215.1146 136.8731,-215.1146"/>
<ellipse fill="none" stroke="#000000" cx="133.8223" cy="-216.0805" rx="3.2" ry="3.2"/>
</g>
<!-- lado -->
<g id="node4" class="node">
<title>lado</title>
<g id="a_node4"><a xlink:href="../../tables/lado.html" xlink:title="lado" target="_top">
<polygon fill="#ffffff" stroke="transparent" points="12,-38.2 12,-121.2 89,-121.2 89,-38.2 12,-38.2"/>
<polygon fill="#f5f5f5" stroke="transparent" points="12.5,-97.7 12.5,-120.7 89.5,-120.7 89.5,-97.7 12.5,-97.7"/>
<polygon fill="none" stroke="#000000" points="12.5,-97.7 12.5,-120.7 89.5,-120.7 89.5,-97.7 12.5,-97.7"/>
<text text-anchor="start" x="17.5" y="-106.8" font-family="Helvetica,sans-Serif" font-weight="bold" font-size="11.00" fill="#000000">lado</text>
<text text-anchor="start" x="54.5437" y="-105.8" font-family="Helvetica,sans-Serif" font-size="11.00" fill="#000000">[table]</text>
<polygon fill="none" stroke="#000000" points="12.5,-75.7 12.5,-97.7 89.5,-97.7 89.5,-75.7 12.5,-75.7"/>
<image xlink:href="../../images/primaryKeys.png" width="11px" height="12px" preserveAspectRatio="xMinYMin meet" x="17.5" y="-92.7"/>
<text text-anchor="start" x="32.5" y="-82.8" font-family="Helvetica,sans-Serif" font-size="11.00" fill="#000000">id</text>
<polygon fill="none" stroke="#000000" points="12.5,-56.7 12.5,-75.7 89.5,-75.7 89.5,-56.7 12.5,-56.7"/>
<text text-anchor="start" x="15.5" y="-62.8" font-family="Helvetica,sans-Serif" font-size="11.00" fill="#000000">...</text>
<polygon fill="#ffffff" stroke="transparent" points="12.5,-37.7 12.5,-56.7 27.5,-56.7 27.5,-37.7 12.5,-37.7"/>
<polygon fill="none" stroke="#000000" points="12.5,-37.7 12.5,-56.7 27.5,-56.7 27.5,-37.7 12.5,-37.7"/>
<text text-anchor="start" x="15.5" y="-43.8" font-family="Helvetica,sans-Serif" font-size="11.00" fill="#000000"> &#160;</text>
<polygon fill="#ffffff" stroke="transparent" points="27.5,-37.7 27.5,-56.7 66.5,-56.7 66.5,-37.7 27.5,-37.7"/>
<polygon fill="none" stroke="#000000" points="27.5,-37.7 27.5,-56.7 66.5,-56.7 66.5,-37.7 27.5,-37.7"/>
<text text-anchor="start" x="31.1105" y="-43.8" font-family="Helvetica,sans-Serif" font-size="11.00" fill="#000000">0 rows</text>
<polygon fill="#ffffff" stroke="transparent" points="66.5,-37.7 66.5,-56.7 89.5,-56.7 89.5,-37.7 66.5,-37.7"/>
<polygon fill="none" stroke="#000000" points="66.5,-37.7 66.5,-56.7 89.5,-56.7 89.5,-37.7 66.5,-37.7"/>
<text text-anchor="start" x="70.9053" y="-43.8" font-family="Helvetica,sans-Serif" font-size="11.00" fill="#000000">4 &gt;</text>
</a>
</g>
</g>
<!-- rails&#45;&gt;lado -->
<g id="edge3" class="edge">
<title>rails:w&#45;&gt;lado:e</title>
<path fill="none" stroke="#000000" d="M130.4075,-164.5209C108.1437,-147.8109 127.3835,-86.7 89.5,-86.7"/>
<polygon fill="#000000" stroke="#000000" points="136.8301,-166.4255 143.4765,-172.1514 140.6651,-167.5627 144.5,-168.7 144.5,-168.7 144.5,-168.7 140.6651,-167.5627 145.5235,-165.2486 136.8301,-166.4255 136.8301,-166.4255"/>
<ellipse fill="none" stroke="#000000" cx="133.7622" cy="-165.5157" rx="3.2" ry="3.2"/>
</g>
</g>
</svg>
