<?xml version="1.0" encoding="UTF-8" standalone="no"?>
<!DOCTYPE svg PUBLIC "-//W3C//DTD SVG 1.1//EN"
 "http://www.w3.org/Graphics/SVG/1.1/DTD/svg11.dtd">
<!-- Generated by graphviz version 2.40.1 (20161225.0304)
 -->
<!-- Title: oneDegreeRelationshipsDiagram Pages: 1 -->
<svg width="411pt" height="205pt"
 viewBox="0.00 0.00 411.00 204.70" xmlns="http://www.w3.org/2000/svg" xmlns:xlink="http://www.w3.org/1999/xlink">
<g id="graph0" class="graph" transform="scale(1 1) rotate(0) translate(4 200.7)">
<title>oneDegreeRelationshipsDiagram</title>
<polygon fill="#ffffff" stroke="transparent" points="-4,4 -4,-200.7 407,-200.7 407,4 -4,4"/>
<text text-anchor="middle" x="72.4936" y="-7.3" font-family="Helvetica,sans-Serif" font-size="11.00" fill="#000000">Generated by SchemaSpy</text>
<!-- trocos -->
<g id="node1" class="node">
<title>trocos</title>
<g id="a_node1"><a xlink:href="../../tables/trocos.html" xlink:title="trocos" target="_top">
<polygon fill="#ffffff" stroke="transparent" points="265,-65.7 265,-192.7 395,-192.7 395,-65.7 265,-65.7"/>
<polygon fill="#f5f5f5" stroke="transparent" points="265,-169.2 265,-192.2 395,-192.2 395,-169.2 265,-169.2"/>
<polygon fill="none" stroke="#000000" points="265,-169.2 265,-192.2 395,-192.2 395,-169.2 265,-169.2"/>
<text text-anchor="start" x="270" y="-178.3" font-family="Helvetica,sans-Serif" font-weight="bold" font-size="11.00" fill="#000000">trocos</text>
<text text-anchor="start" x="360.0437" y="-177.3" font-family="Helvetica,sans-Serif" font-size="11.00" fill="#000000">[table]</text>
<polygon fill="none" stroke="#000000" points="265,-147.2 265,-169.2 395,-169.2 395,-147.2 265,-147.2"/>
<image xlink:href="../../images/primaryKeys.png" width="11px" height="12px" preserveAspectRatio="xMinYMin meet" x="270" y="-164.2"/>
<text text-anchor="start" x="285" y="-154.3" font-family="Helvetica,sans-Serif" font-size="11.00" fill="#000000">id</text>
<polygon fill="none" stroke="#000000" points="265,-125.2 265,-147.2 395,-147.2 395,-125.2 265,-125.2"/>
<image xlink:href="../../images/foreignKeys.png" width="11px" height="12px" preserveAspectRatio="xMinYMin meet" x="270" y="-142.2"/>
<text text-anchor="start" x="285" y="-132.3" font-family="Helvetica,sans-Serif" font-size="11.00" fill="#000000">id_estradas</text>
<polygon fill="none" stroke="#000000" points="265,-103.2 265,-125.2 395,-125.2 395,-103.2 265,-103.2"/>
<image xlink:href="../../images/foreignKeys.png" width="11px" height="12px" preserveAspectRatio="xMinYMin meet" x="270" y="-120.2"/>
<text text-anchor="start" x="285" y="-110.3" font-family="Helvetica,sans-Serif" font-size="11.00" fill="#000000">id_tipo_pavimento</text>
<polygon fill="none" stroke="#000000" points="265,-84.2 265,-103.2 395,-103.2 395,-84.2 265,-84.2"/>
<text text-anchor="start" x="268" y="-90.3" font-family="Helvetica,sans-Serif" font-size="11.00" fill="#000000">...</text>
<polygon fill="#ffffff" stroke="transparent" points="265,-65.2 265,-84.2 311,-84.2 311,-65.2 265,-65.2"/>
<polygon fill="none" stroke="#000000" points="265,-65.2 265,-84.2 311,-84.2 311,-65.2 265,-65.2"/>
<text text-anchor="start" x="268" y="-71.3" font-family="Helvetica,sans-Serif" font-size="11.00" fill="#000000">&lt; 2</text>
<polygon fill="#ffffff" stroke="transparent" points="311,-65.2 311,-84.2 361,-84.2 361,-65.2 311,-65.2"/>
<polygon fill="none" stroke="#000000" points="311,-65.2 311,-84.2 361,-84.2 361,-65.2 311,-65.2"/>
<text text-anchor="start" x="325.6105" y="-71.3" font-family="Helvetica,sans-Serif" font-size="11.00" fill="#000000">0 rows</text>
<polygon fill="#ffffff" stroke="transparent" points="361,-65.2 361,-84.2 395,-84.2 395,-65.2 361,-65.2"/>
<polygon fill="none" stroke="#000000" points="361,-65.2 361,-84.2 395,-84.2 395,-65.2 361,-65.2"/>
<text text-anchor="start" x="376.4053" y="-71.3" font-family="Helvetica,sans-Serif" font-size="11.00" fill="#000000">1 &gt;</text>
</a>
</g>
</g>
<!-- tipo_pavimento -->
<g id="node2" class="node">
<title>tipo_pavimento</title>
<g id="a_node2"><a xlink:href="../../tables/tipo_pavimento.html" xlink:title="tipo_pavimento" target="_top">
<polygon fill="#ffffff" stroke="transparent" points="8,-38.2 8,-150.2 216,-150.2 216,-38.2 8,-38.2"/>
<polygon fill="#f5f5f5" stroke="transparent" points="10,-125.2 10,-148.2 214,-148.2 214,-125.2 10,-125.2"/>
<polygon fill="none" stroke="#000000" points="10,-125.2 10,-148.2 214,-148.2 214,-125.2 10,-125.2"/>
<text text-anchor="start" x="15" y="-134.3" font-family="Helvetica,sans-Serif" font-weight="bold" font-size="11.00" fill="#000000">tipo_pavimento</text>
<text text-anchor="start" x="179.0437" y="-133.3" font-family="Helvetica,sans-Serif" font-size="11.00" fill="#000000">[table]</text>
<polygon fill="none" stroke="#000000" points="10,-103.2 10,-125.2 124,-125.2 124,-103.2 10,-103.2"/>
<image xlink:href="../../images/primaryKeys.png" width="11px" height="12px" preserveAspectRatio="xMinYMin meet" x="15" y="-120.2"/>
<text text-anchor="start" x="30" y="-110.3" font-family="Helvetica,sans-Serif" font-size="11.00" fill="#000000">id</text>
<polygon fill="none" stroke="#000000" points="124,-103.2 124,-125.2 214,-125.2 214,-103.2 124,-103.2"/>
<text text-anchor="start" x="127" y="-110.9" font-family="Helvetica,sans-Serif" font-size="11.00" fill="#000000">serial[10]</text>
<polygon fill="none" stroke="#000000" points="10,-81.2 10,-103.2 124,-103.2 124,-81.2 10,-81.2"/>
<text text-anchor="start" x="30" y="-88.3" font-family="Helvetica,sans-Serif" font-size="11.00" fill="#000000">descricao</text>
<polygon fill="none" stroke="#000000" points="124,-81.2 124,-103.2 214,-103.2 214,-81.2 124,-81.2"/>
<text text-anchor="start" x="126.5042" y="-88.9" font-family="Helvetica,sans-Serif" font-size="11.00" fill="#000000">text[2147483647]</text>
<polygon fill="none" stroke="#000000" points="10,-59.2 10,-81.2 124,-81.2 124,-59.2 10,-59.2"/>
<text text-anchor="start" x="30" y="-66.3" font-family="Helvetica,sans-Serif" font-size="11.00" fill="#000000">cod</text>
<polygon fill="none" stroke="#000000" points="124,-59.2 124,-81.2 214,-81.2 214,-59.2 124,-59.2"/>
<text text-anchor="start" x="127" y="-66.9" font-family="Helvetica,sans-Serif" font-size="11.00" fill="#000000">varchar[6]</text>
<polygon fill="#ffffff" stroke="transparent" points="10,-40.2 10,-59.2 58,-59.2 58,-40.2 10,-40.2"/>
<polygon fill="none" stroke="#000000" points="10,-40.2 10,-59.2 58,-59.2 58,-40.2 10,-40.2"/>
<text text-anchor="start" x="13" y="-46.3" font-family="Helvetica,sans-Serif" font-size="11.00" fill="#000000">&lt; 0</text>
<polygon fill="#ffffff" stroke="transparent" points="58,-40.2 58,-59.2 124,-59.2 124,-40.2 58,-40.2"/>
<polygon fill="none" stroke="#000000" points="58,-40.2 58,-59.2 124,-59.2 124,-40.2 58,-40.2"/>
<text text-anchor="start" x="88.6105" y="-46.3" font-family="Helvetica,sans-Serif" font-size="11.00" fill="#000000">0 rows</text>
<polygon fill="#ffffff" stroke="transparent" points="124,-40.2 124,-59.2 214,-59.2 214,-40.2 124,-40.2"/>
<polygon fill="none" stroke="#000000" points="124,-40.2 124,-59.2 214,-59.2 214,-40.2 124,-40.2"/>
<text text-anchor="start" x="195.4053" y="-46.3" font-family="Helvetica,sans-Serif" font-size="11.00" fill="#000000">1 &gt;</text>
<polygon fill="none" stroke="#000000" stroke-width="2" points="9,-39.2 9,-149.2 215,-149.2 215,-39.2 9,-39.2"/>
</a>
</g>
</g>
<!-- trocos&#45;&gt;tipo_pavimento -->
<g id="edge1" class="edge">
<title>trocos:w&#45;&gt;tipo_pavimento:e</title>
<path fill="none" stroke="#000000" d="M250.276,-114.2C238.2815,-114.2 230.8229,-114.2 214,-114.2"/>
<polygon fill="#000000" stroke="#000000" points="257,-114.2001 265,-117.8 261,-114.2 265,-114.2 265,-114.2 265,-114.2 261,-114.2 265,-110.6 257,-114.2001 257,-114.2001"/>
<ellipse fill="none" stroke="#000000" cx="253.8" cy="-114.2001" rx="3.2" ry="3.2"/>
</g>
</g>
</svg>
