<?xml version="1.0" encoding="UTF-8" standalone="no"?>
<!DOCTYPE svg PUBLIC "-//W3C//DTD SVG 1.1//EN"
 "http://www.w3.org/Graphics/SVG/1.1/DTD/svg11.dtd">
<!-- Generated by graphviz version 2.40.1 (20161225.0304)
 -->
<!-- Title: oneDegreeRelationshipsDiagram Pages: 1 -->
<svg width="328pt" height="221pt"
 viewBox="0.00 0.00 328.00 221.20" xmlns="http://www.w3.org/2000/svg" xmlns:xlink="http://www.w3.org/1999/xlink">
<g id="graph0" class="graph" transform="scale(1 1) rotate(0) translate(4 217.2)">
<title>oneDegreeRelationshipsDiagram</title>
<polygon fill="#ffffff" stroke="transparent" points="-4,4 -4,-217.2 324,-217.2 324,4 -4,4"/>
<text text-anchor="middle" x="72.4936" y="-7.3" font-family="Helvetica,sans-Serif" font-size="11.00" fill="#000000">Generated by SchemaSpy</text>
<!-- valetas -->
<g id="node1" class="node">
<title>valetas</title>
<g id="a_node1"><a xlink:href="../../tables/valetas.html" xlink:title="valetas" target="_top">
<polygon fill="#ffffff" stroke="transparent" points="209,-38.2 209,-209.2 312,-209.2 312,-38.2 209,-38.2"/>
<polygon fill="#f5f5f5" stroke="transparent" points="209.5,-185.7 209.5,-208.7 312.5,-208.7 312.5,-185.7 209.5,-185.7"/>
<polygon fill="none" stroke="#000000" points="209.5,-185.7 209.5,-208.7 312.5,-208.7 312.5,-185.7 209.5,-185.7"/>
<text text-anchor="start" x="214.5" y="-194.8" font-family="Helvetica,sans-Serif" font-weight="bold" font-size="11.00" fill="#000000">valetas</text>
<text text-anchor="start" x="277.5437" y="-193.8" font-family="Helvetica,sans-Serif" font-size="11.00" fill="#000000">[table]</text>
<polygon fill="none" stroke="#000000" points="209.5,-163.7 209.5,-185.7 312.5,-185.7 312.5,-163.7 209.5,-163.7"/>
<image xlink:href="../../images/primaryKeys.png" width="11px" height="12px" preserveAspectRatio="xMinYMin meet" x="214.5" y="-180.7"/>
<text text-anchor="start" x="229.5" y="-170.8" font-family="Helvetica,sans-Serif" font-size="11.00" fill="#000000">id</text>
<polygon fill="none" stroke="#000000" points="209.5,-141.7 209.5,-163.7 312.5,-163.7 312.5,-141.7 209.5,-141.7"/>
<image xlink:href="../../images/foreignKeys.png" width="11px" height="12px" preserveAspectRatio="xMinYMin meet" x="214.5" y="-158.7"/>
<text text-anchor="start" x="229.5" y="-148.8" font-family="Helvetica,sans-Serif" font-size="11.00" fill="#000000">id_estradas</text>
<polygon fill="none" stroke="#000000" points="209.5,-119.7 209.5,-141.7 312.5,-141.7 312.5,-119.7 209.5,-119.7"/>
<image xlink:href="../../images/foreignKeys.png" width="11px" height="12px" preserveAspectRatio="xMinYMin meet" x="214.5" y="-136.7"/>
<text text-anchor="start" x="229.5" y="-126.8" font-family="Helvetica,sans-Serif" font-size="11.00" fill="#000000">id_tipo_valeta</text>
<polygon fill="none" stroke="#000000" points="209.5,-97.7 209.5,-119.7 312.5,-119.7 312.5,-97.7 209.5,-97.7"/>
<image xlink:href="../../images/foreignKeys.png" width="11px" height="12px" preserveAspectRatio="xMinYMin meet" x="214.5" y="-114.7"/>
<text text-anchor="start" x="229.5" y="-104.8" font-family="Helvetica,sans-Serif" font-size="11.00" fill="#000000">id_estado</text>
<polygon fill="none" stroke="#000000" points="209.5,-75.7 209.5,-97.7 312.5,-97.7 312.5,-75.7 209.5,-75.7"/>
<image xlink:href="../../images/foreignKeys.png" width="11px" height="12px" preserveAspectRatio="xMinYMin meet" x="214.5" y="-92.7"/>
<text text-anchor="start" x="229.5" y="-82.8" font-family="Helvetica,sans-Serif" font-size="11.00" fill="#000000">id_lado</text>
<polygon fill="none" stroke="#000000" points="209.5,-56.7 209.5,-75.7 312.5,-75.7 312.5,-56.7 209.5,-56.7"/>
<text text-anchor="start" x="212.5" y="-62.8" font-family="Helvetica,sans-Serif" font-size="11.00" fill="#000000">...</text>
<polygon fill="#ffffff" stroke="transparent" points="209.5,-37.7 209.5,-56.7 246.5,-56.7 246.5,-37.7 209.5,-37.7"/>
<polygon fill="none" stroke="#000000" points="209.5,-37.7 209.5,-56.7 246.5,-56.7 246.5,-37.7 209.5,-37.7"/>
<text text-anchor="start" x="212.5" y="-43.8" font-family="Helvetica,sans-Serif" font-size="11.00" fill="#000000">&lt; 4</text>
<polygon fill="#ffffff" stroke="transparent" points="246.5,-37.7 246.5,-56.7 292.5,-56.7 292.5,-37.7 246.5,-37.7"/>
<polygon fill="none" stroke="#000000" points="246.5,-37.7 246.5,-56.7 292.5,-56.7 292.5,-37.7 246.5,-37.7"/>
<text text-anchor="start" x="257.1105" y="-43.8" font-family="Helvetica,sans-Serif" font-size="11.00" fill="#000000">0 rows</text>
<polygon fill="#ffffff" stroke="transparent" points="292.5,-37.7 292.5,-56.7 312.5,-56.7 312.5,-37.7 292.5,-37.7"/>
<polygon fill="none" stroke="#000000" points="292.5,-37.7 292.5,-56.7 312.5,-56.7 312.5,-37.7 292.5,-37.7"/>
<text text-anchor="start" x="303.3862" y="-43.8" font-family="Helvetica,sans-Serif" font-size="11.00" fill="#000000"> &#160;</text>
</a>
</g>
</g>
<!-- tipo_valeta -->
<g id="node2" class="node">
<title>tipo_valeta</title>
<g id="a_node2"><a xlink:href="../../tables/tipo_valeta.html" xlink:title="tipo_valeta" target="_top">
<polygon fill="#ffffff" stroke="transparent" points="8,-76.7 8,-166.7 160,-166.7 160,-76.7 8,-76.7"/>
<polygon fill="#f5f5f5" stroke="transparent" points="10,-141.7 10,-164.7 158,-164.7 158,-141.7 10,-141.7"/>
<polygon fill="none" stroke="#000000" points="10,-141.7 10,-164.7 158,-164.7 158,-141.7 10,-141.7"/>
<text text-anchor="start" x="15" y="-150.8" font-family="Helvetica,sans-Serif" font-weight="bold" font-size="11.00" fill="#000000">tipo_valeta</text>
<text text-anchor="start" x="123.0437" y="-149.8" font-family="Helvetica,sans-Serif" font-size="11.00" fill="#000000">[table]</text>
<polygon fill="none" stroke="#000000" points="10,-119.7 10,-141.7 97,-141.7 97,-119.7 10,-119.7"/>
<image xlink:href="../../images/primaryKeys.png" width="11px" height="12px" preserveAspectRatio="xMinYMin meet" x="15" y="-136.7"/>
<text text-anchor="start" x="30" y="-126.8" font-family="Helvetica,sans-Serif" font-size="11.00" fill="#000000">id</text>
<polygon fill="none" stroke="#000000" points="97,-119.7 97,-141.7 158,-141.7 158,-119.7 97,-119.7"/>
<text text-anchor="start" x="100" y="-127.4" font-family="Helvetica,sans-Serif" font-size="11.00" fill="#000000">serial[10]</text>
<polygon fill="none" stroke="#000000" points="10,-97.7 10,-119.7 97,-119.7 97,-97.7 10,-97.7"/>
<text text-anchor="start" x="30" y="-104.8" font-family="Helvetica,sans-Serif" font-size="11.00" fill="#000000">descricao</text>
<polygon fill="none" stroke="#000000" points="97,-97.7 97,-119.7 158,-119.7 158,-97.7 97,-97.7"/>
<text text-anchor="start" x="99.994" y="-105.4" font-family="Helvetica,sans-Serif" font-size="11.00" fill="#000000">varchar[24]</text>
<polygon fill="#ffffff" stroke="transparent" points="10,-78.7 10,-97.7 45,-97.7 45,-78.7 10,-78.7"/>
<polygon fill="none" stroke="#000000" points="10,-78.7 10,-97.7 45,-97.7 45,-78.7 10,-78.7"/>
<text text-anchor="start" x="13" y="-84.8" font-family="Helvetica,sans-Serif" font-size="11.00" fill="#000000">&lt; 0</text>
<polygon fill="#ffffff" stroke="transparent" points="45,-78.7 45,-97.7 97,-97.7 97,-78.7 45,-78.7"/>
<polygon fill="none" stroke="#000000" points="45,-78.7 45,-97.7 97,-97.7 97,-78.7 45,-78.7"/>
<text text-anchor="start" x="61.6105" y="-84.8" font-family="Helvetica,sans-Serif" font-size="11.00" fill="#000000">0 rows</text>
<polygon fill="#ffffff" stroke="transparent" points="97,-78.7 97,-97.7 158,-97.7 158,-78.7 97,-78.7"/>
<polygon fill="none" stroke="#000000" points="97,-78.7 97,-97.7 158,-97.7 158,-78.7 97,-78.7"/>
<text text-anchor="start" x="139.4053" y="-84.8" font-family="Helvetica,sans-Serif" font-size="11.00" fill="#000000">1 &gt;</text>
<polygon fill="none" stroke="#000000" stroke-width="2" points="9,-77.7 9,-165.7 159,-165.7 159,-77.7 9,-77.7"/>
</a>
</g>
</g>
<!-- valetas&#45;&gt;tipo_valeta -->
<g id="edge1" class="edge">
<title>valetas:w&#45;&gt;tipo_valeta:e</title>
<path fill="none" stroke="#000000" d="M195.0156,-130.7C182.6771,-130.7 175.1667,-130.7 158,-130.7"/>
<polygon fill="#000000" stroke="#000000" points="201.5,-130.7001 209.5,-134.3 205.5,-130.7 209.5,-130.7 209.5,-130.7 209.5,-130.7 205.5,-130.7 209.5,-127.1 201.5,-130.7001 201.5,-130.7001"/>
<ellipse fill="none" stroke="#000000" cx="198.3" cy="-130.7001" rx="3.2" ry="3.2"/>
</g>
</g>
</svg>
