<?xml version="1.0" encoding="UTF-8" standalone="no"?>
<!DOCTYPE svg PUBLIC "-//W3C//DTD SVG 1.1//EN"
 "http://www.w3.org/Graphics/SVG/1.1/DTD/svg11.dtd">
<!-- Generated by graphviz version 2.40.1 (20161225.0304)
 -->
<!-- Title: twoDegreesRelationshipsDiagram Pages: 1 -->
<svg width="342pt" height="387pt"
 viewBox="0.00 0.00 342.00 387.20" xmlns="http://www.w3.org/2000/svg" xmlns:xlink="http://www.w3.org/1999/xlink">
<g id="graph0" class="graph" transform="scale(1 1) rotate(0) translate(4 383.2)">
<title>twoDegreesRelationshipsDiagram</title>
<polygon fill="#ffffff" stroke="transparent" points="-4,4 -4,-383.2 338,-383.2 338,4 -4,4"/>
<text text-anchor="middle" x="72.4936" y="-7.3" font-family="Helvetica,sans-Serif" font-size="11.00" fill="#000000">Generated by SchemaSpy</text>
<!-- lrs_node -->
<g id="node1" class="node">
<title>lrs_node</title>
<g id="a_node1"><a xlink:href="../../tables/lrs_node.html" xlink:title="lrs_node" target="_top">
<polygon fill="#ffffff" stroke="transparent" points="230,-120.2 230,-291.2 326,-291.2 326,-120.2 230,-120.2"/>
<polygon fill="#f5f5f5" stroke="transparent" points="230,-267.7 230,-290.7 326,-290.7 326,-267.7 230,-267.7"/>
<polygon fill="none" stroke="#000000" points="230,-267.7 230,-290.7 326,-290.7 326,-267.7 230,-267.7"/>
<text text-anchor="start" x="235" y="-276.8" font-family="Helvetica,sans-Serif" font-weight="bold" font-size="11.00" fill="#000000">lrs_node</text>
<text text-anchor="start" x="291.0437" y="-275.8" font-family="Helvetica,sans-Serif" font-size="11.00" fill="#000000">[table]</text>
<polygon fill="none" stroke="#000000" points="230,-245.7 230,-267.7 326,-267.7 326,-245.7 230,-245.7"/>
<image xlink:href="../../images/primaryKeys.png" width="11px" height="12px" preserveAspectRatio="xMinYMin meet" x="235" y="-262.7"/>
<text text-anchor="start" x="250" y="-252.8" font-family="Helvetica,sans-Serif" font-size="11.00" fill="#000000">id</text>
<polygon fill="none" stroke="#000000" points="230,-223.7 230,-245.7 326,-245.7 326,-223.7 230,-223.7"/>
<image xlink:href="../../images/foreignKeys.png" width="11px" height="12px" preserveAspectRatio="xMinYMin meet" x="235" y="-240.7"/>
<text text-anchor="start" x="250" y="-230.8" font-family="Helvetica,sans-Serif" font-size="11.00" fill="#000000">id_estradas</text>
<polygon fill="none" stroke="#000000" points="230,-201.7 230,-223.7 326,-223.7 326,-201.7 230,-201.7"/>
<image xlink:href="../../images/foreignKeys.png" width="11px" height="12px" preserveAspectRatio="xMinYMin meet" x="235" y="-218.7"/>
<text text-anchor="start" x="250" y="-208.8" font-family="Helvetica,sans-Serif" font-size="11.00" fill="#000000">id_tipo_node</text>
<polygon fill="none" stroke="#000000" points="230,-179.7 230,-201.7 326,-201.7 326,-179.7 230,-179.7"/>
<image xlink:href="../../images/foreignKeys.png" width="11px" height="12px" preserveAspectRatio="xMinYMin meet" x="235" y="-196.7"/>
<text text-anchor="start" x="250" y="-186.8" font-family="Helvetica,sans-Serif" font-size="11.00" fill="#000000">id_estado</text>
<polygon fill="none" stroke="#000000" points="230,-157.7 230,-179.7 326,-179.7 326,-157.7 230,-157.7"/>
<image xlink:href="../../images/foreignKeys.png" width="11px" height="12px" preserveAspectRatio="xMinYMin meet" x="235" y="-174.7"/>
<text text-anchor="start" x="250" y="-164.8" font-family="Helvetica,sans-Serif" font-size="11.00" fill="#000000">id_lado</text>
<polygon fill="none" stroke="#000000" points="230,-138.7 230,-157.7 326,-157.7 326,-138.7 230,-138.7"/>
<text text-anchor="start" x="233" y="-144.8" font-family="Helvetica,sans-Serif" font-size="11.00" fill="#000000">...</text>
<polygon fill="#ffffff" stroke="transparent" points="230,-119.7 230,-138.7 263,-138.7 263,-119.7 230,-119.7"/>
<polygon fill="none" stroke="#000000" points="230,-119.7 230,-138.7 263,-138.7 263,-119.7 230,-119.7"/>
<text text-anchor="start" x="233" y="-125.8" font-family="Helvetica,sans-Serif" font-size="11.00" fill="#000000">&lt; 4</text>
<polygon fill="#ffffff" stroke="transparent" points="263,-119.7 263,-138.7 307,-138.7 307,-119.7 263,-119.7"/>
<polygon fill="none" stroke="#000000" points="263,-119.7 263,-138.7 307,-138.7 307,-119.7 263,-119.7"/>
<text text-anchor="start" x="271.6105" y="-125.8" font-family="Helvetica,sans-Serif" font-size="11.00" fill="#000000">0 rows</text>
<polygon fill="#ffffff" stroke="transparent" points="307,-119.7 307,-138.7 326,-138.7 326,-119.7 307,-119.7"/>
<polygon fill="none" stroke="#000000" points="307,-119.7 307,-138.7 326,-138.7 326,-119.7 307,-119.7"/>
<text text-anchor="start" x="316.8862" y="-125.8" font-family="Helvetica,sans-Serif" font-size="11.00" fill="#000000"> &#160;</text>
</a>
</g>
</g>
<!-- estado -->
<g id="node2" class="node">
<title>estado</title>
<g id="a_node2"><a xlink:href="../../tables/estado.html" xlink:title="estado" target="_top">
<polygon fill="#ffffff" stroke="transparent" points="56.5,-120.2 56.5,-181.2 132.5,-181.2 132.5,-120.2 56.5,-120.2"/>
<polygon fill="#f5f5f5" stroke="transparent" points="56.5,-157.7 56.5,-180.7 132.5,-180.7 132.5,-157.7 56.5,-157.7"/>
<polygon fill="none" stroke="#000000" points="56.5,-157.7 56.5,-180.7 132.5,-180.7 132.5,-157.7 56.5,-157.7"/>
<text text-anchor="start" x="61.4918" y="-166.8" font-family="Helvetica,sans-Serif" font-weight="bold" font-size="11.00" fill="#000000">estado</text>
<text text-anchor="start" x="98.0219" y="-165.8" font-family="Helvetica,sans-Serif" font-size="11.00" fill="#000000">[table]</text>
<polygon fill="none" stroke="#000000" points="56.5,-138.7 56.5,-157.7 132.5,-157.7 132.5,-138.7 56.5,-138.7"/>
<text text-anchor="start" x="59.5" y="-144.8" font-family="Helvetica,sans-Serif" font-size="11.00" fill="#000000">...</text>
<polygon fill="#ffffff" stroke="transparent" points="56.5,-119.7 56.5,-138.7 70.5,-138.7 70.5,-119.7 56.5,-119.7"/>
<polygon fill="none" stroke="#000000" points="56.5,-119.7 56.5,-138.7 70.5,-138.7 70.5,-119.7 56.5,-119.7"/>
<text text-anchor="start" x="59.5" y="-125.8" font-family="Helvetica,sans-Serif" font-size="11.00" fill="#000000"> &#160;</text>
<polygon fill="#ffffff" stroke="transparent" points="70.5,-119.7 70.5,-138.7 109.5,-138.7 109.5,-119.7 70.5,-119.7"/>
<polygon fill="none" stroke="#000000" points="70.5,-119.7 70.5,-138.7 109.5,-138.7 109.5,-119.7 70.5,-119.7"/>
<text text-anchor="start" x="74.1105" y="-125.8" font-family="Helvetica,sans-Serif" font-size="11.00" fill="#000000">0 rows</text>
<polygon fill="#ffffff" stroke="transparent" points="109.5,-119.7 109.5,-138.7 132.5,-138.7 132.5,-119.7 109.5,-119.7"/>
<polygon fill="none" stroke="#000000" points="109.5,-119.7 109.5,-138.7 132.5,-138.7 132.5,-119.7 109.5,-119.7"/>
<text text-anchor="start" x="113.9053" y="-125.8" font-family="Helvetica,sans-Serif" font-size="11.00" fill="#000000">4 &gt;</text>
</a>
</g>
</g>
<!-- lrs_node&#45;&gt;estado -->
<g id="edge1" class="edge">
<title>lrs_node:w&#45;&gt;estado:e</title>
<path fill="none" stroke="#000000" d="M215.4915,-189.1696C181.4378,-181.5096 174.4954,-147.7 132.5,-147.7"/>
<polygon fill="#000000" stroke="#000000" points="222.0441,-189.8607 229.6223,-194.2801 226.0221,-190.2804 230,-190.7 230,-190.7 230,-190.7 226.0221,-190.2804 230.3777,-187.1199 222.0441,-189.8607 222.0441,-189.8607"/>
<ellipse fill="none" stroke="#000000" cx="218.8618" cy="-189.525" rx="3.2" ry="3.2"/>
</g>
<!-- estradas -->
<g id="node3" class="node">
<title>estradas</title>
<g id="a_node3"><a xlink:href="../../tables/estradas.html" xlink:title="estradas" target="_top">
<polygon fill="#ffffff" stroke="transparent" points="52,-314.2 52,-375.2 137,-375.2 137,-314.2 52,-314.2"/>
<polygon fill="#f5f5f5" stroke="transparent" points="52.5,-351.7 52.5,-374.7 137.5,-374.7 137.5,-351.7 52.5,-351.7"/>
<polygon fill="none" stroke="#000000" points="52.5,-351.7 52.5,-374.7 137.5,-374.7 137.5,-351.7 52.5,-351.7"/>
<text text-anchor="start" x="57.4108" y="-360.8" font-family="Helvetica,sans-Serif" font-weight="bold" font-size="11.00" fill="#000000">estradas</text>
<text text-anchor="start" x="103.0219" y="-359.8" font-family="Helvetica,sans-Serif" font-size="11.00" fill="#000000">[table]</text>
<polygon fill="none" stroke="#000000" points="52.5,-332.7 52.5,-351.7 137.5,-351.7 137.5,-332.7 52.5,-332.7"/>
<text text-anchor="start" x="55.5" y="-338.8" font-family="Helvetica,sans-Serif" font-size="11.00" fill="#000000">...</text>
<polygon fill="#ffffff" stroke="transparent" points="52.5,-313.7 52.5,-332.7 71.5,-332.7 71.5,-313.7 52.5,-313.7"/>
<polygon fill="none" stroke="#000000" points="52.5,-313.7 52.5,-332.7 71.5,-332.7 71.5,-313.7 52.5,-313.7"/>
<text text-anchor="start" x="55.5" y="-319.8" font-family="Helvetica,sans-Serif" font-size="11.00" fill="#000000"> &#160;</text>
<polygon fill="#ffffff" stroke="transparent" points="71.5,-313.7 71.5,-332.7 112.5,-332.7 112.5,-313.7 71.5,-313.7"/>
<polygon fill="none" stroke="#000000" points="71.5,-313.7 71.5,-332.7 112.5,-332.7 112.5,-313.7 71.5,-313.7"/>
<text text-anchor="start" x="77.1105" y="-319.8" font-family="Helvetica,sans-Serif" font-size="11.00" fill="#000000">0 rows</text>
<polygon fill="#ffffff" stroke="transparent" points="112.5,-313.7 112.5,-332.7 137.5,-332.7 137.5,-313.7 112.5,-313.7"/>
<polygon fill="none" stroke="#000000" points="112.5,-313.7 112.5,-332.7 137.5,-332.7 137.5,-313.7 112.5,-313.7"/>
<text text-anchor="start" x="118.9053" y="-319.8" font-family="Helvetica,sans-Serif" font-size="11.00" fill="#000000">7 &gt;</text>
</a>
</g>
</g>
<!-- lrs_node&#45;&gt;estradas -->
<g id="edge2" class="edge">
<title>lrs_node:w&#45;&gt;estradas:e</title>
<path fill="none" stroke="#000000" d="M215.9256,-238.1733C199.4682,-248.8516 208.8235,-281.7981 189,-303.7 169.9117,-324.7896 165.9453,-341.7 137.5,-341.7"/>
<polygon fill="#000000" stroke="#000000" points="222.233,-236.6168 230.8626,-238.1951 226.1165,-235.6584 230,-234.7 230,-234.7 230,-234.7 226.1165,-235.6584 229.1374,-231.2049 222.233,-236.6168 222.233,-236.6168"/>
<ellipse fill="none" stroke="#000000" cx="219.1262" cy="-237.3835" rx="3.2" ry="3.2"/>
</g>
<!-- lado -->
<g id="node4" class="node">
<title>lado</title>
<g id="a_node4"><a xlink:href="../../tables/lado.html" xlink:title="lado" target="_top">
<polygon fill="#ffffff" stroke="transparent" points="59,-38.2 59,-99.2 130,-99.2 130,-38.2 59,-38.2"/>
<polygon fill="#f5f5f5" stroke="transparent" points="59.5,-75.7 59.5,-98.7 130.5,-98.7 130.5,-75.7 59.5,-75.7"/>
<polygon fill="none" stroke="#000000" points="59.5,-75.7 59.5,-98.7 130.5,-98.7 130.5,-75.7 59.5,-75.7"/>
<text text-anchor="start" x="64.5" y="-84.8" font-family="Helvetica,sans-Serif" font-weight="bold" font-size="11.00" fill="#000000">lado</text>
<text text-anchor="start" x="95.5437" y="-83.8" font-family="Helvetica,sans-Serif" font-size="11.00" fill="#000000">[table]</text>
<polygon fill="none" stroke="#000000" points="59.5,-56.7 59.5,-75.7 130.5,-75.7 130.5,-56.7 59.5,-56.7"/>
<text text-anchor="start" x="62.5" y="-62.8" font-family="Helvetica,sans-Serif" font-size="11.00" fill="#000000">...</text>
<polygon fill="#ffffff" stroke="transparent" points="59.5,-37.7 59.5,-56.7 71.5,-56.7 71.5,-37.7 59.5,-37.7"/>
<polygon fill="none" stroke="#000000" points="59.5,-37.7 59.5,-56.7 71.5,-56.7 71.5,-37.7 59.5,-37.7"/>
<text text-anchor="start" x="62.4431" y="-43.8" font-family="Helvetica,sans-Serif" font-size="11.00" fill="#000000"> &#160;</text>
<polygon fill="#ffffff" stroke="transparent" points="71.5,-37.7 71.5,-56.7 109.5,-56.7 109.5,-37.7 71.5,-37.7"/>
<polygon fill="none" stroke="#000000" points="71.5,-37.7 71.5,-56.7 109.5,-56.7 109.5,-37.7 71.5,-37.7"/>
<text text-anchor="start" x="74.3053" y="-43.8" font-family="Helvetica,sans-Serif" font-size="11.00" fill="#000000">0 rows</text>
<polygon fill="#ffffff" stroke="transparent" points="109.5,-37.7 109.5,-56.7 130.5,-56.7 130.5,-37.7 109.5,-37.7"/>
<polygon fill="none" stroke="#000000" points="109.5,-37.7 109.5,-56.7 130.5,-56.7 130.5,-37.7 109.5,-37.7"/>
<text text-anchor="start" x="112.2027" y="-43.8" font-family="Helvetica,sans-Serif" font-size="11.00" fill="#000000">4 &gt;</text>
</a>
</g>
</g>
<!-- lrs_node&#45;&gt;lado -->
<g id="edge3" class="edge">
<title>lrs_node:w&#45;&gt;lado:e</title>
<path fill="none" stroke="#000000" d="M215.8435,-164.9452C201.8346,-155.1332 206.8249,-128.2073 189,-109.7 166.4315,-86.2675 163.0334,-65.7 130.5,-65.7"/>
<polygon fill="#000000" stroke="#000000" points="222.2674,-166.649 229.077,-172.1797 226.1337,-167.6745 230,-168.7 230,-168.7 230,-168.7 226.1337,-167.6745 230.923,-165.2203 222.2674,-166.649 222.2674,-166.649"/>
<ellipse fill="none" stroke="#000000" cx="219.1743" cy="-165.8286" rx="3.2" ry="3.2"/>
</g>
<!-- tipo_node -->
<g id="node5" class="node">
<title>tipo_node</title>
<g id="a_node5"><a xlink:href="../../tables/tipo_node.html" xlink:title="tipo_node" target="_top">
<polygon fill="#ffffff" stroke="transparent" points="8,-202.7 8,-292.7 181,-292.7 181,-202.7 8,-202.7"/>
<polygon fill="#f5f5f5" stroke="transparent" points="10.5,-267.7 10.5,-290.7 179.5,-290.7 179.5,-267.7 10.5,-267.7"/>
<polygon fill="none" stroke="#000000" points="10.5,-267.7 10.5,-290.7 179.5,-290.7 179.5,-267.7 10.5,-267.7"/>
<text text-anchor="start" x="15.5" y="-276.8" font-family="Helvetica,sans-Serif" font-weight="bold" font-size="11.00" fill="#000000">tipo_node</text>
<text text-anchor="start" x="144.5437" y="-275.8" font-family="Helvetica,sans-Serif" font-size="11.00" fill="#000000">[table]</text>
<polygon fill="none" stroke="#000000" points="10.5,-245.7 10.5,-267.7 89.5,-267.7 89.5,-245.7 10.5,-245.7"/>
<image xlink:href="../../images/primaryKeys.png" width="11px" height="12px" preserveAspectRatio="xMinYMin meet" x="15.5" y="-262.7"/>
<text text-anchor="start" x="30.5" y="-252.8" font-family="Helvetica,sans-Serif" font-size="11.00" fill="#000000">id</text>
<polygon fill="none" stroke="#000000" points="89.5,-245.7 89.5,-267.7 179.5,-267.7 179.5,-245.7 89.5,-245.7"/>
<text text-anchor="start" x="92.5" y="-253.4" font-family="Helvetica,sans-Serif" font-size="11.00" fill="#000000">serial[10]</text>
<polygon fill="none" stroke="#000000" points="10.5,-223.7 10.5,-245.7 89.5,-245.7 89.5,-223.7 10.5,-223.7"/>
<text text-anchor="start" x="30.5" y="-230.8" font-family="Helvetica,sans-Serif" font-size="11.00" fill="#000000">descricao</text>
<polygon fill="none" stroke="#000000" points="89.5,-223.7 89.5,-245.7 179.5,-245.7 179.5,-223.7 89.5,-223.7"/>
<text text-anchor="start" x="92.0042" y="-231.4" font-family="Helvetica,sans-Serif" font-size="11.00" fill="#000000">text[2147483647]</text>
<polygon fill="#ffffff" stroke="transparent" points="10.5,-204.7 10.5,-223.7 41.5,-223.7 41.5,-204.7 10.5,-204.7"/>
<polygon fill="none" stroke="#000000" points="10.5,-204.7 10.5,-223.7 41.5,-223.7 41.5,-204.7 10.5,-204.7"/>
<text text-anchor="start" x="13.5" y="-210.8" font-family="Helvetica,sans-Serif" font-size="11.00" fill="#000000">&lt; 0</text>
<polygon fill="#ffffff" stroke="transparent" points="41.5,-204.7 41.5,-223.7 89.5,-223.7 89.5,-204.7 41.5,-204.7"/>
<polygon fill="none" stroke="#000000" points="41.5,-204.7 41.5,-223.7 89.5,-223.7 89.5,-204.7 41.5,-204.7"/>
<text text-anchor="start" x="54.1105" y="-210.8" font-family="Helvetica,sans-Serif" font-size="11.00" fill="#000000">0 rows</text>
<polygon fill="#ffffff" stroke="transparent" points="89.5,-204.7 89.5,-223.7 179.5,-223.7 179.5,-204.7 89.5,-204.7"/>
<polygon fill="none" stroke="#000000" points="89.5,-204.7 89.5,-223.7 179.5,-223.7 179.5,-204.7 89.5,-204.7"/>
<text text-anchor="start" x="160.9053" y="-210.8" font-family="Helvetica,sans-Serif" font-size="11.00" fill="#000000">1 &gt;</text>
<polygon fill="none" stroke="#000000" stroke-width="2" points="9,-203.7 9,-291.7 180,-291.7 180,-203.7 9,-203.7"/>
</a>
</g>
</g>
<!-- lrs_node&#45;&gt;tipo_node -->
<g id="edge4" class="edge">
<title>lrs_node:w&#45;&gt;tipo_node:e</title>
<path fill="none" stroke="#000000" d="M216.0126,-217.4088C202.3016,-228.7596 203.2219,-256.7 179.5,-256.7"/>
<polygon fill="#000000" stroke="#000000" points="222.4181,-215.2524 231.1486,-216.1119 226.209,-213.9762 230,-212.7 230,-212.7 230,-212.7 226.209,-213.9762 228.8514,-209.2881 222.4181,-215.2524 222.4181,-215.2524"/>
<ellipse fill="none" stroke="#000000" cx="219.3853" cy="-216.2734" rx="3.2" ry="3.2"/>
</g>
</g>
</svg>
