<?xml version="1.0" encoding="UTF-8" standalone="no"?>
<!DOCTYPE svg PUBLIC "-//W3C//DTD SVG 1.1//EN"
 "http://www.w3.org/Graphics/SVG/1.1/DTD/svg11.dtd">
<!-- Generated by graphviz version 2.40.1 (20161225.0304)
 -->
<!-- Title: oneDegreeRelationshipsDiagram Pages: 1 -->
<svg width="387pt" height="205pt"
 viewBox="0.00 0.00 387.00 204.70" xmlns="http://www.w3.org/2000/svg" xmlns:xlink="http://www.w3.org/1999/xlink">
<g id="graph0" class="graph" transform="scale(1 1) rotate(0) translate(4 200.7)">
<title>oneDegreeRelationshipsDiagram</title>
<polygon fill="#ffffff" stroke="transparent" points="-4,4 -4,-200.7 383,-200.7 383,4 -4,4"/>
<text text-anchor="middle" x="72.4936" y="-7.3" font-family="Helvetica,sans-Serif" font-size="11.00" fill="#000000">Generated by SchemaSpy</text>
<!-- patologias -->
<g id="node1" class="node">
<title>patologias</title>
<g id="a_node1"><a xlink:href="../../tables/patologias.html" xlink:title="patologias" target="_top">
<polygon fill="#ffffff" stroke="transparent" points="234,-65.7 234,-192.7 371,-192.7 371,-65.7 234,-65.7"/>
<polygon fill="#f5f5f5" stroke="transparent" points="234.5,-169.2 234.5,-192.2 371.5,-192.2 371.5,-169.2 234.5,-169.2"/>
<polygon fill="none" stroke="#000000" points="234.5,-169.2 234.5,-192.2 371.5,-192.2 371.5,-169.2 234.5,-169.2"/>
<text text-anchor="start" x="239.5" y="-178.3" font-family="Helvetica,sans-Serif" font-weight="bold" font-size="11.00" fill="#000000">patologias</text>
<text text-anchor="start" x="336.5437" y="-177.3" font-family="Helvetica,sans-Serif" font-size="11.00" fill="#000000">[table]</text>
<polygon fill="none" stroke="#000000" points="234.5,-147.2 234.5,-169.2 371.5,-169.2 371.5,-147.2 234.5,-147.2"/>
<image xlink:href="../../images/primaryKeys.png" width="11px" height="12px" preserveAspectRatio="xMinYMin meet" x="239.5" y="-164.2"/>
<text text-anchor="start" x="254.5" y="-154.3" font-family="Helvetica,sans-Serif" font-size="11.00" fill="#000000">id</text>
<polygon fill="none" stroke="#000000" points="234.5,-125.2 234.5,-147.2 371.5,-147.2 371.5,-125.2 234.5,-125.2"/>
<image xlink:href="../../images/primaryKeys.png" width="11px" height="12px" preserveAspectRatio="xMinYMin meet" x="239.5" y="-142.2"/>
<text text-anchor="start" x="254.5" y="-132.3" font-family="Helvetica,sans-Serif" font-size="11.00" fill="#000000">id_estradas</text>
<polygon fill="none" stroke="#000000" points="234.5,-103.2 234.5,-125.2 371.5,-125.2 371.5,-103.2 234.5,-103.2"/>
<image xlink:href="../../images/primaryKeys.png" width="11px" height="12px" preserveAspectRatio="xMinYMin meet" x="239.5" y="-120.2"/>
<text text-anchor="start" x="254.5" y="-110.3" font-family="Helvetica,sans-Serif" font-size="11.00" fill="#000000">id_tipo_patologias</text>
<polygon fill="none" stroke="#000000" points="234.5,-84.2 234.5,-103.2 371.5,-103.2 371.5,-84.2 234.5,-84.2"/>
<text text-anchor="start" x="237.5" y="-90.3" font-family="Helvetica,sans-Serif" font-size="11.00" fill="#000000">...</text>
<polygon fill="#ffffff" stroke="transparent" points="234.5,-65.2 234.5,-84.2 288.5,-84.2 288.5,-65.2 234.5,-65.2"/>
<polygon fill="none" stroke="#000000" points="234.5,-65.2 234.5,-84.2 288.5,-84.2 288.5,-65.2 234.5,-65.2"/>
<text text-anchor="start" x="237.5" y="-71.3" font-family="Helvetica,sans-Serif" font-size="11.00" fill="#000000">&lt; 2</text>
<polygon fill="#ffffff" stroke="transparent" points="288.5,-65.2 288.5,-84.2 342.5,-84.2 342.5,-65.2 288.5,-65.2"/>
<polygon fill="none" stroke="#000000" points="288.5,-65.2 288.5,-84.2 342.5,-84.2 342.5,-65.2 288.5,-65.2"/>
<text text-anchor="start" x="307.1105" y="-71.3" font-family="Helvetica,sans-Serif" font-size="11.00" fill="#000000">0 rows</text>
<polygon fill="#ffffff" stroke="transparent" points="342.5,-65.2 342.5,-84.2 371.5,-84.2 371.5,-65.2 342.5,-65.2"/>
<polygon fill="none" stroke="#000000" points="342.5,-65.2 342.5,-84.2 371.5,-84.2 371.5,-65.2 342.5,-65.2"/>
<text text-anchor="start" x="362.3862" y="-71.3" font-family="Helvetica,sans-Serif" font-size="11.00" fill="#000000"> &#160;</text>
</a>
</g>
</g>
<!-- tipo_patologias -->
<g id="node2" class="node">
<title>tipo_patologias</title>
<g id="a_node2"><a xlink:href="../../tables/tipo_patologias.html" xlink:title="tipo_patologias" target="_top">
<polygon fill="#ffffff" stroke="transparent" points="8,-38.2 8,-150.2 185,-150.2 185,-38.2 8,-38.2"/>
<polygon fill="#f5f5f5" stroke="transparent" points="10.5,-125.2 10.5,-148.2 183.5,-148.2 183.5,-125.2 10.5,-125.2"/>
<polygon fill="none" stroke="#000000" points="10.5,-125.2 10.5,-148.2 183.5,-148.2 183.5,-125.2 10.5,-125.2"/>
<text text-anchor="start" x="15.5" y="-134.3" font-family="Helvetica,sans-Serif" font-weight="bold" font-size="11.00" fill="#000000">tipo_patologias</text>
<text text-anchor="start" x="148.5437" y="-133.3" font-family="Helvetica,sans-Serif" font-size="11.00" fill="#000000">[table]</text>
<polygon fill="none" stroke="#000000" points="10.5,-103.2 10.5,-125.2 122.5,-125.2 122.5,-103.2 10.5,-103.2"/>
<image xlink:href="../../images/primaryKeys.png" width="11px" height="12px" preserveAspectRatio="xMinYMin meet" x="15.5" y="-120.2"/>
<text text-anchor="start" x="30.5" y="-110.3" font-family="Helvetica,sans-Serif" font-size="11.00" fill="#000000">id</text>
<polygon fill="none" stroke="#000000" points="122.5,-103.2 122.5,-125.2 183.5,-125.2 183.5,-103.2 122.5,-103.2"/>
<text text-anchor="start" x="125.5" y="-110.9" font-family="Helvetica,sans-Serif" font-size="11.00" fill="#000000">serial[10]</text>
<polygon fill="none" stroke="#000000" points="10.5,-81.2 10.5,-103.2 122.5,-103.2 122.5,-81.2 10.5,-81.2"/>
<text text-anchor="start" x="30.5" y="-88.3" font-family="Helvetica,sans-Serif" font-size="11.00" fill="#000000">descricao</text>
<polygon fill="none" stroke="#000000" points="122.5,-81.2 122.5,-103.2 183.5,-103.2 183.5,-81.2 122.5,-81.2"/>
<text text-anchor="start" x="125.494" y="-88.9" font-family="Helvetica,sans-Serif" font-size="11.00" fill="#000000">varchar[16]</text>
<polygon fill="none" stroke="#000000" points="10.5,-59.2 10.5,-81.2 122.5,-81.2 122.5,-59.2 10.5,-59.2"/>
<text text-anchor="start" x="30.5" y="-66.3" font-family="Helvetica,sans-Serif" font-size="11.00" fill="#000000">cod</text>
<polygon fill="none" stroke="#000000" points="122.5,-59.2 122.5,-81.2 183.5,-81.2 183.5,-59.2 122.5,-59.2"/>
<text text-anchor="start" x="125.5" y="-66.9" font-family="Helvetica,sans-Serif" font-size="11.00" fill="#000000">varchar[4]</text>
<polygon fill="#ffffff" stroke="transparent" points="10.5,-40.2 10.5,-59.2 57.5,-59.2 57.5,-40.2 10.5,-40.2"/>
<polygon fill="none" stroke="#000000" points="10.5,-40.2 10.5,-59.2 57.5,-59.2 57.5,-40.2 10.5,-40.2"/>
<text text-anchor="start" x="13.5" y="-46.3" font-family="Helvetica,sans-Serif" font-size="11.00" fill="#000000">&lt; 0</text>
<polygon fill="#ffffff" stroke="transparent" points="57.5,-40.2 57.5,-59.2 122.5,-59.2 122.5,-40.2 57.5,-40.2"/>
<polygon fill="none" stroke="#000000" points="57.5,-40.2 57.5,-59.2 122.5,-59.2 122.5,-40.2 57.5,-40.2"/>
<text text-anchor="start" x="87.1105" y="-46.3" font-family="Helvetica,sans-Serif" font-size="11.00" fill="#000000">0 rows</text>
<polygon fill="#ffffff" stroke="transparent" points="122.5,-40.2 122.5,-59.2 183.5,-59.2 183.5,-40.2 122.5,-40.2"/>
<polygon fill="none" stroke="#000000" points="122.5,-40.2 122.5,-59.2 183.5,-59.2 183.5,-40.2 122.5,-40.2"/>
<text text-anchor="start" x="164.9053" y="-46.3" font-family="Helvetica,sans-Serif" font-size="11.00" fill="#000000">1 &gt;</text>
<polygon fill="none" stroke="#000000" stroke-width="2" points="9,-39.2 9,-149.2 184,-149.2 184,-39.2 9,-39.2"/>
</a>
</g>
</g>
<!-- patologias&#45;&gt;tipo_patologias -->
<g id="edge1" class="edge">
<title>patologias:w&#45;&gt;tipo_patologias:e</title>
<path fill="none" stroke="#000000" d="M219.776,-114.2C207.7815,-114.2 200.3229,-114.2 183.5,-114.2"/>
<polygon fill="#000000" stroke="#000000" points="226.5,-114.2001 234.5,-117.8 230.5,-114.2 234.5,-114.2 234.5,-114.2 234.5,-114.2 230.5,-114.2 234.5,-110.6 226.5,-114.2001 226.5,-114.2001"/>
<ellipse fill="none" stroke="#000000" cx="223.3" cy="-114.2001" rx="3.2" ry="3.2"/>
</g>
</g>
</svg>
