<?xml version="1.0" encoding="UTF-8" standalone="no"?>
<!DOCTYPE svg PUBLIC "-//W3C//DTD SVG 1.1//EN"
 "http://www.w3.org/Graphics/SVG/1.1/DTD/svg11.dtd">
<!-- Generated by graphviz version 2.40.1 (20161225.0304)
 -->
<!-- Title: twoDegreesRelationshipsDiagram Pages: 1 -->
<svg width="387pt" height="245pt"
 viewBox="0.00 0.00 387.00 244.70" xmlns="http://www.w3.org/2000/svg" xmlns:xlink="http://www.w3.org/1999/xlink">
<g id="graph0" class="graph" transform="scale(1 1) rotate(0) translate(4 240.7)">
<title>twoDegreesRelationshipsDiagram</title>
<polygon fill="#ffffff" stroke="transparent" points="-4,4 -4,-240.7 383,-240.7 383,4 -4,4"/>
<text text-anchor="middle" x="72.4936" y="-7.3" font-family="Helvetica,sans-Serif" font-size="11.00" fill="#000000">Generated by SchemaSpy</text>
<!-- patologias -->
<g id="node1" class="node">
<title>patologias</title>
<g id="a_node1"><a xlink:href="../../tables/patologias.html" xlink:title="patologias" target="_top">
<polygon fill="#ffffff" stroke="transparent" points="234,-96.7 234,-223.7 371,-223.7 371,-96.7 234,-96.7"/>
<polygon fill="#f5f5f5" stroke="transparent" points="234.5,-200.2 234.5,-223.2 371.5,-223.2 371.5,-200.2 234.5,-200.2"/>
<polygon fill="none" stroke="#000000" points="234.5,-200.2 234.5,-223.2 371.5,-223.2 371.5,-200.2 234.5,-200.2"/>
<text text-anchor="start" x="239.5" y="-209.3" font-family="Helvetica,sans-Serif" font-weight="bold" font-size="11.00" fill="#000000">patologias</text>
<text text-anchor="start" x="336.5437" y="-208.3" font-family="Helvetica,sans-Serif" font-size="11.00" fill="#000000">[table]</text>
<polygon fill="none" stroke="#000000" points="234.5,-178.2 234.5,-200.2 371.5,-200.2 371.5,-178.2 234.5,-178.2"/>
<image xlink:href="../../images/primaryKeys.png" width="11px" height="12px" preserveAspectRatio="xMinYMin meet" x="239.5" y="-195.2"/>
<text text-anchor="start" x="254.5" y="-185.3" font-family="Helvetica,sans-Serif" font-size="11.00" fill="#000000">id</text>
<polygon fill="none" stroke="#000000" points="234.5,-156.2 234.5,-178.2 371.5,-178.2 371.5,-156.2 234.5,-156.2"/>
<image xlink:href="../../images/primaryKeys.png" width="11px" height="12px" preserveAspectRatio="xMinYMin meet" x="239.5" y="-173.2"/>
<text text-anchor="start" x="254.5" y="-163.3" font-family="Helvetica,sans-Serif" font-size="11.00" fill="#000000">id_estradas</text>
<polygon fill="none" stroke="#000000" points="234.5,-134.2 234.5,-156.2 371.5,-156.2 371.5,-134.2 234.5,-134.2"/>
<image xlink:href="../../images/primaryKeys.png" width="11px" height="12px" preserveAspectRatio="xMinYMin meet" x="239.5" y="-151.2"/>
<text text-anchor="start" x="254.5" y="-141.3" font-family="Helvetica,sans-Serif" font-size="11.00" fill="#000000">id_tipo_patologias</text>
<polygon fill="none" stroke="#000000" points="234.5,-115.2 234.5,-134.2 371.5,-134.2 371.5,-115.2 234.5,-115.2"/>
<text text-anchor="start" x="237.5" y="-121.3" font-family="Helvetica,sans-Serif" font-size="11.00" fill="#000000">...</text>
<polygon fill="#ffffff" stroke="transparent" points="234.5,-96.2 234.5,-115.2 288.5,-115.2 288.5,-96.2 234.5,-96.2"/>
<polygon fill="none" stroke="#000000" points="234.5,-96.2 234.5,-115.2 288.5,-115.2 288.5,-96.2 234.5,-96.2"/>
<text text-anchor="start" x="237.5" y="-102.3" font-family="Helvetica,sans-Serif" font-size="11.00" fill="#000000">&lt; 2</text>
<polygon fill="#ffffff" stroke="transparent" points="288.5,-96.2 288.5,-115.2 342.5,-115.2 342.5,-96.2 288.5,-96.2"/>
<polygon fill="none" stroke="#000000" points="288.5,-96.2 288.5,-115.2 342.5,-115.2 342.5,-96.2 288.5,-96.2"/>
<text text-anchor="start" x="307.1105" y="-102.3" font-family="Helvetica,sans-Serif" font-size="11.00" fill="#000000">0 rows</text>
<polygon fill="#ffffff" stroke="transparent" points="342.5,-96.2 342.5,-115.2 371.5,-115.2 371.5,-96.2 342.5,-96.2"/>
<polygon fill="none" stroke="#000000" points="342.5,-96.2 342.5,-115.2 371.5,-115.2 371.5,-96.2 342.5,-96.2"/>
<text text-anchor="start" x="362.3862" y="-102.3" font-family="Helvetica,sans-Serif" font-size="11.00" fill="#000000"> &#160;</text>
</a>
</g>
</g>
<!-- estradas -->
<g id="node2" class="node">
<title>estradas</title>
<g id="a_node2"><a xlink:href="../../tables/estradas.html" xlink:title="estradas" target="_top">
<polygon fill="#ffffff" stroke="transparent" points="54,-171.7 54,-232.7 139,-232.7 139,-171.7 54,-171.7"/>
<polygon fill="#f5f5f5" stroke="transparent" points="54.5,-209.2 54.5,-232.2 139.5,-232.2 139.5,-209.2 54.5,-209.2"/>
<polygon fill="none" stroke="#000000" points="54.5,-209.2 54.5,-232.2 139.5,-232.2 139.5,-209.2 54.5,-209.2"/>
<text text-anchor="start" x="59.4108" y="-218.3" font-family="Helvetica,sans-Serif" font-weight="bold" font-size="11.00" fill="#000000">estradas</text>
<text text-anchor="start" x="105.0219" y="-217.3" font-family="Helvetica,sans-Serif" font-size="11.00" fill="#000000">[table]</text>
<polygon fill="none" stroke="#000000" points="54.5,-190.2 54.5,-209.2 139.5,-209.2 139.5,-190.2 54.5,-190.2"/>
<text text-anchor="start" x="57.5" y="-196.3" font-family="Helvetica,sans-Serif" font-size="11.00" fill="#000000">...</text>
<polygon fill="#ffffff" stroke="transparent" points="54.5,-171.2 54.5,-190.2 73.5,-190.2 73.5,-171.2 54.5,-171.2"/>
<polygon fill="none" stroke="#000000" points="54.5,-171.2 54.5,-190.2 73.5,-190.2 73.5,-171.2 54.5,-171.2"/>
<text text-anchor="start" x="57.5" y="-177.3" font-family="Helvetica,sans-Serif" font-size="11.00" fill="#000000"> &#160;</text>
<polygon fill="#ffffff" stroke="transparent" points="73.5,-171.2 73.5,-190.2 114.5,-190.2 114.5,-171.2 73.5,-171.2"/>
<polygon fill="none" stroke="#000000" points="73.5,-171.2 73.5,-190.2 114.5,-190.2 114.5,-171.2 73.5,-171.2"/>
<text text-anchor="start" x="79.1105" y="-177.3" font-family="Helvetica,sans-Serif" font-size="11.00" fill="#000000">0 rows</text>
<polygon fill="#ffffff" stroke="transparent" points="114.5,-171.2 114.5,-190.2 139.5,-190.2 139.5,-171.2 114.5,-171.2"/>
<polygon fill="none" stroke="#000000" points="114.5,-171.2 114.5,-190.2 139.5,-190.2 139.5,-171.2 114.5,-171.2"/>
<text text-anchor="start" x="120.9053" y="-177.3" font-family="Helvetica,sans-Serif" font-size="11.00" fill="#000000">7 &gt;</text>
</a>
</g>
</g>
<!-- patologias&#45;&gt;estradas -->
<g id="edge1" class="edge">
<title>patologias:w&#45;&gt;estradas:e</title>
<path fill="none" stroke="#000000" d="M219.878,-168.4941C187.9526,-174.4808 178.6581,-199.2 139.5,-199.2"/>
<polygon fill="#000000" stroke="#000000" points="226.5311,-167.9053 234.8174,-170.786 230.5156,-167.5527 234.5,-167.2 234.5,-167.2 234.5,-167.2 230.5156,-167.5527 234.1826,-163.614 226.5311,-167.9053 226.5311,-167.9053"/>
<ellipse fill="none" stroke="#000000" cx="223.3436" cy="-168.1874" rx="3.2" ry="3.2"/>
</g>
<!-- tipo_patologias -->
<g id="node3" class="node">
<title>tipo_patologias</title>
<g id="a_node3"><a xlink:href="../../tables/tipo_patologias.html" xlink:title="tipo_patologias" target="_top">
<polygon fill="#ffffff" stroke="transparent" points="8,-38.2 8,-150.2 185,-150.2 185,-38.2 8,-38.2"/>
<polygon fill="#f5f5f5" stroke="transparent" points="10.5,-125.2 10.5,-148.2 183.5,-148.2 183.5,-125.2 10.5,-125.2"/>
<polygon fill="none" stroke="#000000" points="10.5,-125.2 10.5,-148.2 183.5,-148.2 183.5,-125.2 10.5,-125.2"/>
<text text-anchor="start" x="15.5" y="-134.3" font-family="Helvetica,sans-Serif" font-weight="bold" font-size="11.00" fill="#000000">tipo_patologias</text>
<text text-anchor="start" x="148.5437" y="-133.3" font-family="Helvetica,sans-Serif" font-size="11.00" fill="#000000">[table]</text>
<polygon fill="none" stroke="#000000" points="10.5,-103.2 10.5,-125.2 122.5,-125.2 122.5,-103.2 10.5,-103.2"/>
<image xlink:href="../../images/primaryKeys.png" width="11px" height="12px" preserveAspectRatio="xMinYMin meet" x="15.5" y="-120.2"/>
<text text-anchor="start" x="30.5" y="-110.3" font-family="Helvetica,sans-Serif" font-size="11.00" fill="#000000">id</text>
<polygon fill="none" stroke="#000000" points="122.5,-103.2 122.5,-125.2 183.5,-125.2 183.5,-103.2 122.5,-103.2"/>
<text text-anchor="start" x="125.5" y="-110.9" font-family="Helvetica,sans-Serif" font-size="11.00" fill="#000000">serial[10]</text>
<polygon fill="none" stroke="#000000" points="10.5,-81.2 10.5,-103.2 122.5,-103.2 122.5,-81.2 10.5,-81.2"/>
<text text-anchor="start" x="30.5" y="-88.3" font-family="Helvetica,sans-Serif" font-size="11.00" fill="#000000">descricao</text>
<polygon fill="none" stroke="#000000" points="122.5,-81.2 122.5,-103.2 183.5,-103.2 183.5,-81.2 122.5,-81.2"/>
<text text-anchor="start" x="125.494" y="-88.9" font-family="Helvetica,sans-Serif" font-size="11.00" fill="#000000">varchar[16]</text>
<polygon fill="none" stroke="#000000" points="10.5,-59.2 10.5,-81.2 122.5,-81.2 122.5,-59.2 10.5,-59.2"/>
<text text-anchor="start" x="30.5" y="-66.3" font-family="Helvetica,sans-Serif" font-size="11.00" fill="#000000">cod</text>
<polygon fill="none" stroke="#000000" points="122.5,-59.2 122.5,-81.2 183.5,-81.2 183.5,-59.2 122.5,-59.2"/>
<text text-anchor="start" x="125.5" y="-66.9" font-family="Helvetica,sans-Serif" font-size="11.00" fill="#000000">varchar[4]</text>
<polygon fill="#ffffff" stroke="transparent" points="10.5,-40.2 10.5,-59.2 57.5,-59.2 57.5,-40.2 10.5,-40.2"/>
<polygon fill="none" stroke="#000000" points="10.5,-40.2 10.5,-59.2 57.5,-59.2 57.5,-40.2 10.5,-40.2"/>
<text text-anchor="start" x="13.5" y="-46.3" font-family="Helvetica,sans-Serif" font-size="11.00" fill="#000000">&lt; 0</text>
<polygon fill="#ffffff" stroke="transparent" points="57.5,-40.2 57.5,-59.2 122.5,-59.2 122.5,-40.2 57.5,-40.2"/>
<polygon fill="none" stroke="#000000" points="57.5,-40.2 57.5,-59.2 122.5,-59.2 122.5,-40.2 57.5,-40.2"/>
<text text-anchor="start" x="87.1105" y="-46.3" font-family="Helvetica,sans-Serif" font-size="11.00" fill="#000000">0 rows</text>
<polygon fill="#ffffff" stroke="transparent" points="122.5,-40.2 122.5,-59.2 183.5,-59.2 183.5,-40.2 122.5,-40.2"/>
<polygon fill="none" stroke="#000000" points="122.5,-40.2 122.5,-59.2 183.5,-59.2 183.5,-40.2 122.5,-40.2"/>
<text text-anchor="start" x="164.9053" y="-46.3" font-family="Helvetica,sans-Serif" font-size="11.00" fill="#000000">1 &gt;</text>
<polygon fill="none" stroke="#000000" stroke-width="2" points="9,-39.2 9,-149.2 184,-149.2 184,-39.2 9,-39.2"/>
</a>
</g>
</g>
<!-- patologias&#45;&gt;tipo_patologias -->
<g id="edge2" class="edge">
<title>patologias:w&#45;&gt;tipo_patologias:e</title>
<path fill="none" stroke="#000000" d="M220.5967,-141.3988C207.5044,-133.1209 204.2231,-114.2 183.5,-114.2"/>
<polygon fill="#000000" stroke="#000000" points="226.7832,-143.0902 233.5506,-148.6726 230.6416,-144.1451 234.5,-145.2 234.5,-145.2 234.5,-145.2 230.6416,-144.1451 235.4494,-141.7274 226.7832,-143.0902 226.7832,-143.0902"/>
<ellipse fill="none" stroke="#000000" cx="223.6965" cy="-142.2462" rx="3.2" ry="3.2"/>
</g>
</g>
</svg>
