<?xml version="1.0" encoding="UTF-8" standalone="no"?>
<!DOCTYPE svg PUBLIC "-//W3C//DTD SVG 1.1//EN"
 "http://www.w3.org/Graphics/SVG/1.1/DTD/svg11.dtd">
<!-- Generated by graphviz version 2.40.1 (20161225.0304)
 -->
<!-- Title: twoDegreesRelationshipsDiagram Pages: 1 -->
<svg width="561pt" height="245pt"
 viewBox="0.00 0.00 561.00 244.70" xmlns="http://www.w3.org/2000/svg" xmlns:xlink="http://www.w3.org/1999/xlink">
<g id="graph0" class="graph" transform="scale(1 1) rotate(0) translate(4 240.7)">
<title>twoDegreesRelationshipsDiagram</title>
<polygon fill="#ffffff" stroke="transparent" points="-4,4 -4,-240.7 557,-240.7 557,4 -4,4"/>
<text text-anchor="middle" x="72.4936" y="-7.3" font-family="Helvetica,sans-Serif" font-size="11.00" fill="#000000">Generated by SchemaSpy</text>
<!-- intevencoes -->
<g id="node1" class="node">
<title>intevencoes</title>
<g id="a_node1"><a xlink:href="../../tables/intevencoes.html" xlink:title="intevencoes" target="_top">
<polygon fill="#ffffff" stroke="transparent" points="444,-161.7 444,-222.7 545,-222.7 545,-161.7 444,-161.7"/>
<polygon fill="#f5f5f5" stroke="transparent" points="444.5,-199.2 444.5,-222.2 545.5,-222.2 545.5,-199.2 444.5,-199.2"/>
<polygon fill="none" stroke="#000000" points="444.5,-199.2 444.5,-222.2 545.5,-222.2 545.5,-199.2 444.5,-199.2"/>
<text text-anchor="start" x="449.1564" y="-208.3" font-family="Helvetica,sans-Serif" font-weight="bold" font-size="11.00" fill="#000000">intevencoes</text>
<text text-anchor="start" x="511.0219" y="-207.3" font-family="Helvetica,sans-Serif" font-size="11.00" fill="#000000">[table]</text>
<polygon fill="none" stroke="#000000" points="444.5,-180.2 444.5,-199.2 545.5,-199.2 545.5,-180.2 444.5,-180.2"/>
<text text-anchor="start" x="447.5" y="-186.3" font-family="Helvetica,sans-Serif" font-size="11.00" fill="#000000">...</text>
<polygon fill="#ffffff" stroke="transparent" points="444.5,-161.2 444.5,-180.2 480.5,-180.2 480.5,-161.2 444.5,-161.2"/>
<polygon fill="none" stroke="#000000" points="444.5,-161.2 444.5,-180.2 480.5,-180.2 480.5,-161.2 444.5,-161.2"/>
<text text-anchor="start" x="447.5" y="-167.3" font-family="Helvetica,sans-Serif" font-size="11.00" fill="#000000">&lt; 1</text>
<polygon fill="#ffffff" stroke="transparent" points="480.5,-161.2 480.5,-180.2 525.5,-180.2 525.5,-161.2 480.5,-161.2"/>
<polygon fill="none" stroke="#000000" points="480.5,-161.2 480.5,-180.2 525.5,-180.2 525.5,-161.2 480.5,-161.2"/>
<text text-anchor="start" x="490.1105" y="-167.3" font-family="Helvetica,sans-Serif" font-size="11.00" fill="#000000">0 rows</text>
<polygon fill="#ffffff" stroke="transparent" points="525.5,-161.2 525.5,-180.2 545.5,-180.2 545.5,-161.2 525.5,-161.2"/>
<polygon fill="none" stroke="#000000" points="525.5,-161.2 525.5,-180.2 545.5,-180.2 545.5,-161.2 525.5,-161.2"/>
<text text-anchor="start" x="536.3862" y="-167.3" font-family="Helvetica,sans-Serif" font-size="11.00" fill="#000000"> &#160;</text>
</a>
</g>
</g>
<!-- trocos -->
<g id="node2" class="node">
<title>trocos</title>
<g id="a_node2"><a xlink:href="../../tables/trocos.html" xlink:title="trocos" target="_top">
<polygon fill="#ffffff" stroke="transparent" points="265,-96.7 265,-223.7 395,-223.7 395,-96.7 265,-96.7"/>
<polygon fill="#f5f5f5" stroke="transparent" points="265,-200.2 265,-223.2 395,-223.2 395,-200.2 265,-200.2"/>
<polygon fill="none" stroke="#000000" points="265,-200.2 265,-223.2 395,-223.2 395,-200.2 265,-200.2"/>
<text text-anchor="start" x="270" y="-209.3" font-family="Helvetica,sans-Serif" font-weight="bold" font-size="11.00" fill="#000000">trocos</text>
<text text-anchor="start" x="360.0437" y="-208.3" font-family="Helvetica,sans-Serif" font-size="11.00" fill="#000000">[table]</text>
<polygon fill="none" stroke="#000000" points="265,-178.2 265,-200.2 395,-200.2 395,-178.2 265,-178.2"/>
<image xlink:href="../../images/primaryKeys.png" width="11px" height="12px" preserveAspectRatio="xMinYMin meet" x="270" y="-195.2"/>
<text text-anchor="start" x="285" y="-185.3" font-family="Helvetica,sans-Serif" font-size="11.00" fill="#000000">id</text>
<polygon fill="none" stroke="#000000" points="265,-156.2 265,-178.2 395,-178.2 395,-156.2 265,-156.2"/>
<image xlink:href="../../images/foreignKeys.png" width="11px" height="12px" preserveAspectRatio="xMinYMin meet" x="270" y="-173.2"/>
<text text-anchor="start" x="285" y="-163.3" font-family="Helvetica,sans-Serif" font-size="11.00" fill="#000000">id_estradas</text>
<polygon fill="none" stroke="#000000" points="265,-134.2 265,-156.2 395,-156.2 395,-134.2 265,-134.2"/>
<image xlink:href="../../images/foreignKeys.png" width="11px" height="12px" preserveAspectRatio="xMinYMin meet" x="270" y="-151.2"/>
<text text-anchor="start" x="285" y="-141.3" font-family="Helvetica,sans-Serif" font-size="11.00" fill="#000000">id_tipo_pavimento</text>
<polygon fill="none" stroke="#000000" points="265,-115.2 265,-134.2 395,-134.2 395,-115.2 265,-115.2"/>
<text text-anchor="start" x="268" y="-121.3" font-family="Helvetica,sans-Serif" font-size="11.00" fill="#000000">...</text>
<polygon fill="#ffffff" stroke="transparent" points="265,-96.2 265,-115.2 311,-115.2 311,-96.2 265,-96.2"/>
<polygon fill="none" stroke="#000000" points="265,-96.2 265,-115.2 311,-115.2 311,-96.2 265,-96.2"/>
<text text-anchor="start" x="268" y="-102.3" font-family="Helvetica,sans-Serif" font-size="11.00" fill="#000000">&lt; 2</text>
<polygon fill="#ffffff" stroke="transparent" points="311,-96.2 311,-115.2 361,-115.2 361,-96.2 311,-96.2"/>
<polygon fill="none" stroke="#000000" points="311,-96.2 311,-115.2 361,-115.2 361,-96.2 311,-96.2"/>
<text text-anchor="start" x="325.6105" y="-102.3" font-family="Helvetica,sans-Serif" font-size="11.00" fill="#000000">0 rows</text>
<polygon fill="#ffffff" stroke="transparent" points="361,-96.2 361,-115.2 395,-115.2 395,-96.2 361,-96.2"/>
<polygon fill="none" stroke="#000000" points="361,-96.2 361,-115.2 395,-115.2 395,-96.2 361,-96.2"/>
<text text-anchor="start" x="376.4053" y="-102.3" font-family="Helvetica,sans-Serif" font-size="11.00" fill="#000000">1 &gt;</text>
</a>
</g>
</g>
<!-- intevencoes&#45;&gt;trocos -->
<g id="edge1" class="edge">
<title>intevencoes:w&#45;&gt;trocos:e</title>
<path fill="none" stroke="#000000" d="M429.8428,-189.2C418.4139,-189.2 411.1563,-189.2 395,-189.2"/>
<polygon fill="#000000" stroke="#000000" points="436.5,-189.2001 444.5,-192.8 440.5,-189.2 444.5,-189.2 444.5,-189.2 444.5,-189.2 440.5,-189.2 444.5,-185.6 436.5,-189.2001 436.5,-189.2001"/>
<ellipse fill="none" stroke="#000000" cx="433.3" cy="-189.2001" rx="3.2" ry="3.2"/>
</g>
<!-- estradas -->
<g id="node3" class="node">
<title>estradas</title>
<g id="a_node3"><a xlink:href="../../tables/estradas.html" xlink:title="estradas" target="_top">
<polygon fill="#ffffff" stroke="transparent" points="69.5,-171.7 69.5,-232.7 154.5,-232.7 154.5,-171.7 69.5,-171.7"/>
<polygon fill="#f5f5f5" stroke="transparent" points="70,-209.2 70,-232.2 155,-232.2 155,-209.2 70,-209.2"/>
<polygon fill="none" stroke="#000000" points="70,-209.2 70,-232.2 155,-232.2 155,-209.2 70,-209.2"/>
<text text-anchor="start" x="74.9108" y="-218.3" font-family="Helvetica,sans-Serif" font-weight="bold" font-size="11.00" fill="#000000">estradas</text>
<text text-anchor="start" x="120.5219" y="-217.3" font-family="Helvetica,sans-Serif" font-size="11.00" fill="#000000">[table]</text>
<polygon fill="none" stroke="#000000" points="70,-190.2 70,-209.2 155,-209.2 155,-190.2 70,-190.2"/>
<text text-anchor="start" x="73" y="-196.3" font-family="Helvetica,sans-Serif" font-size="11.00" fill="#000000">...</text>
<polygon fill="#ffffff" stroke="transparent" points="70,-171.2 70,-190.2 89,-190.2 89,-171.2 70,-171.2"/>
<polygon fill="none" stroke="#000000" points="70,-171.2 70,-190.2 89,-190.2 89,-171.2 70,-171.2"/>
<text text-anchor="start" x="73" y="-177.3" font-family="Helvetica,sans-Serif" font-size="11.00" fill="#000000"> &#160;</text>
<polygon fill="#ffffff" stroke="transparent" points="89,-171.2 89,-190.2 130,-190.2 130,-171.2 89,-171.2"/>
<polygon fill="none" stroke="#000000" points="89,-171.2 89,-190.2 130,-190.2 130,-171.2 89,-171.2"/>
<text text-anchor="start" x="94.6105" y="-177.3" font-family="Helvetica,sans-Serif" font-size="11.00" fill="#000000">0 rows</text>
<polygon fill="#ffffff" stroke="transparent" points="130,-171.2 130,-190.2 155,-190.2 155,-171.2 130,-171.2"/>
<polygon fill="none" stroke="#000000" points="130,-171.2 130,-190.2 155,-190.2 155,-171.2 130,-171.2"/>
<text text-anchor="start" x="136.4053" y="-177.3" font-family="Helvetica,sans-Serif" font-size="11.00" fill="#000000">7 &gt;</text>
</a>
</g>
</g>
<!-- trocos&#45;&gt;estradas -->
<g id="edge2" class="edge">
<title>trocos:w&#45;&gt;estradas:e</title>
<path fill="none" stroke="#000000" d="M250.4677,-168.1577C211.9352,-173.4821 200.645,-199.2 155,-199.2"/>
<polygon fill="#000000" stroke="#000000" points="257.0173,-167.7261 265.2368,-170.7922 261.0087,-167.4631 265,-167.2 265,-167.2 265,-167.2 261.0087,-167.4631 264.7632,-163.6078 257.0173,-167.7261 257.0173,-167.7261"/>
<ellipse fill="none" stroke="#000000" cx="253.8242" cy="-167.9366" rx="3.2" ry="3.2"/>
</g>
<!-- tipo_pavimento -->
<g id="node4" class="node">
<title>tipo_pavimento</title>
<g id="a_node4"><a xlink:href="../../tables/tipo_pavimento.html" xlink:title="tipo_pavimento" target="_top">
<polygon fill="#ffffff" stroke="transparent" points="8,-38.2 8,-150.2 216,-150.2 216,-38.2 8,-38.2"/>
<polygon fill="#f5f5f5" stroke="transparent" points="10,-125.2 10,-148.2 214,-148.2 214,-125.2 10,-125.2"/>
<polygon fill="none" stroke="#000000" points="10,-125.2 10,-148.2 214,-148.2 214,-125.2 10,-125.2"/>
<text text-anchor="start" x="15" y="-134.3" font-family="Helvetica,sans-Serif" font-weight="bold" font-size="11.00" fill="#000000">tipo_pavimento</text>
<text text-anchor="start" x="179.0437" y="-133.3" font-family="Helvetica,sans-Serif" font-size="11.00" fill="#000000">[table]</text>
<polygon fill="none" stroke="#000000" points="10,-103.2 10,-125.2 124,-125.2 124,-103.2 10,-103.2"/>
<image xlink:href="../../images/primaryKeys.png" width="11px" height="12px" preserveAspectRatio="xMinYMin meet" x="15" y="-120.2"/>
<text text-anchor="start" x="30" y="-110.3" font-family="Helvetica,sans-Serif" font-size="11.00" fill="#000000">id</text>
<polygon fill="none" stroke="#000000" points="124,-103.2 124,-125.2 214,-125.2 214,-103.2 124,-103.2"/>
<text text-anchor="start" x="127" y="-110.9" font-family="Helvetica,sans-Serif" font-size="11.00" fill="#000000">serial[10]</text>
<polygon fill="none" stroke="#000000" points="10,-81.2 10,-103.2 124,-103.2 124,-81.2 10,-81.2"/>
<text text-anchor="start" x="30" y="-88.3" font-family="Helvetica,sans-Serif" font-size="11.00" fill="#000000">descricao</text>
<polygon fill="none" stroke="#000000" points="124,-81.2 124,-103.2 214,-103.2 214,-81.2 124,-81.2"/>
<text text-anchor="start" x="126.5042" y="-88.9" font-family="Helvetica,sans-Serif" font-size="11.00" fill="#000000">text[2147483647]</text>
<polygon fill="none" stroke="#000000" points="10,-59.2 10,-81.2 124,-81.2 124,-59.2 10,-59.2"/>
<text text-anchor="start" x="30" y="-66.3" font-family="Helvetica,sans-Serif" font-size="11.00" fill="#000000">cod</text>
<polygon fill="none" stroke="#000000" points="124,-59.2 124,-81.2 214,-81.2 214,-59.2 124,-59.2"/>
<text text-anchor="start" x="127" y="-66.9" font-family="Helvetica,sans-Serif" font-size="11.00" fill="#000000">varchar[6]</text>
<polygon fill="#ffffff" stroke="transparent" points="10,-40.2 10,-59.2 58,-59.2 58,-40.2 10,-40.2"/>
<polygon fill="none" stroke="#000000" points="10,-40.2 10,-59.2 58,-59.2 58,-40.2 10,-40.2"/>
<text text-anchor="start" x="13" y="-46.3" font-family="Helvetica,sans-Serif" font-size="11.00" fill="#000000">&lt; 0</text>
<polygon fill="#ffffff" stroke="transparent" points="58,-40.2 58,-59.2 124,-59.2 124,-40.2 58,-40.2"/>
<polygon fill="none" stroke="#000000" points="58,-40.2 58,-59.2 124,-59.2 124,-40.2 58,-40.2"/>
<text text-anchor="start" x="88.6105" y="-46.3" font-family="Helvetica,sans-Serif" font-size="11.00" fill="#000000">0 rows</text>
<polygon fill="#ffffff" stroke="transparent" points="124,-40.2 124,-59.2 214,-59.2 214,-40.2 124,-40.2"/>
<polygon fill="none" stroke="#000000" points="124,-40.2 124,-59.2 214,-59.2 214,-40.2 124,-40.2"/>
<text text-anchor="start" x="195.4053" y="-46.3" font-family="Helvetica,sans-Serif" font-size="11.00" fill="#000000">1 &gt;</text>
<polygon fill="none" stroke="#000000" stroke-width="2" points="9,-39.2 9,-149.2 215,-149.2 215,-39.2 9,-39.2"/>
</a>
</g>
</g>
<!-- trocos&#45;&gt;tipo_pavimento -->
<g id="edge3" class="edge">
<title>trocos:w&#45;&gt;tipo_pavimento:e</title>
<path fill="none" stroke="#000000" d="M251.0967,-141.3988C238.0044,-133.1209 234.7231,-114.2 214,-114.2"/>
<polygon fill="#000000" stroke="#000000" points="257.2832,-143.0902 264.0506,-148.6726 261.1416,-144.1451 265,-145.2 265,-145.2 265,-145.2 261.1416,-144.1451 265.9494,-141.7274 257.2832,-143.0902 257.2832,-143.0902"/>
<ellipse fill="none" stroke="#000000" cx="254.1965" cy="-142.2462" rx="3.2" ry="3.2"/>
</g>
</g>
</svg>
