<?xml version="1.0" encoding="UTF-8" standalone="no"?>
<!DOCTYPE svg PUBLIC "-//W3C//DTD SVG 1.1//EN"
 "http://www.w3.org/Graphics/SVG/1.1/DTD/svg11.dtd">
<!-- Generated by graphviz version 2.40.1 (20161225.0304)
 -->
<!-- Title: oneDegreeRelationshipsDiagram Pages: 1 -->
<svg width="342pt" height="221pt"
 viewBox="0.00 0.00 342.00 221.20" xmlns="http://www.w3.org/2000/svg" xmlns:xlink="http://www.w3.org/1999/xlink">
<g id="graph0" class="graph" transform="scale(1 1) rotate(0) translate(4 217.2)">
<title>oneDegreeRelationshipsDiagram</title>
<polygon fill="#ffffff" stroke="transparent" points="-4,4 -4,-217.2 338,-217.2 338,4 -4,4"/>
<text text-anchor="middle" x="72.4936" y="-7.3" font-family="Helvetica,sans-Serif" font-size="11.00" fill="#000000">Generated by SchemaSpy</text>
<!-- lrs_node -->
<g id="node1" class="node">
<title>lrs_node</title>
<g id="a_node1"><a xlink:href="../../tables/lrs_node.html" xlink:title="lrs_node" target="_top">
<polygon fill="#ffffff" stroke="transparent" points="230,-38.2 230,-209.2 326,-209.2 326,-38.2 230,-38.2"/>
<polygon fill="#f5f5f5" stroke="transparent" points="230,-185.7 230,-208.7 326,-208.7 326,-185.7 230,-185.7"/>
<polygon fill="none" stroke="#000000" points="230,-185.7 230,-208.7 326,-208.7 326,-185.7 230,-185.7"/>
<text text-anchor="start" x="235" y="-194.8" font-family="Helvetica,sans-Serif" font-weight="bold" font-size="11.00" fill="#000000">lrs_node</text>
<text text-anchor="start" x="291.0437" y="-193.8" font-family="Helvetica,sans-Serif" font-size="11.00" fill="#000000">[table]</text>
<polygon fill="none" stroke="#000000" points="230,-163.7 230,-185.7 326,-185.7 326,-163.7 230,-163.7"/>
<image xlink:href="../../images/primaryKeys.png" width="11px" height="12px" preserveAspectRatio="xMinYMin meet" x="235" y="-180.7"/>
<text text-anchor="start" x="250" y="-170.8" font-family="Helvetica,sans-Serif" font-size="11.00" fill="#000000">id</text>
<polygon fill="none" stroke="#000000" points="230,-141.7 230,-163.7 326,-163.7 326,-141.7 230,-141.7"/>
<image xlink:href="../../images/foreignKeys.png" width="11px" height="12px" preserveAspectRatio="xMinYMin meet" x="235" y="-158.7"/>
<text text-anchor="start" x="250" y="-148.8" font-family="Helvetica,sans-Serif" font-size="11.00" fill="#000000">id_estradas</text>
<polygon fill="none" stroke="#000000" points="230,-119.7 230,-141.7 326,-141.7 326,-119.7 230,-119.7"/>
<image xlink:href="../../images/foreignKeys.png" width="11px" height="12px" preserveAspectRatio="xMinYMin meet" x="235" y="-136.7"/>
<text text-anchor="start" x="250" y="-126.8" font-family="Helvetica,sans-Serif" font-size="11.00" fill="#000000">id_tipo_node</text>
<polygon fill="none" stroke="#000000" points="230,-97.7 230,-119.7 326,-119.7 326,-97.7 230,-97.7"/>
<image xlink:href="../../images/foreignKeys.png" width="11px" height="12px" preserveAspectRatio="xMinYMin meet" x="235" y="-114.7"/>
<text text-anchor="start" x="250" y="-104.8" font-family="Helvetica,sans-Serif" font-size="11.00" fill="#000000">id_estado</text>
<polygon fill="none" stroke="#000000" points="230,-75.7 230,-97.7 326,-97.7 326,-75.7 230,-75.7"/>
<image xlink:href="../../images/foreignKeys.png" width="11px" height="12px" preserveAspectRatio="xMinYMin meet" x="235" y="-92.7"/>
<text text-anchor="start" x="250" y="-82.8" font-family="Helvetica,sans-Serif" font-size="11.00" fill="#000000">id_lado</text>
<polygon fill="none" stroke="#000000" points="230,-56.7 230,-75.7 326,-75.7 326,-56.7 230,-56.7"/>
<text text-anchor="start" x="233" y="-62.8" font-family="Helvetica,sans-Serif" font-size="11.00" fill="#000000">...</text>
<polygon fill="#ffffff" stroke="transparent" points="230,-37.7 230,-56.7 263,-56.7 263,-37.7 230,-37.7"/>
<polygon fill="none" stroke="#000000" points="230,-37.7 230,-56.7 263,-56.7 263,-37.7 230,-37.7"/>
<text text-anchor="start" x="233" y="-43.8" font-family="Helvetica,sans-Serif" font-size="11.00" fill="#000000">&lt; 4</text>
<polygon fill="#ffffff" stroke="transparent" points="263,-37.7 263,-56.7 307,-56.7 307,-37.7 263,-37.7"/>
<polygon fill="none" stroke="#000000" points="263,-37.7 263,-56.7 307,-56.7 307,-37.7 263,-37.7"/>
<text text-anchor="start" x="271.6105" y="-43.8" font-family="Helvetica,sans-Serif" font-size="11.00" fill="#000000">0 rows</text>
<polygon fill="#ffffff" stroke="transparent" points="307,-37.7 307,-56.7 326,-56.7 326,-37.7 307,-37.7"/>
<polygon fill="none" stroke="#000000" points="307,-37.7 307,-56.7 326,-56.7 326,-37.7 307,-37.7"/>
<text text-anchor="start" x="316.8862" y="-43.8" font-family="Helvetica,sans-Serif" font-size="11.00" fill="#000000"> &#160;</text>
</a>
</g>
</g>
<!-- tipo_node -->
<g id="node2" class="node">
<title>tipo_node</title>
<g id="a_node2"><a xlink:href="../../tables/tipo_node.html" xlink:title="tipo_node" target="_top">
<polygon fill="#ffffff" stroke="transparent" points="8,-76.7 8,-166.7 181,-166.7 181,-76.7 8,-76.7"/>
<polygon fill="#f5f5f5" stroke="transparent" points="10.5,-141.7 10.5,-164.7 179.5,-164.7 179.5,-141.7 10.5,-141.7"/>
<polygon fill="none" stroke="#000000" points="10.5,-141.7 10.5,-164.7 179.5,-164.7 179.5,-141.7 10.5,-141.7"/>
<text text-anchor="start" x="15.5" y="-150.8" font-family="Helvetica,sans-Serif" font-weight="bold" font-size="11.00" fill="#000000">tipo_node</text>
<text text-anchor="start" x="144.5437" y="-149.8" font-family="Helvetica,sans-Serif" font-size="11.00" fill="#000000">[table]</text>
<polygon fill="none" stroke="#000000" points="10.5,-119.7 10.5,-141.7 89.5,-141.7 89.5,-119.7 10.5,-119.7"/>
<image xlink:href="../../images/primaryKeys.png" width="11px" height="12px" preserveAspectRatio="xMinYMin meet" x="15.5" y="-136.7"/>
<text text-anchor="start" x="30.5" y="-126.8" font-family="Helvetica,sans-Serif" font-size="11.00" fill="#000000">id</text>
<polygon fill="none" stroke="#000000" points="89.5,-119.7 89.5,-141.7 179.5,-141.7 179.5,-119.7 89.5,-119.7"/>
<text text-anchor="start" x="92.5" y="-127.4" font-family="Helvetica,sans-Serif" font-size="11.00" fill="#000000">serial[10]</text>
<polygon fill="none" stroke="#000000" points="10.5,-97.7 10.5,-119.7 89.5,-119.7 89.5,-97.7 10.5,-97.7"/>
<text text-anchor="start" x="30.5" y="-104.8" font-family="Helvetica,sans-Serif" font-size="11.00" fill="#000000">descricao</text>
<polygon fill="none" stroke="#000000" points="89.5,-97.7 89.5,-119.7 179.5,-119.7 179.5,-97.7 89.5,-97.7"/>
<text text-anchor="start" x="92.0042" y="-105.4" font-family="Helvetica,sans-Serif" font-size="11.00" fill="#000000">text[2147483647]</text>
<polygon fill="#ffffff" stroke="transparent" points="10.5,-78.7 10.5,-97.7 41.5,-97.7 41.5,-78.7 10.5,-78.7"/>
<polygon fill="none" stroke="#000000" points="10.5,-78.7 10.5,-97.7 41.5,-97.7 41.5,-78.7 10.5,-78.7"/>
<text text-anchor="start" x="13.5" y="-84.8" font-family="Helvetica,sans-Serif" font-size="11.00" fill="#000000">&lt; 0</text>
<polygon fill="#ffffff" stroke="transparent" points="41.5,-78.7 41.5,-97.7 89.5,-97.7 89.5,-78.7 41.5,-78.7"/>
<polygon fill="none" stroke="#000000" points="41.5,-78.7 41.5,-97.7 89.5,-97.7 89.5,-78.7 41.5,-78.7"/>
<text text-anchor="start" x="54.1105" y="-84.8" font-family="Helvetica,sans-Serif" font-size="11.00" fill="#000000">0 rows</text>
<polygon fill="#ffffff" stroke="transparent" points="89.5,-78.7 89.5,-97.7 179.5,-97.7 179.5,-78.7 89.5,-78.7"/>
<polygon fill="none" stroke="#000000" points="89.5,-78.7 89.5,-97.7 179.5,-97.7 179.5,-78.7 89.5,-78.7"/>
<text text-anchor="start" x="160.9053" y="-84.8" font-family="Helvetica,sans-Serif" font-size="11.00" fill="#000000">1 &gt;</text>
<polygon fill="none" stroke="#000000" stroke-width="2" points="9,-77.7 9,-165.7 180,-165.7 180,-77.7 9,-77.7"/>
</a>
</g>
</g>
<!-- lrs_node&#45;&gt;tipo_node -->
<g id="edge1" class="edge">
<title>lrs_node:w&#45;&gt;tipo_node:e</title>
<path fill="none" stroke="#000000" d="M215.4203,-130.7C203.5435,-130.7 196.158,-130.7 179.5,-130.7"/>
<polygon fill="#000000" stroke="#000000" points="222,-130.7001 230,-134.3 226,-130.7 230,-130.7 230,-130.7 230,-130.7 226,-130.7 230,-127.1 222,-130.7001 222,-130.7001"/>
<ellipse fill="none" stroke="#000000" cx="218.8" cy="-130.7001" rx="3.2" ry="3.2"/>
</g>
</g>
</svg>
