<?xml version="1.0" encoding="UTF-8" standalone="no"?>
<!DOCTYPE svg PUBLIC "-//W3C//DTD SVG 1.1//EN"
 "http://www.w3.org/Graphics/SVG/1.1/DTD/svg11.dtd">
<!-- Generated by graphviz version 2.40.1 (20161225.0304)
 -->
<!-- Title: twoDegreesRelationshipsDiagram Pages: 1 -->
<svg width="328pt" height="387pt"
 viewBox="0.00 0.00 328.00 387.20" xmlns="http://www.w3.org/2000/svg" xmlns:xlink="http://www.w3.org/1999/xlink">
<g id="graph0" class="graph" transform="scale(1 1) rotate(0) translate(4 383.2)">
<title>twoDegreesRelationshipsDiagram</title>
<polygon fill="#ffffff" stroke="transparent" points="-4,4 -4,-383.2 324,-383.2 324,4 -4,4"/>
<text text-anchor="middle" x="72.4936" y="-7.3" font-family="Helvetica,sans-Serif" font-size="11.00" fill="#000000">Generated by SchemaSpy</text>
<!-- valetas -->
<g id="node1" class="node">
<title>valetas</title>
<g id="a_node1"><a xlink:href="../../tables/valetas.html" xlink:title="valetas" target="_top">
<polygon fill="#ffffff" stroke="transparent" points="209,-120.2 209,-291.2 312,-291.2 312,-120.2 209,-120.2"/>
<polygon fill="#f5f5f5" stroke="transparent" points="209.5,-267.7 209.5,-290.7 312.5,-290.7 312.5,-267.7 209.5,-267.7"/>
<polygon fill="none" stroke="#000000" points="209.5,-267.7 209.5,-290.7 312.5,-290.7 312.5,-267.7 209.5,-267.7"/>
<text text-anchor="start" x="214.5" y="-276.8" font-family="Helvetica,sans-Serif" font-weight="bold" font-size="11.00" fill="#000000">valetas</text>
<text text-anchor="start" x="277.5437" y="-275.8" font-family="Helvetica,sans-Serif" font-size="11.00" fill="#000000">[table]</text>
<polygon fill="none" stroke="#000000" points="209.5,-245.7 209.5,-267.7 312.5,-267.7 312.5,-245.7 209.5,-245.7"/>
<image xlink:href="../../images/primaryKeys.png" width="11px" height="12px" preserveAspectRatio="xMinYMin meet" x="214.5" y="-262.7"/>
<text text-anchor="start" x="229.5" y="-252.8" font-family="Helvetica,sans-Serif" font-size="11.00" fill="#000000">id</text>
<polygon fill="none" stroke="#000000" points="209.5,-223.7 209.5,-245.7 312.5,-245.7 312.5,-223.7 209.5,-223.7"/>
<image xlink:href="../../images/foreignKeys.png" width="11px" height="12px" preserveAspectRatio="xMinYMin meet" x="214.5" y="-240.7"/>
<text text-anchor="start" x="229.5" y="-230.8" font-family="Helvetica,sans-Serif" font-size="11.00" fill="#000000">id_estradas</text>
<polygon fill="none" stroke="#000000" points="209.5,-201.7 209.5,-223.7 312.5,-223.7 312.5,-201.7 209.5,-201.7"/>
<image xlink:href="../../images/foreignKeys.png" width="11px" height="12px" preserveAspectRatio="xMinYMin meet" x="214.5" y="-218.7"/>
<text text-anchor="start" x="229.5" y="-208.8" font-family="Helvetica,sans-Serif" font-size="11.00" fill="#000000">id_tipo_valeta</text>
<polygon fill="none" stroke="#000000" points="209.5,-179.7 209.5,-201.7 312.5,-201.7 312.5,-179.7 209.5,-179.7"/>
<image xlink:href="../../images/foreignKeys.png" width="11px" height="12px" preserveAspectRatio="xMinYMin meet" x="214.5" y="-196.7"/>
<text text-anchor="start" x="229.5" y="-186.8" font-family="Helvetica,sans-Serif" font-size="11.00" fill="#000000">id_estado</text>
<polygon fill="none" stroke="#000000" points="209.5,-157.7 209.5,-179.7 312.5,-179.7 312.5,-157.7 209.5,-157.7"/>
<image xlink:href="../../images/foreignKeys.png" width="11px" height="12px" preserveAspectRatio="xMinYMin meet" x="214.5" y="-174.7"/>
<text text-anchor="start" x="229.5" y="-164.8" font-family="Helvetica,sans-Serif" font-size="11.00" fill="#000000">id_lado</text>
<polygon fill="none" stroke="#000000" points="209.5,-138.7 209.5,-157.7 312.5,-157.7 312.5,-138.7 209.5,-138.7"/>
<text text-anchor="start" x="212.5" y="-144.8" font-family="Helvetica,sans-Serif" font-size="11.00" fill="#000000">...</text>
<polygon fill="#ffffff" stroke="transparent" points="209.5,-119.7 209.5,-138.7 246.5,-138.7 246.5,-119.7 209.5,-119.7"/>
<polygon fill="none" stroke="#000000" points="209.5,-119.7 209.5,-138.7 246.5,-138.7 246.5,-119.7 209.5,-119.7"/>
<text text-anchor="start" x="212.5" y="-125.8" font-family="Helvetica,sans-Serif" font-size="11.00" fill="#000000">&lt; 4</text>
<polygon fill="#ffffff" stroke="transparent" points="246.5,-119.7 246.5,-138.7 292.5,-138.7 292.5,-119.7 246.5,-119.7"/>
<polygon fill="none" stroke="#000000" points="246.5,-119.7 246.5,-138.7 292.5,-138.7 292.5,-119.7 246.5,-119.7"/>
<text text-anchor="start" x="257.1105" y="-125.8" font-family="Helvetica,sans-Serif" font-size="11.00" fill="#000000">0 rows</text>
<polygon fill="#ffffff" stroke="transparent" points="292.5,-119.7 292.5,-138.7 312.5,-138.7 312.5,-119.7 292.5,-119.7"/>
<polygon fill="none" stroke="#000000" points="292.5,-119.7 292.5,-138.7 312.5,-138.7 312.5,-119.7 292.5,-119.7"/>
<text text-anchor="start" x="303.3862" y="-125.8" font-family="Helvetica,sans-Serif" font-size="11.00" fill="#000000"> &#160;</text>
</a>
</g>
</g>
<!-- estado -->
<g id="node2" class="node">
<title>estado</title>
<g id="a_node2"><a xlink:href="../../tables/estado.html" xlink:title="estado" target="_top">
<polygon fill="#ffffff" stroke="transparent" points="46,-120.2 46,-181.2 122,-181.2 122,-120.2 46,-120.2"/>
<polygon fill="#f5f5f5" stroke="transparent" points="46,-157.7 46,-180.7 122,-180.7 122,-157.7 46,-157.7"/>
<polygon fill="none" stroke="#000000" points="46,-157.7 46,-180.7 122,-180.7 122,-157.7 46,-157.7"/>
<text text-anchor="start" x="50.9918" y="-166.8" font-family="Helvetica,sans-Serif" font-weight="bold" font-size="11.00" fill="#000000">estado</text>
<text text-anchor="start" x="87.5219" y="-165.8" font-family="Helvetica,sans-Serif" font-size="11.00" fill="#000000">[table]</text>
<polygon fill="none" stroke="#000000" points="46,-138.7 46,-157.7 122,-157.7 122,-138.7 46,-138.7"/>
<text text-anchor="start" x="49" y="-144.8" font-family="Helvetica,sans-Serif" font-size="11.00" fill="#000000">...</text>
<polygon fill="#ffffff" stroke="transparent" points="46,-119.7 46,-138.7 60,-138.7 60,-119.7 46,-119.7"/>
<polygon fill="none" stroke="#000000" points="46,-119.7 46,-138.7 60,-138.7 60,-119.7 46,-119.7"/>
<text text-anchor="start" x="49" y="-125.8" font-family="Helvetica,sans-Serif" font-size="11.00" fill="#000000"> &#160;</text>
<polygon fill="#ffffff" stroke="transparent" points="60,-119.7 60,-138.7 99,-138.7 99,-119.7 60,-119.7"/>
<polygon fill="none" stroke="#000000" points="60,-119.7 60,-138.7 99,-138.7 99,-119.7 60,-119.7"/>
<text text-anchor="start" x="63.6105" y="-125.8" font-family="Helvetica,sans-Serif" font-size="11.00" fill="#000000">0 rows</text>
<polygon fill="#ffffff" stroke="transparent" points="99,-119.7 99,-138.7 122,-138.7 122,-119.7 99,-119.7"/>
<polygon fill="none" stroke="#000000" points="99,-119.7 99,-138.7 122,-138.7 122,-119.7 99,-119.7"/>
<text text-anchor="start" x="103.4053" y="-125.8" font-family="Helvetica,sans-Serif" font-size="11.00" fill="#000000">4 &gt;</text>
</a>
</g>
</g>
<!-- valetas&#45;&gt;estado -->
<g id="edge1" class="edge">
<title>valetas:w&#45;&gt;estado:e</title>
<path fill="none" stroke="#000000" d="M195.0767,-188.8523C165.2955,-180.6219 159.9147,-147.7 122,-147.7"/>
<polygon fill="#000000" stroke="#000000" points="201.5648,-189.6834 209.0425,-194.2708 205.5324,-190.1917 209.5,-190.7 209.5,-190.7 209.5,-190.7 205.5324,-190.1917 209.9575,-187.1292 201.5648,-189.6834 201.5648,-189.6834"/>
<ellipse fill="none" stroke="#000000" cx="198.3908" cy="-189.2768" rx="3.2" ry="3.2"/>
</g>
<!-- estradas -->
<g id="node3" class="node">
<title>estradas</title>
<g id="a_node3"><a xlink:href="../../tables/estradas.html" xlink:title="estradas" target="_top">
<polygon fill="#ffffff" stroke="transparent" points="41.5,-314.2 41.5,-375.2 126.5,-375.2 126.5,-314.2 41.5,-314.2"/>
<polygon fill="#f5f5f5" stroke="transparent" points="42,-351.7 42,-374.7 127,-374.7 127,-351.7 42,-351.7"/>
<polygon fill="none" stroke="#000000" points="42,-351.7 42,-374.7 127,-374.7 127,-351.7 42,-351.7"/>
<text text-anchor="start" x="46.9108" y="-360.8" font-family="Helvetica,sans-Serif" font-weight="bold" font-size="11.00" fill="#000000">estradas</text>
<text text-anchor="start" x="92.5219" y="-359.8" font-family="Helvetica,sans-Serif" font-size="11.00" fill="#000000">[table]</text>
<polygon fill="none" stroke="#000000" points="42,-332.7 42,-351.7 127,-351.7 127,-332.7 42,-332.7"/>
<text text-anchor="start" x="45" y="-338.8" font-family="Helvetica,sans-Serif" font-size="11.00" fill="#000000">...</text>
<polygon fill="#ffffff" stroke="transparent" points="42,-313.7 42,-332.7 61,-332.7 61,-313.7 42,-313.7"/>
<polygon fill="none" stroke="#000000" points="42,-313.7 42,-332.7 61,-332.7 61,-313.7 42,-313.7"/>
<text text-anchor="start" x="45" y="-319.8" font-family="Helvetica,sans-Serif" font-size="11.00" fill="#000000"> &#160;</text>
<polygon fill="#ffffff" stroke="transparent" points="61,-313.7 61,-332.7 102,-332.7 102,-313.7 61,-313.7"/>
<polygon fill="none" stroke="#000000" points="61,-313.7 61,-332.7 102,-332.7 102,-313.7 61,-313.7"/>
<text text-anchor="start" x="66.6105" y="-319.8" font-family="Helvetica,sans-Serif" font-size="11.00" fill="#000000">0 rows</text>
<polygon fill="#ffffff" stroke="transparent" points="102,-313.7 102,-332.7 127,-332.7 127,-313.7 102,-313.7"/>
<polygon fill="none" stroke="#000000" points="102,-313.7 102,-332.7 127,-332.7 127,-313.7 102,-313.7"/>
<text text-anchor="start" x="108.4053" y="-319.8" font-family="Helvetica,sans-Serif" font-size="11.00" fill="#000000">7 &gt;</text>
</a>
</g>
</g>
<!-- valetas&#45;&gt;estradas -->
<g id="edge2" class="edge">
<title>valetas:w&#45;&gt;estradas:e</title>
<path fill="none" stroke="#000000" d="M195.2456,-238.0761C178.3433,-248.4747 186.6902,-280.7015 168,-303.7 152.3308,-322.9811 151.8452,-341.7 127,-341.7"/>
<polygon fill="#000000" stroke="#000000" points="201.7154,-236.5438 210.3297,-238.2031 205.6077,-235.6219 209.5,-234.7 209.5,-234.7 209.5,-234.7 205.6077,-235.6219 208.6703,-231.1969 201.7154,-236.5438 201.7154,-236.5438"/>
<ellipse fill="none" stroke="#000000" cx="198.6015" cy="-237.2813" rx="3.2" ry="3.2"/>
</g>
<!-- lado -->
<g id="node4" class="node">
<title>lado</title>
<g id="a_node4"><a xlink:href="../../tables/lado.html" xlink:title="lado" target="_top">
<polygon fill="#ffffff" stroke="transparent" points="48.5,-38.2 48.5,-99.2 119.5,-99.2 119.5,-38.2 48.5,-38.2"/>
<polygon fill="#f5f5f5" stroke="transparent" points="49,-75.7 49,-98.7 120,-98.7 120,-75.7 49,-75.7"/>
<polygon fill="none" stroke="#000000" points="49,-75.7 49,-98.7 120,-98.7 120,-75.7 49,-75.7"/>
<text text-anchor="start" x="54" y="-84.8" font-family="Helvetica,sans-Serif" font-weight="bold" font-size="11.00" fill="#000000">lado</text>
<text text-anchor="start" x="85.0437" y="-83.8" font-family="Helvetica,sans-Serif" font-size="11.00" fill="#000000">[table]</text>
<polygon fill="none" stroke="#000000" points="49,-56.7 49,-75.7 120,-75.7 120,-56.7 49,-56.7"/>
<text text-anchor="start" x="52" y="-62.8" font-family="Helvetica,sans-Serif" font-size="11.00" fill="#000000">...</text>
<polygon fill="#ffffff" stroke="transparent" points="49,-37.7 49,-56.7 61,-56.7 61,-37.7 49,-37.7"/>
<polygon fill="none" stroke="#000000" points="49,-37.7 49,-56.7 61,-56.7 61,-37.7 49,-37.7"/>
<text text-anchor="start" x="51.9431" y="-43.8" font-family="Helvetica,sans-Serif" font-size="11.00" fill="#000000"> &#160;</text>
<polygon fill="#ffffff" stroke="transparent" points="61,-37.7 61,-56.7 99,-56.7 99,-37.7 61,-37.7"/>
<polygon fill="none" stroke="#000000" points="61,-37.7 61,-56.7 99,-56.7 99,-37.7 61,-37.7"/>
<text text-anchor="start" x="63.8053" y="-43.8" font-family="Helvetica,sans-Serif" font-size="11.00" fill="#000000">0 rows</text>
<polygon fill="#ffffff" stroke="transparent" points="99,-37.7 99,-56.7 120,-56.7 120,-37.7 99,-37.7"/>
<polygon fill="none" stroke="#000000" points="99,-37.7 99,-56.7 120,-56.7 120,-37.7 99,-37.7"/>
<text text-anchor="start" x="101.7027" y="-43.8" font-family="Helvetica,sans-Serif" font-size="11.00" fill="#000000">4 &gt;</text>
</a>
</g>
</g>
<!-- valetas&#45;&gt;lado -->
<g id="edge3" class="edge">
<title>valetas:w&#45;&gt;lado:e</title>
<path fill="none" stroke="#000000" d="M195.1543,-165.0449C180.7648,-155.4738 185.0285,-129.0792 168,-109.7 148.8972,-87.9603 148.9401,-65.7 120,-65.7"/>
<polygon fill="#000000" stroke="#000000" points="201.7477,-166.7248 208.6112,-172.1886 205.6238,-167.7124 209.5,-168.7 209.5,-168.7 209.5,-168.7 205.6238,-167.7124 210.3888,-165.2114 201.7477,-166.7248 201.7477,-166.7248"/>
<ellipse fill="none" stroke="#000000" cx="198.6467" cy="-165.9347" rx="3.2" ry="3.2"/>
</g>
<!-- tipo_valeta -->
<g id="node5" class="node">
<title>tipo_valeta</title>
<g id="a_node5"><a xlink:href="../../tables/tipo_valeta.html" xlink:title="tipo_valeta" target="_top">
<polygon fill="#ffffff" stroke="transparent" points="8,-202.7 8,-292.7 160,-292.7 160,-202.7 8,-202.7"/>
<polygon fill="#f5f5f5" stroke="transparent" points="10,-267.7 10,-290.7 158,-290.7 158,-267.7 10,-267.7"/>
<polygon fill="none" stroke="#000000" points="10,-267.7 10,-290.7 158,-290.7 158,-267.7 10,-267.7"/>
<text text-anchor="start" x="15" y="-276.8" font-family="Helvetica,sans-Serif" font-weight="bold" font-size="11.00" fill="#000000">tipo_valeta</text>
<text text-anchor="start" x="123.0437" y="-275.8" font-family="Helvetica,sans-Serif" font-size="11.00" fill="#000000">[table]</text>
<polygon fill="none" stroke="#000000" points="10,-245.7 10,-267.7 97,-267.7 97,-245.7 10,-245.7"/>
<image xlink:href="../../images/primaryKeys.png" width="11px" height="12px" preserveAspectRatio="xMinYMin meet" x="15" y="-262.7"/>
<text text-anchor="start" x="30" y="-252.8" font-family="Helvetica,sans-Serif" font-size="11.00" fill="#000000">id</text>
<polygon fill="none" stroke="#000000" points="97,-245.7 97,-267.7 158,-267.7 158,-245.7 97,-245.7"/>
<text text-anchor="start" x="100" y="-253.4" font-family="Helvetica,sans-Serif" font-size="11.00" fill="#000000">serial[10]</text>
<polygon fill="none" stroke="#000000" points="10,-223.7 10,-245.7 97,-245.7 97,-223.7 10,-223.7"/>
<text text-anchor="start" x="30" y="-230.8" font-family="Helvetica,sans-Serif" font-size="11.00" fill="#000000">descricao</text>
<polygon fill="none" stroke="#000000" points="97,-223.7 97,-245.7 158,-245.7 158,-223.7 97,-223.7"/>
<text text-anchor="start" x="99.994" y="-231.4" font-family="Helvetica,sans-Serif" font-size="11.00" fill="#000000">varchar[24]</text>
<polygon fill="#ffffff" stroke="transparent" points="10,-204.7 10,-223.7 45,-223.7 45,-204.7 10,-204.7"/>
<polygon fill="none" stroke="#000000" points="10,-204.7 10,-223.7 45,-223.7 45,-204.7 10,-204.7"/>
<text text-anchor="start" x="13" y="-210.8" font-family="Helvetica,sans-Serif" font-size="11.00" fill="#000000">&lt; 0</text>
<polygon fill="#ffffff" stroke="transparent" points="45,-204.7 45,-223.7 97,-223.7 97,-204.7 45,-204.7"/>
<polygon fill="none" stroke="#000000" points="45,-204.7 45,-223.7 97,-223.7 97,-204.7 45,-204.7"/>
<text text-anchor="start" x="61.6105" y="-210.8" font-family="Helvetica,sans-Serif" font-size="11.00" fill="#000000">0 rows</text>
<polygon fill="#ffffff" stroke="transparent" points="97,-204.7 97,-223.7 158,-223.7 158,-204.7 97,-204.7"/>
<polygon fill="none" stroke="#000000" points="97,-204.7 97,-223.7 158,-223.7 158,-204.7 97,-204.7"/>
<text text-anchor="start" x="139.4053" y="-210.8" font-family="Helvetica,sans-Serif" font-size="11.00" fill="#000000">1 &gt;</text>
<polygon fill="none" stroke="#000000" stroke-width="2" points="9,-203.7 9,-291.7 159,-291.7 159,-203.7 9,-203.7"/>
</a>
</g>
</g>
<!-- valetas&#45;&gt;tipo_valeta -->
<g id="edge4" class="edge">
<title>valetas:w&#45;&gt;tipo_valeta:e</title>
<path fill="none" stroke="#000000" d="M195.7239,-217.0797C181.3166,-228.209 182.2253,-256.7 158,-256.7"/>
<polygon fill="#000000" stroke="#000000" points="201.876,-215.1239 210.5907,-216.1308 205.688,-213.9119 209.5,-212.7 209.5,-212.7 209.5,-212.7 205.688,-213.9119 208.4093,-209.2692 201.876,-215.1239 201.876,-215.1239"/>
<ellipse fill="none" stroke="#000000" cx="198.8264" cy="-216.0934" rx="3.2" ry="3.2"/>
</g>
</g>
</svg>
