<?xml version="1.0" encoding="UTF-8" standalone="no"?>
<!DOCTYPE svg PUBLIC "-//W3C//DTD SVG 1.1//EN"
 "http://www.w3.org/Graphics/SVG/1.1/DTD/svg11.dtd">
<!-- Generated by graphviz version 2.40.1 (20161225.0304)
 -->
<!-- Title: twoDegreesRelationshipsDiagram Pages: 1 -->
<svg width="332pt" height="387pt"
 viewBox="0.00 0.00 332.00 387.20" xmlns="http://www.w3.org/2000/svg" xmlns:xlink="http://www.w3.org/1999/xlink">
<g id="graph0" class="graph" transform="scale(1 1) rotate(0) translate(4 383.2)">
<title>twoDegreesRelationshipsDiagram</title>
<polygon fill="#ffffff" stroke="transparent" points="-4,4 -4,-383.2 328,-383.2 328,4 -4,4"/>
<text text-anchor="middle" x="72.4936" y="-7.3" font-family="Helvetica,sans-Serif" font-size="11.00" fill="#000000">Generated by SchemaSpy</text>
<!-- lrs_line -->
<g id="node1" class="node">
<title>lrs_line</title>
<g id="a_node1"><a xlink:href="../../tables/lrs_line.html" xlink:title="lrs_line" target="_top">
<polygon fill="#ffffff" stroke="transparent" points="228,-120.2 228,-291.2 316,-291.2 316,-120.2 228,-120.2"/>
<polygon fill="#f5f5f5" stroke="transparent" points="228,-267.7 228,-290.7 316,-290.7 316,-267.7 228,-267.7"/>
<polygon fill="none" stroke="#000000" points="228,-267.7 228,-290.7 316,-290.7 316,-267.7 228,-267.7"/>
<text text-anchor="start" x="233" y="-276.8" font-family="Helvetica,sans-Serif" font-weight="bold" font-size="11.00" fill="#000000">lrs_line</text>
<text text-anchor="start" x="281.0437" y="-275.8" font-family="Helvetica,sans-Serif" font-size="11.00" fill="#000000">[table]</text>
<polygon fill="none" stroke="#000000" points="228,-245.7 228,-267.7 316,-267.7 316,-245.7 228,-245.7"/>
<image xlink:href="../../images/primaryKeys.png" width="11px" height="12px" preserveAspectRatio="xMinYMin meet" x="233" y="-262.7"/>
<text text-anchor="start" x="248" y="-252.8" font-family="Helvetica,sans-Serif" font-size="11.00" fill="#000000">id</text>
<polygon fill="none" stroke="#000000" points="228,-223.7 228,-245.7 316,-245.7 316,-223.7 228,-223.7"/>
<image xlink:href="../../images/foreignKeys.png" width="11px" height="12px" preserveAspectRatio="xMinYMin meet" x="233" y="-240.7"/>
<text text-anchor="start" x="248" y="-230.8" font-family="Helvetica,sans-Serif" font-size="11.00" fill="#000000">id_estradas</text>
<polygon fill="none" stroke="#000000" points="228,-201.7 228,-223.7 316,-223.7 316,-201.7 228,-201.7"/>
<image xlink:href="../../images/foreignKeys.png" width="11px" height="12px" preserveAspectRatio="xMinYMin meet" x="233" y="-218.7"/>
<text text-anchor="start" x="248" y="-208.8" font-family="Helvetica,sans-Serif" font-size="11.00" fill="#000000">id_tipo_line</text>
<polygon fill="none" stroke="#000000" points="228,-179.7 228,-201.7 316,-201.7 316,-179.7 228,-179.7"/>
<image xlink:href="../../images/foreignKeys.png" width="11px" height="12px" preserveAspectRatio="xMinYMin meet" x="233" y="-196.7"/>
<text text-anchor="start" x="248" y="-186.8" font-family="Helvetica,sans-Serif" font-size="11.00" fill="#000000">id_estado</text>
<polygon fill="none" stroke="#000000" points="228,-157.7 228,-179.7 316,-179.7 316,-157.7 228,-157.7"/>
<image xlink:href="../../images/foreignKeys.png" width="11px" height="12px" preserveAspectRatio="xMinYMin meet" x="233" y="-174.7"/>
<text text-anchor="start" x="248" y="-164.8" font-family="Helvetica,sans-Serif" font-size="11.00" fill="#000000">id_lado</text>
<polygon fill="none" stroke="#000000" points="228,-138.7 228,-157.7 316,-157.7 316,-138.7 228,-138.7"/>
<text text-anchor="start" x="231" y="-144.8" font-family="Helvetica,sans-Serif" font-size="11.00" fill="#000000">...</text>
<polygon fill="#ffffff" stroke="transparent" points="228,-119.7 228,-138.7 257,-138.7 257,-119.7 228,-119.7"/>
<polygon fill="none" stroke="#000000" points="228,-119.7 228,-138.7 257,-138.7 257,-119.7 228,-119.7"/>
<text text-anchor="start" x="231" y="-125.8" font-family="Helvetica,sans-Serif" font-size="11.00" fill="#000000">&lt; 4</text>
<polygon fill="#ffffff" stroke="transparent" points="257,-119.7 257,-138.7 299,-138.7 299,-119.7 257,-119.7"/>
<polygon fill="none" stroke="#000000" points="257,-119.7 257,-138.7 299,-138.7 299,-119.7 257,-119.7"/>
<text text-anchor="start" x="263.6105" y="-125.8" font-family="Helvetica,sans-Serif" font-size="11.00" fill="#000000">0 rows</text>
<polygon fill="#ffffff" stroke="transparent" points="299,-119.7 299,-138.7 316,-138.7 316,-119.7 299,-119.7"/>
<polygon fill="none" stroke="#000000" points="299,-119.7 299,-138.7 316,-138.7 316,-119.7 299,-119.7"/>
<text text-anchor="start" x="306.8862" y="-125.8" font-family="Helvetica,sans-Serif" font-size="11.00" fill="#000000"> &#160;</text>
</a>
</g>
</g>
<!-- estado -->
<g id="node2" class="node">
<title>estado</title>
<g id="a_node2"><a xlink:href="../../tables/estado.html" xlink:title="estado" target="_top">
<polygon fill="#ffffff" stroke="transparent" points="55.5,-120.2 55.5,-181.2 131.5,-181.2 131.5,-120.2 55.5,-120.2"/>
<polygon fill="#f5f5f5" stroke="transparent" points="55.5,-157.7 55.5,-180.7 131.5,-180.7 131.5,-157.7 55.5,-157.7"/>
<polygon fill="none" stroke="#000000" points="55.5,-157.7 55.5,-180.7 131.5,-180.7 131.5,-157.7 55.5,-157.7"/>
<text text-anchor="start" x="60.4918" y="-166.8" font-family="Helvetica,sans-Serif" font-weight="bold" font-size="11.00" fill="#000000">estado</text>
<text text-anchor="start" x="97.0219" y="-165.8" font-family="Helvetica,sans-Serif" font-size="11.00" fill="#000000">[table]</text>
<polygon fill="none" stroke="#000000" points="55.5,-138.7 55.5,-157.7 131.5,-157.7 131.5,-138.7 55.5,-138.7"/>
<text text-anchor="start" x="58.5" y="-144.8" font-family="Helvetica,sans-Serif" font-size="11.00" fill="#000000">...</text>
<polygon fill="#ffffff" stroke="transparent" points="55.5,-119.7 55.5,-138.7 69.5,-138.7 69.5,-119.7 55.5,-119.7"/>
<polygon fill="none" stroke="#000000" points="55.5,-119.7 55.5,-138.7 69.5,-138.7 69.5,-119.7 55.5,-119.7"/>
<text text-anchor="start" x="58.5" y="-125.8" font-family="Helvetica,sans-Serif" font-size="11.00" fill="#000000"> &#160;</text>
<polygon fill="#ffffff" stroke="transparent" points="69.5,-119.7 69.5,-138.7 108.5,-138.7 108.5,-119.7 69.5,-119.7"/>
<polygon fill="none" stroke="#000000" points="69.5,-119.7 69.5,-138.7 108.5,-138.7 108.5,-119.7 69.5,-119.7"/>
<text text-anchor="start" x="73.1105" y="-125.8" font-family="Helvetica,sans-Serif" font-size="11.00" fill="#000000">0 rows</text>
<polygon fill="#ffffff" stroke="transparent" points="108.5,-119.7 108.5,-138.7 131.5,-138.7 131.5,-119.7 108.5,-119.7"/>
<polygon fill="none" stroke="#000000" points="108.5,-119.7 108.5,-138.7 131.5,-138.7 131.5,-119.7 108.5,-119.7"/>
<text text-anchor="start" x="112.9053" y="-125.8" font-family="Helvetica,sans-Serif" font-size="11.00" fill="#000000">4 &gt;</text>
</a>
</g>
</g>
<!-- lrs_line&#45;&gt;estado -->
<g id="edge1" class="edge">
<title>lrs_line:w&#45;&gt;estado:e</title>
<path fill="none" stroke="#000000" d="M213.6218,-189.1696C179.8894,-181.5096 173.1351,-147.7 131.5,-147.7"/>
<polygon fill="#000000" stroke="#000000" points="220.0449,-189.8532 227.619,-194.2798 224.0225,-190.2766 228,-190.7 228,-190.7 228,-190.7 224.0225,-190.2766 228.381,-187.1202 220.0449,-189.8532 220.0449,-189.8532"/>
<ellipse fill="none" stroke="#000000" cx="216.8629" cy="-189.5145" rx="3.2" ry="3.2"/>
</g>
<!-- estradas -->
<g id="node3" class="node">
<title>estradas</title>
<g id="a_node3"><a xlink:href="../../tables/estradas.html" xlink:title="estradas" target="_top">
<polygon fill="#ffffff" stroke="transparent" points="51,-314.2 51,-375.2 136,-375.2 136,-314.2 51,-314.2"/>
<polygon fill="#f5f5f5" stroke="transparent" points="51.5,-351.7 51.5,-374.7 136.5,-374.7 136.5,-351.7 51.5,-351.7"/>
<polygon fill="none" stroke="#000000" points="51.5,-351.7 51.5,-374.7 136.5,-374.7 136.5,-351.7 51.5,-351.7"/>
<text text-anchor="start" x="56.4108" y="-360.8" font-family="Helvetica,sans-Serif" font-weight="bold" font-size="11.00" fill="#000000">estradas</text>
<text text-anchor="start" x="102.0219" y="-359.8" font-family="Helvetica,sans-Serif" font-size="11.00" fill="#000000">[table]</text>
<polygon fill="none" stroke="#000000" points="51.5,-332.7 51.5,-351.7 136.5,-351.7 136.5,-332.7 51.5,-332.7"/>
<text text-anchor="start" x="54.5" y="-338.8" font-family="Helvetica,sans-Serif" font-size="11.00" fill="#000000">...</text>
<polygon fill="#ffffff" stroke="transparent" points="51.5,-313.7 51.5,-332.7 70.5,-332.7 70.5,-313.7 51.5,-313.7"/>
<polygon fill="none" stroke="#000000" points="51.5,-313.7 51.5,-332.7 70.5,-332.7 70.5,-313.7 51.5,-313.7"/>
<text text-anchor="start" x="54.5" y="-319.8" font-family="Helvetica,sans-Serif" font-size="11.00" fill="#000000"> &#160;</text>
<polygon fill="#ffffff" stroke="transparent" points="70.5,-313.7 70.5,-332.7 111.5,-332.7 111.5,-313.7 70.5,-313.7"/>
<polygon fill="none" stroke="#000000" points="70.5,-313.7 70.5,-332.7 111.5,-332.7 111.5,-313.7 70.5,-313.7"/>
<text text-anchor="start" x="76.1105" y="-319.8" font-family="Helvetica,sans-Serif" font-size="11.00" fill="#000000">0 rows</text>
<polygon fill="#ffffff" stroke="transparent" points="111.5,-313.7 111.5,-332.7 136.5,-332.7 136.5,-313.7 111.5,-313.7"/>
<polygon fill="none" stroke="#000000" points="111.5,-313.7 111.5,-332.7 136.5,-332.7 136.5,-313.7 111.5,-313.7"/>
<text text-anchor="start" x="117.9053" y="-319.8" font-family="Helvetica,sans-Serif" font-size="11.00" fill="#000000">7 &gt;</text>
</a>
</g>
</g>
<!-- lrs_line&#45;&gt;estradas -->
<g id="edge2" class="edge">
<title>lrs_line:w&#45;&gt;estradas:e</title>
<path fill="none" stroke="#000000" d="M213.9165,-238.1651C197.4328,-248.8197 206.7204,-281.7052 187,-303.7 168.2489,-324.6137 164.5889,-341.7 136.5,-341.7"/>
<polygon fill="#000000" stroke="#000000" points="220.2317,-236.6113 228.8601,-238.1957 224.1158,-235.6557 228,-234.7 228,-234.7 228,-234.7 224.1158,-235.6557 227.1399,-231.2043 220.2317,-236.6113 220.2317,-236.6113"/>
<ellipse fill="none" stroke="#000000" cx="217.1243" cy="-237.3759" rx="3.2" ry="3.2"/>
</g>
<!-- lado -->
<g id="node4" class="node">
<title>lado</title>
<g id="a_node4"><a xlink:href="../../tables/lado.html" xlink:title="lado" target="_top">
<polygon fill="#ffffff" stroke="transparent" points="58,-38.2 58,-99.2 129,-99.2 129,-38.2 58,-38.2"/>
<polygon fill="#f5f5f5" stroke="transparent" points="58.5,-75.7 58.5,-98.7 129.5,-98.7 129.5,-75.7 58.5,-75.7"/>
<polygon fill="none" stroke="#000000" points="58.5,-75.7 58.5,-98.7 129.5,-98.7 129.5,-75.7 58.5,-75.7"/>
<text text-anchor="start" x="63.5" y="-84.8" font-family="Helvetica,sans-Serif" font-weight="bold" font-size="11.00" fill="#000000">lado</text>
<text text-anchor="start" x="94.5437" y="-83.8" font-family="Helvetica,sans-Serif" font-size="11.00" fill="#000000">[table]</text>
<polygon fill="none" stroke="#000000" points="58.5,-56.7 58.5,-75.7 129.5,-75.7 129.5,-56.7 58.5,-56.7"/>
<text text-anchor="start" x="61.5" y="-62.8" font-family="Helvetica,sans-Serif" font-size="11.00" fill="#000000">...</text>
<polygon fill="#ffffff" stroke="transparent" points="58.5,-37.7 58.5,-56.7 70.5,-56.7 70.5,-37.7 58.5,-37.7"/>
<polygon fill="none" stroke="#000000" points="58.5,-37.7 58.5,-56.7 70.5,-56.7 70.5,-37.7 58.5,-37.7"/>
<text text-anchor="start" x="61.4431" y="-43.8" font-family="Helvetica,sans-Serif" font-size="11.00" fill="#000000"> &#160;</text>
<polygon fill="#ffffff" stroke="transparent" points="70.5,-37.7 70.5,-56.7 108.5,-56.7 108.5,-37.7 70.5,-37.7"/>
<polygon fill="none" stroke="#000000" points="70.5,-37.7 70.5,-56.7 108.5,-56.7 108.5,-37.7 70.5,-37.7"/>
<text text-anchor="start" x="73.3053" y="-43.8" font-family="Helvetica,sans-Serif" font-size="11.00" fill="#000000">0 rows</text>
<polygon fill="#ffffff" stroke="transparent" points="108.5,-37.7 108.5,-56.7 129.5,-56.7 129.5,-37.7 108.5,-37.7"/>
<polygon fill="none" stroke="#000000" points="108.5,-37.7 108.5,-56.7 129.5,-56.7 129.5,-37.7 108.5,-37.7"/>
<text text-anchor="start" x="111.2027" y="-43.8" font-family="Helvetica,sans-Serif" font-size="11.00" fill="#000000">4 &gt;</text>
</a>
</g>
</g>
<!-- lrs_line&#45;&gt;lado -->
<g id="edge3" class="edge">
<title>lrs_line:w&#45;&gt;lado:e</title>
<path fill="none" stroke="#000000" d="M213.8347,-164.9536C199.8045,-155.1621 204.7479,-128.2812 187,-109.7 164.7735,-86.43 161.6793,-65.7 129.5,-65.7"/>
<polygon fill="#000000" stroke="#000000" points="220.2659,-166.6545 227.0795,-172.1803 224.133,-167.6772 228,-168.7 228,-168.7 228,-168.7 224.133,-167.6772 228.9205,-165.2197 220.2659,-166.6545 220.2659,-166.6545"/>
<ellipse fill="none" stroke="#000000" cx="217.1723" cy="-165.8363" rx="3.2" ry="3.2"/>
</g>
<!-- tipo_line -->
<g id="node5" class="node">
<title>tipo_line</title>
<g id="a_node5"><a xlink:href="../../tables/tipo_line.html" xlink:title="tipo_line" target="_top">
<polygon fill="#ffffff" stroke="transparent" points="8,-202.7 8,-292.7 179,-292.7 179,-202.7 8,-202.7"/>
<polygon fill="#f5f5f5" stroke="transparent" points="10.5,-267.7 10.5,-290.7 177.5,-290.7 177.5,-267.7 10.5,-267.7"/>
<polygon fill="none" stroke="#000000" points="10.5,-267.7 10.5,-290.7 177.5,-290.7 177.5,-267.7 10.5,-267.7"/>
<text text-anchor="start" x="15.5" y="-276.8" font-family="Helvetica,sans-Serif" font-weight="bold" font-size="11.00" fill="#000000">tipo_line</text>
<text text-anchor="start" x="142.5437" y="-275.8" font-family="Helvetica,sans-Serif" font-size="11.00" fill="#000000">[table]</text>
<polygon fill="none" stroke="#000000" points="10.5,-245.7 10.5,-267.7 87.5,-267.7 87.5,-245.7 10.5,-245.7"/>
<image xlink:href="../../images/primaryKeys.png" width="11px" height="12px" preserveAspectRatio="xMinYMin meet" x="15.5" y="-262.7"/>
<text text-anchor="start" x="30.5" y="-252.8" font-family="Helvetica,sans-Serif" font-size="11.00" fill="#000000">id</text>
<polygon fill="none" stroke="#000000" points="87.5,-245.7 87.5,-267.7 177.5,-267.7 177.5,-245.7 87.5,-245.7"/>
<text text-anchor="start" x="90.5" y="-253.4" font-family="Helvetica,sans-Serif" font-size="11.00" fill="#000000">serial[10]</text>
<polygon fill="none" stroke="#000000" points="10.5,-223.7 10.5,-245.7 87.5,-245.7 87.5,-223.7 10.5,-223.7"/>
<text text-anchor="start" x="30.5" y="-230.8" font-family="Helvetica,sans-Serif" font-size="11.00" fill="#000000">descricao</text>
<polygon fill="none" stroke="#000000" points="87.5,-223.7 87.5,-245.7 177.5,-245.7 177.5,-223.7 87.5,-223.7"/>
<text text-anchor="start" x="90.0042" y="-231.4" font-family="Helvetica,sans-Serif" font-size="11.00" fill="#000000">text[2147483647]</text>
<polygon fill="#ffffff" stroke="transparent" points="10.5,-204.7 10.5,-223.7 40.5,-223.7 40.5,-204.7 10.5,-204.7"/>
<polygon fill="none" stroke="#000000" points="10.5,-204.7 10.5,-223.7 40.5,-223.7 40.5,-204.7 10.5,-204.7"/>
<text text-anchor="start" x="13.5" y="-210.8" font-family="Helvetica,sans-Serif" font-size="11.00" fill="#000000">&lt; 0</text>
<polygon fill="#ffffff" stroke="transparent" points="40.5,-204.7 40.5,-223.7 87.5,-223.7 87.5,-204.7 40.5,-204.7"/>
<polygon fill="none" stroke="#000000" points="40.5,-204.7 40.5,-223.7 87.5,-223.7 87.5,-204.7 40.5,-204.7"/>
<text text-anchor="start" x="52.1105" y="-210.8" font-family="Helvetica,sans-Serif" font-size="11.00" fill="#000000">0 rows</text>
<polygon fill="#ffffff" stroke="transparent" points="87.5,-204.7 87.5,-223.7 177.5,-223.7 177.5,-204.7 87.5,-204.7"/>
<polygon fill="none" stroke="#000000" points="87.5,-204.7 87.5,-223.7 177.5,-223.7 177.5,-204.7 87.5,-204.7"/>
<text text-anchor="start" x="158.9053" y="-210.8" font-family="Helvetica,sans-Serif" font-size="11.00" fill="#000000">1 &gt;</text>
<polygon fill="none" stroke="#000000" stroke-width="2" points="9,-203.7 9,-291.7 178,-291.7 178,-203.7 9,-203.7"/>
</a>
</g>
</g>
<!-- lrs_line&#45;&gt;tipo_line -->
<g id="edge4" class="edge">
<title>lrs_line:w&#45;&gt;tipo_line:e</title>
<path fill="none" stroke="#000000" d="M214.0126,-217.4088C200.3016,-228.7596 201.2219,-256.7 177.5,-256.7"/>
<polygon fill="#000000" stroke="#000000" points="220.4181,-215.2524 229.1486,-216.1119 224.209,-213.9762 228,-212.7 228,-212.7 228,-212.7 224.209,-213.9762 226.8514,-209.2881 220.4181,-215.2524 220.4181,-215.2524"/>
<ellipse fill="none" stroke="#000000" cx="217.3853" cy="-216.2734" rx="3.2" ry="3.2"/>
</g>
</g>
</svg>
