<?xml version="1.0" encoding="UTF-8" standalone="no"?>
<!DOCTYPE svg PUBLIC "-//W3C//DTD SVG 1.1//EN"
 "http://www.w3.org/Graphics/SVG/1.1/DTD/svg11.dtd">
<!-- Generated by graphviz version 2.40.1 (20161225.0304)
 -->
<!-- Title: oneDegreeRelationshipsDiagram Pages: 1 -->
<svg width="332pt" height="221pt"
 viewBox="0.00 0.00 332.00 221.20" xmlns="http://www.w3.org/2000/svg" xmlns:xlink="http://www.w3.org/1999/xlink">
<g id="graph0" class="graph" transform="scale(1 1) rotate(0) translate(4 217.2)">
<title>oneDegreeRelationshipsDiagram</title>
<polygon fill="#ffffff" stroke="transparent" points="-4,4 -4,-217.2 328,-217.2 328,4 -4,4"/>
<text text-anchor="middle" x="72.4936" y="-7.3" font-family="Helvetica,sans-Serif" font-size="11.00" fill="#000000">Generated by SchemaSpy</text>
<!-- lrs_line -->
<g id="node1" class="node">
<title>lrs_line</title>
<g id="a_node1"><a xlink:href="../../tables/lrs_line.html" xlink:title="lrs_line" target="_top">
<polygon fill="#ffffff" stroke="transparent" points="228,-38.2 228,-209.2 316,-209.2 316,-38.2 228,-38.2"/>
<polygon fill="#f5f5f5" stroke="transparent" points="228,-185.7 228,-208.7 316,-208.7 316,-185.7 228,-185.7"/>
<polygon fill="none" stroke="#000000" points="228,-185.7 228,-208.7 316,-208.7 316,-185.7 228,-185.7"/>
<text text-anchor="start" x="233" y="-194.8" font-family="Helvetica,sans-Serif" font-weight="bold" font-size="11.00" fill="#000000">lrs_line</text>
<text text-anchor="start" x="281.0437" y="-193.8" font-family="Helvetica,sans-Serif" font-size="11.00" fill="#000000">[table]</text>
<polygon fill="none" stroke="#000000" points="228,-163.7 228,-185.7 316,-185.7 316,-163.7 228,-163.7"/>
<image xlink:href="../../images/primaryKeys.png" width="11px" height="12px" preserveAspectRatio="xMinYMin meet" x="233" y="-180.7"/>
<text text-anchor="start" x="248" y="-170.8" font-family="Helvetica,sans-Serif" font-size="11.00" fill="#000000">id</text>
<polygon fill="none" stroke="#000000" points="228,-141.7 228,-163.7 316,-163.7 316,-141.7 228,-141.7"/>
<image xlink:href="../../images/foreignKeys.png" width="11px" height="12px" preserveAspectRatio="xMinYMin meet" x="233" y="-158.7"/>
<text text-anchor="start" x="248" y="-148.8" font-family="Helvetica,sans-Serif" font-size="11.00" fill="#000000">id_estradas</text>
<polygon fill="none" stroke="#000000" points="228,-119.7 228,-141.7 316,-141.7 316,-119.7 228,-119.7"/>
<image xlink:href="../../images/foreignKeys.png" width="11px" height="12px" preserveAspectRatio="xMinYMin meet" x="233" y="-136.7"/>
<text text-anchor="start" x="248" y="-126.8" font-family="Helvetica,sans-Serif" font-size="11.00" fill="#000000">id_tipo_line</text>
<polygon fill="none" stroke="#000000" points="228,-97.7 228,-119.7 316,-119.7 316,-97.7 228,-97.7"/>
<image xlink:href="../../images/foreignKeys.png" width="11px" height="12px" preserveAspectRatio="xMinYMin meet" x="233" y="-114.7"/>
<text text-anchor="start" x="248" y="-104.8" font-family="Helvetica,sans-Serif" font-size="11.00" fill="#000000">id_estado</text>
<polygon fill="none" stroke="#000000" points="228,-75.7 228,-97.7 316,-97.7 316,-75.7 228,-75.7"/>
<image xlink:href="../../images/foreignKeys.png" width="11px" height="12px" preserveAspectRatio="xMinYMin meet" x="233" y="-92.7"/>
<text text-anchor="start" x="248" y="-82.8" font-family="Helvetica,sans-Serif" font-size="11.00" fill="#000000">id_lado</text>
<polygon fill="none" stroke="#000000" points="228,-56.7 228,-75.7 316,-75.7 316,-56.7 228,-56.7"/>
<text text-anchor="start" x="231" y="-62.8" font-family="Helvetica,sans-Serif" font-size="11.00" fill="#000000">...</text>
<polygon fill="#ffffff" stroke="transparent" points="228,-37.7 228,-56.7 257,-56.7 257,-37.7 228,-37.7"/>
<polygon fill="none" stroke="#000000" points="228,-37.7 228,-56.7 257,-56.7 257,-37.7 228,-37.7"/>
<text text-anchor="start" x="231" y="-43.8" font-family="Helvetica,sans-Serif" font-size="11.00" fill="#000000">&lt; 4</text>
<polygon fill="#ffffff" stroke="transparent" points="257,-37.7 257,-56.7 299,-56.7 299,-37.7 257,-37.7"/>
<polygon fill="none" stroke="#000000" points="257,-37.7 257,-56.7 299,-56.7 299,-37.7 257,-37.7"/>
<text text-anchor="start" x="263.6105" y="-43.8" font-family="Helvetica,sans-Serif" font-size="11.00" fill="#000000">0 rows</text>
<polygon fill="#ffffff" stroke="transparent" points="299,-37.7 299,-56.7 316,-56.7 316,-37.7 299,-37.7"/>
<polygon fill="none" stroke="#000000" points="299,-37.7 299,-56.7 316,-56.7 316,-37.7 299,-37.7"/>
<text text-anchor="start" x="306.8862" y="-43.8" font-family="Helvetica,sans-Serif" font-size="11.00" fill="#000000"> &#160;</text>
</a>
</g>
</g>
<!-- tipo_line -->
<g id="node2" class="node">
<title>tipo_line</title>
<g id="a_node2"><a xlink:href="../../tables/tipo_line.html" xlink:title="tipo_line" target="_top">
<polygon fill="#ffffff" stroke="transparent" points="8,-76.7 8,-166.7 179,-166.7 179,-76.7 8,-76.7"/>
<polygon fill="#f5f5f5" stroke="transparent" points="10.5,-141.7 10.5,-164.7 177.5,-164.7 177.5,-141.7 10.5,-141.7"/>
<polygon fill="none" stroke="#000000" points="10.5,-141.7 10.5,-164.7 177.5,-164.7 177.5,-141.7 10.5,-141.7"/>
<text text-anchor="start" x="15.5" y="-150.8" font-family="Helvetica,sans-Serif" font-weight="bold" font-size="11.00" fill="#000000">tipo_line</text>
<text text-anchor="start" x="142.5437" y="-149.8" font-family="Helvetica,sans-Serif" font-size="11.00" fill="#000000">[table]</text>
<polygon fill="none" stroke="#000000" points="10.5,-119.7 10.5,-141.7 87.5,-141.7 87.5,-119.7 10.5,-119.7"/>
<image xlink:href="../../images/primaryKeys.png" width="11px" height="12px" preserveAspectRatio="xMinYMin meet" x="15.5" y="-136.7"/>
<text text-anchor="start" x="30.5" y="-126.8" font-family="Helvetica,sans-Serif" font-size="11.00" fill="#000000">id</text>
<polygon fill="none" stroke="#000000" points="87.5,-119.7 87.5,-141.7 177.5,-141.7 177.5,-119.7 87.5,-119.7"/>
<text text-anchor="start" x="90.5" y="-127.4" font-family="Helvetica,sans-Serif" font-size="11.00" fill="#000000">serial[10]</text>
<polygon fill="none" stroke="#000000" points="10.5,-97.7 10.5,-119.7 87.5,-119.7 87.5,-97.7 10.5,-97.7"/>
<text text-anchor="start" x="30.5" y="-104.8" font-family="Helvetica,sans-Serif" font-size="11.00" fill="#000000">descricao</text>
<polygon fill="none" stroke="#000000" points="87.5,-97.7 87.5,-119.7 177.5,-119.7 177.5,-97.7 87.5,-97.7"/>
<text text-anchor="start" x="90.0042" y="-105.4" font-family="Helvetica,sans-Serif" font-size="11.00" fill="#000000">text[2147483647]</text>
<polygon fill="#ffffff" stroke="transparent" points="10.5,-78.7 10.5,-97.7 40.5,-97.7 40.5,-78.7 10.5,-78.7"/>
<polygon fill="none" stroke="#000000" points="10.5,-78.7 10.5,-97.7 40.5,-97.7 40.5,-78.7 10.5,-78.7"/>
<text text-anchor="start" x="13.5" y="-84.8" font-family="Helvetica,sans-Serif" font-size="11.00" fill="#000000">&lt; 0</text>
<polygon fill="#ffffff" stroke="transparent" points="40.5,-78.7 40.5,-97.7 87.5,-97.7 87.5,-78.7 40.5,-78.7"/>
<polygon fill="none" stroke="#000000" points="40.5,-78.7 40.5,-97.7 87.5,-97.7 87.5,-78.7 40.5,-78.7"/>
<text text-anchor="start" x="52.1105" y="-84.8" font-family="Helvetica,sans-Serif" font-size="11.00" fill="#000000">0 rows</text>
<polygon fill="#ffffff" stroke="transparent" points="87.5,-78.7 87.5,-97.7 177.5,-97.7 177.5,-78.7 87.5,-78.7"/>
<polygon fill="none" stroke="#000000" points="87.5,-78.7 87.5,-97.7 177.5,-97.7 177.5,-78.7 87.5,-78.7"/>
<text text-anchor="start" x="158.9053" y="-84.8" font-family="Helvetica,sans-Serif" font-size="11.00" fill="#000000">1 &gt;</text>
<polygon fill="none" stroke="#000000" stroke-width="2" points="9,-77.7 9,-165.7 178,-165.7 178,-77.7 9,-77.7"/>
</a>
</g>
</g>
<!-- lrs_line&#45;&gt;tipo_line -->
<g id="edge1" class="edge">
<title>lrs_line:w&#45;&gt;tipo_line:e</title>
<path fill="none" stroke="#000000" d="M213.4203,-130.7C201.5435,-130.7 194.158,-130.7 177.5,-130.7"/>
<polygon fill="#000000" stroke="#000000" points="220,-130.7001 228,-134.3 224,-130.7 228,-130.7 228,-130.7 228,-130.7 224,-130.7 228,-127.1 220,-130.7001 220,-130.7001"/>
<ellipse fill="none" stroke="#000000" cx="216.8" cy="-130.7001" rx="3.2" ry="3.2"/>
</g>
</g>
</svg>
