<?xml version="1.0" encoding="UTF-8" standalone="no"?>
<!DOCTYPE svg PUBLIC "-//W3C//DTD SVG 1.1//EN"
 "http://www.w3.org/Graphics/SVG/1.1/DTD/svg11.dtd">
<!-- Generated by graphviz version 2.40.1 (20161225.0304)
 -->
<!-- Title: oneDegreeRelationshipsDiagram Pages: 1 -->
<svg width="593pt" height="328pt"
 viewBox="0.00 0.00 593.00 328.20" xmlns="http://www.w3.org/2000/svg" xmlns:xlink="http://www.w3.org/1999/xlink">
<g id="graph0" class="graph" transform="scale(1 1) rotate(0) translate(4 324.2)">
<title>oneDegreeRelationshipsDiagram</title>
<polygon fill="#ffffff" stroke="transparent" points="-4,4 -4,-324.2 589,-324.2 589,4 -4,4"/>
<text text-anchor="middle" x="72.4936" y="-7.3" font-family="Helvetica,sans-Serif" font-size="11.00" fill="#000000">Generated by SchemaSpy</text>
<!-- intevencoes -->
<g id="node1" class="node">
<title>intevencoes</title>
<g id="a_node1"><a xlink:href="../../tables/intevencoes.html" xlink:title="intevencoes" target="_top">
<polygon fill="#ffffff" stroke="transparent" points="476,-211.2 476,-316.2 577,-316.2 577,-211.2 476,-211.2"/>
<polygon fill="#f5f5f5" stroke="transparent" points="476.5,-292.7 476.5,-315.7 577.5,-315.7 577.5,-292.7 476.5,-292.7"/>
<polygon fill="none" stroke="#000000" points="476.5,-292.7 476.5,-315.7 577.5,-315.7 577.5,-292.7 476.5,-292.7"/>
<text text-anchor="start" x="481.1564" y="-301.8" font-family="Helvetica,sans-Serif" font-weight="bold" font-size="11.00" fill="#000000">intevencoes</text>
<text text-anchor="start" x="543.0219" y="-300.8" font-family="Helvetica,sans-Serif" font-size="11.00" fill="#000000">[table]</text>
<polygon fill="none" stroke="#000000" points="476.5,-270.7 476.5,-292.7 577.5,-292.7 577.5,-270.7 476.5,-270.7"/>
<image xlink:href="../../images/primaryKeys.png" width="11px" height="12px" preserveAspectRatio="xMinYMin meet" x="481.5" y="-287.7"/>
<text text-anchor="start" x="500.5" y="-277.8" font-family="Helvetica,sans-Serif" font-size="11.00" fill="#000000">id</text>
<polygon fill="none" stroke="#000000" points="476.5,-248.7 476.5,-270.7 577.5,-270.7 577.5,-248.7 476.5,-248.7"/>
<image xlink:href="../../images/foreignKeys.png" width="11px" height="12px" preserveAspectRatio="xMinYMin meet" x="481.5" y="-265.7"/>
<text text-anchor="start" x="500.5" y="-255.8" font-family="Helvetica,sans-Serif" font-size="11.00" fill="#000000">id_trocos</text>
<polygon fill="none" stroke="#000000" points="476.5,-229.7 476.5,-248.7 577.5,-248.7 577.5,-229.7 476.5,-229.7"/>
<text text-anchor="start" x="479.5" y="-235.8" font-family="Helvetica,sans-Serif" font-size="11.00" fill="#000000">...</text>
<polygon fill="#ffffff" stroke="transparent" points="476.5,-210.7 476.5,-229.7 512.5,-229.7 512.5,-210.7 476.5,-210.7"/>
<polygon fill="none" stroke="#000000" points="476.5,-210.7 476.5,-229.7 512.5,-229.7 512.5,-210.7 476.5,-210.7"/>
<text text-anchor="start" x="479.5" y="-216.8" font-family="Helvetica,sans-Serif" font-size="11.00" fill="#000000">&lt; 1</text>
<polygon fill="#ffffff" stroke="transparent" points="512.5,-210.7 512.5,-229.7 557.5,-229.7 557.5,-210.7 512.5,-210.7"/>
<polygon fill="none" stroke="#000000" points="512.5,-210.7 512.5,-229.7 557.5,-229.7 557.5,-210.7 512.5,-210.7"/>
<text text-anchor="start" x="522.1105" y="-216.8" font-family="Helvetica,sans-Serif" font-size="11.00" fill="#000000">0 rows</text>
<polygon fill="#ffffff" stroke="transparent" points="557.5,-210.7 557.5,-229.7 577.5,-229.7 577.5,-210.7 557.5,-210.7"/>
<polygon fill="none" stroke="#000000" points="557.5,-210.7 557.5,-229.7 577.5,-229.7 577.5,-210.7 557.5,-210.7"/>
<text text-anchor="start" x="568.3862" y="-216.8" font-family="Helvetica,sans-Serif" font-size="11.00" fill="#000000"> &#160;</text>
</a>
</g>
</g>
<!-- trocos -->
<g id="node2" class="node">
<title>trocos</title>
<g id="a_node2"><a xlink:href="../../tables/trocos.html" xlink:title="trocos" target="_top">
<polygon fill="#ffffff" stroke="transparent" points="174,-95.7 174,-295.7 427,-295.7 427,-95.7 174,-95.7"/>
<polygon fill="#f5f5f5" stroke="transparent" points="176.5,-270.7 176.5,-293.7 425.5,-293.7 425.5,-270.7 176.5,-270.7"/>
<polygon fill="none" stroke="#000000" points="176.5,-270.7 176.5,-293.7 425.5,-293.7 425.5,-270.7 176.5,-270.7"/>
<text text-anchor="start" x="181.5" y="-279.8" font-family="Helvetica,sans-Serif" font-weight="bold" font-size="11.00" fill="#000000">trocos</text>
<text text-anchor="start" x="390.5437" y="-278.8" font-family="Helvetica,sans-Serif" font-size="11.00" fill="#000000">[table]</text>
<polygon fill="none" stroke="#000000" points="176.5,-248.7 176.5,-270.7 306.5,-270.7 306.5,-248.7 176.5,-248.7"/>
<image xlink:href="../../images/primaryKeys.png" width="11px" height="12px" preserveAspectRatio="xMinYMin meet" x="181.5" y="-265.7"/>
<text text-anchor="start" x="196.5" y="-255.8" font-family="Helvetica,sans-Serif" font-size="11.00" fill="#000000">id</text>
<polygon fill="none" stroke="#000000" points="306.5,-248.7 306.5,-270.7 425.5,-270.7 425.5,-248.7 306.5,-248.7"/>
<text text-anchor="start" x="309.5" y="-256.4" font-family="Helvetica,sans-Serif" font-size="11.00" fill="#000000">serial[10]</text>
<polygon fill="none" stroke="#000000" points="176.5,-226.7 176.5,-248.7 306.5,-248.7 306.5,-226.7 176.5,-226.7"/>
<text text-anchor="start" x="196.5" y="-233.8" font-family="Helvetica,sans-Serif" font-size="11.00" fill="#000000">geom</text>
<polygon fill="none" stroke="#000000" points="306.5,-226.7 306.5,-248.7 425.5,-248.7 425.5,-226.7 306.5,-226.7"/>
<text text-anchor="start" x="309.4485" y="-234.4" font-family="Helvetica,sans-Serif" font-size="11.00" fill="#000000">geometry[2147483647]</text>
<polygon fill="none" stroke="#000000" points="176.5,-204.7 176.5,-226.7 306.5,-226.7 306.5,-204.7 176.5,-204.7"/>
<text text-anchor="start" x="196.5" y="-211.8" font-family="Helvetica,sans-Serif" font-size="11.00" fill="#000000">irl</text>
<polygon fill="none" stroke="#000000" points="306.5,-204.7 306.5,-226.7 425.5,-226.7 425.5,-204.7 306.5,-204.7"/>
<text text-anchor="start" x="309.5" y="-212.4" font-family="Helvetica,sans-Serif" font-size="11.00" fill="#000000">float8[17,17]</text>
<polygon fill="none" stroke="#000000" points="176.5,-182.7 176.5,-204.7 306.5,-204.7 306.5,-182.7 176.5,-182.7"/>
<text text-anchor="start" x="196.5" y="-189.8" font-family="Helvetica,sans-Serif" font-size="11.00" fill="#000000">start_m</text>
<polygon fill="none" stroke="#000000" points="306.5,-182.7 306.5,-204.7 425.5,-204.7 425.5,-182.7 306.5,-182.7"/>
<text text-anchor="start" x="309.5" y="-190.4" font-family="Helvetica,sans-Serif" font-size="11.00" fill="#000000">float8[17,17]</text>
<polygon fill="none" stroke="#000000" points="176.5,-160.7 176.5,-182.7 306.5,-182.7 306.5,-160.7 176.5,-160.7"/>
<text text-anchor="start" x="196.5" y="-167.8" font-family="Helvetica,sans-Serif" font-size="11.00" fill="#000000">end_m</text>
<polygon fill="none" stroke="#000000" points="306.5,-160.7 306.5,-182.7 425.5,-182.7 425.5,-160.7 306.5,-160.7"/>
<text text-anchor="start" x="309.5" y="-168.4" font-family="Helvetica,sans-Serif" font-size="11.00" fill="#000000">float8[17,17]</text>
<polygon fill="none" stroke="#000000" points="176.5,-138.7 176.5,-160.7 306.5,-160.7 306.5,-138.7 176.5,-138.7"/>
<image xlink:href="../../images/foreignKeys.png" width="11px" height="12px" preserveAspectRatio="xMinYMin meet" x="181.5" y="-155.7"/>
<text text-anchor="start" x="196.5" y="-145.8" font-family="Helvetica,sans-Serif" font-size="11.00" fill="#000000">id_estradas</text>
<polygon fill="none" stroke="#000000" points="306.5,-138.7 306.5,-160.7 425.5,-160.7 425.5,-138.7 306.5,-138.7"/>
<text text-anchor="start" x="309.5" y="-146.4" font-family="Helvetica,sans-Serif" font-size="11.00" fill="#000000">int4[10]</text>
<polygon fill="none" stroke="#000000" points="176.5,-116.7 176.5,-138.7 306.5,-138.7 306.5,-116.7 176.5,-116.7"/>
<image xlink:href="../../images/foreignKeys.png" width="11px" height="12px" preserveAspectRatio="xMinYMin meet" x="181.5" y="-133.7"/>
<text text-anchor="start" x="196.5" y="-123.8" font-family="Helvetica,sans-Serif" font-size="11.00" fill="#000000">id_tipo_pavimento</text>
<polygon fill="none" stroke="#000000" points="306.5,-116.7 306.5,-138.7 425.5,-138.7 425.5,-116.7 306.5,-116.7"/>
<text text-anchor="start" x="309.5" y="-124.4" font-family="Helvetica,sans-Serif" font-size="11.00" fill="#000000">int4[10]</text>
<polygon fill="#ffffff" stroke="transparent" points="176.5,-97.7 176.5,-116.7 232.5,-116.7 232.5,-97.7 176.5,-97.7"/>
<polygon fill="none" stroke="#000000" points="176.5,-97.7 176.5,-116.7 232.5,-116.7 232.5,-97.7 176.5,-97.7"/>
<text text-anchor="start" x="179.5" y="-103.8" font-family="Helvetica,sans-Serif" font-size="11.00" fill="#000000">&lt; 2</text>
<polygon fill="#ffffff" stroke="transparent" points="232.5,-97.7 232.5,-116.7 306.5,-116.7 306.5,-97.7 232.5,-97.7"/>
<polygon fill="none" stroke="#000000" points="232.5,-97.7 232.5,-116.7 306.5,-116.7 306.5,-97.7 232.5,-97.7"/>
<text text-anchor="start" x="271.1105" y="-103.8" font-family="Helvetica,sans-Serif" font-size="11.00" fill="#000000">0 rows</text>
<polygon fill="#ffffff" stroke="transparent" points="306.5,-97.7 306.5,-116.7 425.5,-116.7 425.5,-97.7 306.5,-97.7"/>
<polygon fill="none" stroke="#000000" points="306.5,-97.7 306.5,-116.7 425.5,-116.7 425.5,-97.7 306.5,-97.7"/>
<text text-anchor="start" x="406.9053" y="-103.8" font-family="Helvetica,sans-Serif" font-size="11.00" fill="#000000">1 &gt;</text>
<polygon fill="none" stroke="#000000" stroke-width="2" points="175,-96.7 175,-294.7 426,-294.7 426,-96.7 175,-96.7"/>
</a>
</g>
</g>
<!-- intevencoes&#45;&gt;trocos -->
<g id="edge1" class="edge">
<title>intevencoes:w&#45;&gt;trocos:e</title>
<path fill="none" stroke="#000000" d="M461.776,-259.7C449.7815,-259.7 442.3229,-259.7 425.5,-259.7"/>
<polygon fill="#000000" stroke="#000000" points="468.5,-259.7001 476.5,-263.3 472.5,-259.7 476.5,-259.7 476.5,-259.7 476.5,-259.7 472.5,-259.7 476.5,-256.1 468.5,-259.7001 468.5,-259.7001"/>
<ellipse fill="none" stroke="#000000" cx="465.3" cy="-259.7001" rx="3.2" ry="3.2"/>
</g>
<!-- estradas -->
<g id="node3" class="node">
<title>estradas</title>
<g id="a_node3"><a xlink:href="../../tables/estradas.html" xlink:title="estradas" target="_top">
<polygon fill="#ffffff" stroke="transparent" points="24,-142.2 24,-225.2 109,-225.2 109,-142.2 24,-142.2"/>
<polygon fill="#f5f5f5" stroke="transparent" points="24.5,-201.7 24.5,-224.7 109.5,-224.7 109.5,-201.7 24.5,-201.7"/>
<polygon fill="none" stroke="#000000" points="24.5,-201.7 24.5,-224.7 109.5,-224.7 109.5,-201.7 24.5,-201.7"/>
<text text-anchor="start" x="29.4108" y="-210.8" font-family="Helvetica,sans-Serif" font-weight="bold" font-size="11.00" fill="#000000">estradas</text>
<text text-anchor="start" x="75.0219" y="-209.8" font-family="Helvetica,sans-Serif" font-size="11.00" fill="#000000">[table]</text>
<polygon fill="none" stroke="#000000" points="24.5,-179.7 24.5,-201.7 109.5,-201.7 109.5,-179.7 24.5,-179.7"/>
<image xlink:href="../../images/primaryKeys.png" width="11px" height="12px" preserveAspectRatio="xMinYMin meet" x="29.5" y="-196.7"/>
<text text-anchor="start" x="51.5" y="-186.8" font-family="Helvetica,sans-Serif" font-size="11.00" fill="#000000">id</text>
<polygon fill="none" stroke="#000000" points="24.5,-160.7 24.5,-179.7 109.5,-179.7 109.5,-160.7 24.5,-160.7"/>
<text text-anchor="start" x="27.5" y="-166.8" font-family="Helvetica,sans-Serif" font-size="11.00" fill="#000000">...</text>
<polygon fill="#ffffff" stroke="transparent" points="24.5,-141.7 24.5,-160.7 43.5,-160.7 43.5,-141.7 24.5,-141.7"/>
<polygon fill="none" stroke="#000000" points="24.5,-141.7 24.5,-160.7 43.5,-160.7 43.5,-141.7 24.5,-141.7"/>
<text text-anchor="start" x="27.5" y="-147.8" font-family="Helvetica,sans-Serif" font-size="11.00" fill="#000000"> &#160;</text>
<polygon fill="#ffffff" stroke="transparent" points="43.5,-141.7 43.5,-160.7 84.5,-160.7 84.5,-141.7 43.5,-141.7"/>
<polygon fill="none" stroke="#000000" points="43.5,-141.7 43.5,-160.7 84.5,-160.7 84.5,-141.7 43.5,-141.7"/>
<text text-anchor="start" x="49.1105" y="-147.8" font-family="Helvetica,sans-Serif" font-size="11.00" fill="#000000">0 rows</text>
<polygon fill="#ffffff" stroke="transparent" points="84.5,-141.7 84.5,-160.7 109.5,-160.7 109.5,-141.7 84.5,-141.7"/>
<polygon fill="none" stroke="#000000" points="84.5,-141.7 84.5,-160.7 109.5,-160.7 109.5,-141.7 84.5,-141.7"/>
<text text-anchor="start" x="90.9053" y="-147.8" font-family="Helvetica,sans-Serif" font-size="11.00" fill="#000000">7 &gt;</text>
</a>
</g>
</g>
<!-- trocos&#45;&gt;estradas -->
<g id="edge2" class="edge">
<title>trocos:w&#45;&gt;estradas:e</title>
<path fill="none" stroke="#000000" d="M162.3199,-152.5181C141.5251,-161.7812 138.8196,-190.7 109.5,-190.7"/>
<polygon fill="#000000" stroke="#000000" points="168.6535,-151.2594 177.2017,-153.2309 172.5767,-150.4797 176.5,-149.7 176.5,-149.7 176.5,-149.7 172.5767,-150.4797 175.7983,-146.1691 168.6535,-151.2594 168.6535,-151.2594"/>
<ellipse fill="none" stroke="#000000" cx="165.5148" cy="-151.8832" rx="3.2" ry="3.2"/>
</g>
<!-- tipo_pavimento -->
<g id="node4" class="node">
<title>tipo_pavimento</title>
<g id="a_node4"><a xlink:href="../../tables/tipo_pavimento.html" xlink:title="tipo_pavimento" target="_top">
<polygon fill="#ffffff" stroke="transparent" points="8,-38.2 8,-121.2 125,-121.2 125,-38.2 8,-38.2"/>
<polygon fill="#f5f5f5" stroke="transparent" points="8.5,-97.7 8.5,-120.7 125.5,-120.7 125.5,-97.7 8.5,-97.7"/>
<polygon fill="none" stroke="#000000" points="8.5,-97.7 8.5,-120.7 125.5,-120.7 125.5,-97.7 8.5,-97.7"/>
<text text-anchor="start" x="13.2117" y="-106.8" font-family="Helvetica,sans-Serif" font-weight="bold" font-size="11.00" fill="#000000">tipo_pavimento</text>
<text text-anchor="start" x="91.0219" y="-105.8" font-family="Helvetica,sans-Serif" font-size="11.00" fill="#000000">[table]</text>
<polygon fill="none" stroke="#000000" points="8.5,-75.7 8.5,-97.7 125.5,-97.7 125.5,-75.7 8.5,-75.7"/>
<image xlink:href="../../images/primaryKeys.png" width="11px" height="12px" preserveAspectRatio="xMinYMin meet" x="13.5" y="-92.7"/>
<text text-anchor="start" x="30.5" y="-82.8" font-family="Helvetica,sans-Serif" font-size="11.00" fill="#000000">id</text>
<polygon fill="none" stroke="#000000" points="8.5,-56.7 8.5,-75.7 125.5,-75.7 125.5,-56.7 8.5,-56.7"/>
<text text-anchor="start" x="11.5" y="-62.8" font-family="Helvetica,sans-Serif" font-size="11.00" fill="#000000">...</text>
<polygon fill="#ffffff" stroke="transparent" points="8.5,-37.7 8.5,-56.7 43.5,-56.7 43.5,-37.7 8.5,-37.7"/>
<polygon fill="none" stroke="#000000" points="8.5,-37.7 8.5,-56.7 43.5,-56.7 43.5,-37.7 8.5,-37.7"/>
<text text-anchor="start" x="11.5" y="-43.8" font-family="Helvetica,sans-Serif" font-size="11.00" fill="#000000"> &#160;</text>
<polygon fill="#ffffff" stroke="transparent" points="43.5,-37.7 43.5,-56.7 92.5,-56.7 92.5,-37.7 43.5,-37.7"/>
<polygon fill="none" stroke="#000000" points="43.5,-37.7 43.5,-56.7 92.5,-56.7 92.5,-37.7 43.5,-37.7"/>
<text text-anchor="start" x="57.1105" y="-43.8" font-family="Helvetica,sans-Serif" font-size="11.00" fill="#000000">0 rows</text>
<polygon fill="#ffffff" stroke="transparent" points="92.5,-37.7 92.5,-56.7 125.5,-56.7 125.5,-37.7 92.5,-37.7"/>
<polygon fill="none" stroke="#000000" points="92.5,-37.7 92.5,-56.7 125.5,-56.7 125.5,-37.7 92.5,-37.7"/>
<text text-anchor="start" x="106.9053" y="-43.8" font-family="Helvetica,sans-Serif" font-size="11.00" fill="#000000">1 &gt;</text>
</a>
</g>
</g>
<!-- trocos&#45;&gt;tipo_pavimento -->
<g id="edge3" class="edge">
<title>trocos:w&#45;&gt;tipo_pavimento:e</title>
<path fill="none" stroke="#000000" d="M162.6568,-123.3123C148.8325,-112.7354 148.6756,-86.7 125.5,-86.7"/>
<polygon fill="#000000" stroke="#000000" points="168.8739,-125.2828 175.4123,-131.1317 172.6869,-126.4914 176.5,-127.7 176.5,-127.7 176.5,-127.7 172.6869,-126.4914 177.5877,-124.2683 168.8739,-125.2828 168.8739,-125.2828"/>
<ellipse fill="none" stroke="#000000" cx="165.8235" cy="-124.3159" rx="3.2" ry="3.2"/>
</g>
</g>
</svg>
