<?xml version="1.0" encoding="UTF-8" standalone="no"?>
<!DOCTYPE svg PUBLIC "-//W3C//DTD SVG 1.1//EN"
 "http://www.w3.org/Graphics/SVG/1.1/DTD/svg11.dtd">
<!-- Generated by graphviz version 2.40.1 (20161225.0304)
 -->
<!-- Title: twoDegreesRelationshipsDiagram Pages: 1 -->
<svg width="593pt" height="763pt"
 viewBox="0.00 0.00 593.00 763.20" xmlns="http://www.w3.org/2000/svg" xmlns:xlink="http://www.w3.org/1999/xlink">
<g id="graph0" class="graph" transform="scale(1 1) rotate(0) translate(4 759.2)">
<title>twoDegreesRelationshipsDiagram</title>
<polygon fill="#ffffff" stroke="transparent" points="-4,4 -4,-759.2 589,-759.2 589,4 -4,4"/>
<text text-anchor="middle" x="72.4936" y="-7.3" font-family="Helvetica,sans-Serif" font-size="11.00" fill="#000000">Generated by SchemaSpy</text>
<!-- caract -->
<g id="node1" class="node">
<title>caract</title>
<g id="a_node1"><a xlink:href="../../tables/caract.html" xlink:title="caract" target="_top">
<polygon fill="#ffffff" stroke="transparent" points="264.5,-202.2 264.5,-263.2 336.5,-263.2 336.5,-202.2 264.5,-202.2"/>
<polygon fill="#f5f5f5" stroke="transparent" points="264.5,-239.7 264.5,-262.7 336.5,-262.7 336.5,-239.7 264.5,-239.7"/>
<polygon fill="none" stroke="#000000" points="264.5,-239.7 264.5,-262.7 336.5,-262.7 336.5,-239.7 264.5,-239.7"/>
<text text-anchor="start" x="269.0257" y="-248.8" font-family="Helvetica,sans-Serif" font-weight="bold" font-size="11.00" fill="#000000">caract</text>
<text text-anchor="start" x="302.0219" y="-247.8" font-family="Helvetica,sans-Serif" font-size="11.00" fill="#000000">[table]</text>
<polygon fill="none" stroke="#000000" points="264.5,-220.7 264.5,-239.7 336.5,-239.7 336.5,-220.7 264.5,-220.7"/>
<text text-anchor="start" x="267.5" y="-226.8" font-family="Helvetica,sans-Serif" font-size="11.00" fill="#000000">...</text>
<polygon fill="#ffffff" stroke="transparent" points="264.5,-201.7 264.5,-220.7 285.5,-220.7 285.5,-201.7 264.5,-201.7"/>
<polygon fill="none" stroke="#000000" points="264.5,-201.7 264.5,-220.7 285.5,-220.7 285.5,-201.7 264.5,-201.7"/>
<text text-anchor="start" x="267.2027" y="-207.8" font-family="Helvetica,sans-Serif" font-size="11.00" fill="#000000">&lt; 1</text>
<polygon fill="#ffffff" stroke="transparent" points="285.5,-201.7 285.5,-220.7 323.5,-220.7 323.5,-201.7 285.5,-201.7"/>
<polygon fill="none" stroke="#000000" points="285.5,-201.7 285.5,-220.7 323.5,-220.7 323.5,-201.7 285.5,-201.7"/>
<text text-anchor="start" x="288.3053" y="-207.8" font-family="Helvetica,sans-Serif" font-size="11.00" fill="#000000">0 rows</text>
<polygon fill="#ffffff" stroke="transparent" points="323.5,-201.7 323.5,-220.7 336.5,-220.7 336.5,-201.7 323.5,-201.7"/>
<polygon fill="none" stroke="#000000" points="323.5,-201.7 323.5,-220.7 336.5,-220.7 336.5,-201.7 323.5,-201.7"/>
<text text-anchor="start" x="327.3862" y="-207.8" font-family="Helvetica,sans-Serif" font-size="11.00" fill="#000000"> &#160;</text>
</a>
</g>
</g>
<!-- estradas -->
<g id="node2" class="node">
<title>estradas</title>
<g id="a_node2"><a xlink:href="../../tables/estradas.html" xlink:title="estradas" target="_top">
<polygon fill="#ffffff" stroke="transparent" points="24,-263.2 24,-346.2 109,-346.2 109,-263.2 24,-263.2"/>
<polygon fill="#f5f5f5" stroke="transparent" points="24.5,-322.7 24.5,-345.7 109.5,-345.7 109.5,-322.7 24.5,-322.7"/>
<polygon fill="none" stroke="#000000" points="24.5,-322.7 24.5,-345.7 109.5,-345.7 109.5,-322.7 24.5,-322.7"/>
<text text-anchor="start" x="29.4108" y="-331.8" font-family="Helvetica,sans-Serif" font-weight="bold" font-size="11.00" fill="#000000">estradas</text>
<text text-anchor="start" x="75.0219" y="-330.8" font-family="Helvetica,sans-Serif" font-size="11.00" fill="#000000">[table]</text>
<polygon fill="none" stroke="#000000" points="24.5,-300.7 24.5,-322.7 109.5,-322.7 109.5,-300.7 24.5,-300.7"/>
<image xlink:href="../../images/primaryKeys.png" width="11px" height="12px" preserveAspectRatio="xMinYMin meet" x="29.5" y="-317.7"/>
<text text-anchor="start" x="51.5" y="-307.8" font-family="Helvetica,sans-Serif" font-size="11.00" fill="#000000">id</text>
<polygon fill="none" stroke="#000000" points="24.5,-281.7 24.5,-300.7 109.5,-300.7 109.5,-281.7 24.5,-281.7"/>
<text text-anchor="start" x="27.5" y="-287.8" font-family="Helvetica,sans-Serif" font-size="11.00" fill="#000000">...</text>
<polygon fill="#ffffff" stroke="transparent" points="24.5,-262.7 24.5,-281.7 43.5,-281.7 43.5,-262.7 24.5,-262.7"/>
<polygon fill="none" stroke="#000000" points="24.5,-262.7 24.5,-281.7 43.5,-281.7 43.5,-262.7 24.5,-262.7"/>
<text text-anchor="start" x="27.5" y="-268.8" font-family="Helvetica,sans-Serif" font-size="11.00" fill="#000000"> &#160;</text>
<polygon fill="#ffffff" stroke="transparent" points="43.5,-262.7 43.5,-281.7 84.5,-281.7 84.5,-262.7 43.5,-262.7"/>
<polygon fill="none" stroke="#000000" points="43.5,-262.7 43.5,-281.7 84.5,-281.7 84.5,-262.7 43.5,-262.7"/>
<text text-anchor="start" x="49.1105" y="-268.8" font-family="Helvetica,sans-Serif" font-size="11.00" fill="#000000">0 rows</text>
<polygon fill="#ffffff" stroke="transparent" points="84.5,-262.7 84.5,-281.7 109.5,-281.7 109.5,-262.7 84.5,-262.7"/>
<polygon fill="none" stroke="#000000" points="84.5,-262.7 84.5,-281.7 109.5,-281.7 109.5,-262.7 84.5,-262.7"/>
<text text-anchor="start" x="90.9053" y="-268.8" font-family="Helvetica,sans-Serif" font-size="11.00" fill="#000000">7 &gt;</text>
</a>
</g>
</g>
<!-- caract&#45;&gt;estradas -->
<g id="edge1" class="edge">
<title>caract:w&#45;&gt;estradas:e</title>
<path fill="none" stroke="#000000" d="M253.9479,-230.0714C215.0033,-232.9585 204.6603,-252.273 166,-273.7 139.5313,-288.37 139.7622,-311.7 109.5,-311.7"/>
<polygon fill="#000000" stroke="#000000" points="263.5598,-225.7306 263.8412,-233.7257 262.2422,-233.782 261.9608,-225.7869 263.5598,-225.7306"/>
<polyline fill="none" stroke="#000000" points="264.5,-229.7 260.5025,-229.8407 "/>
<ellipse fill="none" stroke="#000000" cx="257.3045" cy="-229.9533" rx="3.2" ry="3.2"/>
</g>
<!-- intevencoes -->
<g id="node3" class="node">
<title>intevencoes</title>
<g id="a_node3"><a xlink:href="../../tables/intevencoes.html" xlink:title="intevencoes" target="_top">
<polygon fill="#ffffff" stroke="transparent" points="476,-646.2 476,-751.2 577,-751.2 577,-646.2 476,-646.2"/>
<polygon fill="#f5f5f5" stroke="transparent" points="476.5,-727.7 476.5,-750.7 577.5,-750.7 577.5,-727.7 476.5,-727.7"/>
<polygon fill="none" stroke="#000000" points="476.5,-727.7 476.5,-750.7 577.5,-750.7 577.5,-727.7 476.5,-727.7"/>
<text text-anchor="start" x="481.1564" y="-736.8" font-family="Helvetica,sans-Serif" font-weight="bold" font-size="11.00" fill="#000000">intevencoes</text>
<text text-anchor="start" x="543.0219" y="-735.8" font-family="Helvetica,sans-Serif" font-size="11.00" fill="#000000">[table]</text>
<polygon fill="none" stroke="#000000" points="476.5,-705.7 476.5,-727.7 577.5,-727.7 577.5,-705.7 476.5,-705.7"/>
<image xlink:href="../../images/primaryKeys.png" width="11px" height="12px" preserveAspectRatio="xMinYMin meet" x="481.5" y="-722.7"/>
<text text-anchor="start" x="500.5" y="-712.8" font-family="Helvetica,sans-Serif" font-size="11.00" fill="#000000">id</text>
<polygon fill="none" stroke="#000000" points="476.5,-683.7 476.5,-705.7 577.5,-705.7 577.5,-683.7 476.5,-683.7"/>
<image xlink:href="../../images/foreignKeys.png" width="11px" height="12px" preserveAspectRatio="xMinYMin meet" x="481.5" y="-700.7"/>
<text text-anchor="start" x="500.5" y="-690.8" font-family="Helvetica,sans-Serif" font-size="11.00" fill="#000000">id_trocos</text>
<polygon fill="none" stroke="#000000" points="476.5,-664.7 476.5,-683.7 577.5,-683.7 577.5,-664.7 476.5,-664.7"/>
<text text-anchor="start" x="479.5" y="-670.8" font-family="Helvetica,sans-Serif" font-size="11.00" fill="#000000">...</text>
<polygon fill="#ffffff" stroke="transparent" points="476.5,-645.7 476.5,-664.7 512.5,-664.7 512.5,-645.7 476.5,-645.7"/>
<polygon fill="none" stroke="#000000" points="476.5,-645.7 476.5,-664.7 512.5,-664.7 512.5,-645.7 476.5,-645.7"/>
<text text-anchor="start" x="479.5" y="-651.8" font-family="Helvetica,sans-Serif" font-size="11.00" fill="#000000">&lt; 1</text>
<polygon fill="#ffffff" stroke="transparent" points="512.5,-645.7 512.5,-664.7 557.5,-664.7 557.5,-645.7 512.5,-645.7"/>
<polygon fill="none" stroke="#000000" points="512.5,-645.7 512.5,-664.7 557.5,-664.7 557.5,-645.7 512.5,-645.7"/>
<text text-anchor="start" x="522.1105" y="-651.8" font-family="Helvetica,sans-Serif" font-size="11.00" fill="#000000">0 rows</text>
<polygon fill="#ffffff" stroke="transparent" points="557.5,-645.7 557.5,-664.7 577.5,-664.7 577.5,-645.7 557.5,-645.7"/>
<polygon fill="none" stroke="#000000" points="557.5,-645.7 557.5,-664.7 577.5,-664.7 577.5,-645.7 557.5,-645.7"/>
<text text-anchor="start" x="568.3862" y="-651.8" font-family="Helvetica,sans-Serif" font-size="11.00" fill="#000000"> &#160;</text>
</a>
</g>
</g>
<!-- trocos -->
<g id="node4" class="node">
<title>trocos</title>
<g id="a_node4"><a xlink:href="../../tables/trocos.html" xlink:title="trocos" target="_top">
<polygon fill="#ffffff" stroke="transparent" points="174,-530.7 174,-730.7 427,-730.7 427,-530.7 174,-530.7"/>
<polygon fill="#f5f5f5" stroke="transparent" points="176.5,-705.7 176.5,-728.7 425.5,-728.7 425.5,-705.7 176.5,-705.7"/>
<polygon fill="none" stroke="#000000" points="176.5,-705.7 176.5,-728.7 425.5,-728.7 425.5,-705.7 176.5,-705.7"/>
<text text-anchor="start" x="181.5" y="-714.8" font-family="Helvetica,sans-Serif" font-weight="bold" font-size="11.00" fill="#000000">trocos</text>
<text text-anchor="start" x="390.5437" y="-713.8" font-family="Helvetica,sans-Serif" font-size="11.00" fill="#000000">[table]</text>
<polygon fill="none" stroke="#000000" points="176.5,-683.7 176.5,-705.7 306.5,-705.7 306.5,-683.7 176.5,-683.7"/>
<image xlink:href="../../images/primaryKeys.png" width="11px" height="12px" preserveAspectRatio="xMinYMin meet" x="181.5" y="-700.7"/>
<text text-anchor="start" x="196.5" y="-690.8" font-family="Helvetica,sans-Serif" font-size="11.00" fill="#000000">id</text>
<polygon fill="none" stroke="#000000" points="306.5,-683.7 306.5,-705.7 425.5,-705.7 425.5,-683.7 306.5,-683.7"/>
<text text-anchor="start" x="309.5" y="-691.4" font-family="Helvetica,sans-Serif" font-size="11.00" fill="#000000">serial[10]</text>
<polygon fill="none" stroke="#000000" points="176.5,-661.7 176.5,-683.7 306.5,-683.7 306.5,-661.7 176.5,-661.7"/>
<text text-anchor="start" x="196.5" y="-668.8" font-family="Helvetica,sans-Serif" font-size="11.00" fill="#000000">geom</text>
<polygon fill="none" stroke="#000000" points="306.5,-661.7 306.5,-683.7 425.5,-683.7 425.5,-661.7 306.5,-661.7"/>
<text text-anchor="start" x="309.4485" y="-669.4" font-family="Helvetica,sans-Serif" font-size="11.00" fill="#000000">geometry[2147483647]</text>
<polygon fill="none" stroke="#000000" points="176.5,-639.7 176.5,-661.7 306.5,-661.7 306.5,-639.7 176.5,-639.7"/>
<text text-anchor="start" x="196.5" y="-646.8" font-family="Helvetica,sans-Serif" font-size="11.00" fill="#000000">irl</text>
<polygon fill="none" stroke="#000000" points="306.5,-639.7 306.5,-661.7 425.5,-661.7 425.5,-639.7 306.5,-639.7"/>
<text text-anchor="start" x="309.5" y="-647.4" font-family="Helvetica,sans-Serif" font-size="11.00" fill="#000000">float8[17,17]</text>
<polygon fill="none" stroke="#000000" points="176.5,-617.7 176.5,-639.7 306.5,-639.7 306.5,-617.7 176.5,-617.7"/>
<text text-anchor="start" x="196.5" y="-624.8" font-family="Helvetica,sans-Serif" font-size="11.00" fill="#000000">start_m</text>
<polygon fill="none" stroke="#000000" points="306.5,-617.7 306.5,-639.7 425.5,-639.7 425.5,-617.7 306.5,-617.7"/>
<text text-anchor="start" x="309.5" y="-625.4" font-family="Helvetica,sans-Serif" font-size="11.00" fill="#000000">float8[17,17]</text>
<polygon fill="none" stroke="#000000" points="176.5,-595.7 176.5,-617.7 306.5,-617.7 306.5,-595.7 176.5,-595.7"/>
<text text-anchor="start" x="196.5" y="-602.8" font-family="Helvetica,sans-Serif" font-size="11.00" fill="#000000">end_m</text>
<polygon fill="none" stroke="#000000" points="306.5,-595.7 306.5,-617.7 425.5,-617.7 425.5,-595.7 306.5,-595.7"/>
<text text-anchor="start" x="309.5" y="-603.4" font-family="Helvetica,sans-Serif" font-size="11.00" fill="#000000">float8[17,17]</text>
<polygon fill="none" stroke="#000000" points="176.5,-573.7 176.5,-595.7 306.5,-595.7 306.5,-573.7 176.5,-573.7"/>
<image xlink:href="../../images/foreignKeys.png" width="11px" height="12px" preserveAspectRatio="xMinYMin meet" x="181.5" y="-590.7"/>
<text text-anchor="start" x="196.5" y="-580.8" font-family="Helvetica,sans-Serif" font-size="11.00" fill="#000000">id_estradas</text>
<polygon fill="none" stroke="#000000" points="306.5,-573.7 306.5,-595.7 425.5,-595.7 425.5,-573.7 306.5,-573.7"/>
<text text-anchor="start" x="309.5" y="-581.4" font-family="Helvetica,sans-Serif" font-size="11.00" fill="#000000">int4[10]</text>
<polygon fill="none" stroke="#000000" points="176.5,-551.7 176.5,-573.7 306.5,-573.7 306.5,-551.7 176.5,-551.7"/>
<image xlink:href="../../images/foreignKeys.png" width="11px" height="12px" preserveAspectRatio="xMinYMin meet" x="181.5" y="-568.7"/>
<text text-anchor="start" x="196.5" y="-558.8" font-family="Helvetica,sans-Serif" font-size="11.00" fill="#000000">id_tipo_pavimento</text>
<polygon fill="none" stroke="#000000" points="306.5,-551.7 306.5,-573.7 425.5,-573.7 425.5,-551.7 306.5,-551.7"/>
<text text-anchor="start" x="309.5" y="-559.4" font-family="Helvetica,sans-Serif" font-size="11.00" fill="#000000">int4[10]</text>
<polygon fill="#ffffff" stroke="transparent" points="176.5,-532.7 176.5,-551.7 232.5,-551.7 232.5,-532.7 176.5,-532.7"/>
<polygon fill="none" stroke="#000000" points="176.5,-532.7 176.5,-551.7 232.5,-551.7 232.5,-532.7 176.5,-532.7"/>
<text text-anchor="start" x="179.5" y="-538.8" font-family="Helvetica,sans-Serif" font-size="11.00" fill="#000000">&lt; 2</text>
<polygon fill="#ffffff" stroke="transparent" points="232.5,-532.7 232.5,-551.7 306.5,-551.7 306.5,-532.7 232.5,-532.7"/>
<polygon fill="none" stroke="#000000" points="232.5,-532.7 232.5,-551.7 306.5,-551.7 306.5,-532.7 232.5,-532.7"/>
<text text-anchor="start" x="271.1105" y="-538.8" font-family="Helvetica,sans-Serif" font-size="11.00" fill="#000000">0 rows</text>
<polygon fill="#ffffff" stroke="transparent" points="306.5,-532.7 306.5,-551.7 425.5,-551.7 425.5,-532.7 306.5,-532.7"/>
<polygon fill="none" stroke="#000000" points="306.5,-532.7 306.5,-551.7 425.5,-551.7 425.5,-532.7 306.5,-532.7"/>
<text text-anchor="start" x="406.9053" y="-538.8" font-family="Helvetica,sans-Serif" font-size="11.00" fill="#000000">1 &gt;</text>
<polygon fill="none" stroke="#000000" stroke-width="2" points="175,-531.7 175,-729.7 426,-729.7 426,-531.7 175,-531.7"/>
</a>
</g>
</g>
<!-- intevencoes&#45;&gt;trocos -->
<g id="edge2" class="edge">
<title>intevencoes:w&#45;&gt;trocos:e</title>
<path fill="none" stroke="#000000" d="M461.776,-694.7C449.7815,-694.7 442.3229,-694.7 425.5,-694.7"/>
<polygon fill="#000000" stroke="#000000" points="468.5,-694.7001 476.5,-698.3 472.5,-694.7 476.5,-694.7 476.5,-694.7 476.5,-694.7 472.5,-694.7 476.5,-691.1 468.5,-694.7001 468.5,-694.7001"/>
<ellipse fill="none" stroke="#000000" cx="465.3" cy="-694.7001" rx="3.2" ry="3.2"/>
</g>
<!-- trocos&#45;&gt;estradas -->
<g id="edge7" class="edge">
<title>trocos:w&#45;&gt;estradas:e</title>
<path fill="none" stroke="#000000" d="M163.1663,-579.2467C122.9149,-540.7701 166.7207,-311.7 109.5,-311.7"/>
<polygon fill="#000000" stroke="#000000" points="169.0953,-581.6716 175.1372,-588.0321 172.7977,-583.1858 176.5,-584.7 176.5,-584.7 176.5,-584.7 172.7977,-583.1858 177.8628,-581.3679 169.0953,-581.6716 169.0953,-581.6716"/>
<ellipse fill="none" stroke="#000000" cx="166.1335" cy="-580.4602" rx="3.2" ry="3.2"/>
</g>
<!-- tipo_pavimento -->
<g id="node9" class="node">
<title>tipo_pavimento</title>
<g id="a_node9"><a xlink:href="../../tables/tipo_pavimento.html" xlink:title="tipo_pavimento" target="_top">
<polygon fill="#ffffff" stroke="transparent" points="8,-514.2 8,-597.2 125,-597.2 125,-514.2 8,-514.2"/>
<polygon fill="#f5f5f5" stroke="transparent" points="8.5,-573.7 8.5,-596.7 125.5,-596.7 125.5,-573.7 8.5,-573.7"/>
<polygon fill="none" stroke="#000000" points="8.5,-573.7 8.5,-596.7 125.5,-596.7 125.5,-573.7 8.5,-573.7"/>
<text text-anchor="start" x="13.2117" y="-582.8" font-family="Helvetica,sans-Serif" font-weight="bold" font-size="11.00" fill="#000000">tipo_pavimento</text>
<text text-anchor="start" x="91.0219" y="-581.8" font-family="Helvetica,sans-Serif" font-size="11.00" fill="#000000">[table]</text>
<polygon fill="none" stroke="#000000" points="8.5,-551.7 8.5,-573.7 125.5,-573.7 125.5,-551.7 8.5,-551.7"/>
<image xlink:href="../../images/primaryKeys.png" width="11px" height="12px" preserveAspectRatio="xMinYMin meet" x="13.5" y="-568.7"/>
<text text-anchor="start" x="30.5" y="-558.8" font-family="Helvetica,sans-Serif" font-size="11.00" fill="#000000">id</text>
<polygon fill="none" stroke="#000000" points="8.5,-532.7 8.5,-551.7 125.5,-551.7 125.5,-532.7 8.5,-532.7"/>
<text text-anchor="start" x="11.5" y="-538.8" font-family="Helvetica,sans-Serif" font-size="11.00" fill="#000000">...</text>
<polygon fill="#ffffff" stroke="transparent" points="8.5,-513.7 8.5,-532.7 43.5,-532.7 43.5,-513.7 8.5,-513.7"/>
<polygon fill="none" stroke="#000000" points="8.5,-513.7 8.5,-532.7 43.5,-532.7 43.5,-513.7 8.5,-513.7"/>
<text text-anchor="start" x="11.5" y="-519.8" font-family="Helvetica,sans-Serif" font-size="11.00" fill="#000000"> &#160;</text>
<polygon fill="#ffffff" stroke="transparent" points="43.5,-513.7 43.5,-532.7 92.5,-532.7 92.5,-513.7 43.5,-513.7"/>
<polygon fill="none" stroke="#000000" points="43.5,-513.7 43.5,-532.7 92.5,-532.7 92.5,-513.7 43.5,-513.7"/>
<text text-anchor="start" x="57.1105" y="-519.8" font-family="Helvetica,sans-Serif" font-size="11.00" fill="#000000">0 rows</text>
<polygon fill="#ffffff" stroke="transparent" points="92.5,-513.7 92.5,-532.7 125.5,-532.7 125.5,-513.7 92.5,-513.7"/>
<polygon fill="none" stroke="#000000" points="92.5,-513.7 92.5,-532.7 125.5,-532.7 125.5,-513.7 92.5,-513.7"/>
<text text-anchor="start" x="106.9053" y="-519.8" font-family="Helvetica,sans-Serif" font-size="11.00" fill="#000000">1 &gt;</text>
</a>
</g>
</g>
<!-- trocos&#45;&gt;tipo_pavimento -->
<g id="edge8" class="edge">
<title>trocos:w&#45;&gt;tipo_pavimento:e</title>
<path fill="none" stroke="#000000" d="M161.776,-562.7C149.7815,-562.7 142.3229,-562.7 125.5,-562.7"/>
<polygon fill="#000000" stroke="#000000" points="168.5,-562.7001 176.5,-566.3 172.5,-562.7 176.5,-562.7 176.5,-562.7 176.5,-562.7 172.5,-562.7 176.5,-559.1 168.5,-562.7001 168.5,-562.7001"/>
<ellipse fill="none" stroke="#000000" cx="165.3" cy="-562.7001" rx="3.2" ry="3.2"/>
</g>
<!-- lrs_line -->
<g id="node5" class="node">
<title>lrs_line</title>
<g id="a_node5"><a xlink:href="../../tables/lrs_line.html" xlink:title="lrs_line" target="_top">
<polygon fill="#ffffff" stroke="transparent" points="262,-120.2 262,-181.2 339,-181.2 339,-120.2 262,-120.2"/>
<polygon fill="#f5f5f5" stroke="transparent" points="262.5,-157.7 262.5,-180.7 339.5,-180.7 339.5,-157.7 262.5,-157.7"/>
<polygon fill="none" stroke="#000000" points="262.5,-157.7 262.5,-180.7 339.5,-180.7 339.5,-157.7 262.5,-157.7"/>
<text text-anchor="start" x="267.0854" y="-166.8" font-family="Helvetica,sans-Serif" font-weight="bold" font-size="11.00" fill="#000000">lrs_line</text>
<text text-anchor="start" x="305.0219" y="-165.8" font-family="Helvetica,sans-Serif" font-size="11.00" fill="#000000">[table]</text>
<polygon fill="none" stroke="#000000" points="262.5,-138.7 262.5,-157.7 339.5,-157.7 339.5,-138.7 262.5,-138.7"/>
<text text-anchor="start" x="265.5" y="-144.8" font-family="Helvetica,sans-Serif" font-size="11.00" fill="#000000">...</text>
<polygon fill="#ffffff" stroke="transparent" points="262.5,-119.7 262.5,-138.7 286.5,-138.7 286.5,-119.7 262.5,-119.7"/>
<polygon fill="none" stroke="#000000" points="262.5,-119.7 262.5,-138.7 286.5,-138.7 286.5,-119.7 262.5,-119.7"/>
<text text-anchor="start" x="265.5" y="-125.8" font-family="Helvetica,sans-Serif" font-size="11.00" fill="#000000">&lt; 4</text>
<polygon fill="#ffffff" stroke="transparent" points="286.5,-119.7 286.5,-138.7 325.5,-138.7 325.5,-119.7 286.5,-119.7"/>
<polygon fill="none" stroke="#000000" points="286.5,-119.7 286.5,-138.7 325.5,-138.7 325.5,-119.7 286.5,-119.7"/>
<text text-anchor="start" x="290.1105" y="-125.8" font-family="Helvetica,sans-Serif" font-size="11.00" fill="#000000">0 rows</text>
<polygon fill="#ffffff" stroke="transparent" points="325.5,-119.7 325.5,-138.7 339.5,-138.7 339.5,-119.7 325.5,-119.7"/>
<polygon fill="none" stroke="#000000" points="325.5,-119.7 325.5,-138.7 339.5,-138.7 339.5,-119.7 325.5,-119.7"/>
<text text-anchor="start" x="330.3862" y="-125.8" font-family="Helvetica,sans-Serif" font-size="11.00" fill="#000000"> &#160;</text>
</a>
</g>
</g>
<!-- lrs_line&#45;&gt;estradas -->
<g id="edge3" class="edge">
<title>lrs_line:w&#45;&gt;estradas:e</title>
<path fill="none" stroke="#000000" d="M248.0927,-148.1051C211.6888,-150.3449 195.8664,-162.1971 166,-191.7 124.0622,-233.1274 168.4492,-311.7 109.5,-311.7"/>
<polygon fill="#000000" stroke="#000000" points="254.5032,-147.9249 262.6012,-151.2986 258.5016,-147.8125 262.5,-147.7 262.5,-147.7 262.5,-147.7 258.5016,-147.8125 262.3988,-144.1014 254.5032,-147.9249 254.5032,-147.9249"/>
<ellipse fill="none" stroke="#000000" cx="251.3044" cy="-148.0149" rx="3.2" ry="3.2"/>
</g>
<!-- lrs_node -->
<g id="node6" class="node">
<title>lrs_node</title>
<g id="a_node6"><a xlink:href="../../tables/lrs_node.html" xlink:title="lrs_node" target="_top">
<polygon fill="#ffffff" stroke="transparent" points="258,-38.2 258,-99.2 343,-99.2 343,-38.2 258,-38.2"/>
<polygon fill="#f5f5f5" stroke="transparent" points="258.5,-75.7 258.5,-98.7 343.5,-98.7 343.5,-75.7 258.5,-75.7"/>
<polygon fill="none" stroke="#000000" points="258.5,-75.7 258.5,-98.7 343.5,-98.7 343.5,-75.7 258.5,-75.7"/>
<text text-anchor="start" x="263.4114" y="-84.8" font-family="Helvetica,sans-Serif" font-weight="bold" font-size="11.00" fill="#000000">lrs_node</text>
<text text-anchor="start" x="309.0219" y="-83.8" font-family="Helvetica,sans-Serif" font-size="11.00" fill="#000000">[table]</text>
<polygon fill="none" stroke="#000000" points="258.5,-56.7 258.5,-75.7 343.5,-75.7 343.5,-56.7 258.5,-56.7"/>
<text text-anchor="start" x="261.5" y="-62.8" font-family="Helvetica,sans-Serif" font-size="11.00" fill="#000000">...</text>
<polygon fill="#ffffff" stroke="transparent" points="258.5,-37.7 258.5,-56.7 286.5,-56.7 286.5,-37.7 258.5,-37.7"/>
<polygon fill="none" stroke="#000000" points="258.5,-37.7 258.5,-56.7 286.5,-56.7 286.5,-37.7 258.5,-37.7"/>
<text text-anchor="start" x="261.5" y="-43.8" font-family="Helvetica,sans-Serif" font-size="11.00" fill="#000000">&lt; 4</text>
<polygon fill="#ffffff" stroke="transparent" points="286.5,-37.7 286.5,-56.7 327.5,-56.7 327.5,-37.7 286.5,-37.7"/>
<polygon fill="none" stroke="#000000" points="286.5,-37.7 286.5,-56.7 327.5,-56.7 327.5,-37.7 286.5,-37.7"/>
<text text-anchor="start" x="292.1105" y="-43.8" font-family="Helvetica,sans-Serif" font-size="11.00" fill="#000000">0 rows</text>
<polygon fill="#ffffff" stroke="transparent" points="327.5,-37.7 327.5,-56.7 343.5,-56.7 343.5,-37.7 327.5,-37.7"/>
<polygon fill="none" stroke="#000000" points="327.5,-37.7 327.5,-56.7 343.5,-56.7 343.5,-37.7 327.5,-37.7"/>
<text text-anchor="start" x="334.3862" y="-43.8" font-family="Helvetica,sans-Serif" font-size="11.00" fill="#000000"> &#160;</text>
</a>
</g>
</g>
<!-- lrs_node&#45;&gt;estradas -->
<g id="edge4" class="edge">
<title>lrs_node:w&#45;&gt;estradas:e</title>
<path fill="none" stroke="#000000" d="M244.044,-66.0771C208.8252,-68.1076 191.9986,-78.8187 166,-109.7 105.9605,-181.0154 202.7235,-311.7 109.5,-311.7"/>
<polygon fill="#000000" stroke="#000000" points="250.5027,-65.9087 258.5939,-69.2988 254.5014,-65.8043 258.5,-65.7 258.5,-65.7 258.5,-65.7 254.5014,-65.8043 258.4061,-62.1012 250.5027,-65.9087 250.5027,-65.9087"/>
<ellipse fill="none" stroke="#000000" cx="247.3038" cy="-65.9922" rx="3.2" ry="3.2"/>
</g>
<!-- patologias -->
<g id="node7" class="node">
<title>patologias</title>
<g id="a_node7"><a xlink:href="../../tables/patologias.html" xlink:title="patologias" target="_top">
<polygon fill="#ffffff" stroke="transparent" points="254,-448.2 254,-509.2 347,-509.2 347,-448.2 254,-448.2"/>
<polygon fill="#f5f5f5" stroke="transparent" points="254.5,-485.7 254.5,-508.7 347.5,-508.7 347.5,-485.7 254.5,-485.7"/>
<polygon fill="none" stroke="#000000" points="254.5,-485.7 254.5,-508.7 347.5,-508.7 347.5,-485.7 254.5,-485.7"/>
<text text-anchor="start" x="259.436" y="-494.8" font-family="Helvetica,sans-Serif" font-weight="bold" font-size="11.00" fill="#000000">patologias</text>
<text text-anchor="start" x="313.0219" y="-493.8" font-family="Helvetica,sans-Serif" font-size="11.00" fill="#000000">[table]</text>
<polygon fill="none" stroke="#000000" points="254.5,-466.7 254.5,-485.7 347.5,-485.7 347.5,-466.7 254.5,-466.7"/>
<text text-anchor="start" x="257.5" y="-472.8" font-family="Helvetica,sans-Serif" font-size="11.00" fill="#000000">...</text>
<polygon fill="#ffffff" stroke="transparent" points="254.5,-447.7 254.5,-466.7 286.5,-466.7 286.5,-447.7 254.5,-447.7"/>
<polygon fill="none" stroke="#000000" points="254.5,-447.7 254.5,-466.7 286.5,-466.7 286.5,-447.7 254.5,-447.7"/>
<text text-anchor="start" x="257.5" y="-453.8" font-family="Helvetica,sans-Serif" font-size="11.00" fill="#000000">&lt; 2</text>
<polygon fill="#ffffff" stroke="transparent" points="286.5,-447.7 286.5,-466.7 329.5,-466.7 329.5,-447.7 286.5,-447.7"/>
<polygon fill="none" stroke="#000000" points="286.5,-447.7 286.5,-466.7 329.5,-466.7 329.5,-447.7 286.5,-447.7"/>
<text text-anchor="start" x="294.1105" y="-453.8" font-family="Helvetica,sans-Serif" font-size="11.00" fill="#000000">0 rows</text>
<polygon fill="#ffffff" stroke="transparent" points="329.5,-447.7 329.5,-466.7 347.5,-466.7 347.5,-447.7 329.5,-447.7"/>
<polygon fill="none" stroke="#000000" points="329.5,-447.7 329.5,-466.7 347.5,-466.7 347.5,-447.7 329.5,-447.7"/>
<text text-anchor="start" x="338.3862" y="-453.8" font-family="Helvetica,sans-Serif" font-size="11.00" fill="#000000"> &#160;</text>
</a>
</g>
</g>
<!-- patologias&#45;&gt;estradas -->
<g id="edge5" class="edge">
<title>patologias:w&#45;&gt;estradas:e</title>
<path fill="none" stroke="#000000" d="M240.0882,-475.3242C207.7917,-473.4454 192.8145,-464.0899 166,-437.7 122.2583,-394.6509 170.8724,-311.7 109.5,-311.7"/>
<polygon fill="#000000" stroke="#000000" points="246.5027,-475.4914 254.4061,-479.2988 250.5014,-475.5957 254.5,-475.7 254.5,-475.7 254.5,-475.7 250.5014,-475.5957 254.5939,-472.1012 246.5027,-475.4914 246.5027,-475.4914"/>
<ellipse fill="none" stroke="#000000" cx="243.3038" cy="-475.408" rx="3.2" ry="3.2"/>
</g>
<!-- rails -->
<g id="node8" class="node">
<title>rails</title>
<g id="a_node8"><a xlink:href="../../tables/rails.html" xlink:title="rails" target="_top">
<polygon fill="#ffffff" stroke="transparent" points="265,-366.2 265,-427.2 336,-427.2 336,-366.2 265,-366.2"/>
<polygon fill="#f5f5f5" stroke="transparent" points="265.5,-403.7 265.5,-426.7 336.5,-426.7 336.5,-403.7 265.5,-403.7"/>
<polygon fill="none" stroke="#000000" points="265.5,-403.7 265.5,-426.7 336.5,-426.7 336.5,-403.7 265.5,-403.7"/>
<text text-anchor="start" x="270.5" y="-412.8" font-family="Helvetica,sans-Serif" font-weight="bold" font-size="11.00" fill="#000000">rails</text>
<text text-anchor="start" x="301.5437" y="-411.8" font-family="Helvetica,sans-Serif" font-size="11.00" fill="#000000">[table]</text>
<polygon fill="none" stroke="#000000" points="265.5,-384.7 265.5,-403.7 336.5,-403.7 336.5,-384.7 265.5,-384.7"/>
<text text-anchor="start" x="268.5" y="-390.8" font-family="Helvetica,sans-Serif" font-size="11.00" fill="#000000">...</text>
<polygon fill="#ffffff" stroke="transparent" points="265.5,-365.7 265.5,-384.7 286.5,-384.7 286.5,-365.7 265.5,-365.7"/>
<polygon fill="none" stroke="#000000" points="265.5,-365.7 265.5,-384.7 286.5,-384.7 286.5,-365.7 265.5,-365.7"/>
<text text-anchor="start" x="268.2027" y="-371.8" font-family="Helvetica,sans-Serif" font-size="11.00" fill="#000000">&lt; 3</text>
<polygon fill="#ffffff" stroke="transparent" points="286.5,-365.7 286.5,-384.7 324.5,-384.7 324.5,-365.7 286.5,-365.7"/>
<polygon fill="none" stroke="#000000" points="286.5,-365.7 286.5,-384.7 324.5,-384.7 324.5,-365.7 286.5,-365.7"/>
<text text-anchor="start" x="289.3053" y="-371.8" font-family="Helvetica,sans-Serif" font-size="11.00" fill="#000000">0 rows</text>
<polygon fill="#ffffff" stroke="transparent" points="324.5,-365.7 324.5,-384.7 336.5,-384.7 336.5,-365.7 324.5,-365.7"/>
<polygon fill="none" stroke="#000000" points="324.5,-365.7 324.5,-384.7 336.5,-384.7 336.5,-365.7 324.5,-365.7"/>
<text text-anchor="start" x="327.4431" y="-371.8" font-family="Helvetica,sans-Serif" font-size="11.00" fill="#000000"> &#160;</text>
</a>
</g>
</g>
<!-- rails&#45;&gt;estradas -->
<g id="edge6" class="edge">
<title>rails:w&#45;&gt;estradas:e</title>
<path fill="none" stroke="#000000" d="M250.7175,-393.141C215.2985,-390.2476 202.567,-376.3097 166,-355.7 138.2732,-340.0728 141.3275,-311.7 109.5,-311.7"/>
<polygon fill="#000000" stroke="#000000" points="257.5057,-393.3976 265.3639,-397.2974 261.5029,-393.5488 265.5,-393.7 265.5,-393.7 265.5,-393.7 261.5029,-393.5488 265.6361,-390.1026 257.5057,-393.3976 257.5057,-393.3976"/>
<ellipse fill="none" stroke="#000000" cx="254.308" cy="-393.2767" rx="3.2" ry="3.2"/>
</g>
<!-- valetas -->
<g id="node10" class="node">
<title>valetas</title>
<g id="a_node10"><a xlink:href="../../tables/valetas.html" xlink:title="valetas" target="_top">
<polygon fill="#ffffff" stroke="transparent" points="262,-284.2 262,-345.2 339,-345.2 339,-284.2 262,-284.2"/>
<polygon fill="#f5f5f5" stroke="transparent" points="262.5,-321.7 262.5,-344.7 339.5,-344.7 339.5,-321.7 262.5,-321.7"/>
<polygon fill="none" stroke="#000000" points="262.5,-321.7 262.5,-344.7 339.5,-344.7 339.5,-321.7 262.5,-321.7"/>
<text text-anchor="start" x="267.0788" y="-330.8" font-family="Helvetica,sans-Serif" font-weight="bold" font-size="11.00" fill="#000000">valetas</text>
<text text-anchor="start" x="305.0219" y="-329.8" font-family="Helvetica,sans-Serif" font-size="11.00" fill="#000000">[table]</text>
<polygon fill="none" stroke="#000000" points="262.5,-302.7 262.5,-321.7 339.5,-321.7 339.5,-302.7 262.5,-302.7"/>
<text text-anchor="start" x="265.5" y="-308.8" font-family="Helvetica,sans-Serif" font-size="11.00" fill="#000000">...</text>
<polygon fill="#ffffff" stroke="transparent" points="262.5,-283.7 262.5,-302.7 286.5,-302.7 286.5,-283.7 262.5,-283.7"/>
<polygon fill="none" stroke="#000000" points="262.5,-283.7 262.5,-302.7 286.5,-302.7 286.5,-283.7 262.5,-283.7"/>
<text text-anchor="start" x="265.5" y="-289.8" font-family="Helvetica,sans-Serif" font-size="11.00" fill="#000000">&lt; 4</text>
<polygon fill="#ffffff" stroke="transparent" points="286.5,-283.7 286.5,-302.7 325.5,-302.7 325.5,-283.7 286.5,-283.7"/>
<polygon fill="none" stroke="#000000" points="286.5,-283.7 286.5,-302.7 325.5,-302.7 325.5,-283.7 286.5,-283.7"/>
<text text-anchor="start" x="290.1105" y="-289.8" font-family="Helvetica,sans-Serif" font-size="11.00" fill="#000000">0 rows</text>
<polygon fill="#ffffff" stroke="transparent" points="325.5,-283.7 325.5,-302.7 339.5,-302.7 339.5,-283.7 325.5,-283.7"/>
<polygon fill="none" stroke="#000000" points="325.5,-283.7 325.5,-302.7 339.5,-302.7 339.5,-283.7 325.5,-283.7"/>
<text text-anchor="start" x="330.3862" y="-289.8" font-family="Helvetica,sans-Serif" font-size="11.00" fill="#000000"> &#160;</text>
</a>
</g>
</g>
<!-- valetas&#45;&gt;estradas -->
<g id="edge9" class="edge">
<title>valetas:w&#45;&gt;estradas:e</title>
<path fill="none" stroke="#000000" d="M247.8036,-311.7C191.6142,-311.7 172.3203,-311.7 109.5,-311.7"/>
<polygon fill="#000000" stroke="#000000" points="254.5,-311.7001 262.5,-315.3 258.5,-311.7 262.5,-311.7 262.5,-311.7 262.5,-311.7 258.5,-311.7 262.5,-308.1 254.5,-311.7001 254.5,-311.7001"/>
<ellipse fill="none" stroke="#000000" cx="251.3" cy="-311.7001" rx="3.2" ry="3.2"/>
</g>
</g>
</svg>
