<?xml version="1.0" encoding="UTF-8" standalone="no"?>
<!DOCTYPE svg PUBLIC "-//W3C//DTD SVG 1.1//EN"
 "http://www.w3.org/Graphics/SVG/1.1/DTD/svg11.dtd">
<!-- Generated by graphviz version 2.40.1 (20161225.0304)
 -->
<!-- Title: twoDegreesRelationshipsDiagram Pages: 1 -->
<svg width="395pt" height="831pt"
 viewBox="0.00 0.00 395.00 830.70" xmlns="http://www.w3.org/2000/svg" xmlns:xlink="http://www.w3.org/1999/xlink">
<g id="graph0" class="graph" transform="scale(1 1) rotate(0) translate(4 826.7)">
<title>twoDegreesRelationshipsDiagram</title>
<polygon fill="#ffffff" stroke="transparent" points="-4,4 -4,-826.7 391,-826.7 391,4 -4,4"/>
<text text-anchor="middle" x="72.4936" y="-7.3" font-family="Helvetica,sans-Serif" font-size="11.00" fill="#000000">Generated by SchemaSpy</text>
<!-- caract -->
<g id="node1" class="node">
<title>caract</title>
<g id="a_node1"><a xlink:href="../../tables/caract.html" xlink:title="caract" target="_top">
<polygon fill="#ffffff" stroke="transparent" points="230,-757.7 230,-818.7 302,-818.7 302,-757.7 230,-757.7"/>
<polygon fill="#f5f5f5" stroke="transparent" points="230,-795.2 230,-818.2 302,-818.2 302,-795.2 230,-795.2"/>
<polygon fill="none" stroke="#000000" points="230,-795.2 230,-818.2 302,-818.2 302,-795.2 230,-795.2"/>
<text text-anchor="start" x="234.5257" y="-804.3" font-family="Helvetica,sans-Serif" font-weight="bold" font-size="11.00" fill="#000000">caract</text>
<text text-anchor="start" x="267.5219" y="-803.3" font-family="Helvetica,sans-Serif" font-size="11.00" fill="#000000">[table]</text>
<polygon fill="none" stroke="#000000" points="230,-776.2 230,-795.2 302,-795.2 302,-776.2 230,-776.2"/>
<text text-anchor="start" x="233" y="-782.3" font-family="Helvetica,sans-Serif" font-size="11.00" fill="#000000">...</text>
<polygon fill="#ffffff" stroke="transparent" points="230,-757.2 230,-776.2 251,-776.2 251,-757.2 230,-757.2"/>
<polygon fill="none" stroke="#000000" points="230,-757.2 230,-776.2 251,-776.2 251,-757.2 230,-757.2"/>
<text text-anchor="start" x="232.7027" y="-763.3" font-family="Helvetica,sans-Serif" font-size="11.00" fill="#000000">&lt; 1</text>
<polygon fill="#ffffff" stroke="transparent" points="251,-757.2 251,-776.2 289,-776.2 289,-757.2 251,-757.2"/>
<polygon fill="none" stroke="#000000" points="251,-757.2 251,-776.2 289,-776.2 289,-757.2 251,-757.2"/>
<text text-anchor="start" x="253.8053" y="-763.3" font-family="Helvetica,sans-Serif" font-size="11.00" fill="#000000">0 rows</text>
<polygon fill="#ffffff" stroke="transparent" points="289,-757.2 289,-776.2 302,-776.2 302,-757.2 289,-757.2"/>
<polygon fill="none" stroke="#000000" points="289,-757.2 289,-776.2 302,-776.2 302,-757.2 289,-757.2"/>
<text text-anchor="start" x="292.8862" y="-763.3" font-family="Helvetica,sans-Serif" font-size="11.00" fill="#000000"> &#160;</text>
</a>
</g>
</g>
<!-- estradas -->
<g id="node2" class="node">
<title>estradas</title>
<g id="a_node2"><a xlink:href="../../tables/estradas.html" xlink:title="estradas" target="_top">
<polygon fill="#ffffff" stroke="transparent" points="13.5,-512.7 13.5,-595.7 98.5,-595.7 98.5,-512.7 13.5,-512.7"/>
<polygon fill="#f5f5f5" stroke="transparent" points="14,-572.2 14,-595.2 99,-595.2 99,-572.2 14,-572.2"/>
<polygon fill="none" stroke="#000000" points="14,-572.2 14,-595.2 99,-595.2 99,-572.2 14,-572.2"/>
<text text-anchor="start" x="18.9108" y="-581.3" font-family="Helvetica,sans-Serif" font-weight="bold" font-size="11.00" fill="#000000">estradas</text>
<text text-anchor="start" x="64.5219" y="-580.3" font-family="Helvetica,sans-Serif" font-size="11.00" fill="#000000">[table]</text>
<polygon fill="none" stroke="#000000" points="14,-550.2 14,-572.2 99,-572.2 99,-550.2 14,-550.2"/>
<image xlink:href="../../images/primaryKeys.png" width="11px" height="12px" preserveAspectRatio="xMinYMin meet" x="19" y="-567.2"/>
<text text-anchor="start" x="41" y="-557.3" font-family="Helvetica,sans-Serif" font-size="11.00" fill="#000000">id</text>
<polygon fill="none" stroke="#000000" points="14,-531.2 14,-550.2 99,-550.2 99,-531.2 14,-531.2"/>
<text text-anchor="start" x="17" y="-537.3" font-family="Helvetica,sans-Serif" font-size="11.00" fill="#000000">...</text>
<polygon fill="#ffffff" stroke="transparent" points="14,-512.2 14,-531.2 33,-531.2 33,-512.2 14,-512.2"/>
<polygon fill="none" stroke="#000000" points="14,-512.2 14,-531.2 33,-531.2 33,-512.2 14,-512.2"/>
<text text-anchor="start" x="17" y="-518.3" font-family="Helvetica,sans-Serif" font-size="11.00" fill="#000000"> &#160;</text>
<polygon fill="#ffffff" stroke="transparent" points="33,-512.2 33,-531.2 74,-531.2 74,-512.2 33,-512.2"/>
<polygon fill="none" stroke="#000000" points="33,-512.2 33,-531.2 74,-531.2 74,-512.2 33,-512.2"/>
<text text-anchor="start" x="38.6105" y="-518.3" font-family="Helvetica,sans-Serif" font-size="11.00" fill="#000000">0 rows</text>
<polygon fill="#ffffff" stroke="transparent" points="74,-512.2 74,-531.2 99,-531.2 99,-512.2 74,-512.2"/>
<polygon fill="none" stroke="#000000" points="74,-512.2 74,-531.2 99,-531.2 99,-512.2 74,-512.2"/>
<text text-anchor="start" x="80.4053" y="-518.3" font-family="Helvetica,sans-Serif" font-size="11.00" fill="#000000">7 &gt;</text>
</a>
</g>
</g>
<!-- caract&#45;&gt;estradas -->
<g id="edge1" class="edge">
<title>caract:w&#45;&gt;estradas:e</title>
<path fill="none" stroke="#000000" d="M219.4106,-785.0346C185.4745,-783.8703 169.16,-776.0932 145,-747.2 90.3738,-681.8721 184.1572,-561.2 99,-561.2"/>
<polygon fill="#000000" stroke="#000000" points="229.2626,-781.188 229.1376,-789.187 227.5378,-789.162 227.6628,-781.163 229.2626,-781.188"/>
<polyline fill="none" stroke="#000000" points="230,-785.2 226.0005,-785.1375 "/>
<ellipse fill="none" stroke="#000000" cx="222.8009" cy="-785.0875" rx="3.2" ry="3.2"/>
</g>
<!-- lrs_line -->
<g id="node3" class="node">
<title>lrs_line</title>
<g id="a_node3"><a xlink:href="../../tables/lrs_line.html" xlink:title="lrs_line" target="_top">
<polygon fill="#ffffff" stroke="transparent" points="227.5,-511.7 227.5,-572.7 304.5,-572.7 304.5,-511.7 227.5,-511.7"/>
<polygon fill="#f5f5f5" stroke="transparent" points="228,-549.2 228,-572.2 305,-572.2 305,-549.2 228,-549.2"/>
<polygon fill="none" stroke="#000000" points="228,-549.2 228,-572.2 305,-572.2 305,-549.2 228,-549.2"/>
<text text-anchor="start" x="232.5854" y="-558.3" font-family="Helvetica,sans-Serif" font-weight="bold" font-size="11.00" fill="#000000">lrs_line</text>
<text text-anchor="start" x="270.5219" y="-557.3" font-family="Helvetica,sans-Serif" font-size="11.00" fill="#000000">[table]</text>
<polygon fill="none" stroke="#000000" points="228,-530.2 228,-549.2 305,-549.2 305,-530.2 228,-530.2"/>
<text text-anchor="start" x="231" y="-536.3" font-family="Helvetica,sans-Serif" font-size="11.00" fill="#000000">...</text>
<polygon fill="#ffffff" stroke="transparent" points="228,-511.2 228,-530.2 252,-530.2 252,-511.2 228,-511.2"/>
<polygon fill="none" stroke="#000000" points="228,-511.2 228,-530.2 252,-530.2 252,-511.2 228,-511.2"/>
<text text-anchor="start" x="231" y="-517.3" font-family="Helvetica,sans-Serif" font-size="11.00" fill="#000000">&lt; 4</text>
<polygon fill="#ffffff" stroke="transparent" points="252,-511.2 252,-530.2 291,-530.2 291,-511.2 252,-511.2"/>
<polygon fill="none" stroke="#000000" points="252,-511.2 252,-530.2 291,-530.2 291,-511.2 252,-511.2"/>
<text text-anchor="start" x="255.6105" y="-517.3" font-family="Helvetica,sans-Serif" font-size="11.00" fill="#000000">0 rows</text>
<polygon fill="#ffffff" stroke="transparent" points="291,-511.2 291,-530.2 305,-530.2 305,-511.2 291,-511.2"/>
<polygon fill="none" stroke="#000000" points="291,-511.2 291,-530.2 305,-530.2 305,-511.2 291,-511.2"/>
<text text-anchor="start" x="295.8862" y="-517.3" font-family="Helvetica,sans-Serif" font-size="11.00" fill="#000000"> &#160;</text>
</a>
</g>
</g>
<!-- lrs_line&#45;&gt;estradas -->
<g id="edge3" class="edge">
<title>lrs_line:w&#45;&gt;estradas:e</title>
<path fill="none" stroke="#000000" d="M213.3592,-539.7008C167.1937,-542.9755 151.9357,-561.2 99,-561.2"/>
<polygon fill="#000000" stroke="#000000" points="220.0047,-539.4736 228.1231,-542.7979 224.0023,-539.3368 228,-539.2 228,-539.2 228,-539.2 224.0023,-539.3368 227.8769,-535.6021 220.0047,-539.4736 220.0047,-539.4736"/>
<ellipse fill="none" stroke="#000000" cx="216.8065" cy="-539.583" rx="3.2" ry="3.2"/>
</g>
<!-- estado -->
<g id="node4" class="node">
<title>estado</title>
<g id="a_node4"><a xlink:href="../../tables/estado.html" xlink:title="estado" target="_top">
<polygon fill="#ffffff" stroke="transparent" points="17.5,-408.7 17.5,-491.7 94.5,-491.7 94.5,-408.7 17.5,-408.7"/>
<polygon fill="#f5f5f5" stroke="transparent" points="18,-468.2 18,-491.2 95,-491.2 95,-468.2 18,-468.2"/>
<polygon fill="none" stroke="#000000" points="18,-468.2 18,-491.2 95,-491.2 95,-468.2 18,-468.2"/>
<text text-anchor="start" x="23" y="-477.3" font-family="Helvetica,sans-Serif" font-weight="bold" font-size="11.00" fill="#000000">estado</text>
<text text-anchor="start" x="60.5219" y="-476.3" font-family="Helvetica,sans-Serif" font-size="11.00" fill="#000000">[table]</text>
<polygon fill="none" stroke="#000000" points="18,-446.2 18,-468.2 95,-468.2 95,-446.2 18,-446.2"/>
<image xlink:href="../../images/primaryKeys.png" width="11px" height="12px" preserveAspectRatio="xMinYMin meet" x="23" y="-463.2"/>
<text text-anchor="start" x="38" y="-453.3" font-family="Helvetica,sans-Serif" font-size="11.00" fill="#000000">id</text>
<polygon fill="none" stroke="#000000" points="18,-427.2 18,-446.2 95,-446.2 95,-427.2 18,-427.2"/>
<text text-anchor="start" x="21" y="-433.3" font-family="Helvetica,sans-Serif" font-size="11.00" fill="#000000">...</text>
<polygon fill="#ffffff" stroke="transparent" points="18,-408.2 18,-427.2 33,-427.2 33,-408.2 18,-408.2"/>
<polygon fill="none" stroke="#000000" points="18,-408.2 18,-427.2 33,-427.2 33,-408.2 18,-408.2"/>
<text text-anchor="start" x="21" y="-414.3" font-family="Helvetica,sans-Serif" font-size="11.00" fill="#000000"> &#160;</text>
<polygon fill="#ffffff" stroke="transparent" points="33,-408.2 33,-427.2 72,-427.2 72,-408.2 33,-408.2"/>
<polygon fill="none" stroke="#000000" points="33,-408.2 33,-427.2 72,-427.2 72,-408.2 33,-408.2"/>
<text text-anchor="start" x="36.6105" y="-414.3" font-family="Helvetica,sans-Serif" font-size="11.00" fill="#000000">0 rows</text>
<polygon fill="#ffffff" stroke="transparent" points="72,-408.2 72,-427.2 95,-427.2 95,-408.2 72,-408.2"/>
<polygon fill="none" stroke="#000000" points="72,-408.2 72,-427.2 95,-427.2 95,-408.2 72,-408.2"/>
<text text-anchor="start" x="76.4053" y="-414.3" font-family="Helvetica,sans-Serif" font-size="11.00" fill="#000000">4 &gt;</text>
</a>
</g>
</g>
<!-- lrs_line&#45;&gt;estado -->
<g id="edge2" class="edge">
<title>lrs_line:w&#45;&gt;estado:e</title>
<path fill="none" stroke="#000000" d="M213.4022,-538.3805C184.7471,-534.8628 174.5156,-520.3485 145,-501.2 120.1667,-485.0892 124.6015,-457.2 95,-457.2"/>
<polygon fill="#000000" stroke="#000000" points="220.0126,-538.7515 227.7982,-542.7943 224.0063,-538.9758 228,-539.2 228,-539.2 228,-539.2 224.0063,-538.9758 228.2018,-535.6057 220.0126,-538.7515 220.0126,-538.7515"/>
<ellipse fill="none" stroke="#000000" cx="216.8176" cy="-538.5721" rx="3.2" ry="3.2"/>
</g>
<!-- lado -->
<g id="node5" class="node">
<title>lado</title>
<g id="a_node5"><a xlink:href="../../tables/lado.html" xlink:title="lado" target="_top">
<polygon fill="#ffffff" stroke="transparent" points="17.5,-304.7 17.5,-387.7 94.5,-387.7 94.5,-304.7 17.5,-304.7"/>
<polygon fill="#f5f5f5" stroke="transparent" points="18,-364.2 18,-387.2 95,-387.2 95,-364.2 18,-364.2"/>
<polygon fill="none" stroke="#000000" points="18,-364.2 18,-387.2 95,-387.2 95,-364.2 18,-364.2"/>
<text text-anchor="start" x="23" y="-373.3" font-family="Helvetica,sans-Serif" font-weight="bold" font-size="11.00" fill="#000000">lado</text>
<text text-anchor="start" x="60.0437" y="-372.3" font-family="Helvetica,sans-Serif" font-size="11.00" fill="#000000">[table]</text>
<polygon fill="none" stroke="#000000" points="18,-342.2 18,-364.2 95,-364.2 95,-342.2 18,-342.2"/>
<image xlink:href="../../images/primaryKeys.png" width="11px" height="12px" preserveAspectRatio="xMinYMin meet" x="23" y="-359.2"/>
<text text-anchor="start" x="38" y="-349.3" font-family="Helvetica,sans-Serif" font-size="11.00" fill="#000000">id</text>
<polygon fill="none" stroke="#000000" points="18,-323.2 18,-342.2 95,-342.2 95,-323.2 18,-323.2"/>
<text text-anchor="start" x="21" y="-329.3" font-family="Helvetica,sans-Serif" font-size="11.00" fill="#000000">...</text>
<polygon fill="#ffffff" stroke="transparent" points="18,-304.2 18,-323.2 33,-323.2 33,-304.2 18,-304.2"/>
<polygon fill="none" stroke="#000000" points="18,-304.2 18,-323.2 33,-323.2 33,-304.2 18,-304.2"/>
<text text-anchor="start" x="21" y="-310.3" font-family="Helvetica,sans-Serif" font-size="11.00" fill="#000000"> &#160;</text>
<polygon fill="#ffffff" stroke="transparent" points="33,-304.2 33,-323.2 72,-323.2 72,-304.2 33,-304.2"/>
<polygon fill="none" stroke="#000000" points="33,-304.2 33,-323.2 72,-323.2 72,-304.2 33,-304.2"/>
<text text-anchor="start" x="36.6105" y="-310.3" font-family="Helvetica,sans-Serif" font-size="11.00" fill="#000000">0 rows</text>
<polygon fill="#ffffff" stroke="transparent" points="72,-304.2 72,-323.2 95,-323.2 95,-304.2 72,-304.2"/>
<polygon fill="none" stroke="#000000" points="72,-304.2 72,-323.2 95,-323.2 95,-304.2 72,-304.2"/>
<text text-anchor="start" x="76.4053" y="-310.3" font-family="Helvetica,sans-Serif" font-size="11.00" fill="#000000">4 &gt;</text>
</a>
</g>
</g>
<!-- lrs_line&#45;&gt;lado -->
<g id="edge4" class="edge">
<title>lrs_line:w&#45;&gt;lado:e</title>
<path fill="none" stroke="#000000" d="M213.4819,-538.7863C183.2424,-536.8499 168.456,-527.6353 145,-501.2 98.9193,-449.2662 164.4301,-353.2 95,-353.2"/>
<polygon fill="#000000" stroke="#000000" points="220.0032,-538.9721 227.8974,-542.7985 224.0016,-539.086 228,-539.2 228,-539.2 228,-539.2 224.0016,-539.086 228.1026,-535.6015 220.0032,-538.9721 220.0032,-538.9721"/>
<ellipse fill="none" stroke="#000000" cx="216.8045" cy="-538.8809" rx="3.2" ry="3.2"/>
</g>
<!-- lrs_node -->
<g id="node6" class="node">
<title>lrs_node</title>
<g id="a_node6"><a xlink:href="../../tables/lrs_node.html" xlink:title="lrs_node" target="_top">
<polygon fill="#ffffff" stroke="transparent" points="223.5,-429.7 223.5,-490.7 308.5,-490.7 308.5,-429.7 223.5,-429.7"/>
<polygon fill="#f5f5f5" stroke="transparent" points="224,-467.2 224,-490.2 309,-490.2 309,-467.2 224,-467.2"/>
<polygon fill="none" stroke="#000000" points="224,-467.2 224,-490.2 309,-490.2 309,-467.2 224,-467.2"/>
<text text-anchor="start" x="228.9114" y="-476.3" font-family="Helvetica,sans-Serif" font-weight="bold" font-size="11.00" fill="#000000">lrs_node</text>
<text text-anchor="start" x="274.5219" y="-475.3" font-family="Helvetica,sans-Serif" font-size="11.00" fill="#000000">[table]</text>
<polygon fill="none" stroke="#000000" points="224,-448.2 224,-467.2 309,-467.2 309,-448.2 224,-448.2"/>
<text text-anchor="start" x="227" y="-454.3" font-family="Helvetica,sans-Serif" font-size="11.00" fill="#000000">...</text>
<polygon fill="#ffffff" stroke="transparent" points="224,-429.2 224,-448.2 252,-448.2 252,-429.2 224,-429.2"/>
<polygon fill="none" stroke="#000000" points="224,-429.2 224,-448.2 252,-448.2 252,-429.2 224,-429.2"/>
<text text-anchor="start" x="227" y="-435.3" font-family="Helvetica,sans-Serif" font-size="11.00" fill="#000000">&lt; 4</text>
<polygon fill="#ffffff" stroke="transparent" points="252,-429.2 252,-448.2 293,-448.2 293,-429.2 252,-429.2"/>
<polygon fill="none" stroke="#000000" points="252,-429.2 252,-448.2 293,-448.2 293,-429.2 252,-429.2"/>
<text text-anchor="start" x="257.6105" y="-435.3" font-family="Helvetica,sans-Serif" font-size="11.00" fill="#000000">0 rows</text>
<polygon fill="#ffffff" stroke="transparent" points="293,-429.2 293,-448.2 309,-448.2 309,-429.2 293,-429.2"/>
<polygon fill="none" stroke="#000000" points="293,-429.2 293,-448.2 309,-448.2 309,-429.2 293,-429.2"/>
<text text-anchor="start" x="299.8862" y="-435.3" font-family="Helvetica,sans-Serif" font-size="11.00" fill="#000000"> &#160;</text>
</a>
</g>
</g>
<!-- lrs_node&#45;&gt;estradas -->
<g id="edge6" class="edge">
<title>lrs_node:w&#45;&gt;estradas:e</title>
<path fill="none" stroke="#000000" d="M209.5433,-458.1166C181.1917,-462.0599 171.3748,-478.4178 145,-501.2 119.5712,-523.165 132.6019,-561.2 99,-561.2"/>
<polygon fill="#000000" stroke="#000000" points="216.016,-457.7063 224.2278,-460.7928 220.008,-457.4531 224,-457.2 224,-457.2 224,-457.2 220.008,-457.4531 223.7722,-453.6072 216.016,-457.7063 216.016,-457.7063"/>
<ellipse fill="none" stroke="#000000" cx="212.8224" cy="-457.9088" rx="3.2" ry="3.2"/>
</g>
<!-- lrs_node&#45;&gt;estado -->
<g id="edge5" class="edge">
<title>lrs_node:w&#45;&gt;estado:e</title>
<path fill="none" stroke="#000000" d="M209.5258,-457.2C163.7441,-457.2 147.1823,-457.2 95,-457.2"/>
<polygon fill="#000000" stroke="#000000" points="216,-457.2001 224,-460.8 220,-457.2 224,-457.2 224,-457.2 224,-457.2 220,-457.2 224,-453.6 216,-457.2001 216,-457.2001"/>
<ellipse fill="none" stroke="#000000" cx="212.8" cy="-457.2001" rx="3.2" ry="3.2"/>
</g>
<!-- lrs_node&#45;&gt;lado -->
<g id="edge7" class="edge">
<title>lrs_node:w&#45;&gt;lado:e</title>
<path fill="none" stroke="#000000" d="M209.5244,-456.4572C181.9587,-453.3413 171.039,-440.4905 145,-419.2 116.5104,-395.9059 131.8004,-353.2 95,-353.2"/>
<polygon fill="#000000" stroke="#000000" points="216.0105,-456.79 223.8155,-460.7953 220.0053,-456.995 224,-457.2 224,-457.2 224,-457.2 220.0053,-456.995 224.1845,-453.6047 216.0105,-456.79 216.0105,-456.79"/>
<ellipse fill="none" stroke="#000000" cx="212.8147" cy="-456.626" rx="3.2" ry="3.2"/>
</g>
<!-- patologias -->
<g id="node7" class="node">
<title>patologias</title>
<g id="a_node7"><a xlink:href="../../tables/patologias.html" xlink:title="patologias" target="_top">
<polygon fill="#ffffff" stroke="transparent" points="219.5,-675.7 219.5,-736.7 312.5,-736.7 312.5,-675.7 219.5,-675.7"/>
<polygon fill="#f5f5f5" stroke="transparent" points="220,-713.2 220,-736.2 313,-736.2 313,-713.2 220,-713.2"/>
<polygon fill="none" stroke="#000000" points="220,-713.2 220,-736.2 313,-736.2 313,-713.2 220,-713.2"/>
<text text-anchor="start" x="224.936" y="-722.3" font-family="Helvetica,sans-Serif" font-weight="bold" font-size="11.00" fill="#000000">patologias</text>
<text text-anchor="start" x="278.5219" y="-721.3" font-family="Helvetica,sans-Serif" font-size="11.00" fill="#000000">[table]</text>
<polygon fill="none" stroke="#000000" points="220,-694.2 220,-713.2 313,-713.2 313,-694.2 220,-694.2"/>
<text text-anchor="start" x="223" y="-700.3" font-family="Helvetica,sans-Serif" font-size="11.00" fill="#000000">...</text>
<polygon fill="#ffffff" stroke="transparent" points="220,-675.2 220,-694.2 252,-694.2 252,-675.2 220,-675.2"/>
<polygon fill="none" stroke="#000000" points="220,-675.2 220,-694.2 252,-694.2 252,-675.2 220,-675.2"/>
<text text-anchor="start" x="223" y="-681.3" font-family="Helvetica,sans-Serif" font-size="11.00" fill="#000000">&lt; 2</text>
<polygon fill="#ffffff" stroke="transparent" points="252,-675.2 252,-694.2 295,-694.2 295,-675.2 252,-675.2"/>
<polygon fill="none" stroke="#000000" points="252,-675.2 252,-694.2 295,-694.2 295,-675.2 252,-675.2"/>
<text text-anchor="start" x="259.6105" y="-681.3" font-family="Helvetica,sans-Serif" font-size="11.00" fill="#000000">0 rows</text>
<polygon fill="#ffffff" stroke="transparent" points="295,-675.2 295,-694.2 313,-694.2 313,-675.2 295,-675.2"/>
<polygon fill="none" stroke="#000000" points="295,-675.2 295,-694.2 313,-694.2 313,-675.2 295,-675.2"/>
<text text-anchor="start" x="303.8862" y="-681.3" font-family="Helvetica,sans-Serif" font-size="11.00" fill="#000000"> &#160;</text>
</a>
</g>
</g>
<!-- patologias&#45;&gt;estradas -->
<g id="edge8" class="edge">
<title>patologias:w&#45;&gt;estradas:e</title>
<path fill="none" stroke="#000000" d="M205.2743,-702.5013C178.9004,-699.7127 167.0026,-688.3898 145,-665.2 110.2124,-628.5354 149.5418,-561.2 99,-561.2"/>
<polygon fill="#000000" stroke="#000000" points="212.009,-702.8208 219.8294,-706.796 216.0045,-703.0104 220,-703.2 220,-703.2 220,-703.2 216.0045,-703.0104 220.1706,-699.604 212.009,-702.8208 212.009,-702.8208"/>
<ellipse fill="none" stroke="#000000" cx="208.8126" cy="-702.6691" rx="3.2" ry="3.2"/>
</g>
<!-- rails -->
<g id="node8" class="node">
<title>rails</title>
<g id="a_node8"><a xlink:href="../../tables/rails.html" xlink:title="rails" target="_top">
<polygon fill="#ffffff" stroke="transparent" points="230.5,-347.7 230.5,-408.7 301.5,-408.7 301.5,-347.7 230.5,-347.7"/>
<polygon fill="#f5f5f5" stroke="transparent" points="231,-385.2 231,-408.2 302,-408.2 302,-385.2 231,-385.2"/>
<polygon fill="none" stroke="#000000" points="231,-385.2 231,-408.2 302,-408.2 302,-385.2 231,-385.2"/>
<text text-anchor="start" x="236" y="-394.3" font-family="Helvetica,sans-Serif" font-weight="bold" font-size="11.00" fill="#000000">rails</text>
<text text-anchor="start" x="267.0437" y="-393.3" font-family="Helvetica,sans-Serif" font-size="11.00" fill="#000000">[table]</text>
<polygon fill="none" stroke="#000000" points="231,-366.2 231,-385.2 302,-385.2 302,-366.2 231,-366.2"/>
<text text-anchor="start" x="234" y="-372.3" font-family="Helvetica,sans-Serif" font-size="11.00" fill="#000000">...</text>
<polygon fill="#ffffff" stroke="transparent" points="231,-347.2 231,-366.2 252,-366.2 252,-347.2 231,-347.2"/>
<polygon fill="none" stroke="#000000" points="231,-347.2 231,-366.2 252,-366.2 252,-347.2 231,-347.2"/>
<text text-anchor="start" x="233.7027" y="-353.3" font-family="Helvetica,sans-Serif" font-size="11.00" fill="#000000">&lt; 3</text>
<polygon fill="#ffffff" stroke="transparent" points="252,-347.2 252,-366.2 290,-366.2 290,-347.2 252,-347.2"/>
<polygon fill="none" stroke="#000000" points="252,-347.2 252,-366.2 290,-366.2 290,-347.2 252,-347.2"/>
<text text-anchor="start" x="254.8053" y="-353.3" font-family="Helvetica,sans-Serif" font-size="11.00" fill="#000000">0 rows</text>
<polygon fill="#ffffff" stroke="transparent" points="290,-347.2 290,-366.2 302,-366.2 302,-347.2 290,-347.2"/>
<polygon fill="none" stroke="#000000" points="290,-347.2 290,-366.2 302,-366.2 302,-347.2 290,-347.2"/>
<text text-anchor="start" x="292.9431" y="-353.3" font-family="Helvetica,sans-Serif" font-size="11.00" fill="#000000"> &#160;</text>
</a>
</g>
</g>
<!-- rails&#45;&gt;estradas -->
<g id="edge10" class="edge">
<title>rails:w&#45;&gt;estradas:e</title>
<path fill="none" stroke="#000000" d="M216.5502,-375.7157C184.1936,-378.2541 169.4705,-390.4746 145,-419.2 101.98,-469.7002 165.3399,-561.2 99,-561.2"/>
<polygon fill="#000000" stroke="#000000" points="223.0051,-375.4854 231.1284,-378.7977 227.0025,-375.3427 231,-375.2 231,-375.2 231,-375.2 227.0025,-375.3427 230.8716,-371.6023 223.0051,-375.4854 223.0051,-375.4854"/>
<ellipse fill="none" stroke="#000000" cx="219.8071" cy="-375.5995" rx="3.2" ry="3.2"/>
</g>
<!-- rails&#45;&gt;estado -->
<g id="edge9" class="edge">
<title>rails:w&#45;&gt;estado:e</title>
<path fill="none" stroke="#000000" d="M216.4685,-376.1531C185.9225,-380.5126 176.8016,-399.2005 145,-419.2 121.3723,-434.0591 122.9117,-457.2 95,-457.2"/>
<polygon fill="#000000" stroke="#000000" points="223.0172,-375.7237 231.2356,-378.7923 227.0086,-375.4618 231,-375.2 231,-375.2 231,-375.2 227.0086,-375.4618 230.7644,-371.6077 223.0172,-375.7237 223.0172,-375.7237"/>
<ellipse fill="none" stroke="#000000" cx="219.824" cy="-375.9331" rx="3.2" ry="3.2"/>
</g>
<!-- rails&#45;&gt;lado -->
<g id="edge11" class="edge">
<title>rails:w&#45;&gt;lado:e</title>
<path fill="none" stroke="#000000" d="M216.5255,-374.7605C167.1592,-371.6599 151.0878,-353.2 95,-353.2"/>
<polygon fill="#000000" stroke="#000000" points="223.0037,-374.9572 230.8907,-378.7983 227.0018,-375.0786 231,-375.2 231,-375.2 231,-375.2 227.0018,-375.0786 231.1093,-371.6017 223.0037,-374.9572 223.0037,-374.9572"/>
<ellipse fill="none" stroke="#000000" cx="219.8052" cy="-374.86" rx="3.2" ry="3.2"/>
</g>
<!-- trocos -->
<g id="node9" class="node">
<title>trocos</title>
<g id="a_node9"><a xlink:href="../../tables/trocos.html" xlink:title="trocos" target="_top">
<polygon fill="#ffffff" stroke="transparent" points="226,-593.7 226,-654.7 306,-654.7 306,-593.7 226,-593.7"/>
<polygon fill="#f5f5f5" stroke="transparent" points="226,-631.2 226,-654.2 306,-654.2 306,-631.2 226,-631.2"/>
<polygon fill="none" stroke="#000000" points="226,-631.2 226,-654.2 306,-654.2 306,-631.2 226,-631.2"/>
<text text-anchor="start" x="231" y="-640.3" font-family="Helvetica,sans-Serif" font-weight="bold" font-size="11.00" fill="#000000">trocos</text>
<text text-anchor="start" x="271.0437" y="-639.3" font-family="Helvetica,sans-Serif" font-size="11.00" fill="#000000">[table]</text>
<polygon fill="none" stroke="#000000" points="226,-612.2 226,-631.2 306,-631.2 306,-612.2 226,-612.2"/>
<text text-anchor="start" x="229" y="-618.3" font-family="Helvetica,sans-Serif" font-size="11.00" fill="#000000">...</text>
<polygon fill="#ffffff" stroke="transparent" points="226,-593.2 226,-612.2 247,-612.2 247,-593.2 226,-593.2"/>
<polygon fill="none" stroke="#000000" points="226,-593.2 226,-612.2 247,-612.2 247,-593.2 226,-593.2"/>
<text text-anchor="start" x="228.7027" y="-599.3" font-family="Helvetica,sans-Serif" font-size="11.00" fill="#000000">&lt; 2</text>
<polygon fill="#ffffff" stroke="transparent" points="247,-593.2 247,-612.2 285,-612.2 285,-593.2 247,-593.2"/>
<polygon fill="none" stroke="#000000" points="247,-593.2 247,-612.2 285,-612.2 285,-593.2 247,-593.2"/>
<text text-anchor="start" x="249.8053" y="-599.3" font-family="Helvetica,sans-Serif" font-size="11.00" fill="#000000">0 rows</text>
<polygon fill="#ffffff" stroke="transparent" points="285,-593.2 285,-612.2 306,-612.2 306,-593.2 285,-593.2"/>
<polygon fill="none" stroke="#000000" points="285,-593.2 285,-612.2 306,-612.2 306,-593.2 285,-593.2"/>
<text text-anchor="start" x="287.7027" y="-599.3" font-family="Helvetica,sans-Serif" font-size="11.00" fill="#000000">1 &gt;</text>
</a>
</g>
</g>
<!-- trocos&#45;&gt;estradas -->
<g id="edge12" class="edge">
<title>trocos:w&#45;&gt;estradas:e</title>
<path fill="none" stroke="#000000" d="M211.4566,-620.0874C184.2138,-615.538 176.0236,-597.8956 145,-583.2 124.5193,-573.4985 121.6623,-561.2 99,-561.2"/>
<polygon fill="#000000" stroke="#000000" points="218.0233,-620.5897 225.7254,-624.7895 222.0117,-620.8949 226,-621.2 226,-621.2 226,-621.2 222.0117,-620.8949 226.2746,-617.6105 218.0233,-620.5897 218.0233,-620.5897"/>
<ellipse fill="none" stroke="#000000" cx="214.8326" cy="-620.3456" rx="3.2" ry="3.2"/>
</g>
<!-- valetas -->
<g id="node10" class="node">
<title>valetas</title>
<g id="a_node10"><a xlink:href="../../tables/valetas.html" xlink:title="valetas" target="_top">
<polygon fill="#ffffff" stroke="transparent" points="153,-38.2 153,-326.2 379,-326.2 379,-38.2 153,-38.2"/>
<polygon fill="#f5f5f5" stroke="transparent" points="155,-301.2 155,-324.2 377,-324.2 377,-301.2 155,-301.2"/>
<polygon fill="none" stroke="#000000" points="155,-301.2 155,-324.2 377,-324.2 377,-301.2 155,-301.2"/>
<text text-anchor="start" x="160" y="-310.3" font-family="Helvetica,sans-Serif" font-weight="bold" font-size="11.00" fill="#000000">valetas</text>
<text text-anchor="start" x="342.0437" y="-309.3" font-family="Helvetica,sans-Serif" font-size="11.00" fill="#000000">[table]</text>
<polygon fill="none" stroke="#000000" points="155,-279.2 155,-301.2 258,-301.2 258,-279.2 155,-279.2"/>
<image xlink:href="../../images/primaryKeys.png" width="11px" height="12px" preserveAspectRatio="xMinYMin meet" x="160" y="-296.2"/>
<text text-anchor="start" x="175" y="-286.3" font-family="Helvetica,sans-Serif" font-size="11.00" fill="#000000">id</text>
<polygon fill="none" stroke="#000000" points="258,-279.2 258,-301.2 377,-301.2 377,-279.2 258,-279.2"/>
<text text-anchor="start" x="261" y="-286.9" font-family="Helvetica,sans-Serif" font-size="11.00" fill="#000000">serial[10]</text>
<polygon fill="none" stroke="#000000" points="155,-257.2 155,-279.2 258,-279.2 258,-257.2 155,-257.2"/>
<text text-anchor="start" x="175" y="-264.3" font-family="Helvetica,sans-Serif" font-size="11.00" fill="#000000">geom</text>
<polygon fill="none" stroke="#000000" points="258,-257.2 258,-279.2 377,-279.2 377,-257.2 258,-257.2"/>
<text text-anchor="start" x="260.9485" y="-264.9" font-family="Helvetica,sans-Serif" font-size="11.00" fill="#000000">geometry[2147483647]</text>
<polygon fill="none" stroke="#000000" points="155,-235.2 155,-257.2 258,-257.2 258,-235.2 155,-235.2"/>
<text text-anchor="start" x="175" y="-242.3" font-family="Helvetica,sans-Serif" font-size="11.00" fill="#000000">start_m</text>
<polygon fill="none" stroke="#000000" points="258,-235.2 258,-257.2 377,-257.2 377,-235.2 258,-235.2"/>
<text text-anchor="start" x="261" y="-242.9" font-family="Helvetica,sans-Serif" font-size="11.00" fill="#000000">float8[17,17]</text>
<polygon fill="none" stroke="#000000" points="155,-213.2 155,-235.2 258,-235.2 258,-213.2 155,-213.2"/>
<text text-anchor="start" x="175" y="-220.3" font-family="Helvetica,sans-Serif" font-size="11.00" fill="#000000">end_m</text>
<polygon fill="none" stroke="#000000" points="258,-213.2 258,-235.2 377,-235.2 377,-213.2 258,-213.2"/>
<text text-anchor="start" x="261" y="-220.9" font-family="Helvetica,sans-Serif" font-size="11.00" fill="#000000">float8[17,17]</text>
<polygon fill="none" stroke="#000000" points="155,-191.2 155,-213.2 258,-213.2 258,-191.2 155,-191.2"/>
<text text-anchor="start" x="175" y="-198.3" font-family="Helvetica,sans-Serif" font-size="11.00" fill="#000000">dimensoes</text>
<polygon fill="none" stroke="#000000" points="258,-191.2 258,-213.2 377,-213.2 377,-191.2 258,-191.2"/>
<text text-anchor="start" x="261" y="-198.9" font-family="Helvetica,sans-Serif" font-size="11.00" fill="#000000">text[2147483647]</text>
<polygon fill="none" stroke="#000000" points="155,-169.2 155,-191.2 258,-191.2 258,-169.2 155,-169.2"/>
<text text-anchor="start" x="175" y="-176.3" font-family="Helvetica,sans-Serif" font-size="11.00" fill="#000000">drenos</text>
<polygon fill="none" stroke="#000000" points="258,-169.2 258,-191.2 377,-191.2 377,-169.2 258,-169.2"/>
<text text-anchor="start" x="261" y="-176.9" font-family="Helvetica,sans-Serif" font-size="11.00" fill="#000000">bool[1]</text>
<polygon fill="none" stroke="#000000" points="155,-147.2 155,-169.2 258,-169.2 258,-147.2 155,-147.2"/>
<text text-anchor="start" x="175" y="-154.3" font-family="Helvetica,sans-Serif" font-size="11.00" fill="#000000">obs</text>
<polygon fill="none" stroke="#000000" points="258,-147.2 258,-169.2 377,-169.2 377,-147.2 258,-147.2"/>
<text text-anchor="start" x="261" y="-154.9" font-family="Helvetica,sans-Serif" font-size="11.00" fill="#000000">text[2147483647]</text>
<polygon fill="none" stroke="#000000" points="155,-125.2 155,-147.2 258,-147.2 258,-125.2 155,-125.2"/>
<image xlink:href="../../images/foreignKeys.png" width="11px" height="12px" preserveAspectRatio="xMinYMin meet" x="160" y="-142.2"/>
<text text-anchor="start" x="175" y="-132.3" font-family="Helvetica,sans-Serif" font-size="11.00" fill="#000000">id_estradas</text>
<polygon fill="none" stroke="#000000" points="258,-125.2 258,-147.2 377,-147.2 377,-125.2 258,-125.2"/>
<text text-anchor="start" x="261" y="-132.9" font-family="Helvetica,sans-Serif" font-size="11.00" fill="#000000">int4[10]</text>
<polygon fill="none" stroke="#000000" points="155,-103.2 155,-125.2 258,-125.2 258,-103.2 155,-103.2"/>
<image xlink:href="../../images/foreignKeys.png" width="11px" height="12px" preserveAspectRatio="xMinYMin meet" x="160" y="-120.2"/>
<text text-anchor="start" x="175" y="-110.3" font-family="Helvetica,sans-Serif" font-size="11.00" fill="#000000">id_tipo_valeta</text>
<polygon fill="none" stroke="#000000" points="258,-103.2 258,-125.2 377,-125.2 377,-103.2 258,-103.2"/>
<text text-anchor="start" x="261" y="-110.9" font-family="Helvetica,sans-Serif" font-size="11.00" fill="#000000">int4[10]</text>
<polygon fill="none" stroke="#000000" points="155,-81.2 155,-103.2 258,-103.2 258,-81.2 155,-81.2"/>
<image xlink:href="../../images/foreignKeys.png" width="11px" height="12px" preserveAspectRatio="xMinYMin meet" x="160" y="-98.2"/>
<text text-anchor="start" x="175" y="-88.3" font-family="Helvetica,sans-Serif" font-size="11.00" fill="#000000">id_estado</text>
<polygon fill="none" stroke="#000000" points="258,-81.2 258,-103.2 377,-103.2 377,-81.2 258,-81.2"/>
<text text-anchor="start" x="261" y="-88.9" font-family="Helvetica,sans-Serif" font-size="11.00" fill="#000000">int4[10]</text>
<polygon fill="none" stroke="#000000" points="155,-59.2 155,-81.2 258,-81.2 258,-59.2 155,-59.2"/>
<image xlink:href="../../images/foreignKeys.png" width="11px" height="12px" preserveAspectRatio="xMinYMin meet" x="160" y="-76.2"/>
<text text-anchor="start" x="175" y="-66.3" font-family="Helvetica,sans-Serif" font-size="11.00" fill="#000000">id_lado</text>
<polygon fill="none" stroke="#000000" points="258,-59.2 258,-81.2 377,-81.2 377,-59.2 258,-59.2"/>
<text text-anchor="start" x="261" y="-66.9" font-family="Helvetica,sans-Serif" font-size="11.00" fill="#000000">int4[10]</text>
<polygon fill="#ffffff" stroke="transparent" points="155,-40.2 155,-59.2 198,-59.2 198,-40.2 155,-40.2"/>
<polygon fill="none" stroke="#000000" points="155,-40.2 155,-59.2 198,-59.2 198,-40.2 155,-40.2"/>
<text text-anchor="start" x="158" y="-46.3" font-family="Helvetica,sans-Serif" font-size="11.00" fill="#000000">&lt; 4</text>
<polygon fill="#ffffff" stroke="transparent" points="198,-40.2 198,-59.2 258,-59.2 258,-40.2 198,-40.2"/>
<polygon fill="none" stroke="#000000" points="198,-40.2 198,-59.2 258,-59.2 258,-40.2 198,-40.2"/>
<text text-anchor="start" x="222.6105" y="-46.3" font-family="Helvetica,sans-Serif" font-size="11.00" fill="#000000">0 rows</text>
<polygon fill="#ffffff" stroke="transparent" points="258,-40.2 258,-59.2 377,-59.2 377,-40.2 258,-40.2"/>
<polygon fill="none" stroke="#000000" points="258,-40.2 258,-59.2 377,-59.2 377,-40.2 258,-40.2"/>
<text text-anchor="start" x="358.4053" y="-46.3" font-family="Helvetica,sans-Serif" font-size="11.00" fill="#000000">0 &gt;</text>
<polygon fill="none" stroke="#000000" stroke-width="2" points="154,-39.2 154,-325.2 378,-325.2 378,-39.2 154,-39.2"/>
</a>
</g>
</g>
<!-- valetas&#45;&gt;estradas -->
<g id="edge14" class="edge">
<title>valetas:w&#45;&gt;estradas:e</title>
<path fill="none" stroke="#000000" d="M140.9411,-140.1359C74.2408,-182.9811 188.8652,-561.2 99,-561.2"/>
<polygon fill="#000000" stroke="#000000" points="147.2962,-138.3568 155.9706,-139.6667 151.1481,-137.2784 155,-136.2 155,-136.2 155,-136.2 151.1481,-137.2784 154.0294,-132.7333 147.2962,-138.3568 147.2962,-138.3568"/>
<ellipse fill="none" stroke="#000000" cx="144.2147" cy="-139.2195" rx="3.2" ry="3.2"/>
</g>
<!-- valetas&#45;&gt;estado -->
<g id="edge13" class="edge">
<title>valetas:w&#45;&gt;estado:e</title>
<path fill="none" stroke="#000000" d="M140.9836,-96.8149C85.843,-139.067 171.7411,-457.2 95,-457.2"/>
<polygon fill="#000000" stroke="#000000" points="147.4013,-94.7019 156.1259,-95.6194 151.2006,-93.451 155,-92.2 155,-92.2 155,-92.2 151.2006,-93.451 153.8741,-88.7806 147.4013,-94.7019 147.4013,-94.7019"/>
<ellipse fill="none" stroke="#000000" cx="144.3618" cy="-95.7027" rx="3.2" ry="3.2"/>
</g>
<!-- valetas&#45;&gt;lado -->
<g id="edge15" class="edge">
<title>valetas:w&#45;&gt;lado:e</title>
<path fill="none" stroke="#000000" d="M141.4567,-75.853C101.2943,-115.7391 153.8877,-353.2 95,-353.2"/>
<polygon fill="#000000" stroke="#000000" points="147.6173,-73.2816 156.3867,-73.5222 151.3087,-71.7408 155,-70.2 155,-70.2 155,-70.2 151.3087,-71.7408 153.6133,-66.8778 147.6173,-73.2816 147.6173,-73.2816"/>
<ellipse fill="none" stroke="#000000" cx="144.6642" cy="-74.5142" rx="3.2" ry="3.2"/>
</g>
<!-- tipo_valeta -->
<g id="node11" class="node">
<title>tipo_valeta</title>
<g id="a_node11"><a xlink:href="../../tables/tipo_valeta.html" xlink:title="tipo_valeta" target="_top">
<polygon fill="#ffffff" stroke="transparent" points="8,-65.7 8,-148.7 104,-148.7 104,-65.7 8,-65.7"/>
<polygon fill="#f5f5f5" stroke="transparent" points="8,-125.2 8,-148.2 104,-148.2 104,-125.2 8,-125.2"/>
<polygon fill="none" stroke="#000000" points="8,-125.2 8,-148.2 104,-148.2 104,-125.2 8,-125.2"/>
<text text-anchor="start" x="12.9075" y="-134.3" font-family="Helvetica,sans-Serif" font-weight="bold" font-size="11.00" fill="#000000">tipo_valeta</text>
<text text-anchor="start" x="69.5219" y="-133.3" font-family="Helvetica,sans-Serif" font-size="11.00" fill="#000000">[table]</text>
<polygon fill="none" stroke="#000000" points="8,-103.2 8,-125.2 104,-125.2 104,-103.2 8,-103.2"/>
<image xlink:href="../../images/primaryKeys.png" width="11px" height="12px" preserveAspectRatio="xMinYMin meet" x="13" y="-120.2"/>
<text text-anchor="start" x="33" y="-110.3" font-family="Helvetica,sans-Serif" font-size="11.00" fill="#000000">id</text>
<polygon fill="none" stroke="#000000" points="8,-84.2 8,-103.2 104,-103.2 104,-84.2 8,-84.2"/>
<text text-anchor="start" x="11" y="-90.3" font-family="Helvetica,sans-Serif" font-size="11.00" fill="#000000">...</text>
<polygon fill="#ffffff" stroke="transparent" points="8,-65.2 8,-84.2 32,-84.2 32,-65.2 8,-65.2"/>
<polygon fill="none" stroke="#000000" points="8,-65.2 8,-84.2 32,-84.2 32,-65.2 8,-65.2"/>
<text text-anchor="start" x="11" y="-71.3" font-family="Helvetica,sans-Serif" font-size="11.00" fill="#000000"> &#160;</text>
<polygon fill="#ffffff" stroke="transparent" points="32,-65.2 32,-84.2 76,-84.2 76,-65.2 32,-65.2"/>
<polygon fill="none" stroke="#000000" points="32,-65.2 32,-84.2 76,-84.2 76,-65.2 32,-65.2"/>
<text text-anchor="start" x="40.6105" y="-71.3" font-family="Helvetica,sans-Serif" font-size="11.00" fill="#000000">0 rows</text>
<polygon fill="#ffffff" stroke="transparent" points="76,-65.2 76,-84.2 104,-84.2 104,-65.2 76,-65.2"/>
<polygon fill="none" stroke="#000000" points="76,-65.2 76,-84.2 104,-84.2 104,-65.2 76,-65.2"/>
<text text-anchor="start" x="85.4053" y="-71.3" font-family="Helvetica,sans-Serif" font-size="11.00" fill="#000000">1 &gt;</text>
</a>
</g>
</g>
<!-- valetas&#45;&gt;tipo_valeta -->
<g id="edge16" class="edge">
<title>valetas:w&#45;&gt;tipo_valeta:e</title>
<path fill="none" stroke="#000000" d="M140.276,-114.2C128.2815,-114.2 120.8229,-114.2 104,-114.2"/>
<polygon fill="#000000" stroke="#000000" points="147,-114.2001 155,-117.8 151,-114.2 155,-114.2 155,-114.2 155,-114.2 151,-114.2 155,-110.6 147,-114.2001 147,-114.2001"/>
<ellipse fill="none" stroke="#000000" cx="143.8" cy="-114.2001" rx="3.2" ry="3.2"/>
</g>
</g>
</svg>
