<?xml version="1.0" encoding="UTF-8" standalone="no"?>
<!DOCTYPE svg PUBLIC "-//W3C//DTD SVG 1.1//EN"
 "http://www.w3.org/Graphics/SVG/1.1/DTD/svg11.dtd">
<!-- Generated by graphviz version 2.40.1 (20161225.0304)
 -->
<!-- Title: oneDegreeRelationshipsDiagram Pages: 1 -->
<svg width="395pt" height="478pt"
 viewBox="0.00 0.00 395.00 477.70" xmlns="http://www.w3.org/2000/svg" xmlns:xlink="http://www.w3.org/1999/xlink">
<g id="graph0" class="graph" transform="scale(1 1) rotate(0) translate(4 473.7)">
<title>oneDegreeRelationshipsDiagram</title>
<polygon fill="#ffffff" stroke="transparent" points="-4,4 -4,-473.7 391,-473.7 391,4 -4,4"/>
<text text-anchor="middle" x="72.4936" y="-7.3" font-family="Helvetica,sans-Serif" font-size="11.00" fill="#000000">Generated by SchemaSpy</text>
<!-- valetas -->
<g id="node1" class="node">
<title>valetas</title>
<g id="a_node1"><a xlink:href="../../tables/valetas.html" xlink:title="valetas" target="_top">
<polygon fill="#ffffff" stroke="transparent" points="153,-177.7 153,-465.7 379,-465.7 379,-177.7 153,-177.7"/>
<polygon fill="#f5f5f5" stroke="transparent" points="155,-440.7 155,-463.7 377,-463.7 377,-440.7 155,-440.7"/>
<polygon fill="none" stroke="#000000" points="155,-440.7 155,-463.7 377,-463.7 377,-440.7 155,-440.7"/>
<text text-anchor="start" x="160" y="-449.8" font-family="Helvetica,sans-Serif" font-weight="bold" font-size="11.00" fill="#000000">valetas</text>
<text text-anchor="start" x="342.0437" y="-448.8" font-family="Helvetica,sans-Serif" font-size="11.00" fill="#000000">[table]</text>
<polygon fill="none" stroke="#000000" points="155,-418.7 155,-440.7 258,-440.7 258,-418.7 155,-418.7"/>
<image xlink:href="../../images/primaryKeys.png" width="11px" height="12px" preserveAspectRatio="xMinYMin meet" x="160" y="-435.7"/>
<text text-anchor="start" x="175" y="-425.8" font-family="Helvetica,sans-Serif" font-size="11.00" fill="#000000">id</text>
<polygon fill="none" stroke="#000000" points="258,-418.7 258,-440.7 377,-440.7 377,-418.7 258,-418.7"/>
<text text-anchor="start" x="261" y="-426.4" font-family="Helvetica,sans-Serif" font-size="11.00" fill="#000000">serial[10]</text>
<polygon fill="none" stroke="#000000" points="155,-396.7 155,-418.7 258,-418.7 258,-396.7 155,-396.7"/>
<text text-anchor="start" x="175" y="-403.8" font-family="Helvetica,sans-Serif" font-size="11.00" fill="#000000">geom</text>
<polygon fill="none" stroke="#000000" points="258,-396.7 258,-418.7 377,-418.7 377,-396.7 258,-396.7"/>
<text text-anchor="start" x="260.9485" y="-404.4" font-family="Helvetica,sans-Serif" font-size="11.00" fill="#000000">geometry[2147483647]</text>
<polygon fill="none" stroke="#000000" points="155,-374.7 155,-396.7 258,-396.7 258,-374.7 155,-374.7"/>
<text text-anchor="start" x="175" y="-381.8" font-family="Helvetica,sans-Serif" font-size="11.00" fill="#000000">start_m</text>
<polygon fill="none" stroke="#000000" points="258,-374.7 258,-396.7 377,-396.7 377,-374.7 258,-374.7"/>
<text text-anchor="start" x="261" y="-382.4" font-family="Helvetica,sans-Serif" font-size="11.00" fill="#000000">float8[17,17]</text>
<polygon fill="none" stroke="#000000" points="155,-352.7 155,-374.7 258,-374.7 258,-352.7 155,-352.7"/>
<text text-anchor="start" x="175" y="-359.8" font-family="Helvetica,sans-Serif" font-size="11.00" fill="#000000">end_m</text>
<polygon fill="none" stroke="#000000" points="258,-352.7 258,-374.7 377,-374.7 377,-352.7 258,-352.7"/>
<text text-anchor="start" x="261" y="-360.4" font-family="Helvetica,sans-Serif" font-size="11.00" fill="#000000">float8[17,17]</text>
<polygon fill="none" stroke="#000000" points="155,-330.7 155,-352.7 258,-352.7 258,-330.7 155,-330.7"/>
<text text-anchor="start" x="175" y="-337.8" font-family="Helvetica,sans-Serif" font-size="11.00" fill="#000000">dimensoes</text>
<polygon fill="none" stroke="#000000" points="258,-330.7 258,-352.7 377,-352.7 377,-330.7 258,-330.7"/>
<text text-anchor="start" x="261" y="-338.4" font-family="Helvetica,sans-Serif" font-size="11.00" fill="#000000">text[2147483647]</text>
<polygon fill="none" stroke="#000000" points="155,-308.7 155,-330.7 258,-330.7 258,-308.7 155,-308.7"/>
<text text-anchor="start" x="175" y="-315.8" font-family="Helvetica,sans-Serif" font-size="11.00" fill="#000000">drenos</text>
<polygon fill="none" stroke="#000000" points="258,-308.7 258,-330.7 377,-330.7 377,-308.7 258,-308.7"/>
<text text-anchor="start" x="261" y="-316.4" font-family="Helvetica,sans-Serif" font-size="11.00" fill="#000000">bool[1]</text>
<polygon fill="none" stroke="#000000" points="155,-286.7 155,-308.7 258,-308.7 258,-286.7 155,-286.7"/>
<text text-anchor="start" x="175" y="-293.8" font-family="Helvetica,sans-Serif" font-size="11.00" fill="#000000">obs</text>
<polygon fill="none" stroke="#000000" points="258,-286.7 258,-308.7 377,-308.7 377,-286.7 258,-286.7"/>
<text text-anchor="start" x="261" y="-294.4" font-family="Helvetica,sans-Serif" font-size="11.00" fill="#000000">text[2147483647]</text>
<polygon fill="none" stroke="#000000" points="155,-264.7 155,-286.7 258,-286.7 258,-264.7 155,-264.7"/>
<image xlink:href="../../images/foreignKeys.png" width="11px" height="12px" preserveAspectRatio="xMinYMin meet" x="160" y="-281.7"/>
<text text-anchor="start" x="175" y="-271.8" font-family="Helvetica,sans-Serif" font-size="11.00" fill="#000000">id_estradas</text>
<polygon fill="none" stroke="#000000" points="258,-264.7 258,-286.7 377,-286.7 377,-264.7 258,-264.7"/>
<text text-anchor="start" x="261" y="-272.4" font-family="Helvetica,sans-Serif" font-size="11.00" fill="#000000">int4[10]</text>
<polygon fill="none" stroke="#000000" points="155,-242.7 155,-264.7 258,-264.7 258,-242.7 155,-242.7"/>
<image xlink:href="../../images/foreignKeys.png" width="11px" height="12px" preserveAspectRatio="xMinYMin meet" x="160" y="-259.7"/>
<text text-anchor="start" x="175" y="-249.8" font-family="Helvetica,sans-Serif" font-size="11.00" fill="#000000">id_tipo_valeta</text>
<polygon fill="none" stroke="#000000" points="258,-242.7 258,-264.7 377,-264.7 377,-242.7 258,-242.7"/>
<text text-anchor="start" x="261" y="-250.4" font-family="Helvetica,sans-Serif" font-size="11.00" fill="#000000">int4[10]</text>
<polygon fill="none" stroke="#000000" points="155,-220.7 155,-242.7 258,-242.7 258,-220.7 155,-220.7"/>
<image xlink:href="../../images/foreignKeys.png" width="11px" height="12px" preserveAspectRatio="xMinYMin meet" x="160" y="-237.7"/>
<text text-anchor="start" x="175" y="-227.8" font-family="Helvetica,sans-Serif" font-size="11.00" fill="#000000">id_estado</text>
<polygon fill="none" stroke="#000000" points="258,-220.7 258,-242.7 377,-242.7 377,-220.7 258,-220.7"/>
<text text-anchor="start" x="261" y="-228.4" font-family="Helvetica,sans-Serif" font-size="11.00" fill="#000000">int4[10]</text>
<polygon fill="none" stroke="#000000" points="155,-198.7 155,-220.7 258,-220.7 258,-198.7 155,-198.7"/>
<image xlink:href="../../images/foreignKeys.png" width="11px" height="12px" preserveAspectRatio="xMinYMin meet" x="160" y="-215.7"/>
<text text-anchor="start" x="175" y="-205.8" font-family="Helvetica,sans-Serif" font-size="11.00" fill="#000000">id_lado</text>
<polygon fill="none" stroke="#000000" points="258,-198.7 258,-220.7 377,-220.7 377,-198.7 258,-198.7"/>
<text text-anchor="start" x="261" y="-206.4" font-family="Helvetica,sans-Serif" font-size="11.00" fill="#000000">int4[10]</text>
<polygon fill="#ffffff" stroke="transparent" points="155,-179.7 155,-198.7 198,-198.7 198,-179.7 155,-179.7"/>
<polygon fill="none" stroke="#000000" points="155,-179.7 155,-198.7 198,-198.7 198,-179.7 155,-179.7"/>
<text text-anchor="start" x="158" y="-185.8" font-family="Helvetica,sans-Serif" font-size="11.00" fill="#000000">&lt; 4</text>
<polygon fill="#ffffff" stroke="transparent" points="198,-179.7 198,-198.7 258,-198.7 258,-179.7 198,-179.7"/>
<polygon fill="none" stroke="#000000" points="198,-179.7 198,-198.7 258,-198.7 258,-179.7 198,-179.7"/>
<text text-anchor="start" x="222.6105" y="-185.8" font-family="Helvetica,sans-Serif" font-size="11.00" fill="#000000">0 rows</text>
<polygon fill="#ffffff" stroke="transparent" points="258,-179.7 258,-198.7 377,-198.7 377,-179.7 258,-179.7"/>
<polygon fill="none" stroke="#000000" points="258,-179.7 258,-198.7 377,-198.7 377,-179.7 258,-179.7"/>
<text text-anchor="start" x="358.4053" y="-185.8" font-family="Helvetica,sans-Serif" font-size="11.00" fill="#000000">0 &gt;</text>
<polygon fill="none" stroke="#000000" stroke-width="2" points="154,-178.7 154,-464.7 378,-464.7 378,-178.7 154,-178.7"/>
</a>
</g>
</g>
<!-- estado -->
<g id="node2" class="node">
<title>estado</title>
<g id="a_node2"><a xlink:href="../../tables/estado.html" xlink:title="estado" target="_top">
<polygon fill="#ffffff" stroke="transparent" points="17.5,-142.2 17.5,-225.2 94.5,-225.2 94.5,-142.2 17.5,-142.2"/>
<polygon fill="#f5f5f5" stroke="transparent" points="18,-201.7 18,-224.7 95,-224.7 95,-201.7 18,-201.7"/>
<polygon fill="none" stroke="#000000" points="18,-201.7 18,-224.7 95,-224.7 95,-201.7 18,-201.7"/>
<text text-anchor="start" x="23" y="-210.8" font-family="Helvetica,sans-Serif" font-weight="bold" font-size="11.00" fill="#000000">estado</text>
<text text-anchor="start" x="60.5219" y="-209.8" font-family="Helvetica,sans-Serif" font-size="11.00" fill="#000000">[table]</text>
<polygon fill="none" stroke="#000000" points="18,-179.7 18,-201.7 95,-201.7 95,-179.7 18,-179.7"/>
<image xlink:href="../../images/primaryKeys.png" width="11px" height="12px" preserveAspectRatio="xMinYMin meet" x="23" y="-196.7"/>
<text text-anchor="start" x="38" y="-186.8" font-family="Helvetica,sans-Serif" font-size="11.00" fill="#000000">id</text>
<polygon fill="none" stroke="#000000" points="18,-160.7 18,-179.7 95,-179.7 95,-160.7 18,-160.7"/>
<text text-anchor="start" x="21" y="-166.8" font-family="Helvetica,sans-Serif" font-size="11.00" fill="#000000">...</text>
<polygon fill="#ffffff" stroke="transparent" points="18,-141.7 18,-160.7 33,-160.7 33,-141.7 18,-141.7"/>
<polygon fill="none" stroke="#000000" points="18,-141.7 18,-160.7 33,-160.7 33,-141.7 18,-141.7"/>
<text text-anchor="start" x="21" y="-147.8" font-family="Helvetica,sans-Serif" font-size="11.00" fill="#000000"> &#160;</text>
<polygon fill="#ffffff" stroke="transparent" points="33,-141.7 33,-160.7 72,-160.7 72,-141.7 33,-141.7"/>
<polygon fill="none" stroke="#000000" points="33,-141.7 33,-160.7 72,-160.7 72,-141.7 33,-141.7"/>
<text text-anchor="start" x="36.6105" y="-147.8" font-family="Helvetica,sans-Serif" font-size="11.00" fill="#000000">0 rows</text>
<polygon fill="#ffffff" stroke="transparent" points="72,-141.7 72,-160.7 95,-160.7 95,-141.7 72,-141.7"/>
<polygon fill="none" stroke="#000000" points="72,-141.7 72,-160.7 95,-160.7 95,-141.7 72,-141.7"/>
<text text-anchor="start" x="76.4053" y="-147.8" font-family="Helvetica,sans-Serif" font-size="11.00" fill="#000000">4 &gt;</text>
</a>
</g>
</g>
<!-- valetas&#45;&gt;estado -->
<g id="edge1" class="edge">
<title>valetas:w&#45;&gt;estado:e</title>
<path fill="none" stroke="#000000" d="M140.987,-228.3448C123.1778,-218.5528 121.6206,-190.7 95,-190.7"/>
<polygon fill="#000000" stroke="#000000" points="147.2199,-229.8371 154.1617,-235.201 151.11,-230.7686 155,-231.7 155,-231.7 155,-231.7 151.11,-230.7686 155.8383,-228.199 147.2199,-229.8371 147.2199,-229.8371"/>
<ellipse fill="none" stroke="#000000" cx="144.1079" cy="-229.092" rx="3.2" ry="3.2"/>
</g>
<!-- estradas -->
<g id="node3" class="node">
<title>estradas</title>
<g id="a_node3"><a xlink:href="../../tables/estradas.html" xlink:title="estradas" target="_top">
<polygon fill="#ffffff" stroke="transparent" points="13.5,-350.2 13.5,-433.2 98.5,-433.2 98.5,-350.2 13.5,-350.2"/>
<polygon fill="#f5f5f5" stroke="transparent" points="14,-409.7 14,-432.7 99,-432.7 99,-409.7 14,-409.7"/>
<polygon fill="none" stroke="#000000" points="14,-409.7 14,-432.7 99,-432.7 99,-409.7 14,-409.7"/>
<text text-anchor="start" x="18.9108" y="-418.8" font-family="Helvetica,sans-Serif" font-weight="bold" font-size="11.00" fill="#000000">estradas</text>
<text text-anchor="start" x="64.5219" y="-417.8" font-family="Helvetica,sans-Serif" font-size="11.00" fill="#000000">[table]</text>
<polygon fill="none" stroke="#000000" points="14,-387.7 14,-409.7 99,-409.7 99,-387.7 14,-387.7"/>
<image xlink:href="../../images/primaryKeys.png" width="11px" height="12px" preserveAspectRatio="xMinYMin meet" x="19" y="-404.7"/>
<text text-anchor="start" x="41" y="-394.8" font-family="Helvetica,sans-Serif" font-size="11.00" fill="#000000">id</text>
<polygon fill="none" stroke="#000000" points="14,-368.7 14,-387.7 99,-387.7 99,-368.7 14,-368.7"/>
<text text-anchor="start" x="17" y="-374.8" font-family="Helvetica,sans-Serif" font-size="11.00" fill="#000000">...</text>
<polygon fill="#ffffff" stroke="transparent" points="14,-349.7 14,-368.7 33,-368.7 33,-349.7 14,-349.7"/>
<polygon fill="none" stroke="#000000" points="14,-349.7 14,-368.7 33,-368.7 33,-349.7 14,-349.7"/>
<text text-anchor="start" x="17" y="-355.8" font-family="Helvetica,sans-Serif" font-size="11.00" fill="#000000"> &#160;</text>
<polygon fill="#ffffff" stroke="transparent" points="33,-349.7 33,-368.7 74,-368.7 74,-349.7 33,-349.7"/>
<polygon fill="none" stroke="#000000" points="33,-349.7 33,-368.7 74,-368.7 74,-349.7 33,-349.7"/>
<text text-anchor="start" x="38.6105" y="-355.8" font-family="Helvetica,sans-Serif" font-size="11.00" fill="#000000">0 rows</text>
<polygon fill="#ffffff" stroke="transparent" points="74,-349.7 74,-368.7 99,-368.7 99,-349.7 74,-349.7"/>
<polygon fill="none" stroke="#000000" points="74,-349.7 74,-368.7 99,-368.7 99,-349.7 74,-349.7"/>
<text text-anchor="start" x="80.4053" y="-355.8" font-family="Helvetica,sans-Serif" font-size="11.00" fill="#000000">7 &gt;</text>
</a>
</g>
</g>
<!-- valetas&#45;&gt;estradas -->
<g id="edge2" class="edge">
<title>valetas:w&#45;&gt;estradas:e</title>
<path fill="none" stroke="#000000" d="M140.7246,-278.99C106.2755,-298.5504 153.2,-398.7 99,-398.7"/>
<polygon fill="#000000" stroke="#000000" points="147.2043,-277.4966 155.8085,-279.208 151.1022,-276.5983 155,-275.7 155,-275.7 155,-275.7 151.1022,-276.5983 154.1915,-272.192 147.2043,-277.4966 147.2043,-277.4966"/>
<ellipse fill="none" stroke="#000000" cx="144.0861" cy="-278.2153" rx="3.2" ry="3.2"/>
</g>
<!-- lado -->
<g id="node4" class="node">
<title>lado</title>
<g id="a_node4"><a xlink:href="../../tables/lado.html" xlink:title="lado" target="_top">
<polygon fill="#ffffff" stroke="transparent" points="17.5,-38.2 17.5,-121.2 94.5,-121.2 94.5,-38.2 17.5,-38.2"/>
<polygon fill="#f5f5f5" stroke="transparent" points="18,-97.7 18,-120.7 95,-120.7 95,-97.7 18,-97.7"/>
<polygon fill="none" stroke="#000000" points="18,-97.7 18,-120.7 95,-120.7 95,-97.7 18,-97.7"/>
<text text-anchor="start" x="23" y="-106.8" font-family="Helvetica,sans-Serif" font-weight="bold" font-size="11.00" fill="#000000">lado</text>
<text text-anchor="start" x="60.0437" y="-105.8" font-family="Helvetica,sans-Serif" font-size="11.00" fill="#000000">[table]</text>
<polygon fill="none" stroke="#000000" points="18,-75.7 18,-97.7 95,-97.7 95,-75.7 18,-75.7"/>
<image xlink:href="../../images/primaryKeys.png" width="11px" height="12px" preserveAspectRatio="xMinYMin meet" x="23" y="-92.7"/>
<text text-anchor="start" x="38" y="-82.8" font-family="Helvetica,sans-Serif" font-size="11.00" fill="#000000">id</text>
<polygon fill="none" stroke="#000000" points="18,-56.7 18,-75.7 95,-75.7 95,-56.7 18,-56.7"/>
<text text-anchor="start" x="21" y="-62.8" font-family="Helvetica,sans-Serif" font-size="11.00" fill="#000000">...</text>
<polygon fill="#ffffff" stroke="transparent" points="18,-37.7 18,-56.7 33,-56.7 33,-37.7 18,-37.7"/>
<polygon fill="none" stroke="#000000" points="18,-37.7 18,-56.7 33,-56.7 33,-37.7 18,-37.7"/>
<text text-anchor="start" x="21" y="-43.8" font-family="Helvetica,sans-Serif" font-size="11.00" fill="#000000"> &#160;</text>
<polygon fill="#ffffff" stroke="transparent" points="33,-37.7 33,-56.7 72,-56.7 72,-37.7 33,-37.7"/>
<polygon fill="none" stroke="#000000" points="33,-37.7 33,-56.7 72,-56.7 72,-37.7 33,-37.7"/>
<text text-anchor="start" x="36.6105" y="-43.8" font-family="Helvetica,sans-Serif" font-size="11.00" fill="#000000">0 rows</text>
<polygon fill="#ffffff" stroke="transparent" points="72,-37.7 72,-56.7 95,-56.7 95,-37.7 72,-37.7"/>
<polygon fill="none" stroke="#000000" points="72,-37.7 72,-56.7 95,-56.7 95,-37.7 72,-37.7"/>
<text text-anchor="start" x="76.4053" y="-43.8" font-family="Helvetica,sans-Serif" font-size="11.00" fill="#000000">4 &gt;</text>
</a>
</g>
</g>
<!-- valetas&#45;&gt;lado -->
<g id="edge3" class="edge">
<title>valetas:w&#45;&gt;lado:e</title>
<path fill="none" stroke="#000000" d="M140.9207,-206.6595C104.6586,-187.7186 150.1217,-86.7 95,-86.7"/>
<polygon fill="#000000" stroke="#000000" points="147.1803,-208.0113 154.2401,-213.2189 151.0901,-208.8556 155,-209.7 155,-209.7 155,-209.7 151.0901,-208.8556 155.7599,-206.1811 147.1803,-208.0113 147.1803,-208.0113"/>
<ellipse fill="none" stroke="#000000" cx="144.0524" cy="-207.3358" rx="3.2" ry="3.2"/>
</g>
<!-- tipo_valeta -->
<g id="node5" class="node">
<title>tipo_valeta</title>
<g id="a_node5"><a xlink:href="../../tables/tipo_valeta.html" xlink:title="tipo_valeta" target="_top">
<polygon fill="#ffffff" stroke="transparent" points="8,-246.2 8,-329.2 104,-329.2 104,-246.2 8,-246.2"/>
<polygon fill="#f5f5f5" stroke="transparent" points="8,-305.7 8,-328.7 104,-328.7 104,-305.7 8,-305.7"/>
<polygon fill="none" stroke="#000000" points="8,-305.7 8,-328.7 104,-328.7 104,-305.7 8,-305.7"/>
<text text-anchor="start" x="12.9075" y="-314.8" font-family="Helvetica,sans-Serif" font-weight="bold" font-size="11.00" fill="#000000">tipo_valeta</text>
<text text-anchor="start" x="69.5219" y="-313.8" font-family="Helvetica,sans-Serif" font-size="11.00" fill="#000000">[table]</text>
<polygon fill="none" stroke="#000000" points="8,-283.7 8,-305.7 104,-305.7 104,-283.7 8,-283.7"/>
<image xlink:href="../../images/primaryKeys.png" width="11px" height="12px" preserveAspectRatio="xMinYMin meet" x="13" y="-300.7"/>
<text text-anchor="start" x="33" y="-290.8" font-family="Helvetica,sans-Serif" font-size="11.00" fill="#000000">id</text>
<polygon fill="none" stroke="#000000" points="8,-264.7 8,-283.7 104,-283.7 104,-264.7 8,-264.7"/>
<text text-anchor="start" x="11" y="-270.8" font-family="Helvetica,sans-Serif" font-size="11.00" fill="#000000">...</text>
<polygon fill="#ffffff" stroke="transparent" points="8,-245.7 8,-264.7 32,-264.7 32,-245.7 8,-245.7"/>
<polygon fill="none" stroke="#000000" points="8,-245.7 8,-264.7 32,-264.7 32,-245.7 8,-245.7"/>
<text text-anchor="start" x="11" y="-251.8" font-family="Helvetica,sans-Serif" font-size="11.00" fill="#000000"> &#160;</text>
<polygon fill="#ffffff" stroke="transparent" points="32,-245.7 32,-264.7 76,-264.7 76,-245.7 32,-245.7"/>
<polygon fill="none" stroke="#000000" points="32,-245.7 32,-264.7 76,-264.7 76,-245.7 32,-245.7"/>
<text text-anchor="start" x="40.6105" y="-251.8" font-family="Helvetica,sans-Serif" font-size="11.00" fill="#000000">0 rows</text>
<polygon fill="#ffffff" stroke="transparent" points="76,-245.7 76,-264.7 104,-264.7 104,-245.7 76,-245.7"/>
<polygon fill="none" stroke="#000000" points="76,-245.7 76,-264.7 104,-264.7 104,-245.7 76,-245.7"/>
<text text-anchor="start" x="85.4053" y="-251.8" font-family="Helvetica,sans-Serif" font-size="11.00" fill="#000000">1 &gt;</text>
</a>
</g>
</g>
<!-- valetas&#45;&gt;tipo_valeta -->
<g id="edge4" class="edge">
<title>valetas:w&#45;&gt;tipo_valeta:e</title>
<path fill="none" stroke="#000000" d="M141.1568,-258.0877C127.3325,-268.6646 127.1756,-294.7 104,-294.7"/>
<polygon fill="#000000" stroke="#000000" points="147.3739,-256.1172 156.0877,-257.1317 151.1869,-254.9086 155,-253.7 155,-253.7 155,-253.7 151.1869,-254.9086 153.9123,-250.2683 147.3739,-256.1172 147.3739,-256.1172"/>
<ellipse fill="none" stroke="#000000" cx="144.3235" cy="-257.0841" rx="3.2" ry="3.2"/>
</g>
</g>
</svg>
